G04 ================== begin FILE IDENTIFICATION RECORD ==================*
G04 Layout Name:  LAY-26248_B.brd*
G04 Film Name:    PSS.art*
G04 File Format:  Gerber RS274X*
G04 File Origin:  Cadence Allegro 16.2-s019*
G04 Origin Date:  Thu Jan 21 10:44:29 2010*
G04 *
G04 Layer:  REF DES/SILKSCREEN_TOP*
G04 Layer:  PACKAGE GEOMETRY/SILKSCREEN_TOP*
G04 Layer:  DRAWING FORMAT/FILM_TITLE_BLOCK*
G04 Layer:  BOARD GEOMETRY/OUTLINE*
G04 Layer:  BOARD GEOMETRY/SILKSCREEN_TOP*
G04 *
G04 Offset:    (0.00 0.00)*
G04 Mirror:    No*
G04 Mode:      Positive*
G04 Rotation:  0*
G04 FullContactRelief:  No*
G04 UndefLineWidth:     8.00*
G04 ================== end FILE IDENTIFICATION RECORD ====================*
%FSLAX55Y55*MOIN*%
%IR0*IPPOS*OFA0.00000B0.00000*MIA0B0*SFA1.00000B1.00000*%
%ADD10C,.01*%
%ADD11C,.02*%
%ADD12C,.008*%
%ADD13C,.006*%
%ADD14C,.007*%
%ADD15C,.0079*%
%ADD16C,.00598*%
G75*
%LPD*%
G75*
G36*
G01X7071Y184724D02*
G03I0J276D01*
G37*
G36*
G01X1000Y217473D02*
X279261D01*
Y225704D01*
X1000D01*
Y217473D01*
G37*
G36*
G01X10911Y226595D02*
G02I-830J0D01*
G37*
G36*
G01X38558Y-41624D02*
G02I-830J0D01*
G37*
G36*
G01X58996Y199276D02*
G03I0J-276D01*
G37*
G36*
G01X50390Y226644D02*
G02I-830J0D01*
G37*
G36*
G01X85802Y-41624D02*
G02I-830J0D01*
G37*
G36*
G01X86578Y7621D02*
X94612Y12418D01*
X89698Y14992D01*
X81664Y10156D01*
X86578Y7621D01*
G37*
G36*
G01X93949Y3760D02*
X101983Y8596D01*
X97069Y11131D01*
X89074Y6334D01*
X93949Y3760D01*
G37*
G36*
G01X75541Y991D02*
X83575Y5788D01*
X78661Y8323D01*
X70627Y3526D01*
X75541Y991D01*
G37*
G36*
G01X82912Y-2870D02*
X90946Y1966D01*
X86032Y4501D01*
X78037Y-296D01*
X82912Y-2870D01*
G37*
G36*
G01X71875Y-9500D02*
X79909Y-4703D01*
X74995Y-2129D01*
X67000Y-6926D01*
X71875Y-9500D01*
G37*
G36*
G01X82873Y21934D02*
X90868Y26731D01*
X85954Y29266D01*
X77959Y24469D01*
X82873Y21934D01*
G37*
G36*
G01X90244Y18073D02*
X98239Y22909D01*
X93364Y25444D01*
X85330Y20647D01*
X90244Y18073D01*
G37*
G36*
G01X89678Y226644D02*
G02I-830J0D01*
G37*
G36*
G01X97615Y14251D02*
X105610Y19048D01*
X100735Y21622D01*
X92701Y16786D01*
X97615Y14251D01*
G37*
G36*
G01X111276Y207004D02*
G03I-276J0D01*
G37*
G36*
G01X125172Y-41624D02*
G02I-830J0D01*
G37*
G36*
G01X129094Y226613D02*
G02I-830J0D01*
G37*
G36*
G01X164542Y-41624D02*
G02I-830J0D01*
G37*
G36*
G01X168477Y226613D02*
G02I-829J0D01*
G37*
G36*
G01X203912Y-41624D02*
G02I-829J0D01*
G37*
G36*
G01X207798Y226644D02*
G02I-830J0D01*
G37*
G36*
G01X243283Y-41624D02*
G02I-830J0D01*
G37*
G36*
G01X247118Y226676D02*
G02I-830J0D01*
G37*
G36*
G01X282653Y-41624D02*
G02I-830J0D01*
G37*
G36*
G01X288214Y217473D02*
X325907D01*
Y225704D01*
X288214D01*
Y217473D01*
G37*
G36*
G01X294503Y226581D02*
G02I-830J0D01*
G37*
G36*
G01X322023Y-41624D02*
G02I-830J0D01*
G37*
G54D10*
G01X-26933Y-190000D02*
X373067D01*
G01X-26933Y-160000D02*
Y-140000D01*
X373067D01*
G01X23067Y-210000D02*
Y-190000D01*
G01X16500Y190000D02*
X41300D01*
X29000Y214900D01*
X16400Y190000D01*
G01X41600D02*
X22600Y202200D01*
G01X75250Y158742D02*
G03Y163742I0J2500D01*
G01X148567Y-210000D02*
Y-190000D01*
G01X148067Y-140000D02*
Y-110000D01*
G01X198067Y-210000D02*
Y-190000D01*
G54D11*
G01X373067Y-110000D02*
Y-210000D01*
X-26933D01*
G01D02*
Y-110000D01*
X373067D01*
G54D12*
G01X287779Y220892D02*
G02X279905I-3937J-217D01*
G01Y249032D01*
X278921Y250016D01*
Y250019D01*
X1362D01*
X378Y249032D01*
Y207460D01*
X-606Y206476D01*
X-11433D01*
Y-26556D01*
X-606D01*
X378Y-27540D01*
Y-66516D01*
X1362Y-67500D01*
X42701D01*
X43685Y-66516D01*
Y-38373D01*
G02X51559I3937J217D01*
G01Y-66516D01*
X52543Y-67500D01*
X330102D01*
X331086Y-66516D01*
Y-24941D01*
X332071Y-23957D01*
X342897D01*
Y209074D01*
X332071D01*
X331086Y210059D01*
Y249032D01*
X330102Y250019D01*
X288764D01*
X287779Y249032D01*
Y220892D01*
G01X19567Y140000D02*
Y137500D01*
X44567D01*
Y140000D01*
G01X36200Y199300D02*
G03X33800Y198200I0J-3168D01*
G02X33100Y197600I-2331J2011D01*
G01X29500Y196400D01*
G03X27000Y194000I0J-2502D01*
G02X26100Y193700I-572J217D01*
G01X26000Y193900D01*
G02X26100Y195600I1530J763D01*
G02X26800Y196600I17462J-11479D01*
G02X28800Y197800I2459J-1832D01*
G01X34900Y202500D02*
G03X34200Y202400I0J-2500D01*
G02X33600Y202300I-720J2469D01*
G02X32100I-750J16061D01*
G02X29600Y202700I529J11319D01*
G03X25700Y201900I-1168J-4210D01*
G03X25200Y201200I987J-1234D01*
G02X24500Y200400I-1358J482D01*
G01X24000Y200000D01*
X23400Y199500D01*
G03X22800Y198400I1090J-1308D01*
G01Y198300D01*
X22900Y197900D01*
X23000Y197300D01*
X23100Y196500D01*
Y195200D01*
G03X23800Y193500I2414J0D01*
G03X24600Y194100I350J367D01*
G01X24300Y194700D01*
X24500Y196100D01*
G03X24400Y196900I-1511J217D01*
G02X24100Y197700I13600J5556D01*
G01X24700Y197800D01*
G03X25200Y198000I-207J1242D01*
G03X26700Y199100I-15546J22772D01*
G01X19567Y170000D02*
Y172500D01*
X44567D01*
Y170000D01*
G01X63400Y-25000D02*
G02I-3900J0D01*
G01X61000Y-23500D02*
G03X61500Y-26000I-1500J-1600D01*
G01X75250Y140742D02*
Y158742D01*
G01X149650Y181742D02*
Y140742D01*
G54D13*
G01X-21071Y-201750D02*
X-20601Y-201120D01*
X-20053Y-200805D01*
X-19426Y-200700D01*
X-18643Y-200910D01*
X-18095Y-201435D01*
X-17938Y-202065D01*
X-18016Y-202695D01*
X-18330Y-203220D01*
X-19896Y-204270D01*
X-20601Y-205005D01*
X-21071Y-206055D01*
X-21228Y-207000D01*
X-17938D01*
G01X-6983D02*
X-7610Y-206895D01*
X-8158Y-206475D01*
X-8628Y-205845D01*
X-8941Y-205110D01*
X-9098Y-204270D01*
Y-203430D01*
X-8941Y-202590D01*
X-8628Y-201855D01*
X-8158Y-201225D01*
X-7610Y-200805D01*
X-6983Y-200700D01*
X-6356Y-200805D01*
X-5808Y-201225D01*
X-5338Y-201855D01*
X-5025Y-202590D01*
X-4868Y-203430D01*
Y-204270D01*
X-5025Y-205110D01*
X-5338Y-205845D01*
X-5808Y-206475D01*
X-6356Y-206895D01*
X-6983Y-207000D01*
G01X-2171D02*
Y-200700D01*
X805D01*
G01X-291Y-203745D02*
X-2171D01*
G01X11917Y-207000D02*
Y-200700D01*
X10977Y-201960D01*
G01Y-207000D02*
X12857D01*
G01X18217Y-200700D02*
X17590Y-200910D01*
X17120Y-201435D01*
X16807Y-202065D01*
X16572Y-202905D01*
X16494Y-203850D01*
X16572Y-204795D01*
X16807Y-205635D01*
X17120Y-206265D01*
X17590Y-206790D01*
X18217Y-207000D01*
X18844Y-206790D01*
X19314Y-206265D01*
X19627Y-205635D01*
X19862Y-204795D01*
X19940Y-203850D01*
X19862Y-202905D01*
X19627Y-202065D01*
X19314Y-201435D01*
X18844Y-200910D01*
X18217Y-200700D01*
G01X-23906Y-122000D02*
Y-114500D01*
X-20360D01*
G01X-21666Y-118125D02*
X-23906D01*
G01X-16500Y-122000D02*
Y-114500D01*
X-14166D01*
X-13420Y-114875D01*
X-12953Y-115375D01*
X-12766Y-116375D01*
X-12953Y-117375D01*
X-13513Y-118000D01*
X-14166Y-118375D01*
X-16500D01*
G01X-14166D02*
X-12766Y-122000D01*
G01X-5266D02*
X-9000D01*
Y-114500D01*
X-5266D01*
G01X-6760Y-118125D02*
X-9000D01*
G01X2234Y-122000D02*
X-1500D01*
Y-114500D01*
X2234D01*
G01X740Y-118125D02*
X-1500D01*
G01X5907Y-121000D02*
X6654Y-121625D01*
X7494Y-122000D01*
X8240D01*
X8987Y-121625D01*
X9547Y-121000D01*
X9827Y-120125D01*
X9640Y-119250D01*
X9174Y-118500D01*
X8334Y-118000D01*
X7214Y-117750D01*
X6560Y-117250D01*
X6280Y-116375D01*
X6467Y-115500D01*
X6934Y-114875D01*
X7587Y-114500D01*
X8240D01*
X8894Y-114750D01*
X9454Y-115375D01*
G01X17420Y-115125D02*
X16860Y-114750D01*
X16207Y-114500D01*
X15460D01*
X14620Y-114875D01*
X13967Y-115500D01*
X13500Y-116250D01*
X13127Y-117500D01*
X13034Y-118625D01*
X13220Y-119750D01*
X13500Y-120500D01*
X14060Y-121250D01*
X14714Y-121750D01*
X15367Y-122000D01*
X16020D01*
X16674Y-121750D01*
X17234Y-121375D01*
X17700Y-120875D01*
G01X20534Y-122000D02*
X22867Y-114500D01*
X25200Y-122000D01*
G01X24360Y-119375D02*
X21374D01*
G01X28500Y-114500D02*
Y-122000D01*
X32234D01*
G01X39734D02*
X36000D01*
Y-114500D01*
X39734D01*
G01X38240Y-118125D02*
X36000D01*
G01X50907Y-121000D02*
X51654Y-121625D01*
X52494Y-122000D01*
X53240D01*
X53987Y-121625D01*
X54547Y-121000D01*
X54827Y-120125D01*
X54640Y-119250D01*
X54174Y-118500D01*
X53334Y-118000D01*
X52214Y-117750D01*
X51560Y-117250D01*
X51280Y-116375D01*
X51467Y-115500D01*
X51934Y-114875D01*
X52587Y-114500D01*
X53240D01*
X53894Y-114750D01*
X54454Y-115375D01*
G01X62234Y-122000D02*
X58500D01*
Y-114500D01*
X62234D01*
G01X60740Y-118125D02*
X58500D01*
G01X65440Y-122000D02*
Y-114500D01*
X67867Y-120750D01*
X70294Y-114500D01*
Y-122000D01*
G01X74247Y-114500D02*
X76487D01*
G01X75367D02*
Y-122000D01*
G01X74247D02*
X76487D01*
G01X84920Y-115125D02*
X84360Y-114750D01*
X83707Y-114500D01*
X82960D01*
X82120Y-114875D01*
X81467Y-115500D01*
X81000Y-116250D01*
X80627Y-117500D01*
X80534Y-118625D01*
X80720Y-119750D01*
X81000Y-120500D01*
X81560Y-121250D01*
X82214Y-121750D01*
X82867Y-122000D01*
X83520D01*
X84174Y-121750D01*
X84734Y-121375D01*
X85200Y-120875D01*
G01X90367Y-122000D02*
X89620Y-121875D01*
X88967Y-121375D01*
X88407Y-120625D01*
X88034Y-119750D01*
X87847Y-118750D01*
Y-117750D01*
X88034Y-116750D01*
X88407Y-115875D01*
X88967Y-115125D01*
X89620Y-114625D01*
X90367Y-114500D01*
X91114Y-114625D01*
X91767Y-115125D01*
X92327Y-115875D01*
X92700Y-116750D01*
X92887Y-117750D01*
Y-118750D01*
X92700Y-119750D01*
X92327Y-120625D01*
X91767Y-121375D01*
X91114Y-121875D01*
X90367Y-122000D01*
G01X95720D02*
Y-114500D01*
X100014Y-122000D01*
Y-114500D01*
G01X103314Y-122000D02*
Y-114500D01*
X105180D01*
X105927Y-114875D01*
X106487Y-115375D01*
X106954Y-116125D01*
X107327Y-117000D01*
X107420Y-118250D01*
X107327Y-119500D01*
X106954Y-120375D01*
X106487Y-121125D01*
X105927Y-121625D01*
X105180Y-122000D01*
X103314D01*
G01X110814Y-114500D02*
Y-119875D01*
X111187Y-121000D01*
X111934Y-121750D01*
X112867Y-122000D01*
X113800Y-121750D01*
X114547Y-121000D01*
X114920Y-119875D01*
Y-114500D01*
G01X122420Y-115125D02*
X121860Y-114750D01*
X121207Y-114500D01*
X120460D01*
X119620Y-114875D01*
X118967Y-115500D01*
X118500Y-116250D01*
X118127Y-117500D01*
X118034Y-118625D01*
X118220Y-119750D01*
X118500Y-120500D01*
X119060Y-121250D01*
X119714Y-121750D01*
X120367Y-122000D01*
X121020D01*
X121674Y-121750D01*
X122234Y-121375D01*
X122700Y-120875D01*
G01X127867Y-114500D02*
Y-122000D01*
G01X125720Y-114500D02*
X130014D01*
G01X135367Y-122000D02*
X134620Y-121875D01*
X133967Y-121375D01*
X133407Y-120625D01*
X133034Y-119750D01*
X132847Y-118750D01*
Y-117750D01*
X133034Y-116750D01*
X133407Y-115875D01*
X133967Y-115125D01*
X134620Y-114625D01*
X135367Y-114500D01*
X136114Y-114625D01*
X136767Y-115125D01*
X137327Y-115875D01*
X137700Y-116750D01*
X137887Y-117750D01*
Y-118750D01*
X137700Y-119750D01*
X137327Y-120625D01*
X136767Y-121375D01*
X136114Y-121875D01*
X135367Y-122000D01*
G01X141000D02*
Y-114500D01*
X143334D01*
X144080Y-114875D01*
X144547Y-115375D01*
X144734Y-116375D01*
X144547Y-117375D01*
X143987Y-118000D01*
X143334Y-118375D01*
X141000D01*
G01X143334D02*
X144734Y-122000D01*
G01X-5258Y-8250D02*
X-4908Y-7900D01*
X-4500Y-7725D01*
X-4033Y-7667D01*
X-3450Y-7784D01*
X-3042Y-8075D01*
X-2925Y-8425D01*
X-2983Y-8775D01*
X-3217Y-9067D01*
X-4383Y-9650D01*
X-4908Y-10059D01*
X-5258Y-10642D01*
X-5375Y-11167D01*
X-2925D01*
G01X150D02*
Y-7667D01*
X-550Y-8367D01*
G01Y-11167D02*
X850D01*
G01X-5700Y-700D02*
Y-5700D01*
X15700D01*
Y-700D01*
G01X-6700Y35525D02*
X-6408Y35992D01*
X-6233Y36517D01*
Y36983D01*
X-6408Y37450D01*
X-6700Y37800D01*
X-7108Y37975D01*
X-7516Y37858D01*
X-7866Y37567D01*
X-8100Y37042D01*
X-8216Y36342D01*
X-8450Y35933D01*
X-8858Y35758D01*
X-9266Y35875D01*
X-9558Y36167D01*
X-9733Y36575D01*
Y36983D01*
X-9616Y37392D01*
X-9325Y37742D01*
G01X-6233Y39883D02*
X-9733D01*
Y41283D01*
X-9558Y41750D01*
X-9150Y42100D01*
X-8683Y42217D01*
X-8216Y42100D01*
X-7866Y41808D01*
X-7691Y41283D01*
Y39883D01*
G01X-6233Y43892D02*
X-9733Y45350D01*
X-6233Y46808D01*
G01X-7458Y46283D02*
Y44417D01*
G01X-6233Y48483D02*
X-9733D01*
Y49942D01*
X-9558Y50408D01*
X-9325Y50700D01*
X-8858Y50817D01*
X-8391Y50700D01*
X-8100Y50350D01*
X-7925Y49942D01*
Y48483D01*
G01Y49942D02*
X-6233Y50817D01*
G01Y55117D02*
Y52783D01*
X-9733D01*
Y55117D01*
G01X-8041Y54183D02*
Y52783D01*
G01X-7400Y57492D02*
Y59008D01*
G01X-9733Y61850D02*
Y63250D01*
G01Y62550D02*
X-6233D01*
G01Y61850D02*
Y63250D01*
G01Y66850D02*
X-6291Y66383D01*
X-6525Y65975D01*
X-6875Y65625D01*
X-7283Y65392D01*
X-7750Y65275D01*
X-8216D01*
X-8683Y65392D01*
X-9091Y65625D01*
X-9441Y65975D01*
X-9675Y66383D01*
X-9733Y66850D01*
X-9675Y67317D01*
X-9441Y67725D01*
X-9091Y68075D01*
X-8683Y68308D01*
X-8216Y68425D01*
X-7750D01*
X-7283Y68308D01*
X-6875Y68075D01*
X-6525Y67725D01*
X-6291Y67317D01*
X-6233Y66850D01*
G01X-8550Y98500D02*
Y102000D01*
X-9250Y101300D01*
G01Y98500D02*
X-7850D01*
G01X-10317Y106533D02*
X-10025Y106183D01*
X-9675Y105950D01*
X-9267Y105833D01*
X-8800Y105950D01*
X-8450Y106183D01*
X-8100Y106533D01*
X-7983Y107000D01*
Y109333D01*
G01X-5842Y106241D02*
X-5433Y105950D01*
X-4967Y105833D01*
X-4500Y105950D01*
X-4092Y106300D01*
X-3800Y106825D01*
X-3683Y107350D01*
Y107991D01*
X-3800Y108516D01*
X-4092Y108983D01*
X-4442Y109216D01*
X-4850Y109333D01*
X-5317Y109216D01*
X-5667Y108983D01*
X-5900Y108633D01*
X-6017Y108166D01*
X-5900Y107758D01*
X-5608Y107350D01*
X-5258Y107116D01*
X-4850Y107058D01*
X-4383Y107175D01*
X-4033Y107466D01*
X-3683Y107991D01*
G01X-5700Y100700D02*
Y102747D01*
X-2747Y105700D01*
X15700D01*
Y100700D01*
G01X-7533Y132633D02*
X-7183Y132925D01*
X-6950Y133275D01*
X-6833Y133683D01*
X-6950Y134150D01*
X-7183Y134500D01*
X-7533Y134850D01*
X-8000Y134967D01*
X-10333D01*
G01Y138100D02*
X-6833D01*
G01X-10333Y136758D02*
Y139442D01*
G01X-6833Y140942D02*
X-10333Y142400D01*
X-6833Y143858D01*
G01X-8058Y143333D02*
Y141467D01*
G01X-8583Y147050D02*
Y148217D01*
X-7533D01*
X-7183Y147867D01*
X-6950Y147458D01*
X-6833Y146875D01*
X-6950Y146292D01*
X-7183Y145883D01*
X-7533Y145533D01*
X-7941Y145300D01*
X-8408Y145183D01*
X-8816D01*
X-9166Y145300D01*
X-9575Y145533D01*
X-9925Y145883D01*
X-10158Y146233D01*
X-10333Y146700D01*
Y147108D01*
X-10216Y147575D01*
X-9983Y147925D01*
G01X-8000Y150242D02*
Y151758D01*
G01X-8700Y155767D02*
X-8875Y156000D01*
X-9166Y156175D01*
X-9575Y156292D01*
X-9925Y156175D01*
X-10158Y155942D01*
X-10333Y155533D01*
Y153958D01*
X-6833D01*
Y155883D01*
X-7066Y156292D01*
X-7416Y156525D01*
X-7825Y156642D01*
X-8233Y156525D01*
X-8583Y156175D01*
X-8700Y155767D01*
Y153958D01*
G01X-10333Y158433D02*
X-6833D01*
Y160767D01*
G01X-7300Y162675D02*
X-7008Y163142D01*
X-6833Y163667D01*
Y164133D01*
X-7008Y164600D01*
X-7300Y164950D01*
X-7708Y165125D01*
X-8116Y165008D01*
X-8466Y164717D01*
X-8700Y164192D01*
X-8816Y163492D01*
X-9050Y163083D01*
X-9458Y162908D01*
X-9866Y163025D01*
X-10158Y163317D01*
X-10333Y163725D01*
Y164133D01*
X-10216Y164542D01*
X-9925Y164892D01*
G01X-10333Y168200D02*
X-6833D01*
G01X-10333Y166858D02*
Y169542D01*
G01X-9133Y117493D02*
X-3633D01*
G01X-6633Y114993D02*
Y111493D01*
G01Y117493D02*
X-9133Y114993D01*
X-4133D01*
X-6633Y117493D01*
Y120493D01*
G01X-2333Y109843D02*
Y121193D01*
X3067D01*
Y109793D01*
X-2333D01*
G01X-9992Y126241D02*
X-9583Y125950D01*
X-9117Y125833D01*
X-8650Y125950D01*
X-8242Y126300D01*
X-7950Y126825D01*
X-7833Y127350D01*
Y127991D01*
X-7950Y128516D01*
X-8242Y128983D01*
X-8592Y129216D01*
X-9000Y129333D01*
X-9467Y129216D01*
X-9817Y128983D01*
X-10050Y128633D01*
X-10167Y128166D01*
X-10050Y127758D01*
X-9758Y127350D01*
X-9408Y127116D01*
X-9000Y127058D01*
X-8533Y127175D01*
X-8183Y127466D01*
X-7833Y127991D01*
G01X-5933Y130000D02*
Y124500D01*
X15067D01*
Y130000D01*
G01X-5933D02*
Y173300D01*
X-3733Y175500D01*
X15067D01*
Y130000D01*
G01X-5583Y194033D02*
X-5233Y193625D01*
X-4767Y193391D01*
X-4242Y193333D01*
X-3775Y193391D01*
X-3308Y193683D01*
X-3017Y194033D01*
X-2958Y194383D01*
X-3075Y194791D01*
X-3483Y195083D01*
X-3892Y195200D01*
X-4417D01*
G01X-3892D02*
X-3542Y195375D01*
X-3250Y195666D01*
X-3133Y196016D01*
X-3250Y196366D01*
X-3542Y196658D01*
X-4067Y196833D01*
X-4592Y196775D01*
X-5117Y196541D01*
G01X-1458Y196833D02*
X0Y193333D01*
X1458Y196833D01*
G01X3017Y194033D02*
X3367Y193625D01*
X3833Y193391D01*
X4358Y193333D01*
X4825Y193391D01*
X5292Y193683D01*
X5583Y194033D01*
X5642Y194383D01*
X5525Y194791D01*
X5117Y195083D01*
X4708Y195200D01*
X4183D01*
G01X4708D02*
X5058Y195375D01*
X5350Y195666D01*
X5467Y196016D01*
X5350Y196366D01*
X5058Y196658D01*
X4533Y196833D01*
X4008Y196775D01*
X3483Y196541D01*
G01X-9933Y188000D02*
X-4433D01*
G01X-7433Y185500D02*
Y182000D01*
G01Y188000D02*
X-9933Y185500D01*
X-4933D01*
X-7433Y188000D01*
Y191000D01*
G01X-3133Y179850D02*
Y191200D01*
X2267D01*
Y179800D01*
X-3133D01*
G01X-8000Y170833D02*
Y174333D01*
X-8700Y173633D01*
G01Y170833D02*
X-7300D01*
G01X-3433Y198333D02*
Y201833D01*
X-2267D01*
X-1800Y201658D01*
X-1450Y201425D01*
X-1158Y201075D01*
X-925Y200666D01*
X-867Y200083D01*
X-925Y199500D01*
X-1158Y199091D01*
X-1450Y198741D01*
X-1800Y198508D01*
X-2267Y198333D01*
X-3433D01*
G01X2150D02*
Y201833D01*
X1450Y201133D01*
G01Y198333D02*
X2850D01*
G01X3724Y-42963D02*
X614D01*
Y-42203D01*
X770Y-41899D01*
X977Y-41671D01*
X1288Y-41481D01*
X1651Y-41329D01*
X2169Y-41291D01*
X2687Y-41329D01*
X3050Y-41481D01*
X3361Y-41671D01*
X3569Y-41899D01*
X3724Y-42203D01*
Y-42963D01*
G01Y-39057D02*
X614D01*
X1236Y-39513D01*
G01X3724D02*
Y-38601D01*
G01X32167Y-1417D02*
X28667D01*
X31584Y100D01*
X28667Y1617D01*
X32167D01*
G01Y3233D02*
X28667D01*
Y4692D01*
X28842Y5158D01*
X29075Y5450D01*
X29542Y5567D01*
X30009Y5450D01*
X30300Y5100D01*
X30475Y4692D01*
Y3233D01*
G01Y4692D02*
X32167Y5567D01*
G01Y7242D02*
X28667Y8700D01*
X32167Y10158D01*
G01X30942Y9633D02*
Y7767D01*
G01X32167Y11483D02*
X28667D01*
X31584Y13000D01*
X28667Y14517D01*
X32167D01*
G01X31000Y16542D02*
Y18058D01*
G01X28959Y22883D02*
X28784Y22533D01*
X28667Y22125D01*
Y21658D01*
X28842Y21133D01*
X29134Y20725D01*
X29484Y20433D01*
X30067Y20200D01*
X30592Y20142D01*
X31117Y20258D01*
X31467Y20433D01*
X31817Y20783D01*
X32050Y21192D01*
X32167Y21600D01*
Y22008D01*
X32050Y22417D01*
X31875Y22767D01*
X31642Y23058D01*
G01X31700Y24675D02*
X31992Y25142D01*
X32167Y25667D01*
Y26133D01*
X31992Y26600D01*
X31700Y26950D01*
X31292Y27125D01*
X30884Y27008D01*
X30534Y26717D01*
X30300Y26192D01*
X30184Y25492D01*
X29950Y25083D01*
X29542Y24908D01*
X29134Y25025D01*
X28842Y25317D01*
X28667Y25725D01*
Y26133D01*
X28784Y26542D01*
X29075Y26892D01*
G01X6742Y-8250D02*
X7092Y-7900D01*
X7500Y-7725D01*
X7967Y-7667D01*
X8550Y-7784D01*
X8958Y-8075D01*
X9075Y-8425D01*
X9017Y-8775D01*
X8783Y-9067D01*
X7617Y-9650D01*
X7092Y-10059D01*
X6742Y-10642D01*
X6625Y-11167D01*
X9075D01*
G01X11042Y-8250D02*
X11392Y-7900D01*
X11800Y-7725D01*
X12267Y-7667D01*
X12850Y-7784D01*
X13258Y-8075D01*
X13375Y-8425D01*
X13317Y-8775D01*
X13083Y-9067D01*
X11917Y-9650D01*
X11392Y-10059D01*
X11042Y-10642D01*
X10925Y-11167D01*
X13375D01*
G01X23000Y45833D02*
Y49333D01*
X22300Y48633D01*
G01Y45833D02*
X23700D01*
G01X36271Y34300D02*
Y29300D01*
X24871D01*
Y34300D01*
G01Y45700D02*
Y50700D01*
X36271D01*
Y45700D01*
G01X23804Y54300D02*
X24096Y53950D01*
X24446Y53717D01*
X24854Y53600D01*
X25321Y53717D01*
X25671Y53950D01*
X26021Y54300D01*
X26138Y54767D01*
Y57100D01*
G01X29271Y53600D02*
Y57100D01*
X28571Y56400D01*
G01Y53600D02*
X29971D01*
G01X33571Y57100D02*
X33104Y56983D01*
X32754Y56692D01*
X32521Y56342D01*
X32346Y55875D01*
X32288Y55350D01*
X32346Y54825D01*
X32521Y54358D01*
X32754Y54008D01*
X33104Y53717D01*
X33571Y53600D01*
X34038Y53717D01*
X34388Y54008D01*
X34621Y54358D01*
X34796Y54825D01*
X34854Y55350D01*
X34796Y55875D01*
X34621Y56342D01*
X34388Y56692D01*
X34038Y56983D01*
X33571Y57100D01*
G01X20000Y73833D02*
Y77333D01*
X19300Y76633D01*
G01Y73833D02*
X20700D01*
G01X22117Y73350D02*
Y73850D01*
X30217D01*
Y73350D01*
G01Y68650D02*
Y65850D01*
G01Y61150D02*
Y60650D01*
X22117D01*
Y61150D01*
G01X23567Y81333D02*
Y78825D01*
X23800Y78300D01*
X24267Y77950D01*
X24850Y77833D01*
X25433Y77950D01*
X25900Y78300D01*
X26133Y78825D01*
Y81333D01*
G01X29850Y77833D02*
Y81333D01*
X27692Y78825D01*
X30608D01*
G01X17892Y101750D02*
X18242Y102100D01*
X18650Y102275D01*
X19117Y102333D01*
X19700Y102216D01*
X20108Y101925D01*
X20225Y101575D01*
X20167Y101225D01*
X19933Y100933D01*
X18767Y100350D01*
X18242Y99941D01*
X17892Y99358D01*
X17775Y98833D01*
X20225D01*
G01X24217Y133525D02*
X24567Y133233D01*
X24975Y133058D01*
X25500Y133000D01*
X26025Y133117D01*
X26433Y133350D01*
X26725Y133758D01*
X26783Y134225D01*
X26667Y134692D01*
X26375Y134983D01*
X25967Y135217D01*
X25558Y135275D01*
X25150Y135217D01*
X24625Y134983D01*
X24800Y136500D01*
X26375D01*
G01X31200Y124600D02*
Y128100D01*
X30500Y127400D01*
G01Y124600D02*
X31900D01*
G01X5700Y111833D02*
Y115333D01*
X5000Y114633D01*
G01Y111833D02*
X6400D01*
G01X8542Y115333D02*
X10000Y111833D01*
X11458Y115333D01*
G01X14300Y111833D02*
X14708Y111891D01*
X15175Y112066D01*
X15467Y112358D01*
X15583Y112766D01*
X15467Y113175D01*
X15117Y113525D01*
X14592Y113700D01*
X14008D01*
X13658Y113816D01*
X13367Y114108D01*
X13250Y114516D01*
X13425Y114925D01*
X13833Y115216D01*
X14300Y115333D01*
X14767Y115216D01*
X15175Y114925D01*
X15350Y114516D01*
X15233Y114108D01*
X14942Y113816D01*
X14592Y113700D01*
X14008D01*
X13483Y113525D01*
X13133Y113175D01*
X13017Y112766D01*
X13133Y112358D01*
X13425Y112066D01*
X13892Y111891D01*
X14300Y111833D01*
G01X5567Y117833D02*
Y121333D01*
X6733D01*
X7200Y121158D01*
X7550Y120925D01*
X7842Y120575D01*
X8075Y120166D01*
X8133Y119583D01*
X8075Y119000D01*
X7842Y118591D01*
X7550Y118241D01*
X7200Y118008D01*
X6733Y117833D01*
X5567D01*
G01X10042Y120750D02*
X10392Y121100D01*
X10800Y121275D01*
X11267Y121333D01*
X11850Y121216D01*
X12258Y120925D01*
X12375Y120575D01*
X12317Y120225D01*
X12083Y119933D01*
X10917Y119350D01*
X10392Y118941D01*
X10042Y118358D01*
X9925Y117833D01*
X12375D01*
G01X17850Y125833D02*
Y129333D01*
X17150Y128633D01*
G01Y125833D02*
X18550D01*
G01X22150Y129333D02*
X21683Y129216D01*
X21333Y128925D01*
X21100Y128575D01*
X20925Y128108D01*
X20867Y127583D01*
X20925Y127058D01*
X21100Y126591D01*
X21333Y126241D01*
X21683Y125950D01*
X22150Y125833D01*
X22617Y125950D01*
X22967Y126241D01*
X23200Y126591D01*
X23375Y127058D01*
X23433Y127583D01*
X23375Y128108D01*
X23200Y128575D01*
X22967Y128925D01*
X22617Y129216D01*
X22150Y129333D01*
G01X28183Y178700D02*
X28475Y178350D01*
X28825Y178117D01*
X29233Y178000D01*
X29700Y178117D01*
X30050Y178350D01*
X30400Y178700D01*
X30517Y179167D01*
Y181500D01*
G01X34350Y178000D02*
Y181500D01*
X32192Y178992D01*
X35108D01*
G01X26500Y173500D02*
Y177000D01*
X25800Y176300D01*
G01Y173500D02*
X27200D01*
G01X11083Y184000D02*
Y187500D01*
X12542D01*
X13008Y187325D01*
X13300Y187092D01*
X13417Y186625D01*
X13300Y186158D01*
X12950Y185867D01*
X12542Y185692D01*
X11083D01*
G01X12542D02*
X13417Y184000D01*
G01X15267Y184700D02*
X15617Y184292D01*
X16083Y184058D01*
X16608Y184000D01*
X17075Y184058D01*
X17542Y184350D01*
X17833Y184700D01*
X17892Y185050D01*
X17775Y185458D01*
X17367Y185750D01*
X16958Y185867D01*
X16433D01*
G01X16958D02*
X17308Y186042D01*
X17600Y186333D01*
X17717Y186683D01*
X17600Y187033D01*
X17308Y187325D01*
X16783Y187500D01*
X16258Y187442D01*
X15733Y187208D01*
G01X7067Y185500D02*
G03I0J-500D01*
G01X15892Y174750D02*
X16242Y175100D01*
X16650Y175275D01*
X17117Y175333D01*
X17700Y175216D01*
X18108Y174925D01*
X18225Y174575D01*
X18167Y174225D01*
X17933Y173933D01*
X16767Y173350D01*
X16242Y172941D01*
X15892Y172358D01*
X15775Y171833D01*
X18225D01*
G01X8683Y177533D02*
X8975Y177183D01*
X9325Y176950D01*
X9733Y176833D01*
X10200Y176950D01*
X10550Y177183D01*
X10900Y177533D01*
X11017Y178000D01*
Y180333D01*
G01X12867Y177358D02*
X13217Y177066D01*
X13625Y176891D01*
X14150Y176833D01*
X14675Y176950D01*
X15083Y177183D01*
X15375Y177591D01*
X15433Y178058D01*
X15317Y178525D01*
X15025Y178816D01*
X14617Y179050D01*
X14208Y179108D01*
X13800Y179050D01*
X13275Y178816D01*
X13450Y180333D01*
X15025D01*
G01X33850Y-207000D02*
Y-200700D01*
X35730D01*
X36357Y-201015D01*
X36827Y-201750D01*
X36984Y-202590D01*
X36827Y-203430D01*
X36435Y-204060D01*
X35730Y-204375D01*
X33850D01*
G01X40150Y-207000D02*
Y-200700D01*
X42109D01*
X42735Y-201015D01*
X43127Y-201435D01*
X43284Y-202275D01*
X43127Y-203115D01*
X42657Y-203640D01*
X42109Y-203955D01*
X40150D01*
G01X42109D02*
X43284Y-207000D01*
G01X47077Y-200700D02*
X48957D01*
G01X48017D02*
Y-207000D01*
G01X47077D02*
X48957D01*
G01X52280D02*
Y-200700D01*
X54317Y-205950D01*
X56354Y-200700D01*
Y-207000D01*
G01X58659D02*
X60617Y-200700D01*
X62575Y-207000D01*
G01X61870Y-204795D02*
X59364D01*
G01X65350Y-207000D02*
Y-200700D01*
X67309D01*
X67935Y-201015D01*
X68327Y-201435D01*
X68484Y-202275D01*
X68327Y-203115D01*
X67857Y-203640D01*
X67309Y-203955D01*
X65350D01*
G01X67309D02*
X68484Y-207000D01*
G01X73217D02*
Y-204165D01*
X71650Y-200700D01*
G01X74784D02*
X73217Y-204165D01*
G01X84172Y-206160D02*
X84799Y-206685D01*
X85504Y-207000D01*
X86130D01*
X86757Y-206685D01*
X87227Y-206160D01*
X87462Y-205425D01*
X87305Y-204690D01*
X86914Y-204060D01*
X86209Y-203640D01*
X85269Y-203430D01*
X84720Y-203010D01*
X84485Y-202275D01*
X84642Y-201540D01*
X85034Y-201015D01*
X85582Y-200700D01*
X86130D01*
X86679Y-200910D01*
X87149Y-201435D01*
G01X91177Y-200700D02*
X93057D01*
G01X92117D02*
Y-207000D01*
G01X91177D02*
X93057D01*
G01X96850Y-200700D02*
Y-207000D01*
X99984D01*
G01X102994D02*
Y-200700D01*
G01X105970D02*
X102994Y-204585D01*
G01X106440Y-207000D02*
X104325Y-202800D01*
G01X109372Y-206160D02*
X109999Y-206685D01*
X110704Y-207000D01*
X111330D01*
X111957Y-206685D01*
X112427Y-206160D01*
X112662Y-205425D01*
X112505Y-204690D01*
X112114Y-204060D01*
X111409Y-203640D01*
X110469Y-203430D01*
X109920Y-203010D01*
X109685Y-202275D01*
X109842Y-201540D01*
X110234Y-201015D01*
X110782Y-200700D01*
X111330D01*
X111879Y-200910D01*
X112349Y-201435D01*
G01X119040Y-201225D02*
X118570Y-200910D01*
X118022Y-200700D01*
X117395D01*
X116690Y-201015D01*
X116142Y-201540D01*
X115750Y-202170D01*
X115437Y-203220D01*
X115359Y-204165D01*
X115515Y-205110D01*
X115750Y-205740D01*
X116220Y-206370D01*
X116769Y-206790D01*
X117317Y-207000D01*
X117865D01*
X118414Y-206790D01*
X118884Y-206475D01*
X119275Y-206055D01*
G01X122050Y-207000D02*
Y-200700D01*
X124009D01*
X124635Y-201015D01*
X125027Y-201435D01*
X125184Y-202275D01*
X125027Y-203115D01*
X124557Y-203640D01*
X124009Y-203955D01*
X122050D01*
G01X124009D02*
X125184Y-207000D01*
G01X131484D02*
X128350D01*
Y-200700D01*
X131484D01*
G01X130230Y-203745D02*
X128350D01*
G01X137784Y-207000D02*
X134650D01*
Y-200700D01*
X137784D01*
G01X136530Y-203745D02*
X134650D01*
G01X140715Y-207000D02*
Y-200700D01*
X144319Y-207000D01*
Y-200700D01*
G01X58792Y-8967D02*
X58617Y-9317D01*
X58500Y-9725D01*
Y-10192D01*
X58675Y-10717D01*
X58967Y-11125D01*
X59317Y-11417D01*
X59900Y-11650D01*
X60425Y-11708D01*
X60950Y-11592D01*
X61300Y-11417D01*
X61650Y-11067D01*
X61883Y-10658D01*
X62000Y-10250D01*
Y-9842D01*
X61883Y-9433D01*
X61708Y-9083D01*
X61475Y-8792D01*
G01X62000Y-7117D02*
X58500D01*
Y-5717D01*
X58675Y-5250D01*
X59083Y-4900D01*
X59550Y-4783D01*
X60017Y-4900D01*
X60367Y-5192D01*
X60542Y-5717D01*
Y-7117D01*
G01X58500Y-2817D02*
X62000D01*
Y-483D01*
G01Y1367D02*
X58500D01*
Y2533D01*
X58675Y3000D01*
X58908Y3350D01*
X59258Y3642D01*
X59667Y3875D01*
X60250Y3933D01*
X60833Y3875D01*
X61242Y3642D01*
X61592Y3350D01*
X61825Y3000D01*
X62000Y2533D01*
Y1367D01*
G01X60833Y6192D02*
Y7708D01*
G01X58792Y12533D02*
X58617Y12183D01*
X58500Y11775D01*
Y11308D01*
X58675Y10783D01*
X58967Y10375D01*
X59317Y10083D01*
X59900Y9850D01*
X60425Y9792D01*
X60950Y9908D01*
X61300Y10083D01*
X61650Y10433D01*
X61883Y10842D01*
X62000Y11250D01*
Y11658D01*
X61883Y12067D01*
X61708Y12417D01*
X61475Y12708D01*
G01X61533Y14325D02*
X61825Y14792D01*
X62000Y15317D01*
Y15783D01*
X61825Y16250D01*
X61533Y16600D01*
X61125Y16775D01*
X60717Y16658D01*
X60367Y16367D01*
X60133Y15842D01*
X60017Y15142D01*
X59783Y14733D01*
X59375Y14558D01*
X58967Y14675D01*
X58675Y14967D01*
X58500Y15375D01*
Y15783D01*
X58617Y16192D01*
X58908Y16542D01*
G01X44959Y1383D02*
X44784Y1033D01*
X44667Y625D01*
Y158D01*
X44842Y-367D01*
X45134Y-775D01*
X45484Y-1067D01*
X46067Y-1300D01*
X46592Y-1358D01*
X47117Y-1242D01*
X47467Y-1067D01*
X47817Y-717D01*
X48050Y-308D01*
X48167Y100D01*
Y508D01*
X48050Y917D01*
X47875Y1267D01*
X47642Y1558D01*
G01X48167Y3233D02*
X44667D01*
Y4633D01*
X44842Y5100D01*
X45250Y5450D01*
X45717Y5567D01*
X46184Y5450D01*
X46534Y5158D01*
X46709Y4633D01*
Y3233D01*
G01X44667Y7533D02*
X48167D01*
Y9867D01*
G01Y11717D02*
X44667D01*
Y12883D01*
X44842Y13350D01*
X45075Y13700D01*
X45425Y13992D01*
X45834Y14225D01*
X46417Y14283D01*
X47000Y14225D01*
X47409Y13992D01*
X47759Y13700D01*
X47992Y13350D01*
X48167Y12883D01*
Y11717D01*
G01X47000Y16542D02*
Y18058D01*
G01X44959Y22883D02*
X44784Y22533D01*
X44667Y22125D01*
Y21658D01*
X44842Y21133D01*
X45134Y20725D01*
X45484Y20433D01*
X46067Y20200D01*
X46592Y20142D01*
X47117Y20258D01*
X47467Y20433D01*
X47817Y20783D01*
X48050Y21192D01*
X48167Y21600D01*
Y22008D01*
X48050Y22417D01*
X47875Y22767D01*
X47642Y23058D01*
G01X47700Y24675D02*
X47992Y25142D01*
X48167Y25667D01*
Y26133D01*
X47992Y26600D01*
X47700Y26950D01*
X47292Y27125D01*
X46884Y27008D01*
X46534Y26717D01*
X46300Y26192D01*
X46184Y25492D01*
X45950Y25083D01*
X45542Y24908D01*
X45134Y25025D01*
X44842Y25317D01*
X44667Y25725D01*
Y26133D01*
X44784Y26542D01*
X45075Y26892D01*
G01X66200Y24850D02*
Y18366D01*
X54800D01*
Y24850D01*
G01X66200Y44750D02*
Y51734D01*
X54800D01*
Y44750D01*
G01X38000Y45833D02*
Y49333D01*
X37300Y48633D01*
G01Y45833D02*
X38700D01*
G01X51271Y34300D02*
Y29300D01*
X39871D01*
Y34300D01*
G01Y45700D02*
Y50700D01*
X51271D01*
Y45700D01*
G01X55533Y53700D02*
X55825Y53350D01*
X56175Y53117D01*
X56583Y53000D01*
X57050Y53117D01*
X57400Y53350D01*
X57750Y53700D01*
X57867Y54167D01*
Y56500D01*
G01X61000Y53000D02*
Y56500D01*
X60300Y55800D01*
G01Y53000D02*
X61700D01*
G01X64192Y54458D02*
X64600Y54867D01*
X64950Y55100D01*
X65417Y55217D01*
X65825Y55100D01*
X66117Y54867D01*
X66350Y54517D01*
X66408Y54108D01*
X66350Y53758D01*
X66117Y53408D01*
X65767Y53117D01*
X65358Y53000D01*
X64892Y53117D01*
X64483Y53467D01*
X64250Y53992D01*
X64192Y54575D01*
X64308Y55333D01*
X64483Y55742D01*
X64775Y56150D01*
X65183Y56442D01*
X65592Y56500D01*
X66000Y56383D01*
X66292Y56092D01*
G01X38804Y54300D02*
X39096Y53950D01*
X39446Y53717D01*
X39854Y53600D01*
X40321Y53717D01*
X40671Y53950D01*
X41021Y54300D01*
X41138Y54767D01*
Y57100D01*
G01X44271Y53600D02*
Y57100D01*
X43571Y56400D01*
G01Y53600D02*
X44971D01*
G01X48571D02*
Y57100D01*
X47871Y56400D01*
G01Y53600D02*
X49271D01*
G01X44133Y70041D02*
X43783Y70216D01*
X43375Y70333D01*
X42908D01*
X42383Y70158D01*
X41975Y69866D01*
X41683Y69516D01*
X41450Y68933D01*
X41392Y68408D01*
X41508Y67883D01*
X41683Y67533D01*
X42033Y67183D01*
X42442Y66950D01*
X42850Y66833D01*
X43258D01*
X43667Y66950D01*
X44017Y67125D01*
X44308Y67358D01*
G01X45867Y67533D02*
X46217Y67125D01*
X46683Y66891D01*
X47208Y66833D01*
X47675Y66891D01*
X48142Y67183D01*
X48433Y67533D01*
X48492Y67883D01*
X48375Y68291D01*
X47967Y68583D01*
X47558Y68700D01*
X47033D01*
G01X47558D02*
X47908Y68875D01*
X48200Y69166D01*
X48317Y69516D01*
X48200Y69866D01*
X47908Y70158D01*
X47383Y70333D01*
X46858Y70275D01*
X46333Y70041D01*
G01X39567Y68500D02*
X34567D01*
Y67500D01*
X39567D01*
Y68500D01*
G01X49500Y103733D02*
X46000D01*
X48917Y105250D01*
X46000Y106767D01*
X49500D01*
G01Y108383D02*
X46000D01*
Y109842D01*
X46175Y110308D01*
X46408Y110600D01*
X46875Y110717D01*
X47342Y110600D01*
X47633Y110250D01*
X47808Y109842D01*
Y108383D01*
G01Y109842D02*
X49500Y110717D01*
G01Y112392D02*
X46000Y113850D01*
X49500Y115308D01*
G01X48275Y114783D02*
Y112917D01*
G01X49500Y116633D02*
X46000D01*
X48917Y118150D01*
X46000Y119667D01*
X49500D01*
G01X48333Y121692D02*
Y123208D01*
G01X46000Y125000D02*
X49500Y125817D01*
X46000Y126750D01*
X49500Y127683D01*
X46000Y128500D01*
G01X49500Y129883D02*
X46000D01*
Y131283D01*
X46175Y131750D01*
X46583Y132100D01*
X47050Y132217D01*
X47517Y132100D01*
X47867Y131808D01*
X48042Y131283D01*
Y129883D01*
G01X32033Y106200D02*
X32325Y105850D01*
X32675Y105617D01*
X33083Y105500D01*
X33550Y105617D01*
X33900Y105850D01*
X34250Y106200D01*
X34367Y106667D01*
Y109000D01*
G01X37500Y105500D02*
Y109000D01*
X36800Y108300D01*
G01Y105500D02*
X38200D01*
G01X40517Y106025D02*
X40867Y105733D01*
X41275Y105558D01*
X41800Y105500D01*
X42325Y105617D01*
X42733Y105850D01*
X43025Y106258D01*
X43083Y106725D01*
X42967Y107192D01*
X42675Y107483D01*
X42267Y107717D01*
X41858Y107775D01*
X41450Y107717D01*
X40925Y107483D01*
X41100Y109000D01*
X42675D01*
G01X35892Y134458D02*
X36300Y134867D01*
X36650Y135100D01*
X37117Y135217D01*
X37525Y135100D01*
X37817Y134867D01*
X38050Y134517D01*
X38108Y134108D01*
X38050Y133758D01*
X37817Y133408D01*
X37467Y133117D01*
X37058Y133000D01*
X36592Y133117D01*
X36183Y133467D01*
X35950Y133992D01*
X35892Y134575D01*
X36008Y135333D01*
X36183Y135742D01*
X36475Y136150D01*
X36883Y136442D01*
X37292Y136500D01*
X37700Y136383D01*
X37992Y136092D01*
G01X44200Y114800D02*
Y109800D01*
X32800D01*
Y114800D01*
G01Y126200D02*
Y131200D01*
X44200D01*
Y126200D01*
G01X50700Y145025D02*
X50992Y145492D01*
X51167Y146017D01*
Y146483D01*
X50992Y146950D01*
X50700Y147300D01*
X50292Y147475D01*
X49884Y147358D01*
X49534Y147067D01*
X49300Y146542D01*
X49184Y145842D01*
X48950Y145433D01*
X48542Y145258D01*
X48134Y145375D01*
X47842Y145667D01*
X47667Y146075D01*
Y146483D01*
X47784Y146892D01*
X48075Y147242D01*
G01X51167Y149442D02*
X47667D01*
Y151658D01*
G01X49359Y150842D02*
Y149442D01*
G01X50000Y154092D02*
Y155608D01*
G01X50700Y157925D02*
X50992Y158392D01*
X51167Y158917D01*
Y159383D01*
X50992Y159850D01*
X50700Y160200D01*
X50292Y160375D01*
X49884Y160258D01*
X49534Y159967D01*
X49300Y159442D01*
X49184Y158742D01*
X48950Y158333D01*
X48542Y158158D01*
X48134Y158275D01*
X47842Y158567D01*
X47667Y158975D01*
Y159383D01*
X47784Y159792D01*
X48075Y160142D01*
G01X51167Y164617D02*
Y162283D01*
X47667D01*
Y164617D01*
G01X49359Y163683D02*
Y162283D01*
G01X47667Y166583D02*
X51167D01*
Y168917D01*
G01X60000Y186083D02*
X56500D01*
Y187542D01*
X56675Y188008D01*
X56908Y188300D01*
X57375Y188417D01*
X57842Y188300D01*
X58133Y187950D01*
X58308Y187542D01*
Y186083D01*
G01Y187542D02*
X60000Y188417D01*
G01X57083Y190442D02*
X56733Y190792D01*
X56558Y191200D01*
X56500Y191667D01*
X56617Y192250D01*
X56908Y192658D01*
X57258Y192775D01*
X57608Y192717D01*
X57900Y192483D01*
X58483Y191317D01*
X58892Y190792D01*
X59475Y190442D01*
X60000Y190325D01*
Y192775D01*
G01X35892Y176417D02*
X36242Y176767D01*
X36650Y176942D01*
X37117Y177000D01*
X37700Y176883D01*
X38108Y176592D01*
X38225Y176242D01*
X38167Y175892D01*
X37933Y175600D01*
X36767Y175017D01*
X36242Y174608D01*
X35892Y174025D01*
X35775Y173500D01*
X38225D01*
G01X59000Y198500D02*
G03I0J500D01*
G01X68362Y-22750D02*
X68832Y-22120D01*
X69380Y-21805D01*
X70007Y-21700D01*
X70790Y-21910D01*
X71338Y-22435D01*
X71495Y-23065D01*
X71417Y-23695D01*
X71103Y-24220D01*
X69537Y-25270D01*
X68832Y-26005D01*
X68362Y-27055D01*
X68205Y-28000D01*
X71495D01*
G01X76150Y-21700D02*
X75523Y-21910D01*
X75053Y-22435D01*
X74740Y-23065D01*
X74505Y-23905D01*
X74427Y-24850D01*
X74505Y-25795D01*
X74740Y-26635D01*
X75053Y-27265D01*
X75523Y-27790D01*
X76150Y-28000D01*
X76777Y-27790D01*
X77247Y-27265D01*
X77560Y-26635D01*
X77795Y-25795D01*
X77873Y-24850D01*
X77795Y-23905D01*
X77560Y-23065D01*
X77247Y-22435D01*
X76777Y-21910D01*
X76150Y-21700D01*
G01X82450Y-28000D02*
Y-21700D01*
X81510Y-22960D01*
G01Y-28000D02*
X83390D01*
G01X88750Y-21700D02*
X88123Y-21910D01*
X87653Y-22435D01*
X87340Y-23065D01*
X87105Y-23905D01*
X87027Y-24850D01*
X87105Y-25795D01*
X87340Y-26635D01*
X87653Y-27265D01*
X88123Y-27790D01*
X88750Y-28000D01*
X89377Y-27790D01*
X89847Y-27265D01*
X90160Y-26635D01*
X90395Y-25795D01*
X90473Y-24850D01*
X90395Y-23905D01*
X90160Y-23065D01*
X89847Y-22435D01*
X89377Y-21910D01*
X88750Y-21700D01*
G01X99862Y-28000D02*
Y-21700D01*
X102838D01*
G01X101742Y-24745D02*
X99862D01*
G01X106083Y-28000D02*
Y-21700D01*
X108042D01*
X108668Y-22015D01*
X109060Y-22435D01*
X109217Y-23275D01*
X109060Y-24115D01*
X108590Y-24640D01*
X108042Y-24955D01*
X106083D01*
G01X108042D02*
X109217Y-28000D01*
G01X115517D02*
X112383D01*
Y-21700D01*
X115517D01*
G01X114263Y-24745D02*
X112383D01*
G01X121817Y-28000D02*
X118683D01*
Y-21700D01*
X121817D01*
G01X120563Y-24745D02*
X118683D01*
G01X124905Y-27160D02*
X125532Y-27685D01*
X126237Y-28000D01*
X126863D01*
X127490Y-27685D01*
X127960Y-27160D01*
X128195Y-26425D01*
X128038Y-25690D01*
X127647Y-25060D01*
X126942Y-24640D01*
X126002Y-24430D01*
X125453Y-24010D01*
X125218Y-23275D01*
X125375Y-22540D01*
X125767Y-22015D01*
X126315Y-21700D01*
X126863D01*
X127412Y-21910D01*
X127882Y-22435D01*
G01X134573Y-22225D02*
X134103Y-21910D01*
X133555Y-21700D01*
X132928D01*
X132223Y-22015D01*
X131675Y-22540D01*
X131283Y-23170D01*
X130970Y-24220D01*
X130892Y-25165D01*
X131048Y-26110D01*
X131283Y-26740D01*
X131753Y-27370D01*
X132302Y-27790D01*
X132850Y-28000D01*
X133398D01*
X133947Y-27790D01*
X134417Y-27475D01*
X134808Y-27055D01*
G01X137192Y-28000D02*
X139150Y-21700D01*
X141108Y-28000D01*
G01X140403Y-25795D02*
X137897D01*
G01X143883Y-21700D02*
Y-28000D01*
X147017D01*
G01X153317D02*
X150183D01*
Y-21700D01*
X153317D01*
G01X152063Y-24745D02*
X150183D01*
G01X69600Y-11700D02*
Y-18000D01*
G01X67798Y-11700D02*
X71402D01*
G01X73550D02*
X74647Y-18000D01*
X75900Y-11700D01*
X77153Y-18000D01*
X78250Y-11700D01*
G01X80633Y-18000D02*
Y-11700D01*
X82592D01*
X83218Y-12015D01*
X83610Y-12435D01*
X83767Y-13275D01*
X83610Y-14115D01*
X83140Y-14640D01*
X82592Y-14955D01*
X80633D01*
G01X82592D02*
X83767Y-18000D01*
G01X87482Y-15900D02*
X89518D01*
G01X92763Y-18000D02*
Y-11700D01*
X94800Y-16950D01*
X96837Y-11700D01*
Y-18000D01*
G01X102667D02*
X99533D01*
Y-11700D01*
X102667D01*
G01X101413Y-14745D02*
X99533D01*
G01X105363Y-18000D02*
Y-11700D01*
X107400Y-16950D01*
X109437Y-11700D01*
Y-18000D01*
G01X73567Y29525D02*
X73917Y29233D01*
X74325Y29058D01*
X74850Y29000D01*
X75375Y29117D01*
X75783Y29350D01*
X76075Y29758D01*
X76133Y30225D01*
X76017Y30692D01*
X75725Y30983D01*
X75317Y31217D01*
X74908Y31275D01*
X74500Y31217D01*
X73975Y30983D01*
X74150Y32500D01*
X75725D01*
G01X79150Y29000D02*
Y32500D01*
X78450Y31800D01*
G01Y29000D02*
X79850D01*
G01X67067Y38525D02*
X67417Y38233D01*
X67825Y38058D01*
X68350Y38000D01*
X68875Y38117D01*
X69283Y38350D01*
X69575Y38758D01*
X69633Y39225D01*
X69517Y39692D01*
X69225Y39983D01*
X68817Y40217D01*
X68408Y40275D01*
X68000Y40217D01*
X67475Y39983D01*
X67650Y41500D01*
X69225D01*
G01X72650D02*
X72183Y41383D01*
X71833Y41092D01*
X71600Y40742D01*
X71425Y40275D01*
X71367Y39750D01*
X71425Y39225D01*
X71600Y38758D01*
X71833Y38408D01*
X72183Y38117D01*
X72650Y38000D01*
X73117Y38117D01*
X73467Y38408D01*
X73700Y38758D01*
X73875Y39225D01*
X73933Y39750D01*
X73875Y40275D01*
X73700Y40742D01*
X73467Y41092D01*
X73117Y41383D01*
X72650Y41500D01*
G01X68000Y22500D02*
Y26000D01*
X67300Y25300D01*
G01Y22500D02*
X68700D01*
G01X76151Y42591D02*
Y40791D01*
X77571Y39371D01*
X79246D01*
G01X73242Y107417D02*
X73592Y107767D01*
X74000Y107942D01*
X74467Y108000D01*
X75050Y107883D01*
X75458Y107592D01*
X75575Y107242D01*
X75517Y106892D01*
X75283Y106600D01*
X74117Y106017D01*
X73592Y105608D01*
X73242Y105025D01*
X73125Y104500D01*
X75575D01*
G01X77367Y105025D02*
X77717Y104733D01*
X78125Y104558D01*
X78650Y104500D01*
X79175Y104617D01*
X79583Y104850D01*
X79875Y105258D01*
X79933Y105725D01*
X79817Y106192D01*
X79525Y106483D01*
X79117Y106717D01*
X78708Y106775D01*
X78300Y106717D01*
X77775Y106483D01*
X77950Y108000D01*
X79525D01*
G01X65742Y96750D02*
X66092Y97100D01*
X66500Y97275D01*
X66967Y97333D01*
X67550Y97216D01*
X67958Y96925D01*
X68075Y96575D01*
X68017Y96225D01*
X67783Y95933D01*
X66617Y95350D01*
X66092Y94941D01*
X65742Y94358D01*
X65625Y93833D01*
X68075D01*
G01X70042Y95291D02*
X70450Y95700D01*
X70800Y95933D01*
X71267Y96050D01*
X71675Y95933D01*
X71967Y95700D01*
X72200Y95350D01*
X72258Y94941D01*
X72200Y94591D01*
X71967Y94241D01*
X71617Y93950D01*
X71208Y93833D01*
X70742Y93950D01*
X70333Y94300D01*
X70100Y94825D01*
X70042Y95408D01*
X70158Y96166D01*
X70333Y96575D01*
X70625Y96983D01*
X71033Y97275D01*
X71442Y97333D01*
X71850Y97216D01*
X72142Y96925D01*
G01X79273Y95641D02*
X77604D01*
X76185Y94221D01*
Y92546D01*
G01X75000Y134833D02*
Y138333D01*
X74300Y137633D01*
G01Y134833D02*
X75700D01*
G01X64567Y165333D02*
Y162825D01*
X64800Y162300D01*
X65267Y161950D01*
X65850Y161833D01*
X66433Y161950D01*
X66900Y162300D01*
X67133Y162825D01*
Y165333D01*
G01X69042Y164750D02*
X69392Y165100D01*
X69800Y165275D01*
X70267Y165333D01*
X70850Y165216D01*
X71258Y164925D01*
X71375Y164575D01*
X71317Y164225D01*
X71083Y163933D01*
X69917Y163350D01*
X69392Y162941D01*
X69042Y162358D01*
X68925Y161833D01*
X71375D01*
G01X75250Y163742D02*
Y181742D01*
G01X71550Y183833D02*
Y187333D01*
X69392Y184825D01*
X72308D01*
G01X75850Y183833D02*
Y187333D01*
X73692Y184825D01*
X76608D01*
G01X71867Y191000D02*
Y194500D01*
X69709Y191992D01*
X72625D01*
G01X73267Y193700D02*
X95867D01*
G01X63000Y209833D02*
Y213333D01*
X62300Y212633D01*
G01Y209833D02*
X63700D01*
G01X73267Y216300D02*
X82267D01*
G01X87067D02*
G02X82267I-2400J-100D01*
G01X87167D02*
X95867D01*
G01X116033Y15708D02*
X115683Y15883D01*
X115275Y16000D01*
X114808D01*
X114283Y15825D01*
X113875Y15533D01*
X113583Y15183D01*
X113350Y14600D01*
X113292Y14075D01*
X113408Y13550D01*
X113583Y13200D01*
X113933Y12850D01*
X114342Y12617D01*
X114750Y12500D01*
X115158D01*
X115567Y12617D01*
X115917Y12792D01*
X116208Y13025D01*
G01X118933Y12500D02*
X119050Y13258D01*
X119225Y13900D01*
X119458Y14483D01*
X119750Y15125D01*
X120217Y16000D01*
X117883D01*
G01X99067Y109000D02*
Y106492D01*
X99300Y105967D01*
X99767Y105617D01*
X100350Y105500D01*
X100933Y105617D01*
X101400Y105967D01*
X101633Y106492D01*
Y109000D01*
G01X103367Y106200D02*
X103717Y105792D01*
X104183Y105558D01*
X104708Y105500D01*
X105175Y105558D01*
X105642Y105850D01*
X105933Y106200D01*
X105992Y106550D01*
X105875Y106958D01*
X105467Y107250D01*
X105058Y107367D01*
X104533D01*
G01X105058D02*
X105408Y107542D01*
X105700Y107833D01*
X105817Y108183D01*
X105700Y108533D01*
X105408Y108825D01*
X104883Y109000D01*
X104358Y108942D01*
X103833Y108708D01*
G01X96984Y192025D02*
X97334Y191733D01*
X97742Y191558D01*
X98267Y191500D01*
X98792Y191617D01*
X99200Y191850D01*
X99492Y192258D01*
X99550Y192725D01*
X99434Y193192D01*
X99142Y193483D01*
X98734Y193717D01*
X98325Y193775D01*
X97917Y193717D01*
X97392Y193483D01*
X97567Y195000D01*
X99142D01*
G01X104467Y202000D02*
Y199492D01*
X104700Y198967D01*
X105167Y198617D01*
X105750Y198500D01*
X106333Y198617D01*
X106800Y198967D01*
X107033Y199492D01*
Y202000D01*
G01X110050Y198500D02*
Y202000D01*
X109350Y201300D01*
G01Y198500D02*
X110750D01*
G01X105500Y215500D02*
X105442Y215908D01*
X105267Y216375D01*
X104975Y216667D01*
X104567Y216783D01*
X104158Y216667D01*
X103808Y216317D01*
X103633Y215792D01*
Y215208D01*
X103517Y214858D01*
X103225Y214567D01*
X102817Y214450D01*
X102408Y214625D01*
X102117Y215033D01*
X102000Y215500D01*
X102117Y215967D01*
X102408Y216375D01*
X102817Y216550D01*
X103225Y216433D01*
X103517Y216142D01*
X103633Y215792D01*
Y215208D01*
X103808Y214683D01*
X104158Y214333D01*
X104567Y214217D01*
X104975Y214333D01*
X105267Y214625D01*
X105442Y215092D01*
X105500Y215500D01*
G01X118616Y204333D02*
Y207833D01*
X120075D01*
X120541Y207658D01*
X120833Y207425D01*
X120950Y206958D01*
X120833Y206491D01*
X120483Y206200D01*
X120075Y206025D01*
X118616D01*
G01X120075D02*
X120950Y204333D01*
G01X124083D02*
Y207833D01*
X123383Y207133D01*
G01Y204333D02*
X124783D01*
G01X111500Y207000D02*
G03I-500J0D01*
G01X121133Y215041D02*
X120783Y215216D01*
X120375Y215333D01*
X119908D01*
X119383Y215158D01*
X118975Y214866D01*
X118683Y214516D01*
X118450Y213933D01*
X118392Y213408D01*
X118508Y212883D01*
X118683Y212533D01*
X119033Y212183D01*
X119442Y211950D01*
X119850Y211833D01*
X120258D01*
X120667Y211950D01*
X121017Y212125D01*
X121308Y212358D01*
G01X124150Y211833D02*
Y215333D01*
X123450Y214633D01*
G01Y211833D02*
X124850D01*
G01X110567Y216000D02*
Y211000D01*
X111567D01*
Y216000D01*
X110567D01*
G01X145525Y-39033D02*
X145992Y-39325D01*
X146517Y-39500D01*
X146983D01*
X147450Y-39325D01*
X147800Y-39033D01*
X147975Y-38625D01*
X147858Y-38217D01*
X147567Y-37867D01*
X147042Y-37633D01*
X146342Y-37517D01*
X145933Y-37283D01*
X145758Y-36875D01*
X145875Y-36467D01*
X146167Y-36175D01*
X146575Y-36000D01*
X146983D01*
X147392Y-36117D01*
X147742Y-36408D01*
G01X152217Y-39500D02*
X149883D01*
Y-36000D01*
X152217D01*
G01X151283Y-37692D02*
X149883D01*
G01X156633Y-36292D02*
X156283Y-36117D01*
X155875Y-36000D01*
X155408D01*
X154883Y-36175D01*
X154475Y-36467D01*
X154183Y-36817D01*
X153950Y-37400D01*
X153892Y-37925D01*
X154008Y-38450D01*
X154183Y-38800D01*
X154533Y-39150D01*
X154942Y-39383D01*
X155350Y-39500D01*
X155758D01*
X156167Y-39383D01*
X156517Y-39208D01*
X156808Y-38975D01*
G01X159650Y-39500D02*
X159183Y-39442D01*
X158775Y-39208D01*
X158425Y-38858D01*
X158192Y-38450D01*
X158075Y-37983D01*
Y-37517D01*
X158192Y-37050D01*
X158425Y-36642D01*
X158775Y-36292D01*
X159183Y-36058D01*
X159650Y-36000D01*
X160117Y-36058D01*
X160525Y-36292D01*
X160875Y-36642D01*
X161108Y-37050D01*
X161225Y-37517D01*
Y-37983D01*
X161108Y-38450D01*
X160875Y-38858D01*
X160525Y-39208D01*
X160117Y-39442D01*
X159650Y-39500D01*
G01X162608D02*
Y-36000D01*
X165292Y-39500D01*
Y-36000D01*
G01X166967Y-39500D02*
Y-36000D01*
X168133D01*
X168600Y-36175D01*
X168950Y-36408D01*
X169242Y-36758D01*
X169475Y-37167D01*
X169533Y-37750D01*
X169475Y-38333D01*
X169242Y-38742D01*
X168950Y-39092D01*
X168600Y-39325D01*
X168133Y-39500D01*
X166967D01*
G01X171092D02*
X172550Y-36000D01*
X174008Y-39500D01*
G01X173483Y-38275D02*
X171617D01*
G01X175683Y-39500D02*
Y-36000D01*
X177142D01*
X177608Y-36175D01*
X177900Y-36408D01*
X178017Y-36875D01*
X177900Y-37342D01*
X177550Y-37633D01*
X177142Y-37808D01*
X175683D01*
G01X177142D02*
X178017Y-39500D01*
G01X181150D02*
Y-37925D01*
X179983Y-36000D01*
G01X182317D02*
X181150Y-37925D01*
G01X121567Y9000D02*
Y6492D01*
X121800Y5967D01*
X122267Y5617D01*
X122850Y5500D01*
X123433Y5617D01*
X123900Y5967D01*
X124133Y6492D01*
Y9000D01*
G01X125867Y6025D02*
X126217Y5733D01*
X126625Y5558D01*
X127150Y5500D01*
X127675Y5617D01*
X128083Y5850D01*
X128375Y6258D01*
X128433Y6725D01*
X128317Y7192D01*
X128025Y7483D01*
X127617Y7717D01*
X127208Y7775D01*
X126800Y7717D01*
X126275Y7483D01*
X126450Y9000D01*
X128025D01*
G01X132412Y4795D02*
X130612D01*
Y-11205D01*
X136462D01*
G01X141462Y4795D02*
X138512D01*
G01X150512D02*
X147562D01*
G01X127067Y12000D02*
Y17000D01*
X126067D01*
Y12000D01*
X127067D01*
G01X147525Y30267D02*
X148925D01*
G01X148167Y31025D02*
Y29508D01*
G01X125133Y24041D02*
X124783Y24216D01*
X124375Y24333D01*
X123908D01*
X123383Y24158D01*
X122975Y23866D01*
X122683Y23516D01*
X122450Y22933D01*
X122392Y22408D01*
X122508Y21883D01*
X122683Y21533D01*
X123033Y21183D01*
X123442Y20950D01*
X123850Y20833D01*
X124258D01*
X124667Y20950D01*
X125017Y21125D01*
X125308Y21358D01*
G01X126867D02*
X127217Y21066D01*
X127625Y20891D01*
X128150Y20833D01*
X128675Y20950D01*
X129083Y21183D01*
X129375Y21591D01*
X129433Y22058D01*
X129317Y22525D01*
X129025Y22816D01*
X128617Y23050D01*
X128208Y23108D01*
X127800Y23050D01*
X127275Y22816D01*
X127450Y24333D01*
X129025D01*
G01X136567Y20000D02*
Y25000D01*
X135567D01*
Y20000D01*
X136567D01*
G01X130733Y30833D02*
X130850Y31591D01*
X131025Y32233D01*
X131258Y32816D01*
X131550Y33458D01*
X132017Y34333D01*
X129683D01*
G01X133867Y31358D02*
X134217Y31066D01*
X134625Y30891D01*
X135150Y30833D01*
X135675Y30950D01*
X136083Y31183D01*
X136375Y31591D01*
X136433Y32058D01*
X136317Y32525D01*
X136025Y32816D01*
X135617Y33050D01*
X135208Y33108D01*
X134800Y33050D01*
X134275Y32816D01*
X134450Y34333D01*
X136025D01*
G01X136733Y36833D02*
X136850Y37591D01*
X137025Y38233D01*
X137258Y38816D01*
X137550Y39458D01*
X138017Y40333D01*
X135683D01*
G01X140042Y38291D02*
X140450Y38700D01*
X140800Y38933D01*
X141267Y39050D01*
X141675Y38933D01*
X141967Y38700D01*
X142200Y38350D01*
X142258Y37941D01*
X142200Y37591D01*
X141967Y37241D01*
X141617Y36950D01*
X141208Y36833D01*
X140742Y36950D01*
X140333Y37300D01*
X140100Y37825D01*
X140042Y38408D01*
X140158Y39166D01*
X140333Y39575D01*
X140625Y39983D01*
X141033Y40275D01*
X141442Y40333D01*
X141850Y40216D01*
X142142Y39925D01*
G01X132432Y42647D02*
Y40707D01*
X131124Y39398D01*
X129265D01*
G01X140700Y92000D02*
Y95500D01*
X140000Y94800D01*
G01Y92000D02*
X141400D01*
G01X145000Y95500D02*
X144533Y95383D01*
X144183Y95092D01*
X143950Y94742D01*
X143775Y94275D01*
X143717Y93750D01*
X143775Y93225D01*
X143950Y92758D01*
X144183Y92408D01*
X144533Y92117D01*
X145000Y92000D01*
X145467Y92117D01*
X145817Y92408D01*
X146050Y92758D01*
X146225Y93225D01*
X146283Y93750D01*
X146225Y94275D01*
X146050Y94742D01*
X145817Y95092D01*
X145467Y95383D01*
X145000Y95500D01*
G01X149300D02*
X148833Y95383D01*
X148483Y95092D01*
X148250Y94742D01*
X148075Y94275D01*
X148017Y93750D01*
X148075Y93225D01*
X148250Y92758D01*
X148483Y92408D01*
X148833Y92117D01*
X149300Y92000D01*
X149767Y92117D01*
X150117Y92408D01*
X150350Y92758D01*
X150525Y93225D01*
X150583Y93750D01*
X150525Y94275D01*
X150350Y94742D01*
X150117Y95092D01*
X149767Y95383D01*
X149300Y95500D01*
G01X132000Y100833D02*
Y104333D01*
X131300Y103633D01*
G01Y100833D02*
X132700D01*
G01X129768Y95465D02*
X132307Y92926D01*
G01X129583Y113200D02*
X129875Y112850D01*
X130225Y112617D01*
X130633Y112500D01*
X131100Y112617D01*
X131450Y112850D01*
X131800Y113200D01*
X131917Y113667D01*
Y116000D01*
G01X135050D02*
Y112500D01*
G01X133708Y116000D02*
X136392D01*
G01X137892Y112500D02*
X139350Y116000D01*
X140808Y112500D01*
G01X140283Y113725D02*
X138417D01*
G01X144000Y114250D02*
X145167D01*
Y113200D01*
X144817Y112850D01*
X144408Y112617D01*
X143825Y112500D01*
X143242Y112617D01*
X142833Y112850D01*
X142483Y113200D01*
X142250Y113608D01*
X142133Y114075D01*
Y114483D01*
X142250Y114833D01*
X142483Y115242D01*
X142833Y115592D01*
X143183Y115825D01*
X143650Y116000D01*
X144058D01*
X144525Y115883D01*
X144875Y115650D01*
G01X147192Y113667D02*
X148708D01*
G01X151025Y112967D02*
X151492Y112675D01*
X152017Y112500D01*
X152483D01*
X152950Y112675D01*
X153300Y112967D01*
X153475Y113375D01*
X153358Y113783D01*
X153067Y114133D01*
X152542Y114367D01*
X151842Y114483D01*
X151433Y114717D01*
X151258Y115125D01*
X151375Y115533D01*
X151667Y115825D01*
X152075Y116000D01*
X152483D01*
X152892Y115883D01*
X153242Y115592D01*
G01X157717Y112500D02*
X155383D01*
Y116000D01*
X157717D01*
G01X156783Y114308D02*
X155383D01*
G01X159683Y116000D02*
Y112500D01*
X162017D01*
G01X148742Y136750D02*
X149092Y137100D01*
X149500Y137275D01*
X149967Y137333D01*
X150550Y137216D01*
X150958Y136925D01*
X151075Y136575D01*
X151017Y136225D01*
X150783Y135933D01*
X149617Y135350D01*
X149092Y134941D01*
X148742Y134358D01*
X148625Y133833D01*
X151075D01*
G01X153042Y136750D02*
X153392Y137100D01*
X153800Y137275D01*
X154267Y137333D01*
X154850Y137216D01*
X155258Y136925D01*
X155375Y136575D01*
X155317Y136225D01*
X155083Y135933D01*
X153917Y135350D01*
X153392Y134941D01*
X153042Y134358D01*
X152925Y133833D01*
X155375D01*
G01X148742Y187750D02*
X149092Y188100D01*
X149500Y188275D01*
X149967Y188333D01*
X150550Y188216D01*
X150958Y187925D01*
X151075Y187575D01*
X151017Y187225D01*
X150783Y186933D01*
X149617Y186350D01*
X149092Y185941D01*
X148742Y185358D01*
X148625Y184833D01*
X151075D01*
G01X152867Y185533D02*
X153217Y185125D01*
X153683Y184891D01*
X154208Y184833D01*
X154675Y184891D01*
X155142Y185183D01*
X155433Y185533D01*
X155492Y185883D01*
X155375Y186291D01*
X154967Y186583D01*
X154558Y186700D01*
X154033D01*
G01X154558D02*
X154908Y186875D01*
X155200Y187166D01*
X155317Y187516D01*
X155200Y187866D01*
X154908Y188158D01*
X154383Y188333D01*
X153858Y188275D01*
X153333Y188041D01*
G01X165772Y-167000D02*
X169062Y-160700D01*
G01X165772D02*
X169062Y-167000D01*
G01X173850Y-21167D02*
Y-17667D01*
X173150Y-18367D01*
G01Y-21167D02*
X174550D01*
G01X177042Y-18250D02*
X177392Y-17900D01*
X177800Y-17725D01*
X178267Y-17667D01*
X178850Y-17784D01*
X179258Y-18075D01*
X179375Y-18425D01*
X179317Y-18775D01*
X179083Y-19067D01*
X177917Y-19650D01*
X177392Y-20059D01*
X177042Y-20642D01*
X176925Y-21167D01*
X179375D01*
G01X230467Y6100D02*
X233067Y3500D01*
Y-16100D01*
X170967D01*
Y6100D01*
X230467D01*
G01X159000Y8833D02*
Y12333D01*
X158300Y11633D01*
G01Y8833D02*
X159700D01*
G01X152562Y-11205D02*
X158412D01*
Y4795D01*
X156612D01*
G01X166817Y17300D02*
Y15900D01*
X150817D01*
Y17300D01*
G01X173850Y7833D02*
Y11333D01*
X173150Y10633D01*
G01Y7833D02*
X174550D01*
G01X178150D02*
Y11333D01*
X177450Y10633D01*
G01Y7833D02*
X178850D01*
G01X159133Y34041D02*
X158783Y34216D01*
X158375Y34333D01*
X157908D01*
X157383Y34158D01*
X156975Y33866D01*
X156683Y33516D01*
X156450Y32933D01*
X156392Y32408D01*
X156508Y31883D01*
X156683Y31533D01*
X157033Y31183D01*
X157442Y30950D01*
X157850Y30833D01*
X158258D01*
X158667Y30950D01*
X159017Y31125D01*
X159308Y31358D01*
G01X161042Y32291D02*
X161450Y32700D01*
X161800Y32933D01*
X162267Y33050D01*
X162675Y32933D01*
X162967Y32700D01*
X163200Y32350D01*
X163258Y31941D01*
X163200Y31591D01*
X162967Y31241D01*
X162617Y30950D01*
X162208Y30833D01*
X161742Y30950D01*
X161333Y31300D01*
X161100Y31825D01*
X161042Y32408D01*
X161158Y33166D01*
X161333Y33575D01*
X161625Y33983D01*
X162033Y34275D01*
X162442Y34333D01*
X162850Y34216D01*
X163142Y33925D01*
G01X150817Y27700D02*
Y29100D01*
X166817D01*
Y27700D01*
G01X177000Y91833D02*
X177408Y91891D01*
X177875Y92066D01*
X178167Y92358D01*
X178283Y92766D01*
X178167Y93175D01*
X177817Y93525D01*
X177292Y93700D01*
X176708D01*
X176358Y93816D01*
X176067Y94108D01*
X175950Y94516D01*
X176125Y94925D01*
X176533Y95216D01*
X177000Y95333D01*
X177467Y95216D01*
X177875Y94925D01*
X178050Y94516D01*
X177933Y94108D01*
X177642Y93816D01*
X177292Y93700D01*
X176708D01*
X176183Y93525D01*
X175833Y93175D01*
X175717Y92766D01*
X175833Y92358D01*
X176125Y92066D01*
X176592Y91891D01*
X177000Y91833D01*
G01X166883Y90833D02*
X167000Y91591D01*
X167175Y92233D01*
X167408Y92816D01*
X167700Y93458D01*
X168167Y94333D01*
X165833D01*
G01X162371Y102650D02*
Y99800D01*
X165321Y96850D01*
X180871D01*
X183771Y99800D01*
Y102500D01*
G01X152683Y123533D02*
X152975Y123183D01*
X153325Y122950D01*
X153733Y122833D01*
X154200Y122950D01*
X154550Y123183D01*
X154900Y123533D01*
X155017Y124000D01*
Y126333D01*
G01X157042Y124291D02*
X157450Y124700D01*
X157800Y124933D01*
X158267Y125050D01*
X158675Y124933D01*
X158967Y124700D01*
X159200Y124350D01*
X159258Y123941D01*
X159200Y123591D01*
X158967Y123241D01*
X158617Y122950D01*
X158208Y122833D01*
X157742Y122950D01*
X157333Y123300D01*
X157100Y123825D01*
X157042Y124408D01*
X157158Y125166D01*
X157333Y125575D01*
X157625Y125983D01*
X158033Y126275D01*
X158442Y126333D01*
X158850Y126216D01*
X159142Y125925D01*
G01X162421Y132550D02*
Y138050D01*
X180871D01*
X183671Y135250D01*
Y132400D01*
G01X163000Y139500D02*
Y143000D01*
X162300Y142300D01*
G01Y139500D02*
X163700D01*
G01X171533Y144525D02*
X171825Y144992D01*
X172000Y145517D01*
Y145983D01*
X171825Y146450D01*
X171533Y146800D01*
X171125Y146975D01*
X170717Y146858D01*
X170367Y146567D01*
X170133Y146042D01*
X170017Y145342D01*
X169783Y144933D01*
X169375Y144758D01*
X168967Y144875D01*
X168675Y145167D01*
X168500Y145575D01*
Y145983D01*
X168617Y146392D01*
X168908Y146742D01*
G01X172000Y148942D02*
X168500D01*
Y151158D01*
G01X170192Y150342D02*
Y148942D01*
G01X168500Y153183D02*
X172000D01*
Y155517D01*
G01Y157192D02*
X168500Y158650D01*
X172000Y160108D01*
G01X170775Y159583D02*
Y157717D01*
G01X171533Y161725D02*
X171825Y162192D01*
X172000Y162717D01*
Y163183D01*
X171825Y163650D01*
X171533Y164000D01*
X171125Y164175D01*
X170717Y164058D01*
X170367Y163767D01*
X170133Y163242D01*
X170017Y162542D01*
X169783Y162133D01*
X169375Y161958D01*
X168967Y162075D01*
X168675Y162367D01*
X168500Y162775D01*
Y163183D01*
X168617Y163592D01*
X168908Y163942D01*
G01X172000Y166025D02*
X168500D01*
G01Y168475D02*
X172000D01*
G01X170250D02*
Y166025D01*
G01X168792Y177133D02*
X168617Y176783D01*
X168500Y176375D01*
Y175908D01*
X168675Y175383D01*
X168967Y174975D01*
X169317Y174683D01*
X169900Y174450D01*
X170425Y174392D01*
X170950Y174508D01*
X171300Y174683D01*
X171650Y175033D01*
X171883Y175442D01*
X172000Y175850D01*
Y176258D01*
X171883Y176667D01*
X171708Y177017D01*
X171475Y177308D01*
G01X171533Y178925D02*
X171825Y179392D01*
X172000Y179917D01*
Y180383D01*
X171825Y180850D01*
X171533Y181200D01*
X171125Y181375D01*
X170717Y181258D01*
X170367Y180967D01*
X170133Y180442D01*
X170017Y179742D01*
X169783Y179333D01*
X169375Y179158D01*
X168967Y179275D01*
X168675Y179567D01*
X168500Y179975D01*
Y180383D01*
X168617Y180792D01*
X168908Y181142D01*
G01X151717Y148700D02*
X152067Y148292D01*
X152533Y148058D01*
X153058Y148000D01*
X153525Y148058D01*
X153992Y148350D01*
X154283Y148700D01*
X154342Y149050D01*
X154225Y149458D01*
X153817Y149750D01*
X153408Y149867D01*
X152883D01*
G01X153408D02*
X153758Y150042D01*
X154050Y150333D01*
X154167Y150683D01*
X154050Y151033D01*
X153758Y151325D01*
X153233Y151500D01*
X152708Y151442D01*
X152183Y151208D01*
G01X154800Y152800D02*
Y145816D01*
X166200D01*
Y152800D01*
G01X153000Y172500D02*
Y176000D01*
X152300Y175300D01*
G01Y172500D02*
X153700D01*
G01X155533Y181200D02*
X155825Y180850D01*
X156175Y180617D01*
X156583Y180500D01*
X157050Y180617D01*
X157400Y180850D01*
X157750Y181200D01*
X157867Y181667D01*
Y184000D01*
G01X161000Y180500D02*
Y184000D01*
X160300Y183300D01*
G01Y180500D02*
X161700D01*
G01X166000D02*
Y184000D01*
X163842Y181492D01*
X166758D01*
G01X173000Y186833D02*
Y190333D01*
X172300Y189633D01*
G01Y186833D02*
X173700D01*
G01X171867Y191800D02*
X165383D01*
Y203200D01*
X171867D01*
G01X154800Y172700D02*
Y179184D01*
X166200D01*
Y172700D01*
G01X177567Y172533D02*
X177917Y172125D01*
X178383Y171891D01*
X178908Y171833D01*
X179375Y171891D01*
X179842Y172183D01*
X180133Y172533D01*
X180192Y172883D01*
X180075Y173291D01*
X179667Y173583D01*
X179258Y173700D01*
X178733D01*
G01X179258D02*
X179608Y173875D01*
X179900Y174166D01*
X180017Y174516D01*
X179900Y174866D01*
X179608Y175158D01*
X179083Y175333D01*
X178558Y175275D01*
X178033Y175041D01*
G01X182042Y174750D02*
X182392Y175100D01*
X182800Y175275D01*
X183267Y175333D01*
X183850Y175216D01*
X184258Y174925D01*
X184375Y174575D01*
X184317Y174225D01*
X184083Y173933D01*
X182917Y173350D01*
X182392Y172941D01*
X182042Y172358D01*
X181925Y171833D01*
X184375D01*
G01X179683Y210700D02*
X179975Y210350D01*
X180325Y210117D01*
X180733Y210000D01*
X181200Y210117D01*
X181550Y210350D01*
X181900Y210700D01*
X182017Y211167D01*
Y213500D01*
G01X185150Y210000D02*
Y213500D01*
X184450Y212800D01*
G01Y210000D02*
X185850D01*
G01X172533Y208041D02*
X172183Y208216D01*
X171775Y208333D01*
X171308D01*
X170783Y208158D01*
X170375Y207866D01*
X170083Y207516D01*
X169850Y206933D01*
X169792Y206408D01*
X169908Y205883D01*
X170083Y205533D01*
X170433Y205183D01*
X170842Y204950D01*
X171250Y204833D01*
X171658D01*
X172067Y204950D01*
X172417Y205125D01*
X172708Y205358D01*
G01X174383Y208333D02*
Y204833D01*
X176717D01*
G01X178567D02*
Y208333D01*
G01X180783D02*
X178567Y206175D01*
G01X181133Y204833D02*
X179558Y207166D01*
G01X184150Y204833D02*
X183683Y204891D01*
X183275Y205125D01*
X182925Y205475D01*
X182692Y205883D01*
X182575Y206350D01*
Y206816D01*
X182692Y207283D01*
X182925Y207691D01*
X183275Y208041D01*
X183683Y208275D01*
X184150Y208333D01*
X184617Y208275D01*
X185025Y208041D01*
X185375Y207691D01*
X185608Y207283D01*
X185725Y206816D01*
Y206350D01*
X185608Y205883D01*
X185375Y205475D01*
X185025Y205125D01*
X184617Y204891D01*
X184150Y204833D01*
G01X187167Y208333D02*
Y205825D01*
X187400Y205300D01*
X187867Y204950D01*
X188450Y204833D01*
X189033Y204950D01*
X189500Y205300D01*
X189733Y205825D01*
Y208333D01*
G01X192750D02*
Y204833D01*
G01X191408Y208333D02*
X194092D01*
G01X187875Y-20700D02*
X188342Y-20992D01*
X188867Y-21167D01*
X189333D01*
X189800Y-20992D01*
X190150Y-20700D01*
X190325Y-20292D01*
X190208Y-19884D01*
X189917Y-19534D01*
X189392Y-19300D01*
X188692Y-19184D01*
X188283Y-18950D01*
X188108Y-18542D01*
X188225Y-18134D01*
X188517Y-17842D01*
X188925Y-17667D01*
X189333D01*
X189742Y-17784D01*
X190092Y-18075D01*
G01X192117Y-21167D02*
Y-17667D01*
X193283D01*
X193750Y-17842D01*
X194100Y-18075D01*
X194392Y-18425D01*
X194625Y-18834D01*
X194683Y-19417D01*
X194625Y-20000D01*
X194392Y-20409D01*
X194100Y-20759D01*
X193750Y-20992D01*
X193283Y-21167D01*
X192117D01*
G01X196942Y-20000D02*
X198458D01*
G01X200775Y-20700D02*
X201242Y-20992D01*
X201767Y-21167D01*
X202233D01*
X202700Y-20992D01*
X203050Y-20700D01*
X203225Y-20292D01*
X203108Y-19884D01*
X202817Y-19534D01*
X202292Y-19300D01*
X201592Y-19184D01*
X201183Y-18950D01*
X201008Y-18542D01*
X201125Y-18134D01*
X201417Y-17842D01*
X201825Y-17667D01*
X202233D01*
X202642Y-17784D01*
X202992Y-18075D01*
G01X207467Y-21167D02*
X205133D01*
Y-17667D01*
X207467D01*
G01X206533Y-19359D02*
X205133D01*
G01X209433Y-17667D02*
Y-21167D01*
X211767D01*
G01X214900D02*
Y-17667D01*
X214200Y-18367D01*
G01Y-21167D02*
X215600D01*
G01X194533Y8533D02*
X194825Y8183D01*
X195175Y7950D01*
X195583Y7833D01*
X196050Y7950D01*
X196400Y8183D01*
X196750Y8533D01*
X196867Y9000D01*
Y11333D01*
G01X200000Y7833D02*
Y11333D01*
X199300Y10633D01*
G01Y7833D02*
X200700D01*
G01X203192Y10750D02*
X203542Y11100D01*
X203950Y11275D01*
X204417Y11333D01*
X205000Y11216D01*
X205408Y10925D01*
X205525Y10575D01*
X205467Y10225D01*
X205233Y9933D01*
X204067Y9350D01*
X203542Y8941D01*
X203192Y8358D01*
X203075Y7833D01*
X205525D01*
G01X181892Y24750D02*
X182242Y25100D01*
X182650Y25275D01*
X183117Y25333D01*
X183700Y25216D01*
X184108Y24925D01*
X184225Y24575D01*
X184167Y24225D01*
X183933Y23933D01*
X182767Y23350D01*
X182242Y22941D01*
X181892Y22358D01*
X181775Y21833D01*
X184225D01*
G01X211000Y20833D02*
Y24333D01*
X210300Y23633D01*
G01Y20833D02*
X211700D01*
G01X207606Y19359D02*
X205306Y17059D01*
X186606D01*
Y178059D01*
X207606D01*
Y19559D01*
G01X180892Y142917D02*
X181242Y143267D01*
X181650Y143442D01*
X182117Y143500D01*
X182700Y143383D01*
X183108Y143092D01*
X183225Y142742D01*
X183167Y142392D01*
X182933Y142100D01*
X181767Y141517D01*
X181242Y141108D01*
X180892Y140525D01*
X180775Y140000D01*
X183225D01*
G01X205000Y186833D02*
Y190333D01*
X204300Y189633D01*
G01Y186833D02*
X205700D01*
G01X204367Y191800D02*
X197883D01*
Y203200D01*
X204367D01*
G01X190717Y187533D02*
X191067Y187125D01*
X191533Y186891D01*
X192058Y186833D01*
X192525Y186891D01*
X192992Y187183D01*
X193283Y187533D01*
X193342Y187883D01*
X193225Y188291D01*
X192817Y188583D01*
X192408Y188700D01*
X191883D01*
G01X192408D02*
X192758Y188875D01*
X193050Y189166D01*
X193167Y189516D01*
X193050Y189866D01*
X192758Y190158D01*
X192233Y190333D01*
X191708Y190275D01*
X191183Y190041D01*
G01X191767Y191800D02*
X198751D01*
Y203200D01*
X191767D01*
G01X209567Y171533D02*
X209917Y171125D01*
X210383Y170891D01*
X210908Y170833D01*
X211375Y170891D01*
X211842Y171183D01*
X212133Y171533D01*
X212192Y171883D01*
X212075Y172291D01*
X211667Y172583D01*
X211258Y172700D01*
X210733D01*
G01X211258D02*
X211608Y172875D01*
X211900Y173166D01*
X212017Y173516D01*
X211900Y173866D01*
X211608Y174158D01*
X211083Y174333D01*
X210558Y174275D01*
X210033Y174041D01*
G01X215150Y170833D02*
Y174333D01*
X214450Y173633D01*
G01Y170833D02*
X215850D01*
G01X193683Y180533D02*
X193975Y180183D01*
X194325Y179950D01*
X194733Y179833D01*
X195200Y179950D01*
X195550Y180183D01*
X195900Y180533D01*
X196017Y181000D01*
Y183333D01*
G01X199033Y179833D02*
X199150Y180591D01*
X199325Y181233D01*
X199558Y181816D01*
X199850Y182458D01*
X200317Y183333D01*
X197983D01*
G01X199875Y205300D02*
X200342Y205008D01*
X200867Y204833D01*
X201333D01*
X201800Y205008D01*
X202150Y205300D01*
X202325Y205708D01*
X202208Y206116D01*
X201917Y206466D01*
X201392Y206700D01*
X200692Y206816D01*
X200283Y207050D01*
X200108Y207458D01*
X200225Y207866D01*
X200517Y208158D01*
X200925Y208333D01*
X201333D01*
X201742Y208216D01*
X202092Y207925D01*
G01X204117Y204833D02*
Y208333D01*
X205283D01*
X205750Y208158D01*
X206100Y207925D01*
X206392Y207575D01*
X206625Y207166D01*
X206683Y206583D01*
X206625Y206000D01*
X206392Y205591D01*
X206100Y205241D01*
X205750Y205008D01*
X205283Y204833D01*
X204117D01*
G01X208942Y206000D02*
X210458D01*
G01X212775Y205300D02*
X213242Y205008D01*
X213767Y204833D01*
X214233D01*
X214700Y205008D01*
X215050Y205300D01*
X215225Y205708D01*
X215108Y206116D01*
X214817Y206466D01*
X214292Y206700D01*
X213592Y206816D01*
X213183Y207050D01*
X213008Y207458D01*
X213125Y207866D01*
X213417Y208158D01*
X213825Y208333D01*
X214233D01*
X214642Y208216D01*
X214992Y207925D01*
G01X219467Y204833D02*
X217133D01*
Y208333D01*
X219467D01*
G01X218533Y206641D02*
X217133D01*
G01X221433Y208333D02*
Y204833D01*
X223767D01*
G01X225792Y207750D02*
X226142Y208100D01*
X226550Y208275D01*
X227017Y208333D01*
X227600Y208216D01*
X228008Y207925D01*
X228125Y207575D01*
X228067Y207225D01*
X227833Y206933D01*
X226667Y206350D01*
X226142Y205941D01*
X225792Y205358D01*
X225675Y204833D01*
X228125D01*
G01X236417Y-205000D02*
Y-198700D01*
X235477Y-199960D01*
G01Y-205000D02*
X237357D01*
G01X242560D02*
X242717Y-203635D01*
X242952Y-202480D01*
X243265Y-201430D01*
X243657Y-200275D01*
X244284Y-198700D01*
X241150D01*
G01X249017D02*
X248390Y-198910D01*
X247920Y-199435D01*
X247607Y-200065D01*
X247372Y-200905D01*
X247294Y-201850D01*
X247372Y-202795D01*
X247607Y-203635D01*
X247920Y-204265D01*
X248390Y-204790D01*
X249017Y-205000D01*
X249644Y-204790D01*
X250114Y-204265D01*
X250427Y-203635D01*
X250662Y-202795D01*
X250740Y-201850D01*
X250662Y-200905D01*
X250427Y-200065D01*
X250114Y-199435D01*
X249644Y-198910D01*
X249017Y-198700D01*
G01X254299Y-202900D02*
X256335D01*
G01X260129Y-199750D02*
X260599Y-199120D01*
X261147Y-198805D01*
X261774Y-198700D01*
X262557Y-198910D01*
X263105Y-199435D01*
X263262Y-200065D01*
X263184Y-200695D01*
X262870Y-201220D01*
X261304Y-202270D01*
X260599Y-203005D01*
X260129Y-204055D01*
X259972Y-205000D01*
X263262D01*
G01X266429Y-202375D02*
X266977Y-201640D01*
X267447Y-201220D01*
X268074Y-201010D01*
X268622Y-201220D01*
X269014Y-201640D01*
X269327Y-202270D01*
X269405Y-203005D01*
X269327Y-203635D01*
X269014Y-204265D01*
X268544Y-204790D01*
X267995Y-205000D01*
X267369Y-204790D01*
X266820Y-204160D01*
X266507Y-203215D01*
X266429Y-202165D01*
X266585Y-200800D01*
X266820Y-200065D01*
X267212Y-199330D01*
X267760Y-198805D01*
X268309Y-198700D01*
X268857Y-198910D01*
X269249Y-199435D01*
G01X272729Y-199750D02*
X273199Y-199120D01*
X273747Y-198805D01*
X274374Y-198700D01*
X275157Y-198910D01*
X275705Y-199435D01*
X275862Y-200065D01*
X275784Y-200695D01*
X275470Y-201220D01*
X273904Y-202270D01*
X273199Y-203005D01*
X272729Y-204055D01*
X272572Y-205000D01*
X275862D01*
G01X281457D02*
Y-198700D01*
X278559Y-203215D01*
X282475D01*
G01X286817Y-205000D02*
X287365Y-204895D01*
X287992Y-204580D01*
X288384Y-204055D01*
X288540Y-203320D01*
X288384Y-202585D01*
X287914Y-201955D01*
X287209Y-201640D01*
X286425D01*
X285955Y-201430D01*
X285564Y-200905D01*
X285407Y-200170D01*
X285642Y-199435D01*
X286190Y-198910D01*
X286817Y-198700D01*
X287444Y-198910D01*
X287992Y-199435D01*
X288227Y-200170D01*
X288070Y-200905D01*
X287679Y-201430D01*
X287209Y-201640D01*
X286425D01*
X285720Y-201955D01*
X285250Y-202585D01*
X285094Y-203320D01*
X285250Y-204055D01*
X285642Y-204580D01*
X286269Y-204895D01*
X286817Y-205000D01*
G01X329350D02*
Y-198700D01*
X331309D01*
X331935Y-199015D01*
X332327Y-199435D01*
X332484Y-200275D01*
X332327Y-201115D01*
X331857Y-201640D01*
X331309Y-201955D01*
X329350D01*
G01X331309D02*
X332484Y-205000D01*
G01X338784D02*
X335650D01*
Y-198700D01*
X338784D01*
G01X337530Y-201745D02*
X335650D01*
G01X341559Y-198700D02*
X343517Y-205000D01*
X345475Y-198700D01*
G01X356744Y-201640D02*
X357057Y-201325D01*
X357292Y-200800D01*
X357449Y-200065D01*
X357292Y-199435D01*
X356979Y-199015D01*
X356430Y-198700D01*
X354315D01*
Y-205000D01*
X356900D01*
X357449Y-204580D01*
X357762Y-203950D01*
X357919Y-203215D01*
X357762Y-202480D01*
X357292Y-201850D01*
X356744Y-201640D01*
X354315D01*
G01X238417Y-125700D02*
Y-132000D01*
G01X236615Y-125700D02*
X240219D01*
G01X242367D02*
X243464Y-132000D01*
X244717Y-125700D01*
X245970Y-132000D01*
X247067Y-125700D01*
G01X249450Y-132000D02*
Y-125700D01*
X251409D01*
X252035Y-126015D01*
X252427Y-126435D01*
X252584Y-127275D01*
X252427Y-128115D01*
X251957Y-128640D01*
X251409Y-128955D01*
X249450D01*
G01X251409D02*
X252584Y-132000D01*
G01X256299Y-129900D02*
X258335D01*
G01X261580Y-132000D02*
Y-125700D01*
X263617Y-130950D01*
X265654Y-125700D01*
Y-132000D01*
G01X271484D02*
X268350D01*
Y-125700D01*
X271484D01*
G01X270230Y-128745D02*
X268350D01*
G01X274180Y-132000D02*
Y-125700D01*
X276217Y-130950D01*
X278254Y-125700D01*
Y-132000D01*
G01X225892Y-18250D02*
X226242Y-17900D01*
X226650Y-17725D01*
X227117Y-17667D01*
X227700Y-17784D01*
X228108Y-18075D01*
X228225Y-18425D01*
X228167Y-18775D01*
X227933Y-19067D01*
X226767Y-19650D01*
X226242Y-20059D01*
X225892Y-20642D01*
X225775Y-21167D01*
X228225D01*
G01X226000Y7833D02*
Y11333D01*
X225300Y10633D01*
G01Y7833D02*
X226700D01*
G01X223133Y59041D02*
X222783Y59216D01*
X222375Y59333D01*
X221908D01*
X221383Y59158D01*
X220975Y58866D01*
X220683Y58516D01*
X220450Y57933D01*
X220392Y57408D01*
X220508Y56883D01*
X220683Y56533D01*
X221033Y56183D01*
X221442Y55950D01*
X221850Y55833D01*
X222258D01*
X222667Y55950D01*
X223017Y56125D01*
X223308Y56358D01*
G01X226850Y55833D02*
Y59333D01*
X224692Y56825D01*
X227608D01*
G01X225067Y61500D02*
Y66500D01*
X224067D01*
Y61500D01*
X225067D01*
G01X232109Y85233D02*
X230709D01*
G01X231467Y84475D02*
Y85992D01*
G01X219133Y84041D02*
X218783Y84216D01*
X218375Y84333D01*
X217908D01*
X217383Y84158D01*
X216975Y83866D01*
X216683Y83516D01*
X216450Y82933D01*
X216392Y82408D01*
X216508Y81883D01*
X216683Y81533D01*
X217033Y81183D01*
X217442Y80950D01*
X217850Y80833D01*
X218258D01*
X218667Y80950D01*
X219017Y81125D01*
X219308Y81358D01*
G01X221042Y83750D02*
X221392Y84100D01*
X221800Y84275D01*
X222267Y84333D01*
X222850Y84216D01*
X223258Y83925D01*
X223375Y83575D01*
X223317Y83225D01*
X223083Y82933D01*
X221917Y82350D01*
X221392Y81941D01*
X221042Y81358D01*
X220925Y80833D01*
X223375D01*
G01X212817Y98200D02*
Y99600D01*
X228817D01*
Y98200D01*
G01Y87800D02*
Y86400D01*
X212817D01*
Y87800D01*
G01X211959Y112633D02*
X211784Y112283D01*
X211667Y111875D01*
Y111408D01*
X211842Y110883D01*
X212134Y110475D01*
X212484Y110183D01*
X213067Y109950D01*
X213592Y109892D01*
X214117Y110008D01*
X214467Y110183D01*
X214817Y110533D01*
X215050Y110942D01*
X215167Y111350D01*
Y111758D01*
X215050Y112167D01*
X214875Y112517D01*
X214642Y112808D01*
G01X215167Y114542D02*
X211667D01*
Y116758D01*
G01X213359Y115942D02*
Y114542D01*
G01X214000Y119192D02*
Y120708D01*
G01X211667Y122500D02*
X215167Y123317D01*
X211667Y124250D01*
X215167Y125183D01*
X211667Y126000D01*
G01Y126800D02*
X215167Y127617D01*
X211667Y128550D01*
X215167Y129483D01*
X211667Y130300D01*
G01X215167Y131683D02*
X211667D01*
Y133142D01*
X211842Y133608D01*
X212075Y133900D01*
X212542Y134017D01*
X213009Y133900D01*
X213300Y133550D01*
X213475Y133142D01*
Y131683D01*
G01Y133142D02*
X215167Y134017D01*
G01Y135692D02*
X211667Y137150D01*
X215167Y138608D01*
G01X213942Y138083D02*
Y136217D01*
G01X215167Y140283D02*
X211667D01*
Y141683D01*
X211842Y142150D01*
X212250Y142500D01*
X212717Y142617D01*
X213184Y142500D01*
X213534Y142208D01*
X213709Y141683D01*
Y140283D01*
G01X214000Y144992D02*
Y146508D01*
G01X215167Y148825D02*
X211667D01*
G01Y151275D02*
X215167D01*
G01X213417D02*
Y148825D01*
G01X215167Y153067D02*
X211667D01*
Y154233D01*
X211842Y154700D01*
X212075Y155050D01*
X212425Y155342D01*
X212834Y155575D01*
X213417Y155633D01*
X214000Y155575D01*
X214409Y155342D01*
X214759Y155050D01*
X214992Y154700D01*
X215167Y154233D01*
Y153067D01*
G01Y157483D02*
X211667D01*
Y158942D01*
X211842Y159408D01*
X212075Y159700D01*
X212542Y159817D01*
X213009Y159700D01*
X213300Y159350D01*
X213475Y158942D01*
Y157483D01*
G01Y158942D02*
X215167Y159817D01*
G01X238000Y186833D02*
Y190333D01*
X237300Y189633D01*
G01Y186833D02*
X238700D01*
G01X236867Y191800D02*
X230383D01*
Y203200D01*
X236867D01*
G01X223717Y187533D02*
X224067Y187125D01*
X224533Y186891D01*
X225058Y186833D01*
X225525Y186891D01*
X225992Y187183D01*
X226283Y187533D01*
X226342Y187883D01*
X226225Y188291D01*
X225817Y188583D01*
X225408Y188700D01*
X224883D01*
G01X225408D02*
X225758Y188875D01*
X226050Y189166D01*
X226167Y189516D01*
X226050Y189866D01*
X225758Y190158D01*
X225233Y190333D01*
X224708Y190275D01*
X224183Y190041D01*
G01X224267Y191800D02*
X231251D01*
Y203200D01*
X224267D01*
G01X210683Y210700D02*
X210975Y210350D01*
X211325Y210117D01*
X211733Y210000D01*
X212200Y210117D01*
X212550Y210350D01*
X212900Y210700D01*
X213017Y211167D01*
Y213500D01*
G01X215042Y212917D02*
X215392Y213267D01*
X215800Y213442D01*
X216267Y213500D01*
X216850Y213383D01*
X217258Y213092D01*
X217375Y212742D01*
X217317Y212392D01*
X217083Y212100D01*
X215917Y211517D01*
X215392Y211108D01*
X215042Y210525D01*
X214925Y210000D01*
X217375D01*
G01X240175Y205300D02*
X240642Y205008D01*
X241167Y204833D01*
X241633D01*
X242100Y205008D01*
X242450Y205300D01*
X242625Y205708D01*
X242508Y206116D01*
X242217Y206466D01*
X241692Y206700D01*
X240992Y206816D01*
X240583Y207050D01*
X240408Y207458D01*
X240525Y207866D01*
X240817Y208158D01*
X241225Y208333D01*
X241633D01*
X242042Y208216D01*
X242392Y207925D01*
G01X244417Y204833D02*
Y208333D01*
X245583D01*
X246050Y208158D01*
X246400Y207925D01*
X246692Y207575D01*
X246925Y207166D01*
X246983Y206583D01*
X246925Y206000D01*
X246692Y205591D01*
X246400Y205241D01*
X246050Y205008D01*
X245583Y204833D01*
X244417D01*
G01X249242Y206000D02*
X250758D01*
G01X255583Y208041D02*
X255233Y208216D01*
X254825Y208333D01*
X254358D01*
X253833Y208158D01*
X253425Y207866D01*
X253133Y207516D01*
X252900Y206933D01*
X252842Y206408D01*
X252958Y205883D01*
X253133Y205533D01*
X253483Y205183D01*
X253892Y204950D01*
X254300Y204833D01*
X254708D01*
X255117Y204950D01*
X255467Y205125D01*
X255758Y205358D01*
G01X257375Y205300D02*
X257842Y205008D01*
X258367Y204833D01*
X258833D01*
X259300Y205008D01*
X259650Y205300D01*
X259825Y205708D01*
X259708Y206116D01*
X259417Y206466D01*
X258892Y206700D01*
X258192Y206816D01*
X257783Y207050D01*
X257608Y207458D01*
X257725Y207866D01*
X258017Y208158D01*
X258425Y208333D01*
X258833D01*
X259242Y208216D01*
X259592Y207925D01*
G01X263300Y-22700D02*
X258300D01*
Y-11300D01*
X263300D01*
G01X258033Y-8300D02*
X258325Y-8650D01*
X258675Y-8883D01*
X259083Y-9000D01*
X259550Y-8883D01*
X259900Y-8650D01*
X260250Y-8300D01*
X260367Y-7833D01*
Y-5500D01*
G01X263500Y-9000D02*
Y-5500D01*
X262800Y-6200D01*
G01Y-9000D02*
X264200D01*
G01X266517Y-8300D02*
X266867Y-8708D01*
X267333Y-8942D01*
X267858Y-9000D01*
X268325Y-8942D01*
X268792Y-8650D01*
X269083Y-8300D01*
X269142Y-7950D01*
X269025Y-7542D01*
X268617Y-7250D01*
X268208Y-7133D01*
X267683D01*
G01X268208D02*
X268558Y-6958D01*
X268850Y-6667D01*
X268967Y-6317D01*
X268850Y-5967D01*
X268558Y-5675D01*
X268033Y-5500D01*
X267508Y-5558D01*
X266983Y-5792D01*
G01X244767Y4560D02*
G03X252267Y-3340I8102J182D01*
G01X244767Y170260D02*
Y153860D01*
X264767D01*
Y20260D01*
X244767D01*
Y4560D01*
G01X252267Y-3340D02*
X327067D01*
G01X247000Y25500D02*
Y29000D01*
X246300Y28300D01*
G01Y25500D02*
X247700D01*
G01X257567Y149525D02*
X257917Y149233D01*
X258325Y149058D01*
X258850Y149000D01*
X259375Y149117D01*
X259783Y149350D01*
X260075Y149758D01*
X260133Y150225D01*
X260017Y150692D01*
X259725Y150983D01*
X259317Y151217D01*
X258908Y151275D01*
X258500Y151217D01*
X257975Y150983D01*
X258150Y152500D01*
X259725D01*
G01X263150D02*
X262683Y152383D01*
X262333Y152092D01*
X262100Y151742D01*
X261925Y151275D01*
X261867Y150750D01*
X261925Y150225D01*
X262100Y149758D01*
X262333Y149408D01*
X262683Y149117D01*
X263150Y149000D01*
X263617Y149117D01*
X263967Y149408D01*
X264200Y149758D01*
X264375Y150225D01*
X264433Y150750D01*
X264375Y151275D01*
X264200Y151742D01*
X263967Y152092D01*
X263617Y152383D01*
X263150Y152500D01*
G01X240742Y150417D02*
X241092Y150767D01*
X241500Y150942D01*
X241967Y151000D01*
X242550Y150883D01*
X242958Y150592D01*
X243075Y150242D01*
X243017Y149892D01*
X242783Y149600D01*
X241617Y149017D01*
X241092Y148608D01*
X240742Y148025D01*
X240625Y147500D01*
X243075D01*
G01X244867Y148025D02*
X245217Y147733D01*
X245625Y147558D01*
X246150Y147500D01*
X246675Y147617D01*
X247083Y147850D01*
X247375Y148258D01*
X247433Y148725D01*
X247317Y149192D01*
X247025Y149483D01*
X246617Y149717D01*
X246208Y149775D01*
X245800Y149717D01*
X245275Y149483D01*
X245450Y151000D01*
X247025D01*
G01X255717Y187533D02*
X256067Y187125D01*
X256533Y186891D01*
X257058Y186833D01*
X257525Y186891D01*
X257992Y187183D01*
X258283Y187533D01*
X258342Y187883D01*
X258225Y188291D01*
X257817Y188583D01*
X257408Y188700D01*
X256883D01*
G01X257408D02*
X257758Y188875D01*
X258050Y189166D01*
X258167Y189516D01*
X258050Y189866D01*
X257758Y190158D01*
X257233Y190333D01*
X256708Y190275D01*
X256183Y190041D01*
G01X256767Y191800D02*
X263751D01*
Y203200D01*
X256767D01*
G01X244767Y170260D02*
G02X252967Y177460I8133J-994D01*
G01X327067Y-3340D02*
X330267D01*
Y9010D01*
X324367D01*
Y165110D01*
X330267D01*
Y177460D01*
X252967D01*
G01X246683Y210200D02*
X246975Y209850D01*
X247325Y209617D01*
X247733Y209500D01*
X248200Y209617D01*
X248550Y209850D01*
X248900Y210200D01*
X249017Y210667D01*
Y213000D01*
G01X250867Y210200D02*
X251217Y209792D01*
X251683Y209558D01*
X252208Y209500D01*
X252675Y209558D01*
X253142Y209850D01*
X253433Y210200D01*
X253492Y210550D01*
X253375Y210958D01*
X252967Y211250D01*
X252558Y211367D01*
X252033D01*
G01X252558D02*
X252908Y211542D01*
X253200Y211833D01*
X253317Y212183D01*
X253200Y212533D01*
X252908Y212825D01*
X252383Y213000D01*
X251858Y212942D01*
X251333Y212708D01*
G01X282500Y-19000D02*
Y-15500D01*
X281800Y-16200D01*
G01Y-19000D02*
X283200D01*
G01X274700Y-11300D02*
X279700D01*
Y-22700D01*
X274700D01*
G01X283083Y183041D02*
X282733Y183216D01*
X282325Y183333D01*
X281858D01*
X281333Y183158D01*
X280925Y182866D01*
X280633Y182516D01*
X280400Y181933D01*
X280342Y181408D01*
X280458Y180883D01*
X280633Y180533D01*
X280983Y180183D01*
X281392Y179950D01*
X281800Y179833D01*
X282208D01*
X282617Y179950D01*
X282967Y180125D01*
X283258Y180358D01*
G01X284992Y179833D02*
Y183333D01*
X287208D01*
G01X286392Y181641D02*
X284992D01*
G01X293475Y180300D02*
X293942Y180008D01*
X294467Y179833D01*
X294933D01*
X295400Y180008D01*
X295750Y180300D01*
X295925Y180708D01*
X295808Y181116D01*
X295517Y181466D01*
X294992Y181700D01*
X294292Y181816D01*
X293883Y182050D01*
X293708Y182458D01*
X293825Y182866D01*
X294117Y183158D01*
X294525Y183333D01*
X294933D01*
X295342Y183216D01*
X295692Y182925D01*
G01X299000Y179833D02*
X298533Y179891D01*
X298125Y180125D01*
X297775Y180475D01*
X297542Y180883D01*
X297425Y181350D01*
Y181816D01*
X297542Y182283D01*
X297775Y182691D01*
X298125Y183041D01*
X298533Y183275D01*
X299000Y183333D01*
X299467Y183275D01*
X299875Y183041D01*
X300225Y182691D01*
X300458Y182283D01*
X300575Y181816D01*
Y181350D01*
X300458Y180883D01*
X300225Y180475D01*
X299875Y180125D01*
X299467Y179891D01*
X299000Y179833D01*
G01X304583Y183041D02*
X304233Y183216D01*
X303825Y183333D01*
X303358D01*
X302833Y183158D01*
X302425Y182866D01*
X302133Y182516D01*
X301900Y181933D01*
X301842Y181408D01*
X301958Y180883D01*
X302133Y180533D01*
X302483Y180183D01*
X302892Y179950D01*
X303300Y179833D01*
X303708D01*
X304117Y179950D01*
X304467Y180125D01*
X304758Y180358D01*
G01X306317Y179833D02*
Y183333D01*
G01X308533D02*
X306317Y181175D01*
G01X308883Y179833D02*
X307308Y182166D01*
G01X313067Y179833D02*
X310733D01*
Y183333D01*
X313067D01*
G01X312133Y181641D02*
X310733D01*
G01X316200Y183333D02*
Y179833D01*
G01X314858Y183333D02*
X317542D01*
G01X280683Y185533D02*
X280975Y185183D01*
X281325Y184950D01*
X281733Y184833D01*
X282200Y184950D01*
X282550Y185183D01*
X282900Y185533D01*
X283017Y186000D01*
Y188333D01*
G01X286150Y184833D02*
X286558Y184891D01*
X287025Y185066D01*
X287317Y185358D01*
X287433Y185766D01*
X287317Y186175D01*
X286967Y186525D01*
X286442Y186700D01*
X285858D01*
X285508Y186816D01*
X285217Y187108D01*
X285100Y187516D01*
X285275Y187925D01*
X285683Y188216D01*
X286150Y188333D01*
X286617Y188216D01*
X287025Y187925D01*
X287200Y187516D01*
X287083Y187108D01*
X286792Y186816D01*
X286442Y186700D01*
X285858D01*
X285333Y186525D01*
X284983Y186175D01*
X284867Y185766D01*
X284983Y185358D01*
X285275Y185066D01*
X285742Y184891D01*
X286150Y184833D01*
G01X288883Y206700D02*
X289175Y206350D01*
X289525Y206117D01*
X289933Y206000D01*
X290400Y206117D01*
X290750Y206350D01*
X291100Y206700D01*
X291217Y207167D01*
Y209500D01*
G01X293067Y206525D02*
X293417Y206233D01*
X293825Y206058D01*
X294350Y206000D01*
X294875Y206117D01*
X295283Y206350D01*
X295575Y206758D01*
X295633Y207225D01*
X295517Y207692D01*
X295225Y207983D01*
X294817Y208217D01*
X294408Y208275D01*
X294000Y208217D01*
X293475Y207983D01*
X293650Y209500D01*
X295225D01*
G01X298650D02*
X298183Y209383D01*
X297833Y209092D01*
X297600Y208742D01*
X297425Y208275D01*
X297367Y207750D01*
X297425Y207225D01*
X297600Y206758D01*
X297833Y206408D01*
X298183Y206117D01*
X298650Y206000D01*
X299117Y206117D01*
X299467Y206408D01*
X299700Y206758D01*
X299875Y207225D01*
X299933Y207750D01*
X299875Y208275D01*
X299700Y208742D01*
X299467Y209092D01*
X299117Y209383D01*
X298650Y209500D01*
G01X302950D02*
X302483Y209383D01*
X302133Y209092D01*
X301900Y208742D01*
X301725Y208275D01*
X301667Y207750D01*
X301725Y207225D01*
X301900Y206758D01*
X302133Y206408D01*
X302483Y206117D01*
X302950Y206000D01*
X303417Y206117D01*
X303767Y206408D01*
X304000Y206758D01*
X304175Y207225D01*
X304233Y207750D01*
X304175Y208275D01*
X304000Y208742D01*
X303767Y209092D01*
X303417Y209383D01*
X302950Y209500D01*
G01X289083Y212000D02*
Y215500D01*
X290483D01*
X290950Y215325D01*
X291300Y214917D01*
X291417Y214450D01*
X291300Y213983D01*
X291008Y213633D01*
X290483Y213458D01*
X289083D01*
G01X293383Y212000D02*
Y215500D01*
X294842D01*
X295308Y215325D01*
X295600Y215092D01*
X295717Y214625D01*
X295600Y214158D01*
X295250Y213867D01*
X294842Y213692D01*
X293383D01*
G01X294842D02*
X295717Y212000D01*
G01X298150Y215500D02*
X299550D01*
G01X298850D02*
Y212000D01*
G01X298150D02*
X299550D01*
G01X301633D02*
Y215500D01*
X303150Y212583D01*
X304667Y215500D01*
Y212000D01*
G01X305992D02*
X307450Y215500D01*
X308908Y212000D01*
G01X308383Y213225D02*
X306517D01*
G01X310583Y212000D02*
Y215500D01*
X312042D01*
X312508Y215325D01*
X312800Y215092D01*
X312917Y214625D01*
X312800Y214158D01*
X312450Y213867D01*
X312042Y213692D01*
X310583D01*
G01X312042D02*
X312917Y212000D01*
G01X316050D02*
Y213575D01*
X314883Y215500D01*
G01X317217D02*
X316050Y213575D01*
G01X320600Y-17250D02*
X321767D01*
Y-18300D01*
X321417Y-18650D01*
X321008Y-18883D01*
X320425Y-19000D01*
X319842Y-18883D01*
X319433Y-18650D01*
X319083Y-18300D01*
X318850Y-17892D01*
X318733Y-17425D01*
Y-17017D01*
X318850Y-16667D01*
X319083Y-16258D01*
X319433Y-15908D01*
X319783Y-15675D01*
X320250Y-15500D01*
X320658D01*
X321125Y-15617D01*
X321475Y-15850D01*
G01X323208Y-19000D02*
Y-15500D01*
X325892Y-19000D01*
Y-15500D01*
G01X327567Y-19000D02*
Y-15500D01*
X328733D01*
X329200Y-15675D01*
X329550Y-15908D01*
X329842Y-16258D01*
X330075Y-16667D01*
X330133Y-17250D01*
X330075Y-17833D01*
X329842Y-18242D01*
X329550Y-18592D01*
X329200Y-18825D01*
X328733Y-19000D01*
X327567D01*
G01X319700Y-10000D02*
Y-13500D01*
G01X318358Y-10000D02*
X321042D01*
G01X322833Y-13500D02*
Y-10000D01*
X324233D01*
X324700Y-10175D01*
X325050Y-10583D01*
X325167Y-11050D01*
X325050Y-11517D01*
X324758Y-11867D01*
X324233Y-12042D01*
X322833D01*
G01X328300Y-13500D02*
Y-10000D01*
X327600Y-10700D01*
G01Y-13500D02*
X329000D01*
G01X328341Y220769D02*
X328186Y220921D01*
X327927Y221035D01*
X327564Y221111D01*
X327253Y221035D01*
X327046Y220883D01*
X326890Y220617D01*
Y219591D01*
X330000D01*
Y220845D01*
X329793Y221111D01*
X329482Y221263D01*
X329119Y221339D01*
X328756Y221263D01*
X328445Y221035D01*
X328341Y220769D01*
Y219591D01*
G01X330000Y223535D02*
X326890D01*
X327512Y223079D01*
G01X330000D02*
Y223991D01*
G54D14*
G01X149500Y53500D02*
X174500D01*
G01X149500Y78500D02*
Y53500D01*
G01X174500Y78500D02*
X149500D01*
G01X151720Y55050D02*
X173370Y77340D01*
G01X151220Y77690D02*
X172050Y55220D01*
G01X155290Y73470D02*
X168870D01*
G01X157300Y74200D02*
X158570Y59250D01*
G01D02*
Y58010D01*
G01D02*
X163890D01*
G01X166370Y60490D02*
X167540Y73680D01*
G01X167560Y58390D02*
G03I-1760J0D01*
G01X166190D02*
G03I-390J0D01*
G01X160990Y75500D02*
G03X157300Y74310I178J-6869D01*
G01X160990Y75500D01*
G01X167540Y73680D02*
Y73630D01*
G01X161390Y69550D02*
X164850D01*
G01D02*
Y68620D01*
G01D02*
X161390D01*
G01D02*
Y69550D01*
G01X169000Y74500D02*
G03I-750J0D01*
G01X168870Y73470D02*
X167540Y73500D01*
G01X167370Y72030D02*
X169000D01*
G01D02*
Y70130D01*
G01D02*
X167250D01*
G01D02*
X167370Y72030D01*
G01X164540Y76120D02*
Y75160D01*
G01D02*
X161080D01*
G01D02*
Y76120D01*
G01X167320Y74530D02*
G03X164600Y75450I-2490J-2881D01*
G01X167320Y74530D01*
G01X174500Y53500D02*
Y78500D01*
G01X160000Y57500D02*
Y57000D01*
G01X159500Y75500D02*
Y74000D01*
G01X161080Y76120D02*
X164540D01*
G54D15*
G01X-23402Y-197371D02*
X-22930Y-197764D01*
X-22399Y-198000D01*
X-21927D01*
X-21455Y-197764D01*
X-21101Y-197371D01*
X-20924Y-196820D01*
X-21042Y-196269D01*
X-21337Y-195797D01*
X-21868Y-195483D01*
X-22576Y-195325D01*
X-22989Y-195011D01*
X-23166Y-194460D01*
X-23048Y-193909D01*
X-22753Y-193516D01*
X-22340Y-193280D01*
X-21927D01*
X-21514Y-193437D01*
X-21160Y-193831D01*
G01X-18682Y-198000D02*
Y-193280D01*
G01X-16204D02*
Y-198000D01*
G01Y-195640D02*
X-18682D01*
G01X-11543Y-198000D02*
X-13903D01*
Y-193280D01*
X-11543D01*
G01X-12487Y-195561D02*
X-13903D01*
G01X-6823Y-198000D02*
X-9183D01*
Y-193280D01*
X-6823D01*
G01X-7767Y-195561D02*
X-9183D01*
G01X-3283Y-193280D02*
Y-198000D01*
G01X-4640Y-193280D02*
X-1926D01*
G01X-15284Y-187000D02*
Y-182280D01*
X-13042D01*
G01X-13868Y-184561D02*
X-15284D01*
G01X-10623Y-187000D02*
Y-182280D01*
X-9148D01*
X-8676Y-182516D01*
X-8381Y-182831D01*
X-8263Y-183460D01*
X-8381Y-184089D01*
X-8735Y-184483D01*
X-9148Y-184719D01*
X-10623D01*
G01X-9148D02*
X-8263Y-187000D01*
G01X-3543D02*
X-5903D01*
Y-182280D01*
X-3543D01*
G01X-4487Y-184561D02*
X-5903D01*
G01X1177Y-187000D02*
X-1183D01*
Y-182280D01*
X1177D01*
G01X233Y-184561D02*
X-1183D01*
G01X3478Y-186371D02*
X3950Y-186764D01*
X4481Y-187000D01*
X4953D01*
X5425Y-186764D01*
X5779Y-186371D01*
X5956Y-185820D01*
X5838Y-185269D01*
X5543Y-184797D01*
X5012Y-184483D01*
X4304Y-184325D01*
X3891Y-184011D01*
X3714Y-183460D01*
X3832Y-182909D01*
X4127Y-182516D01*
X4540Y-182280D01*
X4953D01*
X5366Y-182437D01*
X5720Y-182831D01*
G01X10735Y-182673D02*
X10381Y-182437D01*
X9968Y-182280D01*
X9496D01*
X8965Y-182516D01*
X8552Y-182909D01*
X8257Y-183381D01*
X8021Y-184168D01*
X7962Y-184876D01*
X8080Y-185584D01*
X8257Y-186056D01*
X8611Y-186528D01*
X9024Y-186843D01*
X9437Y-187000D01*
X9850D01*
X10263Y-186843D01*
X10617Y-186607D01*
X10912Y-186292D01*
G01X12682Y-187000D02*
X14157Y-182280D01*
X15632Y-187000D01*
G01X15101Y-185348D02*
X13213D01*
G01X17697Y-182280D02*
Y-187000D01*
X20057D01*
G01X24777D02*
X22417D01*
Y-182280D01*
X24777D01*
G01X23833Y-184561D02*
X22417D01*
G01X28317Y-187157D02*
X28199Y-187079D01*
Y-186921D01*
X28317Y-186843D01*
X28435Y-186921D01*
Y-187079D01*
X28317Y-187157D01*
G01X-15163Y-179000D02*
X-15635Y-178921D01*
X-16048Y-178607D01*
X-16402Y-178135D01*
X-16638Y-177584D01*
X-16756Y-176955D01*
Y-176325D01*
X-16638Y-175696D01*
X-16402Y-175145D01*
X-16048Y-174673D01*
X-15635Y-174359D01*
X-15163Y-174280D01*
X-14691Y-174359D01*
X-14278Y-174673D01*
X-13924Y-175145D01*
X-13688Y-175696D01*
X-13570Y-176325D01*
Y-176955D01*
X-13688Y-177584D01*
X-13924Y-178135D01*
X-14278Y-178607D01*
X-14691Y-178921D01*
X-15163Y-179000D01*
G01X-11623D02*
Y-174280D01*
X-10148D01*
X-9676Y-174516D01*
X-9381Y-174831D01*
X-9263Y-175460D01*
X-9381Y-176089D01*
X-9735Y-176483D01*
X-10148Y-176719D01*
X-11623D01*
G01X-10148D02*
X-9263Y-179000D01*
G01X-1711Y-174280D02*
X-295D01*
G01X-1003D02*
Y-179000D01*
G01X-1711D02*
X-295D01*
G01X2360D02*
Y-174280D01*
X5074Y-179000D01*
Y-174280D01*
G01X11977Y-179000D02*
Y-174280D01*
X13393D01*
X13865Y-174516D01*
X14219Y-175067D01*
X14337Y-175696D01*
X14219Y-176325D01*
X13924Y-176797D01*
X13393Y-177033D01*
X11977D01*
G01X16402Y-179000D02*
X17877Y-174280D01*
X19352Y-179000D01*
G01X18821Y-177348D02*
X16933D01*
G01X21417Y-179000D02*
Y-174280D01*
X22892D01*
X23364Y-174516D01*
X23659Y-174831D01*
X23777Y-175460D01*
X23659Y-176089D01*
X23305Y-176483D01*
X22892Y-176719D01*
X21417D01*
G01X22892D02*
X23777Y-179000D01*
G01X27317Y-174280D02*
Y-179000D01*
G01X25960Y-174280D02*
X28674D01*
G01X34987D02*
X35813Y-179000D01*
X36757Y-174280D01*
X37701Y-179000D01*
X38527Y-174280D01*
G01X40769D02*
X42185D01*
G01X41477D02*
Y-179000D01*
G01X40769D02*
X42185D01*
G01X46197Y-174280D02*
Y-179000D01*
G01X44840Y-174280D02*
X47554D01*
G01X49678Y-179000D02*
Y-174280D01*
G01X52156D02*
Y-179000D01*
G01Y-176640D02*
X49678D01*
G01X55637Y-179000D02*
X55165Y-178921D01*
X54752Y-178607D01*
X54398Y-178135D01*
X54162Y-177584D01*
X54044Y-176955D01*
Y-176325D01*
X54162Y-175696D01*
X54398Y-175145D01*
X54752Y-174673D01*
X55165Y-174359D01*
X55637Y-174280D01*
X56109Y-174359D01*
X56522Y-174673D01*
X56876Y-175145D01*
X57112Y-175696D01*
X57230Y-176325D01*
Y-176955D01*
X57112Y-177584D01*
X56876Y-178135D01*
X56522Y-178607D01*
X56109Y-178921D01*
X55637Y-179000D01*
G01X59059Y-174280D02*
Y-177663D01*
X59295Y-178371D01*
X59767Y-178843D01*
X60357Y-179000D01*
X60947Y-178843D01*
X61419Y-178371D01*
X61655Y-177663D01*
Y-174280D01*
G01X65077D02*
Y-179000D01*
G01X63720Y-174280D02*
X66434D01*
G01X74517D02*
Y-179000D01*
G01X73160Y-174280D02*
X75874D01*
G01X77998Y-179000D02*
Y-174280D01*
G01X80476D02*
Y-179000D01*
G01Y-176640D02*
X77998D01*
G01X85137Y-179000D02*
X82777D01*
Y-174280D01*
X85137D01*
G01X84193Y-176561D02*
X82777D01*
G01X94695Y-174673D02*
X94341Y-174437D01*
X93928Y-174280D01*
X93456D01*
X92925Y-174516D01*
X92512Y-174909D01*
X92217Y-175381D01*
X91981Y-176168D01*
X91922Y-176876D01*
X92040Y-177584D01*
X92217Y-178056D01*
X92571Y-178528D01*
X92984Y-178843D01*
X93397Y-179000D01*
X93810D01*
X94223Y-178843D01*
X94577Y-178607D01*
X94872Y-178292D01*
G01X98117Y-179000D02*
X97645Y-178921D01*
X97232Y-178607D01*
X96878Y-178135D01*
X96642Y-177584D01*
X96524Y-176955D01*
Y-176325D01*
X96642Y-175696D01*
X96878Y-175145D01*
X97232Y-174673D01*
X97645Y-174359D01*
X98117Y-174280D01*
X98589Y-174359D01*
X99002Y-174673D01*
X99356Y-175145D01*
X99592Y-175696D01*
X99710Y-176325D01*
Y-176955D01*
X99592Y-177584D01*
X99356Y-178135D01*
X99002Y-178607D01*
X98589Y-178921D01*
X98117Y-179000D01*
G01X101480D02*
Y-174280D01*
X104194Y-179000D01*
Y-174280D01*
G01X106318Y-178371D02*
X106790Y-178764D01*
X107321Y-179000D01*
X107793D01*
X108265Y-178764D01*
X108619Y-178371D01*
X108796Y-177820D01*
X108678Y-177269D01*
X108383Y-176797D01*
X107852Y-176483D01*
X107144Y-176325D01*
X106731Y-176011D01*
X106554Y-175460D01*
X106672Y-174909D01*
X106967Y-174516D01*
X107380Y-174280D01*
X107793D01*
X108206Y-174437D01*
X108560Y-174831D01*
G01X113457Y-179000D02*
X111097D01*
Y-174280D01*
X113457D01*
G01X112513Y-176561D02*
X111097D01*
G01X115640Y-179000D02*
Y-174280D01*
X118354Y-179000D01*
Y-174280D01*
G01X121717D02*
Y-179000D01*
G01X120360Y-174280D02*
X123074D01*
G01X131157Y-179000D02*
X130685Y-178921D01*
X130272Y-178607D01*
X129918Y-178135D01*
X129682Y-177584D01*
X129564Y-176955D01*
Y-176325D01*
X129682Y-175696D01*
X129918Y-175145D01*
X130272Y-174673D01*
X130685Y-174359D01*
X131157Y-174280D01*
X131629Y-174359D01*
X132042Y-174673D01*
X132396Y-175145D01*
X132632Y-175696D01*
X132750Y-176325D01*
Y-176955D01*
X132632Y-177584D01*
X132396Y-178135D01*
X132042Y-178607D01*
X131629Y-178921D01*
X131157Y-179000D01*
G01X134756D02*
Y-174280D01*
X136998D01*
G01X136172Y-176561D02*
X134756D01*
G01X-16343Y-171000D02*
Y-166280D01*
X-14927D01*
X-14455Y-166516D01*
X-14101Y-167067D01*
X-13983Y-167696D01*
X-14101Y-168325D01*
X-14396Y-168797D01*
X-14927Y-169033D01*
X-16343D01*
G01X-11623Y-171000D02*
Y-166280D01*
X-10148D01*
X-9676Y-166516D01*
X-9381Y-166831D01*
X-9263Y-167460D01*
X-9381Y-168089D01*
X-9735Y-168483D01*
X-10148Y-168719D01*
X-11623D01*
G01X-10148D02*
X-9263Y-171000D01*
G01X-5723D02*
X-6195Y-170921D01*
X-6608Y-170607D01*
X-6962Y-170135D01*
X-7198Y-169584D01*
X-7316Y-168955D01*
Y-168325D01*
X-7198Y-167696D01*
X-6962Y-167145D01*
X-6608Y-166673D01*
X-6195Y-166359D01*
X-5723Y-166280D01*
X-5251Y-166359D01*
X-4838Y-166673D01*
X-4484Y-167145D01*
X-4248Y-167696D01*
X-4130Y-168325D01*
Y-168955D01*
X-4248Y-169584D01*
X-4484Y-170135D01*
X-4838Y-170607D01*
X-5251Y-170921D01*
X-5723Y-171000D01*
G01X295Y-166673D02*
X-59Y-166437D01*
X-472Y-166280D01*
X-944D01*
X-1475Y-166516D01*
X-1888Y-166909D01*
X-2183Y-167381D01*
X-2419Y-168168D01*
X-2478Y-168876D01*
X-2360Y-169584D01*
X-2183Y-170056D01*
X-1829Y-170528D01*
X-1416Y-170843D01*
X-1003Y-171000D01*
X-590D01*
X-177Y-170843D01*
X177Y-170607D01*
X472Y-170292D01*
G01X2419Y-166280D02*
Y-169663D01*
X2655Y-170371D01*
X3127Y-170843D01*
X3717Y-171000D01*
X4307Y-170843D01*
X4779Y-170371D01*
X5015Y-169663D01*
Y-166280D01*
G01X7257Y-171000D02*
Y-166280D01*
X8732D01*
X9204Y-166516D01*
X9499Y-166831D01*
X9617Y-167460D01*
X9499Y-168089D01*
X9145Y-168483D01*
X8732Y-168719D01*
X7257D01*
G01X8732D02*
X9617Y-171000D01*
G01X14337D02*
X11977D01*
Y-166280D01*
X14337D01*
G01X13393Y-168561D02*
X11977D01*
G01X16343Y-171000D02*
Y-166280D01*
X17877Y-170213D01*
X19411Y-166280D01*
Y-171000D01*
G01X23777D02*
X21417D01*
Y-166280D01*
X23777D01*
G01X22833Y-168561D02*
X21417D01*
G01X25960Y-171000D02*
Y-166280D01*
X28674Y-171000D01*
Y-166280D01*
G01X32037D02*
Y-171000D01*
G01X30680Y-166280D02*
X33394D01*
G01X41477Y-171000D02*
X41005Y-170921D01*
X40592Y-170607D01*
X40238Y-170135D01*
X40002Y-169584D01*
X39884Y-168955D01*
Y-168325D01*
X40002Y-167696D01*
X40238Y-167145D01*
X40592Y-166673D01*
X41005Y-166359D01*
X41477Y-166280D01*
X41949Y-166359D01*
X42362Y-166673D01*
X42716Y-167145D01*
X42952Y-167696D01*
X43070Y-168325D01*
Y-168955D01*
X42952Y-169584D01*
X42716Y-170135D01*
X42362Y-170607D01*
X41949Y-170921D01*
X41477Y-171000D01*
G01X45017D02*
Y-166280D01*
X46492D01*
X46964Y-166516D01*
X47259Y-166831D01*
X47377Y-167460D01*
X47259Y-168089D01*
X46905Y-168483D01*
X46492Y-168719D01*
X45017D01*
G01X46492D02*
X47377Y-171000D01*
G01X54103D02*
Y-166280D01*
X55637Y-170213D01*
X57171Y-166280D01*
Y-171000D01*
G01X58882D02*
X60357Y-166280D01*
X61832Y-171000D01*
G01X61301Y-169348D02*
X59413D01*
G01X63720Y-171000D02*
Y-166280D01*
X66434Y-171000D01*
Y-166280D01*
G01X68499D02*
Y-169663D01*
X68735Y-170371D01*
X69207Y-170843D01*
X69797Y-171000D01*
X70387Y-170843D01*
X70859Y-170371D01*
X71095Y-169663D01*
Y-166280D01*
G01X73396Y-171000D02*
Y-166280D01*
X75638D01*
G01X74812Y-168561D02*
X73396D01*
G01X77762Y-171000D02*
X79237Y-166280D01*
X80712Y-171000D01*
G01X80181Y-169348D02*
X78293D01*
G01X85255Y-166673D02*
X84901Y-166437D01*
X84488Y-166280D01*
X84016D01*
X83485Y-166516D01*
X83072Y-166909D01*
X82777Y-167381D01*
X82541Y-168168D01*
X82482Y-168876D01*
X82600Y-169584D01*
X82777Y-170056D01*
X83131Y-170528D01*
X83544Y-170843D01*
X83957Y-171000D01*
X84370D01*
X84783Y-170843D01*
X85137Y-170607D01*
X85432Y-170292D01*
G01X88677Y-166280D02*
Y-171000D01*
G01X87320Y-166280D02*
X90034D01*
G01X92099D02*
Y-169663D01*
X92335Y-170371D01*
X92807Y-170843D01*
X93397Y-171000D01*
X93987Y-170843D01*
X94459Y-170371D01*
X94695Y-169663D01*
Y-166280D01*
G01X96937Y-171000D02*
Y-166280D01*
X98412D01*
X98884Y-166516D01*
X99179Y-166831D01*
X99297Y-167460D01*
X99179Y-168089D01*
X98825Y-168483D01*
X98412Y-168719D01*
X96937D01*
G01X98412D02*
X99297Y-171000D01*
G01X104017D02*
X101657D01*
Y-166280D01*
X104017D01*
G01X103073Y-168561D02*
X101657D01*
G01X111569Y-166280D02*
X112985D01*
G01X112277D02*
Y-171000D01*
G01X111569D02*
X112985D01*
G01X115640D02*
Y-166280D01*
X118354Y-171000D01*
Y-166280D01*
G01X124667D02*
X125493Y-171000D01*
X126437Y-166280D01*
X127381Y-171000D01*
X128207Y-166280D01*
G01X129918Y-171000D02*
Y-166280D01*
G01X132396D02*
Y-171000D01*
G01Y-168640D02*
X129918D01*
G01X135877Y-171000D02*
X135405Y-170921D01*
X134992Y-170607D01*
X134638Y-170135D01*
X134402Y-169584D01*
X134284Y-168955D01*
Y-168325D01*
X134402Y-167696D01*
X134638Y-167145D01*
X134992Y-166673D01*
X135405Y-166359D01*
X135877Y-166280D01*
X136349Y-166359D01*
X136762Y-166673D01*
X137116Y-167145D01*
X137352Y-167696D01*
X137470Y-168325D01*
Y-168955D01*
X137352Y-169584D01*
X137116Y-170135D01*
X136762Y-170607D01*
X136349Y-170921D01*
X135877Y-171000D01*
G01X139417Y-166280D02*
Y-171000D01*
X141777D01*
G01X146497D02*
X144137D01*
Y-166280D01*
X146497D01*
G01X145553Y-168561D02*
X144137D01*
G01X-16520Y-163000D02*
Y-158280D01*
X-13806Y-163000D01*
Y-158280D01*
G01X-10443Y-163000D02*
X-10915Y-162921D01*
X-11328Y-162607D01*
X-11682Y-162135D01*
X-11918Y-161584D01*
X-12036Y-160955D01*
Y-160325D01*
X-11918Y-159696D01*
X-11682Y-159145D01*
X-11328Y-158673D01*
X-10915Y-158359D01*
X-10443Y-158280D01*
X-9971Y-158359D01*
X-9558Y-158673D01*
X-9204Y-159145D01*
X-8968Y-159696D01*
X-8850Y-160325D01*
Y-160955D01*
X-8968Y-161584D01*
X-9204Y-162135D01*
X-9558Y-162607D01*
X-9971Y-162921D01*
X-10443Y-163000D01*
G01X-5723Y-158280D02*
Y-163000D01*
G01X-7080Y-158280D02*
X-4366D01*
G01X4189Y-160483D02*
X4425Y-160247D01*
X4602Y-159853D01*
X4720Y-159303D01*
X4602Y-158831D01*
X4366Y-158516D01*
X3953Y-158280D01*
X2360D01*
Y-163000D01*
X4307D01*
X4720Y-162685D01*
X4956Y-162213D01*
X5074Y-161663D01*
X4956Y-161112D01*
X4602Y-160640D01*
X4189Y-160483D01*
X2360D01*
G01X9617Y-163000D02*
X7257D01*
Y-158280D01*
X9617D01*
G01X8673Y-160561D02*
X7257D01*
G01X16579Y-158280D02*
Y-161663D01*
X16815Y-162371D01*
X17287Y-162843D01*
X17877Y-163000D01*
X18467Y-162843D01*
X18939Y-162371D01*
X19175Y-161663D01*
Y-158280D01*
G01X21358Y-162371D02*
X21830Y-162764D01*
X22361Y-163000D01*
X22833D01*
X23305Y-162764D01*
X23659Y-162371D01*
X23836Y-161820D01*
X23718Y-161269D01*
X23423Y-160797D01*
X22892Y-160483D01*
X22184Y-160325D01*
X21771Y-160011D01*
X21594Y-159460D01*
X21712Y-158909D01*
X22007Y-158516D01*
X22420Y-158280D01*
X22833D01*
X23246Y-158437D01*
X23600Y-158831D01*
G01X28497Y-163000D02*
X26137D01*
Y-158280D01*
X28497D01*
G01X27553Y-160561D02*
X26137D01*
G01X30739Y-163000D02*
Y-158280D01*
X31919D01*
X32391Y-158516D01*
X32745Y-158831D01*
X33040Y-159303D01*
X33276Y-159853D01*
X33335Y-160640D01*
X33276Y-161427D01*
X33040Y-161977D01*
X32745Y-162449D01*
X32391Y-162764D01*
X31919Y-163000D01*
X30739D01*
G01X40356D02*
Y-158280D01*
X42598D01*
G01X41772Y-160561D02*
X40356D01*
G01X46197Y-163000D02*
X45725Y-162921D01*
X45312Y-162607D01*
X44958Y-162135D01*
X44722Y-161584D01*
X44604Y-160955D01*
Y-160325D01*
X44722Y-159696D01*
X44958Y-159145D01*
X45312Y-158673D01*
X45725Y-158359D01*
X46197Y-158280D01*
X46669Y-158359D01*
X47082Y-158673D01*
X47436Y-159145D01*
X47672Y-159696D01*
X47790Y-160325D01*
Y-160955D01*
X47672Y-161584D01*
X47436Y-162135D01*
X47082Y-162607D01*
X46669Y-162921D01*
X46197Y-163000D01*
G01X49737D02*
Y-158280D01*
X51212D01*
X51684Y-158516D01*
X51979Y-158831D01*
X52097Y-159460D01*
X51979Y-160089D01*
X51625Y-160483D01*
X51212Y-160719D01*
X49737D01*
G01X51212D02*
X52097Y-163000D01*
G01X61537D02*
X59177D01*
Y-158280D01*
X61537D01*
G01X60593Y-160561D02*
X59177D01*
G01X63720Y-163000D02*
Y-158280D01*
X66434Y-163000D01*
Y-158280D01*
G01X70151Y-160640D02*
X71331D01*
Y-162056D01*
X70977Y-162528D01*
X70564Y-162843D01*
X69974Y-163000D01*
X69384Y-162843D01*
X68971Y-162528D01*
X68617Y-162056D01*
X68381Y-161505D01*
X68263Y-160876D01*
Y-160325D01*
X68381Y-159853D01*
X68617Y-159303D01*
X68971Y-158831D01*
X69325Y-158516D01*
X69797Y-158280D01*
X70210D01*
X70682Y-158437D01*
X71036Y-158752D01*
G01X73809Y-158280D02*
X75225D01*
G01X74517D02*
Y-163000D01*
G01X73809D02*
X75225D01*
G01X77880D02*
Y-158280D01*
X80594Y-163000D01*
Y-158280D01*
G01X85137Y-163000D02*
X82777D01*
Y-158280D01*
X85137D01*
G01X84193Y-160561D02*
X82777D01*
G01X89857Y-163000D02*
X87497D01*
Y-158280D01*
X89857D01*
G01X88913Y-160561D02*
X87497D01*
G01X92217Y-163000D02*
Y-158280D01*
X93692D01*
X94164Y-158516D01*
X94459Y-158831D01*
X94577Y-159460D01*
X94459Y-160089D01*
X94105Y-160483D01*
X93692Y-160719D01*
X92217D01*
G01X93692D02*
X94577Y-163000D01*
G01X97409Y-158280D02*
X98825D01*
G01X98117D02*
Y-163000D01*
G01X97409D02*
X98825D01*
G01X101480D02*
Y-158280D01*
X104194Y-163000D01*
Y-158280D01*
G01X107911Y-160640D02*
X109091D01*
Y-162056D01*
X108737Y-162528D01*
X108324Y-162843D01*
X107734Y-163000D01*
X107144Y-162843D01*
X106731Y-162528D01*
X106377Y-162056D01*
X106141Y-161505D01*
X106023Y-160876D01*
Y-160325D01*
X106141Y-159853D01*
X106377Y-159303D01*
X106731Y-158831D01*
X107085Y-158516D01*
X107557Y-158280D01*
X107970D01*
X108442Y-158437D01*
X108796Y-158752D01*
G01X115699Y-163000D02*
Y-158280D01*
X116879D01*
X117351Y-158516D01*
X117705Y-158831D01*
X118000Y-159303D01*
X118236Y-159853D01*
X118295Y-160640D01*
X118236Y-161427D01*
X118000Y-161977D01*
X117705Y-162449D01*
X117351Y-162764D01*
X116879Y-163000D01*
X115699D01*
G01X122897D02*
X120537D01*
Y-158280D01*
X122897D01*
G01X121953Y-160561D02*
X120537D01*
G01X125198Y-162371D02*
X125670Y-162764D01*
X126201Y-163000D01*
X126673D01*
X127145Y-162764D01*
X127499Y-162371D01*
X127676Y-161820D01*
X127558Y-161269D01*
X127263Y-160797D01*
X126732Y-160483D01*
X126024Y-160325D01*
X125611Y-160011D01*
X125434Y-159460D01*
X125552Y-158909D01*
X125847Y-158516D01*
X126260Y-158280D01*
X126673D01*
X127086Y-158437D01*
X127440Y-158831D01*
G01X130449Y-158280D02*
X131865D01*
G01X131157D02*
Y-163000D01*
G01X130449D02*
X131865D01*
G01X136231Y-160640D02*
X137411D01*
Y-162056D01*
X137057Y-162528D01*
X136644Y-162843D01*
X136054Y-163000D01*
X135464Y-162843D01*
X135051Y-162528D01*
X134697Y-162056D01*
X134461Y-161505D01*
X134343Y-160876D01*
Y-160325D01*
X134461Y-159853D01*
X134697Y-159303D01*
X135051Y-158831D01*
X135405Y-158516D01*
X135877Y-158280D01*
X136290D01*
X136762Y-158437D01*
X137116Y-158752D01*
G01X139240Y-163000D02*
Y-158280D01*
X141954Y-163000D01*
Y-158280D01*
G01X-23638Y-137000D02*
X-22163Y-132280D01*
X-20688Y-137000D01*
G01X-21219Y-135348D02*
X-23107D01*
G01X-18741Y-132280D02*
Y-135663D01*
X-18505Y-136371D01*
X-18033Y-136843D01*
X-17443Y-137000D01*
X-16853Y-136843D01*
X-16381Y-136371D01*
X-16145Y-135663D01*
Y-132280D01*
G01X-13962Y-136371D02*
X-13490Y-136764D01*
X-12959Y-137000D01*
X-12487D01*
X-12015Y-136764D01*
X-11661Y-136371D01*
X-11484Y-135820D01*
X-11602Y-135269D01*
X-11897Y-134797D01*
X-12428Y-134483D01*
X-13136Y-134325D01*
X-13549Y-134011D01*
X-13726Y-133460D01*
X-13608Y-132909D01*
X-13313Y-132516D01*
X-12900Y-132280D01*
X-12487D01*
X-12074Y-132437D01*
X-11720Y-132831D01*
G01X-8003Y-132280D02*
Y-137000D01*
G01X-9360Y-132280D02*
X-6646D01*
G01X-3991D02*
X-2575D01*
G01X-3283D02*
Y-137000D01*
G01X-3991D02*
X-2575D01*
G01X80D02*
Y-132280D01*
X2794Y-137000D01*
Y-132280D01*
G01X6157Y-137157D02*
X6039Y-137079D01*
Y-136921D01*
X6157Y-136843D01*
X6275Y-136921D01*
Y-137079D01*
X6157Y-137157D01*
G01X15597Y-132280D02*
Y-137000D01*
G01X14240Y-132280D02*
X16954D01*
G01X21497Y-137000D02*
X19137D01*
Y-132280D01*
X21497D01*
G01X20553Y-134561D02*
X19137D01*
G01X23798Y-137000D02*
X26276Y-132280D01*
G01X23798D02*
X26276Y-137000D01*
G01X28282D02*
X29757Y-132280D01*
X31232Y-137000D01*
G01X30701Y-135348D02*
X28813D01*
G01X33238Y-136371D02*
X33710Y-136764D01*
X34241Y-137000D01*
X34713D01*
X35185Y-136764D01*
X35539Y-136371D01*
X35716Y-135820D01*
X35598Y-135269D01*
X35303Y-134797D01*
X34772Y-134483D01*
X34064Y-134325D01*
X33651Y-134011D01*
X33474Y-133460D01*
X33592Y-132909D01*
X33887Y-132516D01*
X34300Y-132280D01*
X34713D01*
X35126Y-132437D01*
X35480Y-132831D01*
G01X43799Y-137000D02*
X43917Y-135977D01*
X44094Y-135112D01*
X44330Y-134325D01*
X44625Y-133460D01*
X45097Y-132280D01*
X42737D01*
G01X48637Y-137000D02*
X49050Y-136921D01*
X49522Y-136685D01*
X49817Y-136292D01*
X49935Y-135741D01*
X49817Y-135191D01*
X49463Y-134719D01*
X48932Y-134483D01*
X48342D01*
X47988Y-134325D01*
X47693Y-133932D01*
X47575Y-133381D01*
X47752Y-132831D01*
X48165Y-132437D01*
X48637Y-132280D01*
X49109Y-132437D01*
X49522Y-132831D01*
X49699Y-133381D01*
X49581Y-133932D01*
X49286Y-134325D01*
X48932Y-134483D01*
X48342D01*
X47811Y-134719D01*
X47457Y-135191D01*
X47339Y-135741D01*
X47457Y-136292D01*
X47752Y-136685D01*
X48224Y-136921D01*
X48637Y-137000D01*
G01X53239D02*
X53357Y-135977D01*
X53534Y-135112D01*
X53770Y-134325D01*
X54065Y-133460D01*
X54537Y-132280D01*
X52177D01*
G01X56779Y-136056D02*
X57133Y-136607D01*
X57605Y-136921D01*
X58136Y-137000D01*
X58608Y-136921D01*
X59080Y-136528D01*
X59375Y-136056D01*
X59434Y-135584D01*
X59316Y-135033D01*
X58903Y-134640D01*
X58490Y-134483D01*
X57959D01*
G01X58490D02*
X58844Y-134247D01*
X59139Y-133853D01*
X59257Y-133381D01*
X59139Y-132909D01*
X58844Y-132516D01*
X58313Y-132280D01*
X57782Y-132359D01*
X57251Y-132673D01*
G01X61499Y-136292D02*
X61853Y-136685D01*
X62266Y-136921D01*
X62797Y-137000D01*
X63328Y-136843D01*
X63741Y-136528D01*
X64036Y-135977D01*
X64095Y-135348D01*
X63977Y-134719D01*
X63682Y-134325D01*
X63269Y-134011D01*
X62856Y-133932D01*
X62443Y-134011D01*
X61912Y-134325D01*
X62089Y-132280D01*
X63682D01*
G01X70939D02*
Y-135663D01*
X71175Y-136371D01*
X71647Y-136843D01*
X72237Y-137000D01*
X72827Y-136843D01*
X73299Y-136371D01*
X73535Y-135663D01*
Y-132280D01*
G01X75718Y-136371D02*
X76190Y-136764D01*
X76721Y-137000D01*
X77193D01*
X77665Y-136764D01*
X78019Y-136371D01*
X78196Y-135820D01*
X78078Y-135269D01*
X77783Y-134797D01*
X77252Y-134483D01*
X76544Y-134325D01*
X76131Y-134011D01*
X75954Y-133460D01*
X76072Y-132909D01*
X76367Y-132516D01*
X76780Y-132280D01*
X77193D01*
X77606Y-132437D01*
X77960Y-132831D01*
G01X80202Y-137000D02*
X81677Y-132280D01*
X83152Y-137000D01*
G01X82621Y-135348D02*
X80733D01*
G01X-16343Y-155000D02*
Y-150280D01*
X-14927D01*
X-14455Y-150516D01*
X-14101Y-151067D01*
X-13983Y-151696D01*
X-14101Y-152325D01*
X-14396Y-152797D01*
X-14927Y-153033D01*
X-16343D01*
G01X-11623Y-155000D02*
Y-150280D01*
X-10148D01*
X-9676Y-150516D01*
X-9381Y-150831D01*
X-9263Y-151460D01*
X-9381Y-152089D01*
X-9735Y-152483D01*
X-10148Y-152719D01*
X-11623D01*
G01X-10148D02*
X-9263Y-155000D01*
G01X-5723D02*
X-6195Y-154921D01*
X-6608Y-154607D01*
X-6962Y-154135D01*
X-7198Y-153584D01*
X-7316Y-152955D01*
Y-152325D01*
X-7198Y-151696D01*
X-6962Y-151145D01*
X-6608Y-150673D01*
X-6195Y-150359D01*
X-5723Y-150280D01*
X-5251Y-150359D01*
X-4838Y-150673D01*
X-4484Y-151145D01*
X-4248Y-151696D01*
X-4130Y-152325D01*
Y-152955D01*
X-4248Y-153584D01*
X-4484Y-154135D01*
X-4838Y-154607D01*
X-5251Y-154921D01*
X-5723Y-155000D01*
G01X-2183D02*
Y-150280D01*
X-767D01*
X-295Y-150516D01*
X59Y-151067D01*
X177Y-151696D01*
X59Y-152325D01*
X-236Y-152797D01*
X-767Y-153033D01*
X-2183D01*
G01X2537Y-155000D02*
Y-150280D01*
X4012D01*
X4484Y-150516D01*
X4779Y-150831D01*
X4897Y-151460D01*
X4779Y-152089D01*
X4425Y-152483D01*
X4012Y-152719D01*
X2537D01*
G01X4012D02*
X4897Y-155000D01*
G01X7729Y-150280D02*
X9145D01*
G01X8437D02*
Y-155000D01*
G01X7729D02*
X9145D01*
G01X14337D02*
X11977D01*
Y-150280D01*
X14337D01*
G01X13393Y-152561D02*
X11977D01*
G01X17877Y-150280D02*
Y-155000D01*
G01X16520Y-150280D02*
X19234D01*
G01X21122Y-155000D02*
X22597Y-150280D01*
X24072Y-155000D01*
G01X23541Y-153348D02*
X21653D01*
G01X26137Y-155000D02*
Y-150280D01*
X27612D01*
X28084Y-150516D01*
X28379Y-150831D01*
X28497Y-151460D01*
X28379Y-152089D01*
X28025Y-152483D01*
X27612Y-152719D01*
X26137D01*
G01X27612D02*
X28497Y-155000D01*
G01X32037D02*
Y-152876D01*
X30857Y-150280D01*
G01X33217D02*
X32037Y-152876D01*
G01X41477Y-150280D02*
Y-155000D01*
G01X40120Y-150280D02*
X42834D01*
G01X46197Y-155000D02*
X45725Y-154921D01*
X45312Y-154607D01*
X44958Y-154135D01*
X44722Y-153584D01*
X44604Y-152955D01*
Y-152325D01*
X44722Y-151696D01*
X44958Y-151145D01*
X45312Y-150673D01*
X45725Y-150359D01*
X46197Y-150280D01*
X46669Y-150359D01*
X47082Y-150673D01*
X47436Y-151145D01*
X47672Y-151696D01*
X47790Y-152325D01*
Y-152955D01*
X47672Y-153584D01*
X47436Y-154135D01*
X47082Y-154607D01*
X46669Y-154921D01*
X46197Y-155000D01*
G01X54516D02*
Y-150280D01*
X56758D01*
G01X55932Y-152561D02*
X54516D01*
G01X59177Y-155000D02*
Y-150280D01*
X60652D01*
X61124Y-150516D01*
X61419Y-150831D01*
X61537Y-151460D01*
X61419Y-152089D01*
X61065Y-152483D01*
X60652Y-152719D01*
X59177D01*
G01X60652D02*
X61537Y-155000D01*
G01X66257D02*
X63897D01*
Y-150280D01*
X66257D01*
G01X65313Y-152561D02*
X63897D01*
G01X70977Y-155000D02*
X68617D01*
Y-150280D01*
X70977D01*
G01X70033Y-152561D02*
X68617D01*
G01X73278Y-154371D02*
X73750Y-154764D01*
X74281Y-155000D01*
X74753D01*
X75225Y-154764D01*
X75579Y-154371D01*
X75756Y-153820D01*
X75638Y-153269D01*
X75343Y-152797D01*
X74812Y-152483D01*
X74104Y-152325D01*
X73691Y-152011D01*
X73514Y-151460D01*
X73632Y-150909D01*
X73927Y-150516D01*
X74340Y-150280D01*
X74753D01*
X75166Y-150437D01*
X75520Y-150831D01*
G01X80535Y-150673D02*
X80181Y-150437D01*
X79768Y-150280D01*
X79296D01*
X78765Y-150516D01*
X78352Y-150909D01*
X78057Y-151381D01*
X77821Y-152168D01*
X77762Y-152876D01*
X77880Y-153584D01*
X78057Y-154056D01*
X78411Y-154528D01*
X78824Y-154843D01*
X79237Y-155000D01*
X79650D01*
X80063Y-154843D01*
X80417Y-154607D01*
X80712Y-154292D01*
G01X82482Y-155000D02*
X83957Y-150280D01*
X85432Y-155000D01*
G01X84901Y-153348D02*
X83013D01*
G01X87497Y-150280D02*
Y-155000D01*
X89857D01*
G01X94577D02*
X92217D01*
Y-150280D01*
X94577D01*
G01X93633Y-152561D02*
X92217D01*
G01X101362Y-155000D02*
X102837Y-150280D01*
X104312Y-155000D01*
G01X103781Y-153348D02*
X101893D01*
G01X106200Y-155000D02*
Y-150280D01*
X108914Y-155000D01*
Y-150280D01*
G01X110979Y-155000D02*
Y-150280D01*
X112159D01*
X112631Y-150516D01*
X112985Y-150831D01*
X113280Y-151303D01*
X113516Y-151853D01*
X113575Y-152640D01*
X113516Y-153427D01*
X113280Y-153977D01*
X112985Y-154449D01*
X112631Y-154764D01*
X112159Y-155000D01*
X110979D01*
G01X120478Y-154371D02*
X120950Y-154764D01*
X121481Y-155000D01*
X121953D01*
X122425Y-154764D01*
X122779Y-154371D01*
X122956Y-153820D01*
X122838Y-153269D01*
X122543Y-152797D01*
X122012Y-152483D01*
X121304Y-152325D01*
X120891Y-152011D01*
X120714Y-151460D01*
X120832Y-150909D01*
X121127Y-150516D01*
X121540Y-150280D01*
X121953D01*
X122366Y-150437D01*
X122720Y-150831D01*
G01X125198Y-155000D02*
Y-150280D01*
G01X127676D02*
Y-155000D01*
G01Y-152640D02*
X125198D01*
G01X129682Y-155000D02*
X131157Y-150280D01*
X132632Y-155000D01*
G01X132101Y-153348D02*
X130213D01*
G01X134697Y-150280D02*
Y-155000D01*
X137057D01*
G01X139417Y-150280D02*
Y-155000D01*
X141777D01*
G01X-16163Y-142280D02*
Y-147000D01*
G01X-17520Y-142280D02*
X-14806D01*
G01X-12682Y-147000D02*
Y-142280D01*
G01X-10204D02*
Y-147000D01*
G01Y-144640D02*
X-12682D01*
G01X-7431Y-142280D02*
X-6015D01*
G01X-6723D02*
Y-147000D01*
G01X-7431D02*
X-6015D01*
G01X-3242Y-146371D02*
X-2770Y-146764D01*
X-2239Y-147000D01*
X-1767D01*
X-1295Y-146764D01*
X-941Y-146371D01*
X-764Y-145820D01*
X-882Y-145269D01*
X-1177Y-144797D01*
X-1708Y-144483D01*
X-2416Y-144325D01*
X-2829Y-144011D01*
X-3006Y-143460D01*
X-2888Y-142909D01*
X-2593Y-142516D01*
X-2180Y-142280D01*
X-1767D01*
X-1354Y-142437D01*
X-1000Y-142831D01*
G01X6139Y-147000D02*
Y-142280D01*
X7319D01*
X7791Y-142516D01*
X8145Y-142831D01*
X8440Y-143303D01*
X8676Y-143853D01*
X8735Y-144640D01*
X8676Y-145427D01*
X8440Y-145977D01*
X8145Y-146449D01*
X7791Y-146764D01*
X7319Y-147000D01*
X6139D01*
G01X12157D02*
X11685Y-146921D01*
X11272Y-146607D01*
X10918Y-146135D01*
X10682Y-145584D01*
X10564Y-144955D01*
Y-144325D01*
X10682Y-143696D01*
X10918Y-143145D01*
X11272Y-142673D01*
X11685Y-142359D01*
X12157Y-142280D01*
X12629Y-142359D01*
X13042Y-142673D01*
X13396Y-143145D01*
X13632Y-143696D01*
X13750Y-144325D01*
Y-144955D01*
X13632Y-145584D01*
X13396Y-146135D01*
X13042Y-146607D01*
X12629Y-146921D01*
X12157Y-147000D01*
G01X18175Y-142673D02*
X17821Y-142437D01*
X17408Y-142280D01*
X16936D01*
X16405Y-142516D01*
X15992Y-142909D01*
X15697Y-143381D01*
X15461Y-144168D01*
X15402Y-144876D01*
X15520Y-145584D01*
X15697Y-146056D01*
X16051Y-146528D01*
X16464Y-146843D01*
X16877Y-147000D01*
X17290D01*
X17703Y-146843D01*
X18057Y-146607D01*
X18352Y-146292D01*
G01X20299Y-142280D02*
Y-145663D01*
X20535Y-146371D01*
X21007Y-146843D01*
X21597Y-147000D01*
X22187Y-146843D01*
X22659Y-146371D01*
X22895Y-145663D01*
Y-142280D01*
G01X24783Y-147000D02*
Y-142280D01*
X26317Y-146213D01*
X27851Y-142280D01*
Y-147000D01*
G01X32217D02*
X29857D01*
Y-142280D01*
X32217D01*
G01X31273Y-144561D02*
X29857D01*
G01X34400Y-147000D02*
Y-142280D01*
X37114Y-147000D01*
Y-142280D01*
G01X40477D02*
Y-147000D01*
G01X39120Y-142280D02*
X41834D01*
G01X51215Y-142673D02*
X50861Y-142437D01*
X50448Y-142280D01*
X49976D01*
X49445Y-142516D01*
X49032Y-142909D01*
X48737Y-143381D01*
X48501Y-144168D01*
X48442Y-144876D01*
X48560Y-145584D01*
X48737Y-146056D01*
X49091Y-146528D01*
X49504Y-146843D01*
X49917Y-147000D01*
X50330D01*
X50743Y-146843D01*
X51097Y-146607D01*
X51392Y-146292D01*
G01X54637Y-147000D02*
X54165Y-146921D01*
X53752Y-146607D01*
X53398Y-146135D01*
X53162Y-145584D01*
X53044Y-144955D01*
Y-144325D01*
X53162Y-143696D01*
X53398Y-143145D01*
X53752Y-142673D01*
X54165Y-142359D01*
X54637Y-142280D01*
X55109Y-142359D01*
X55522Y-142673D01*
X55876Y-143145D01*
X56112Y-143696D01*
X56230Y-144325D01*
Y-144955D01*
X56112Y-145584D01*
X55876Y-146135D01*
X55522Y-146607D01*
X55109Y-146921D01*
X54637Y-147000D01*
G01X58000D02*
Y-142280D01*
X60714Y-147000D01*
Y-142280D01*
G01X64077D02*
Y-147000D01*
G01X62720Y-142280D02*
X65434D01*
G01X67322Y-147000D02*
X68797Y-142280D01*
X70272Y-147000D01*
G01X69741Y-145348D02*
X67853D01*
G01X72809Y-142280D02*
X74225D01*
G01X73517D02*
Y-147000D01*
G01X72809D02*
X74225D01*
G01X76880D02*
Y-142280D01*
X79594Y-147000D01*
Y-142280D01*
G01X81718Y-146371D02*
X82190Y-146764D01*
X82721Y-147000D01*
X83193D01*
X83665Y-146764D01*
X84019Y-146371D01*
X84196Y-145820D01*
X84078Y-145269D01*
X83783Y-144797D01*
X83252Y-144483D01*
X82544Y-144325D01*
X82131Y-144011D01*
X81954Y-143460D01*
X82072Y-142909D01*
X82367Y-142516D01*
X82780Y-142280D01*
X83193D01*
X83606Y-142437D01*
X83960Y-142831D01*
G01X91689Y-142280D02*
X93105D01*
G01X92397D02*
Y-147000D01*
G01X91689D02*
X93105D01*
G01X95760D02*
Y-142280D01*
X98474Y-147000D01*
Y-142280D01*
G01X100716Y-147000D02*
Y-142280D01*
X102958D01*
G01X102132Y-144561D02*
X100716D01*
G01X106557Y-147000D02*
X106085Y-146921D01*
X105672Y-146607D01*
X105318Y-146135D01*
X105082Y-145584D01*
X104964Y-144955D01*
Y-144325D01*
X105082Y-143696D01*
X105318Y-143145D01*
X105672Y-142673D01*
X106085Y-142359D01*
X106557Y-142280D01*
X107029Y-142359D01*
X107442Y-142673D01*
X107796Y-143145D01*
X108032Y-143696D01*
X108150Y-144325D01*
Y-144955D01*
X108032Y-145584D01*
X107796Y-146135D01*
X107442Y-146607D01*
X107029Y-146921D01*
X106557Y-147000D01*
G01X110097D02*
Y-142280D01*
X111572D01*
X112044Y-142516D01*
X112339Y-142831D01*
X112457Y-143460D01*
X112339Y-144089D01*
X111985Y-144483D01*
X111572Y-144719D01*
X110097D01*
G01X111572D02*
X112457Y-147000D01*
G01X114463D02*
Y-142280D01*
X115997Y-146213D01*
X117531Y-142280D01*
Y-147000D01*
G01X119242D02*
X120717Y-142280D01*
X122192Y-147000D01*
G01X121661Y-145348D02*
X119773D01*
G01X125437Y-142280D02*
Y-147000D01*
G01X124080Y-142280D02*
X126794D01*
G01X129449D02*
X130865D01*
G01X130157D02*
Y-147000D01*
G01X129449D02*
X130865D01*
G01X134877D02*
X134405Y-146921D01*
X133992Y-146607D01*
X133638Y-146135D01*
X133402Y-145584D01*
X133284Y-144955D01*
Y-144325D01*
X133402Y-143696D01*
X133638Y-143145D01*
X133992Y-142673D01*
X134405Y-142359D01*
X134877Y-142280D01*
X135349Y-142359D01*
X135762Y-142673D01*
X136116Y-143145D01*
X136352Y-143696D01*
X136470Y-144325D01*
Y-144955D01*
X136352Y-145584D01*
X136116Y-146135D01*
X135762Y-146607D01*
X135349Y-146921D01*
X134877Y-147000D01*
G01X138240D02*
Y-142280D01*
X140954Y-147000D01*
Y-142280D01*
G01X-23284Y-128033D02*
X-22871Y-127483D01*
X-22517Y-127168D01*
X-22045Y-127011D01*
X-21632Y-127168D01*
X-21337Y-127483D01*
X-21101Y-127955D01*
X-21042Y-128505D01*
X-21101Y-128977D01*
X-21337Y-129449D01*
X-21691Y-129843D01*
X-22104Y-130000D01*
X-22576Y-129843D01*
X-22989Y-129371D01*
X-23225Y-128663D01*
X-23284Y-127876D01*
X-23166Y-126853D01*
X-22989Y-126303D01*
X-22694Y-125752D01*
X-22281Y-125359D01*
X-21868Y-125280D01*
X-21455Y-125437D01*
X-21160Y-125831D01*
G01X-18741Y-129292D02*
X-18387Y-129685D01*
X-17974Y-129921D01*
X-17443Y-130000D01*
X-16912Y-129843D01*
X-16499Y-129528D01*
X-16204Y-128977D01*
X-16145Y-128348D01*
X-16263Y-127719D01*
X-16558Y-127325D01*
X-16971Y-127011D01*
X-17384Y-126932D01*
X-17797Y-127011D01*
X-18328Y-127325D01*
X-18151Y-125280D01*
X-16558D01*
G01X-12723D02*
X-13195Y-125437D01*
X-13549Y-125831D01*
X-13785Y-126303D01*
X-13962Y-126932D01*
X-14021Y-127640D01*
X-13962Y-128348D01*
X-13785Y-128977D01*
X-13549Y-129449D01*
X-13195Y-129843D01*
X-12723Y-130000D01*
X-12251Y-129843D01*
X-11897Y-129449D01*
X-11661Y-128977D01*
X-11484Y-128348D01*
X-11425Y-127640D01*
X-11484Y-126932D01*
X-11661Y-126303D01*
X-11897Y-125831D01*
X-12251Y-125437D01*
X-12723Y-125280D01*
G01X-8003Y-130000D02*
Y-125280D01*
X-8711Y-126224D01*
G01Y-130000D02*
X-7295D01*
G01X-333Y-125280D02*
X493Y-130000D01*
X1437Y-125280D01*
X2381Y-130000D01*
X3207Y-125280D01*
G01X5449D02*
X6865D01*
G01X6157D02*
Y-130000D01*
G01X5449D02*
X6865D01*
G01X9697Y-125280D02*
Y-130000D01*
X12057D01*
G01X14417Y-125280D02*
Y-130000D01*
X16777D01*
G01X19609Y-125280D02*
X21025D01*
G01X20317D02*
Y-130000D01*
G01X19609D02*
X21025D01*
G01X23562D02*
X25037Y-125280D01*
X26512Y-130000D01*
G01X25981Y-128348D02*
X24093D01*
G01X28223Y-130000D02*
Y-125280D01*
X29757Y-129213D01*
X31291Y-125280D01*
Y-130000D01*
G01X40495Y-125673D02*
X40141Y-125437D01*
X39728Y-125280D01*
X39256D01*
X38725Y-125516D01*
X38312Y-125909D01*
X38017Y-126381D01*
X37781Y-127168D01*
X37722Y-127876D01*
X37840Y-128584D01*
X38017Y-129056D01*
X38371Y-129528D01*
X38784Y-129843D01*
X39197Y-130000D01*
X39610D01*
X40023Y-129843D01*
X40377Y-129607D01*
X40672Y-129292D01*
G01X42442Y-130000D02*
X43917Y-125280D01*
X45392Y-130000D01*
G01X44861Y-128348D02*
X42973D01*
G01X47280Y-130000D02*
Y-125280D01*
X49994Y-130000D01*
Y-125280D01*
G01X52000Y-130000D02*
Y-125280D01*
X54714Y-130000D01*
Y-125280D01*
G01X58077Y-130000D02*
X57605Y-129921D01*
X57192Y-129607D01*
X56838Y-129135D01*
X56602Y-128584D01*
X56484Y-127955D01*
Y-127325D01*
X56602Y-126696D01*
X56838Y-126145D01*
X57192Y-125673D01*
X57605Y-125359D01*
X58077Y-125280D01*
X58549Y-125359D01*
X58962Y-125673D01*
X59316Y-126145D01*
X59552Y-126696D01*
X59670Y-127325D01*
Y-127955D01*
X59552Y-128584D01*
X59316Y-129135D01*
X58962Y-129607D01*
X58549Y-129921D01*
X58077Y-130000D01*
G01X61440D02*
Y-125280D01*
X64154Y-130000D01*
Y-125280D01*
G01X70939Y-130000D02*
Y-125280D01*
X72119D01*
X72591Y-125516D01*
X72945Y-125831D01*
X73240Y-126303D01*
X73476Y-126853D01*
X73535Y-127640D01*
X73476Y-128427D01*
X73240Y-128977D01*
X72945Y-129449D01*
X72591Y-129764D01*
X72119Y-130000D01*
X70939D01*
G01X75777D02*
Y-125280D01*
X77252D01*
X77724Y-125516D01*
X78019Y-125831D01*
X78137Y-126460D01*
X78019Y-127089D01*
X77665Y-127483D01*
X77252Y-127719D01*
X75777D01*
G01X77252D02*
X78137Y-130000D01*
G01X80969Y-125280D02*
X82385D01*
G01X81677D02*
Y-130000D01*
G01X80969D02*
X82385D01*
G01X84922Y-125280D02*
X86397Y-130000D01*
X87872Y-125280D01*
G01X92297Y-130000D02*
X89937D01*
Y-125280D01*
X92297D01*
G01X91353Y-127561D02*
X89937D01*
G01X98787Y-125280D02*
X99613Y-130000D01*
X100557Y-125280D01*
X101501Y-130000D01*
X102327Y-125280D01*
G01X106457Y-130000D02*
X104097D01*
Y-125280D01*
X106457D01*
G01X105513Y-127561D02*
X104097D01*
G01X108758Y-129371D02*
X109230Y-129764D01*
X109761Y-130000D01*
X110233D01*
X110705Y-129764D01*
X111059Y-129371D01*
X111236Y-128820D01*
X111118Y-128269D01*
X110823Y-127797D01*
X110292Y-127483D01*
X109584Y-127325D01*
X109171Y-127011D01*
X108994Y-126460D01*
X109112Y-125909D01*
X109407Y-125516D01*
X109820Y-125280D01*
X110233D01*
X110646Y-125437D01*
X111000Y-125831D01*
G01X114717Y-125280D02*
Y-130000D01*
G01X113360Y-125280D02*
X116074D01*
G01X26716Y-198000D02*
Y-193280D01*
X28958D01*
G01X28132Y-195561D02*
X26716D01*
G01X31849Y-193280D02*
X33265D01*
G01X32557D02*
Y-198000D01*
G01X31849D02*
X33265D01*
G01X36097Y-193280D02*
Y-198000D01*
X38457D01*
G01X40463D02*
Y-193280D01*
X41997Y-197213D01*
X43531Y-193280D01*
Y-198000D01*
G01X154837Y-201280D02*
X154365Y-201437D01*
X154011Y-201831D01*
X153775Y-202303D01*
X153598Y-202932D01*
X153539Y-203640D01*
X153598Y-204348D01*
X153775Y-204977D01*
X154011Y-205449D01*
X154365Y-205843D01*
X154837Y-206000D01*
X155309Y-205843D01*
X155663Y-205449D01*
X155899Y-204977D01*
X156076Y-204348D01*
X156135Y-203640D01*
X156076Y-202932D01*
X155899Y-202303D01*
X155663Y-201831D01*
X155309Y-201437D01*
X154837Y-201280D01*
G01X159557Y-206000D02*
Y-201280D01*
X158849Y-202224D01*
G01Y-206000D02*
X160265D01*
G01X163510Y-204427D02*
X165044D01*
G01X167876Y-202067D02*
X168230Y-201595D01*
X168643Y-201359D01*
X169115Y-201280D01*
X169705Y-201437D01*
X170118Y-201831D01*
X170236Y-202303D01*
X170177Y-202775D01*
X169941Y-203168D01*
X168761Y-203955D01*
X168230Y-204505D01*
X167876Y-205292D01*
X167758Y-206000D01*
X170236D01*
G01X173717Y-201280D02*
X173245Y-201437D01*
X172891Y-201831D01*
X172655Y-202303D01*
X172478Y-202932D01*
X172419Y-203640D01*
X172478Y-204348D01*
X172655Y-204977D01*
X172891Y-205449D01*
X173245Y-205843D01*
X173717Y-206000D01*
X174189Y-205843D01*
X174543Y-205449D01*
X174779Y-204977D01*
X174956Y-204348D01*
X175015Y-203640D01*
X174956Y-202932D01*
X174779Y-202303D01*
X174543Y-201831D01*
X174189Y-201437D01*
X173717Y-201280D01*
G01X177670Y-204427D02*
X179204D01*
G01X183157Y-206000D02*
Y-201280D01*
X182449Y-202224D01*
G01Y-206000D02*
X183865D01*
G01X187877Y-201280D02*
X187405Y-201437D01*
X187051Y-201831D01*
X186815Y-202303D01*
X186638Y-202932D01*
X186579Y-203640D01*
X186638Y-204348D01*
X186815Y-204977D01*
X187051Y-205449D01*
X187405Y-205843D01*
X187877Y-206000D01*
X188349Y-205843D01*
X188703Y-205449D01*
X188939Y-204977D01*
X189116Y-204348D01*
X189175Y-203640D01*
X189116Y-202932D01*
X188939Y-202303D01*
X188703Y-201831D01*
X188349Y-201437D01*
X187877Y-201280D01*
G01X151539Y-198000D02*
Y-193280D01*
X152719D01*
X153191Y-193516D01*
X153545Y-193831D01*
X153840Y-194303D01*
X154076Y-194853D01*
X154135Y-195640D01*
X154076Y-196427D01*
X153840Y-196977D01*
X153545Y-197449D01*
X153191Y-197764D01*
X152719Y-198000D01*
X151539D01*
G01X156082D02*
X157557Y-193280D01*
X159032Y-198000D01*
G01X158501Y-196348D02*
X156613D01*
G01X162277Y-193280D02*
Y-198000D01*
G01X160920Y-193280D02*
X163634D01*
G01X168177Y-198000D02*
X165817D01*
Y-193280D01*
X168177D01*
G01X167233Y-195561D02*
X165817D01*
G01X161067Y-184073D02*
X164607D01*
G01X165787D02*
X169327D01*
G01X170507D02*
X174047D01*
G01X180596Y-182500D02*
Y-177780D01*
X182838D01*
G01X182012Y-180061D02*
X180596D01*
G01X187735Y-178173D02*
X187381Y-177937D01*
X186968Y-177780D01*
X186496D01*
X185965Y-178016D01*
X185552Y-178409D01*
X185257Y-178881D01*
X185021Y-179668D01*
X184962Y-180376D01*
X185080Y-181084D01*
X185257Y-181556D01*
X185611Y-182028D01*
X186024Y-182343D01*
X186437Y-182500D01*
X186850D01*
X187263Y-182343D01*
X187617Y-182107D01*
X187912Y-181792D01*
G01X189977Y-182500D02*
Y-177780D01*
X191393D01*
X191865Y-178016D01*
X192219Y-178567D01*
X192337Y-179196D01*
X192219Y-179825D01*
X191924Y-180297D01*
X191393Y-180533D01*
X189977D01*
G01X200302Y-184073D02*
X199712Y-183287D01*
X199417Y-182500D01*
Y-179353D01*
X199712Y-178567D01*
X200302Y-177780D01*
G01X204196Y-182500D02*
Y-177780D01*
X206438D01*
G01X205612Y-180061D02*
X204196D01*
G01X208857Y-182500D02*
Y-177780D01*
X210332D01*
X210804Y-178016D01*
X211099Y-178331D01*
X211217Y-178960D01*
X211099Y-179589D01*
X210745Y-179983D01*
X210332Y-180219D01*
X208857D01*
G01X210332D02*
X211217Y-182500D01*
G01X215937D02*
X213577D01*
Y-177780D01*
X215937D01*
G01X214993Y-180061D02*
X213577D01*
G01X220657Y-182500D02*
X218297D01*
Y-177780D01*
X220657D01*
G01X219713Y-180061D02*
X218297D01*
G01X222958Y-181871D02*
X223430Y-182264D01*
X223961Y-182500D01*
X224433D01*
X224905Y-182264D01*
X225259Y-181871D01*
X225436Y-181320D01*
X225318Y-180769D01*
X225023Y-180297D01*
X224492Y-179983D01*
X223784Y-179825D01*
X223371Y-179511D01*
X223194Y-178960D01*
X223312Y-178409D01*
X223607Y-178016D01*
X224020Y-177780D01*
X224433D01*
X224846Y-177937D01*
X225200Y-178331D01*
G01X230215Y-178173D02*
X229861Y-177937D01*
X229448Y-177780D01*
X228976D01*
X228445Y-178016D01*
X228032Y-178409D01*
X227737Y-178881D01*
X227501Y-179668D01*
X227442Y-180376D01*
X227560Y-181084D01*
X227737Y-181556D01*
X228091Y-182028D01*
X228504Y-182343D01*
X228917Y-182500D01*
X229330D01*
X229743Y-182343D01*
X230097Y-182107D01*
X230392Y-181792D01*
G01X232162Y-182500D02*
X233637Y-177780D01*
X235112Y-182500D01*
G01X234581Y-180848D02*
X232693D01*
G01X237177Y-177780D02*
Y-182500D01*
X239537D01*
G01X244257D02*
X241897D01*
Y-177780D01*
X244257D01*
G01X243313Y-180061D02*
X241897D01*
G01X253815Y-178173D02*
X253461Y-177937D01*
X253048Y-177780D01*
X252576D01*
X252045Y-178016D01*
X251632Y-178409D01*
X251337Y-178881D01*
X251101Y-179668D01*
X251042Y-180376D01*
X251160Y-181084D01*
X251337Y-181556D01*
X251691Y-182028D01*
X252104Y-182343D01*
X252517Y-182500D01*
X252930D01*
X253343Y-182343D01*
X253697Y-182107D01*
X253992Y-181792D01*
G01X257237Y-182500D02*
X256765Y-182421D01*
X256352Y-182107D01*
X255998Y-181635D01*
X255762Y-181084D01*
X255644Y-180455D01*
Y-179825D01*
X255762Y-179196D01*
X255998Y-178645D01*
X256352Y-178173D01*
X256765Y-177859D01*
X257237Y-177780D01*
X257709Y-177859D01*
X258122Y-178173D01*
X258476Y-178645D01*
X258712Y-179196D01*
X258830Y-179825D01*
Y-180455D01*
X258712Y-181084D01*
X258476Y-181635D01*
X258122Y-182107D01*
X257709Y-182421D01*
X257237Y-182500D01*
G01X260600D02*
Y-177780D01*
X263314Y-182500D01*
Y-177780D01*
G01X265556Y-182500D02*
Y-177780D01*
X267798D01*
G01X266972Y-180061D02*
X265556D01*
G01X270689Y-177780D02*
X272105D01*
G01X271397D02*
Y-182500D01*
G01X270689D02*
X272105D01*
G01X274819D02*
Y-177780D01*
X275999D01*
X276471Y-178016D01*
X276825Y-178331D01*
X277120Y-178803D01*
X277356Y-179353D01*
X277415Y-180140D01*
X277356Y-180927D01*
X277120Y-181477D01*
X276825Y-181949D01*
X276471Y-182264D01*
X275999Y-182500D01*
X274819D01*
G01X282017D02*
X279657D01*
Y-177780D01*
X282017D01*
G01X281073Y-180061D02*
X279657D01*
G01X284200Y-182500D02*
Y-177780D01*
X286914Y-182500D01*
Y-177780D01*
G01X290277D02*
Y-182500D01*
G01X288920Y-177780D02*
X291634D01*
G01X294289D02*
X295705D01*
G01X294997D02*
Y-182500D01*
G01X294289D02*
X295705D01*
G01X298242D02*
X299717Y-177780D01*
X301192Y-182500D01*
G01X300661Y-180848D02*
X298773D01*
G01X303257Y-177780D02*
Y-182500D01*
X305617D01*
G01X312697D02*
Y-177780D01*
X314113D01*
X314585Y-178016D01*
X314939Y-178567D01*
X315057Y-179196D01*
X314939Y-179825D01*
X314644Y-180297D01*
X314113Y-180533D01*
X312697D01*
G01X317417Y-182500D02*
Y-177780D01*
X318892D01*
X319364Y-178016D01*
X319659Y-178331D01*
X319777Y-178960D01*
X319659Y-179589D01*
X319305Y-179983D01*
X318892Y-180219D01*
X317417D01*
G01X318892D02*
X319777Y-182500D01*
G01X323317D02*
X322845Y-182421D01*
X322432Y-182107D01*
X322078Y-181635D01*
X321842Y-181084D01*
X321724Y-180455D01*
Y-179825D01*
X321842Y-179196D01*
X322078Y-178645D01*
X322432Y-178173D01*
X322845Y-177859D01*
X323317Y-177780D01*
X323789Y-177859D01*
X324202Y-178173D01*
X324556Y-178645D01*
X324792Y-179196D01*
X324910Y-179825D01*
Y-180455D01*
X324792Y-181084D01*
X324556Y-181635D01*
X324202Y-182107D01*
X323789Y-182421D01*
X323317Y-182500D01*
G01X326857D02*
Y-177780D01*
X328273D01*
X328745Y-178016D01*
X329099Y-178567D01*
X329217Y-179196D01*
X329099Y-179825D01*
X328804Y-180297D01*
X328273Y-180533D01*
X326857D01*
G01X331577Y-182500D02*
Y-177780D01*
X333052D01*
X333524Y-178016D01*
X333819Y-178331D01*
X333937Y-178960D01*
X333819Y-179589D01*
X333465Y-179983D01*
X333052Y-180219D01*
X331577D01*
G01X333052D02*
X333937Y-182500D01*
G01X336769Y-177780D02*
X338185D01*
G01X337477D02*
Y-182500D01*
G01X336769D02*
X338185D01*
G01X343377D02*
X341017D01*
Y-177780D01*
X343377D01*
G01X342433Y-180061D02*
X341017D01*
G01X346917Y-177780D02*
Y-182500D01*
G01X345560Y-177780D02*
X348274D01*
G01X350162Y-182500D02*
X351637Y-177780D01*
X353112Y-182500D01*
G01X352581Y-180848D02*
X350693D01*
G01X355177Y-182500D02*
Y-177780D01*
X356652D01*
X357124Y-178016D01*
X357419Y-178331D01*
X357537Y-178960D01*
X357419Y-179589D01*
X357065Y-179983D01*
X356652Y-180219D01*
X355177D01*
G01X356652D02*
X357537Y-182500D01*
G01X361077D02*
Y-180376D01*
X359897Y-177780D01*
G01X362257D02*
X361077Y-180376D01*
G01X366092Y-184073D02*
X366682Y-183287D01*
X366977Y-182500D01*
Y-179353D01*
X366682Y-178567D01*
X366092Y-177780D01*
G01X161067Y-167573D02*
X164607D01*
G01X165787D02*
X169327D01*
G01X170507D02*
X174047D01*
G01X180596Y-166000D02*
Y-161280D01*
X182838D01*
G01X182012Y-163561D02*
X180596D01*
G01X185729Y-161280D02*
X187145D01*
G01X186437D02*
Y-166000D01*
G01X185729D02*
X187145D01*
G01X189859Y-161280D02*
Y-164663D01*
X190095Y-165371D01*
X190567Y-165843D01*
X191157Y-166000D01*
X191747Y-165843D01*
X192219Y-165371D01*
X192455Y-164663D01*
Y-161280D01*
G01X195877Y-166000D02*
X195405Y-165921D01*
X194992Y-165607D01*
X194638Y-165135D01*
X194402Y-164584D01*
X194284Y-163955D01*
Y-163325D01*
X194402Y-162696D01*
X194638Y-162145D01*
X194992Y-161673D01*
X195405Y-161359D01*
X195877Y-161280D01*
X196349Y-161359D01*
X196762Y-161673D01*
X197116Y-162145D01*
X197352Y-162696D01*
X197470Y-163325D01*
Y-163955D01*
X197352Y-164584D01*
X197116Y-165135D01*
X196762Y-165607D01*
X196349Y-165921D01*
X195877Y-166000D01*
G01X205022Y-167573D02*
X204432Y-166787D01*
X204137Y-166000D01*
Y-162853D01*
X204432Y-162067D01*
X205022Y-161280D01*
G01X208916Y-166000D02*
Y-161280D01*
X211158D01*
G01X210332Y-163561D02*
X208916D01*
G01X213577Y-166000D02*
Y-161280D01*
X215052D01*
X215524Y-161516D01*
X215819Y-161831D01*
X215937Y-162460D01*
X215819Y-163089D01*
X215465Y-163483D01*
X215052Y-163719D01*
X213577D01*
G01X215052D02*
X215937Y-166000D01*
G01X220657D02*
X218297D01*
Y-161280D01*
X220657D01*
G01X219713Y-163561D02*
X218297D01*
G01X225377Y-166000D02*
X223017D01*
Y-161280D01*
X225377D01*
G01X224433Y-163561D02*
X223017D01*
G01X227678Y-165371D02*
X228150Y-165764D01*
X228681Y-166000D01*
X229153D01*
X229625Y-165764D01*
X229979Y-165371D01*
X230156Y-164820D01*
X230038Y-164269D01*
X229743Y-163797D01*
X229212Y-163483D01*
X228504Y-163325D01*
X228091Y-163011D01*
X227914Y-162460D01*
X228032Y-161909D01*
X228327Y-161516D01*
X228740Y-161280D01*
X229153D01*
X229566Y-161437D01*
X229920Y-161831D01*
G01X234935Y-161673D02*
X234581Y-161437D01*
X234168Y-161280D01*
X233696D01*
X233165Y-161516D01*
X232752Y-161909D01*
X232457Y-162381D01*
X232221Y-163168D01*
X232162Y-163876D01*
X232280Y-164584D01*
X232457Y-165056D01*
X232811Y-165528D01*
X233224Y-165843D01*
X233637Y-166000D01*
X234050D01*
X234463Y-165843D01*
X234817Y-165607D01*
X235112Y-165292D01*
G01X236882Y-166000D02*
X238357Y-161280D01*
X239832Y-166000D01*
G01X239301Y-164348D02*
X237413D01*
G01X241897Y-161280D02*
Y-166000D01*
X244257D01*
G01X248977D02*
X246617D01*
Y-161280D01*
X248977D01*
G01X248033Y-163561D02*
X246617D01*
G01X256529Y-161280D02*
X257945D01*
G01X257237D02*
Y-166000D01*
G01X256529D02*
X257945D01*
G01X260600D02*
Y-161280D01*
X263314Y-166000D01*
Y-161280D01*
G01X266677D02*
Y-166000D01*
G01X265320Y-161280D02*
X268034D01*
G01X272577Y-166000D02*
X270217D01*
Y-161280D01*
X272577D01*
G01X271633Y-163561D02*
X270217D01*
G01X274937Y-166000D02*
Y-161280D01*
X276412D01*
X276884Y-161516D01*
X277179Y-161831D01*
X277297Y-162460D01*
X277179Y-163089D01*
X276825Y-163483D01*
X276412Y-163719D01*
X274937D01*
G01X276412D02*
X277297Y-166000D01*
G01X279480D02*
Y-161280D01*
X282194Y-166000D01*
Y-161280D01*
G01X284082Y-166000D02*
X285557Y-161280D01*
X287032Y-166000D01*
G01X286501Y-164348D02*
X284613D01*
G01X289097Y-161280D02*
Y-166000D01*
X291457D01*
G01X298419Y-161280D02*
Y-164663D01*
X298655Y-165371D01*
X299127Y-165843D01*
X299717Y-166000D01*
X300307Y-165843D01*
X300779Y-165371D01*
X301015Y-164663D01*
Y-161280D01*
G01X303198Y-165371D02*
X303670Y-165764D01*
X304201Y-166000D01*
X304673D01*
X305145Y-165764D01*
X305499Y-165371D01*
X305676Y-164820D01*
X305558Y-164269D01*
X305263Y-163797D01*
X304732Y-163483D01*
X304024Y-163325D01*
X303611Y-163011D01*
X303434Y-162460D01*
X303552Y-161909D01*
X303847Y-161516D01*
X304260Y-161280D01*
X304673D01*
X305086Y-161437D01*
X305440Y-161831D01*
G01X310337Y-166000D02*
X307977D01*
Y-161280D01*
X310337D01*
G01X309393Y-163561D02*
X307977D01*
G01X318597Y-166000D02*
X318125Y-165921D01*
X317712Y-165607D01*
X317358Y-165135D01*
X317122Y-164584D01*
X317004Y-163955D01*
Y-163325D01*
X317122Y-162696D01*
X317358Y-162145D01*
X317712Y-161673D01*
X318125Y-161359D01*
X318597Y-161280D01*
X319069Y-161359D01*
X319482Y-161673D01*
X319836Y-162145D01*
X320072Y-162696D01*
X320190Y-163325D01*
Y-163955D01*
X320072Y-164584D01*
X319836Y-165135D01*
X319482Y-165607D01*
X319069Y-165921D01*
X318597Y-166000D01*
G01X321960D02*
Y-161280D01*
X324674Y-166000D01*
Y-161280D01*
G01X326857D02*
Y-166000D01*
X329217D01*
G01X332757D02*
Y-163876D01*
X331577Y-161280D01*
G01X333937D02*
X332757Y-163876D01*
G01X337772Y-167573D02*
X338362Y-166787D01*
X338657Y-166000D01*
Y-162853D01*
X338362Y-162067D01*
X337772Y-161280D01*
G01X161067Y-151573D02*
X164607D01*
G01X165787D02*
X169327D01*
G01X170507D02*
X174047D01*
G01X180537Y-150000D02*
Y-145280D01*
X181953D01*
X182425Y-145516D01*
X182779Y-146067D01*
X182897Y-146696D01*
X182779Y-147325D01*
X182484Y-147797D01*
X181953Y-148033D01*
X180537D01*
G01X185139Y-145280D02*
Y-148663D01*
X185375Y-149371D01*
X185847Y-149843D01*
X186437Y-150000D01*
X187027Y-149843D01*
X187499Y-149371D01*
X187735Y-148663D01*
Y-145280D01*
G01X191629Y-147483D02*
X191865Y-147247D01*
X192042Y-146853D01*
X192160Y-146303D01*
X192042Y-145831D01*
X191806Y-145516D01*
X191393Y-145280D01*
X189800D01*
Y-150000D01*
X191747D01*
X192160Y-149685D01*
X192396Y-149213D01*
X192514Y-148663D01*
X192396Y-148112D01*
X192042Y-147640D01*
X191629Y-147483D01*
X189800D01*
G01X195169Y-145280D02*
X196585D01*
G01X195877D02*
Y-150000D01*
G01X195169D02*
X196585D01*
G01X205022Y-151573D02*
X204432Y-150787D01*
X204137Y-150000D01*
Y-146853D01*
X204432Y-146067D01*
X205022Y-145280D01*
G01X208857Y-150000D02*
Y-145280D01*
X210273D01*
X210745Y-145516D01*
X211099Y-146067D01*
X211217Y-146696D01*
X211099Y-147325D01*
X210804Y-147797D01*
X210273Y-148033D01*
X208857D01*
G01X213459Y-145280D02*
Y-148663D01*
X213695Y-149371D01*
X214167Y-149843D01*
X214757Y-150000D01*
X215347Y-149843D01*
X215819Y-149371D01*
X216055Y-148663D01*
Y-145280D01*
G01X219949Y-147483D02*
X220185Y-147247D01*
X220362Y-146853D01*
X220480Y-146303D01*
X220362Y-145831D01*
X220126Y-145516D01*
X219713Y-145280D01*
X218120D01*
Y-150000D01*
X220067D01*
X220480Y-149685D01*
X220716Y-149213D01*
X220834Y-148663D01*
X220716Y-148112D01*
X220362Y-147640D01*
X219949Y-147483D01*
X218120D01*
G01X223017Y-145280D02*
Y-150000D01*
X225377D01*
G01X228209Y-145280D02*
X229625D01*
G01X228917D02*
Y-150000D01*
G01X228209D02*
X229625D01*
G01X234935Y-145673D02*
X234581Y-145437D01*
X234168Y-145280D01*
X233696D01*
X233165Y-145516D01*
X232752Y-145909D01*
X232457Y-146381D01*
X232221Y-147168D01*
X232162Y-147876D01*
X232280Y-148584D01*
X232457Y-149056D01*
X232811Y-149528D01*
X233224Y-149843D01*
X233637Y-150000D01*
X234050D01*
X234463Y-149843D01*
X234817Y-149607D01*
X235112Y-149292D01*
G01X242369Y-145280D02*
X243785D01*
G01X243077D02*
Y-150000D01*
G01X242369D02*
X243785D01*
G01X246440D02*
Y-145280D01*
X249154Y-150000D01*
Y-145280D01*
G01X251396Y-150000D02*
Y-145280D01*
X253638D01*
G01X252812Y-147561D02*
X251396D01*
G01X257237Y-150000D02*
X256765Y-149921D01*
X256352Y-149607D01*
X255998Y-149135D01*
X255762Y-148584D01*
X255644Y-147955D01*
Y-147325D01*
X255762Y-146696D01*
X255998Y-146145D01*
X256352Y-145673D01*
X256765Y-145359D01*
X257237Y-145280D01*
X257709Y-145359D01*
X258122Y-145673D01*
X258476Y-146145D01*
X258712Y-146696D01*
X258830Y-147325D01*
Y-147955D01*
X258712Y-148584D01*
X258476Y-149135D01*
X258122Y-149607D01*
X257709Y-149921D01*
X257237Y-150000D01*
G01X260777D02*
Y-145280D01*
X262252D01*
X262724Y-145516D01*
X263019Y-145831D01*
X263137Y-146460D01*
X263019Y-147089D01*
X262665Y-147483D01*
X262252Y-147719D01*
X260777D01*
G01X262252D02*
X263137Y-150000D01*
G01X265143D02*
Y-145280D01*
X266677Y-149213D01*
X268211Y-145280D01*
Y-150000D01*
G01X269922D02*
X271397Y-145280D01*
X272872Y-150000D01*
G01X272341Y-148348D02*
X270453D01*
G01X276117Y-145280D02*
Y-150000D01*
G01X274760Y-145280D02*
X277474D01*
G01X280129D02*
X281545D01*
G01X280837D02*
Y-150000D01*
G01X280129D02*
X281545D01*
G01X285557D02*
X285085Y-149921D01*
X284672Y-149607D01*
X284318Y-149135D01*
X284082Y-148584D01*
X283964Y-147955D01*
Y-147325D01*
X284082Y-146696D01*
X284318Y-146145D01*
X284672Y-145673D01*
X285085Y-145359D01*
X285557Y-145280D01*
X286029Y-145359D01*
X286442Y-145673D01*
X286796Y-146145D01*
X287032Y-146696D01*
X287150Y-147325D01*
Y-147955D01*
X287032Y-148584D01*
X286796Y-149135D01*
X286442Y-149607D01*
X286029Y-149921D01*
X285557Y-150000D01*
G01X288920D02*
Y-145280D01*
X291634Y-150000D01*
Y-145280D01*
G01X295292Y-151573D02*
X295882Y-150787D01*
X296177Y-150000D01*
Y-146853D01*
X295882Y-146067D01*
X295292Y-145280D01*
G01X151480Y-118000D02*
Y-113280D01*
X154194Y-118000D01*
Y-113280D01*
G01X156082Y-118000D02*
X157557Y-113280D01*
X159032Y-118000D01*
G01X158501Y-116348D02*
X156613D01*
G01X160743Y-118000D02*
Y-113280D01*
X162277Y-117213D01*
X163811Y-113280D01*
Y-118000D01*
G01X168177D02*
X165817D01*
Y-113280D01*
X168177D01*
G01X167233Y-115561D02*
X165817D01*
G01X201480Y-198000D02*
Y-193280D01*
X204194Y-198000D01*
Y-193280D01*
G01X206259D02*
Y-196663D01*
X206495Y-197371D01*
X206967Y-197843D01*
X207557Y-198000D01*
X208147Y-197843D01*
X208619Y-197371D01*
X208855Y-196663D01*
Y-193280D01*
G01X210743Y-198000D02*
Y-193280D01*
X212277Y-197213D01*
X213811Y-193280D01*
Y-198000D01*
G01X217469Y-195483D02*
X217705Y-195247D01*
X217882Y-194853D01*
X218000Y-194303D01*
X217882Y-193831D01*
X217646Y-193516D01*
X217233Y-193280D01*
X215640D01*
Y-198000D01*
X217587D01*
X218000Y-197685D01*
X218236Y-197213D01*
X218354Y-196663D01*
X218236Y-196112D01*
X217882Y-195640D01*
X217469Y-195483D01*
X215640D01*
G01X222897Y-198000D02*
X220537D01*
Y-193280D01*
X222897D01*
G01X221953Y-195561D02*
X220537D01*
G01X225257Y-198000D02*
Y-193280D01*
X226732D01*
X227204Y-193516D01*
X227499Y-193831D01*
X227617Y-194460D01*
X227499Y-195089D01*
X227145Y-195483D01*
X226732Y-195719D01*
X225257D01*
G01X226732D02*
X227617Y-198000D01*
G54D16*
G01X317441Y-15000D02*
G03I-7874J0D01*
M02*
