%FSLAX25Y25*%
%MOIN*%
G70*
G01*
G75*
G04 Layer_Physical_Order=1*
G04 Layer_Color=255*
%ADD10C,0.02400*%
%ADD11O,0.01378X0.06693*%
%ADD12R,0.21000X0.69000*%
%ADD13R,1.05500X0.24000*%
%ADD14R,0.78500X1.02000*%
%ADD15C,0.07000*%
%ADD16P,0.07577X8X22.5*%
%ADD17R,0.07000X0.07000*%
%ADD18P,0.07577X8X292.5*%
D10*
X506678Y172219D02*
G03*
X507597Y174438I-2219J2219D01*
G01*
D02*
G03*
X508517Y172219I3139J0D01*
G01*
X506678Y182219D02*
G03*
X507597Y184438I-2219J2219D01*
G01*
D02*
G03*
X508517Y182219I3139J0D01*
G01*
Y180380D02*
G03*
X507597Y178161I2219J-2219D01*
G01*
D02*
G03*
X506678Y180380I-3139J0D01*
G01*
Y192219D02*
G03*
X507597Y194438I-2219J2219D01*
G01*
D02*
G03*
X508517Y192219I3139J0D01*
G01*
Y190380D02*
G03*
X507597Y188161I2219J-2219D01*
G01*
D02*
G03*
X506678Y190380I-3139J0D01*
G01*
X496678D02*
G03*
X494459Y191300I-2219J-2219D01*
G01*
D02*
G03*
X496678Y192219I0J3139D01*
G01*
X508517Y200380D02*
G03*
X507597Y198161I2219J-2219D01*
G01*
D02*
G03*
X506678Y200380I-3139J0D01*
G01*
Y202219D02*
G03*
X507597Y204438I-2219J2219D01*
G01*
D02*
G03*
X508517Y202219I3139J0D01*
G01*
X506678Y212219D02*
G03*
X507597Y214438I-2219J2219D01*
G01*
D02*
G03*
X508517Y212219I3139J0D01*
G01*
Y210380D02*
G03*
X507597Y208161I2219J-2219D01*
G01*
D02*
G03*
X506678Y210380I-3139J0D01*
G01*
Y222219D02*
G03*
X507597Y224438I-2219J2219D01*
G01*
D02*
G03*
X508517Y222219I3139J0D01*
G01*
Y220380D02*
G03*
X507597Y218161I2219J-2219D01*
G01*
D02*
G03*
X506678Y220380I-3139J0D01*
G01*
X508517Y230380D02*
G03*
X507597Y228161I2219J-2219D01*
G01*
D02*
G03*
X506678Y230380I-3139J0D01*
G01*
Y232219D02*
G03*
X507597Y234438I-2219J2219D01*
G01*
D02*
G03*
X508517Y232219I3139J0D01*
G01*
X507597Y242600D02*
G03*
X509817Y243519I0J3139D01*
G01*
D02*
G03*
X508897Y241300I2219J-2219D01*
G01*
X508517Y240380D02*
G03*
X507597Y238161I2219J-2219D01*
G01*
D02*
G03*
X506678Y240380I-3139J0D01*
G01*
X497597Y252600D02*
G03*
X499817Y253519I0J3139D01*
G01*
D02*
G03*
X498897Y251300I2219J-2219D01*
G01*
X494528Y257028D02*
G03*
X496297Y261300I-4272J4272D01*
G01*
X480516Y267380D02*
G03*
X479597Y265161I2219J-2219D01*
G01*
D02*
G03*
X478678Y267380I-3139J0D01*
G01*
X470000Y264189D02*
G03*
X468678Y267380I-4513J0D01*
G01*
X460517D02*
G03*
X459597Y265161I2219J-2219D01*
G01*
D02*
G03*
X458678Y267380I-3139J0D01*
G01*
X430516D02*
G03*
X429597Y265161I2219J-2219D01*
G01*
D02*
G03*
X428678Y267380I-3139J0D01*
G01*
X420516D02*
G03*
X419597Y265161I2219J-2219D01*
G01*
D02*
G03*
X418678Y267380I-3139J0D01*
G01*
X444897Y221300D02*
G03*
X445817Y219080I3139J0D01*
G01*
D02*
G03*
X443597Y220000I-2219J-2219D01*
G01*
X444517Y232219D02*
G03*
X446736Y231300I2219J2219D01*
G01*
D02*
G03*
X444517Y230380I0J-3139D01*
G01*
X442678Y250380D02*
G03*
X440459Y251300I-2219J-2219D01*
G01*
D02*
G03*
X442678Y252219I0J3139D01*
G01*
X478000Y214500D02*
Y221500D01*
X446838Y218059D02*
X462323D01*
X501000Y270000D02*
X503500Y267500D01*
Y257202D02*
Y267500D01*
X497597Y251300D02*
X503500Y257202D01*
X467441Y216779D02*
Y219000D01*
Y206941D02*
Y216779D01*
X470000D02*
Y219000D01*
Y203500D02*
Y216779D01*
X472559Y239220D02*
Y251059D01*
Y237000D02*
Y239220D01*
X462323Y218059D02*
Y221823D01*
Y216779D02*
Y218059D01*
Y214500D02*
Y216779D01*
X464882D02*
Y219000D01*
Y209882D02*
Y216779D01*
X470000Y239220D02*
Y266500D01*
Y237000D02*
Y239220D01*
X464882D02*
Y241500D01*
Y232382D02*
Y239220D01*
X467441D02*
Y253559D01*
Y237000D02*
Y239220D01*
X477677D02*
Y241500D01*
Y227177D02*
Y239220D01*
X419597Y211903D02*
Y268300D01*
Y211903D02*
X432000Y199500D01*
X466000D01*
X488700Y191300D02*
X497597D01*
X472559Y207441D02*
X488700Y191300D01*
X472559Y207441D02*
Y216779D01*
X478700Y206300D02*
X507397D01*
X475118Y209882D02*
X478700Y206300D01*
X507597Y191300D02*
Y201300D01*
X475118Y209882D02*
Y216779D01*
Y224618D02*
X477677Y227177D01*
X475118Y216779D02*
Y224618D01*
X471500Y223500D02*
X472559Y222441D01*
X464000Y223500D02*
X471500D01*
X462323Y221823D02*
X464000Y223500D01*
X472559Y216779D02*
Y222441D01*
X463500Y208500D02*
X464882Y209882D01*
X436000Y208500D02*
X463500D01*
X465000Y204500D02*
X467441Y206941D01*
X433500Y204500D02*
X465000D01*
X459597Y261403D02*
X467441Y253559D01*
X469597Y266903D02*
X470000Y266500D01*
X469597Y266903D02*
Y268300D01*
X475118Y233118D02*
Y239220D01*
X473300Y231300D02*
X475118Y233118D01*
X463800Y231300D02*
X473300D01*
X463800D02*
X464882Y232382D01*
X443597Y231300D02*
X463800D01*
X459597Y261403D02*
Y268300D01*
X431500Y213000D02*
X436000Y208500D01*
X431500Y213000D02*
Y247000D01*
X435800Y251300D01*
X443597D01*
X425500Y212500D02*
X433500Y204500D01*
X466000Y199500D02*
X470000Y203500D01*
X425500Y212500D02*
Y250500D01*
X429597Y254597D01*
Y268300D01*
X507597Y171300D02*
Y181300D01*
Y191300D01*
Y201300D02*
Y211300D01*
Y221300D01*
Y231300D01*
Y241300D01*
X443597Y221300D02*
X446838Y218059D01*
X485000Y247500D02*
X497597Y260097D01*
Y261300D01*
X489000Y266500D02*
X492500Y270000D01*
X501000D01*
X507597Y241300D02*
X513500Y247202D01*
Y269000D01*
X507500Y275000D02*
X513500Y269000D01*
X452500Y270500D02*
X457000Y275000D01*
X507500D01*
X489000Y260000D02*
Y266500D01*
X475118Y239220D02*
Y246118D01*
X489000Y260000D01*
X472559Y251059D02*
X479597Y258097D01*
Y268300D01*
X478000Y221500D02*
X485000Y228500D01*
Y247500D01*
X452500Y257500D02*
Y270500D01*
Y257500D02*
X462323Y247677D01*
Y239220D02*
Y247677D01*
D11*
X477677Y239220D02*
D03*
X475118D02*
D03*
X472559D02*
D03*
X470000D02*
D03*
X467441D02*
D03*
X464882D02*
D03*
X462323D02*
D03*
X477677Y216779D02*
D03*
X475118D02*
D03*
X472559D02*
D03*
X470000D02*
D03*
X467441D02*
D03*
X464882D02*
D03*
X462323D02*
D03*
D12*
X405000Y225500D02*
D03*
D13*
X426750Y185000D02*
D03*
D14*
X363250Y224000D02*
D03*
D15*
X399597Y166300D02*
D03*
X389597D02*
D03*
X379597D02*
D03*
X369597D02*
D03*
X359597D02*
D03*
X349597D02*
D03*
X339597D02*
D03*
X479597D02*
D03*
X469597D02*
D03*
X459597D02*
D03*
X449597D02*
D03*
X439597D02*
D03*
X429597D02*
D03*
X419597D02*
D03*
X443597Y251300D02*
D03*
Y231300D02*
D03*
Y221300D02*
D03*
X409597Y268300D02*
D03*
X419597D02*
D03*
X429597D02*
D03*
X459597D02*
D03*
X469597D02*
D03*
X497597Y251300D02*
D03*
X507597D02*
D03*
X497597Y241300D02*
D03*
X507597D02*
D03*
X497597Y231300D02*
D03*
X507597D02*
D03*
X497597Y221300D02*
D03*
X507597D02*
D03*
X497597Y211300D02*
D03*
X507597D02*
D03*
X497597Y201300D02*
D03*
X507597D02*
D03*
X497597Y191300D02*
D03*
X507597D02*
D03*
X497597Y181300D02*
D03*
X507597D02*
D03*
X497597Y171300D02*
D03*
X507597D02*
D03*
D16*
X329597Y166300D02*
D03*
D17*
X409597D02*
D03*
X479597Y268300D02*
D03*
D18*
X497597Y261300D02*
D03*
M02*
