G04 ================== begin FILE IDENTIFICATION RECORD ==================*
G04 Layout Name:  LAY-28163.brd*
G04 Film Name:    L3_INT_1.art*
G04 File Format:  Gerber RS274X*
G04 File Origin:  Cadence Allegro 16.6-S027*
G04 Origin Date:  Fri Aug 01 09:34:38 2014*
G04 *
G04 Layer:  VIA CLASS/INT_1*
G04 Layer:  PIN/INT_1*
G04 Layer:  ETCH/INT_1*
G04 Layer:  DRAWING FORMAT/FILM_TITLE_BLOCK*
G04 Layer:  BOARD GEOMETRY/OUTLINE*
G04 *
G04 Offset:    (0.00 0.00)*
G04 Mirror:    No*
G04 Mode:      Positive*
G04 Rotation:  0*
G04 FullContactRelief:  No*
G04 UndefLineWidth:     7.00*
G04 ================== end FILE IDENTIFICATION RECORD ====================*
%FSLAX55Y55*MOIN*%
%IR0*IPPOS*OFA0.00000B0.00000*MIA0B0*SFA1.00000B1.00000*%
%ADD16C,.01*%
%ADD10C,.02*%
%ADD17C,.03*%
%ADD18O,.057X.136*%
%ADD13C,.06*%
%ADD12C,.055*%
%ADD20C,.038*%
%ADD15C,.083*%
%ADD21C,.075*%
%ADD19C,.066*%
%ADD14O,.055X.042*%
%ADD11O,.075X.043*%
%ADD22C,.04*%
%ADD23C,.035*%
%ADD24C,.005*%
%ADD25C,.007*%
%ADD26C,.0051*%
%ADD27C,.006*%
%ADD28C,.0035*%
%ADD29C,.0047*%
%ADD39O,.10104X.04204*%
%ADD38C,.02004*%
%ADD36C,.05004*%
%ADD37C,.07004*%
%ADD35C,.02804*%
%ADD34C,.06504*%
%ADD40C,.07604*%
%ADD31O,.06502X.05202*%
%ADD33C,.16203*%
%ADD32C,.16205*%
%ADD30O,.06504X.05204*%
G75*
%LPD*%
G75*
G36*
G01X-52474Y185306D02*
X-52307Y185204D01*
G03X-50244Y187267I777J1286D01*
G01X-50346Y187434D01*
X-47673Y190107D01*
X-47500Y189983D01*
G03X-45403Y192080I880J1217D01*
G01X-45527Y192253D01*
X-41770Y196010D01*
X-30190D01*
Y188823D01*
G02X-30865Y188355I-500J0D01*
G03Y182904I-1020J-2726D01*
G02X-30190Y182436I175J-468D01*
G01Y133300D01*
X-26014Y129124D01*
G02X-26021Y128409I-353J-354D01*
G03X-23020Y120403I3218J-3359D01*
G01Y68477D01*
G03Y59183I217J-4647D01*
G01Y47150D01*
X-28010Y42160D01*
Y25510D01*
X-14390Y11890D01*
X-6269D01*
G02X-6028Y10952I0J-500D01*
G03X-9550Y-8067I6028J-10952D01*
G02X-9932Y-8890I-382J-323D01*
G01X-41371D01*
G02X-43765Y-7955I7521J22790D01*
G01X-55705Y3985D01*
G02X-55840Y4288I21854J9918D01*
G01Y14143D01*
G02X-55189Y14620I500J0D01*
G03X-54390Y14496I801J2528D01*
G01X-51190D01*
G03Y19800I0J2652D01*
G01X-54390D01*
G03X-55189Y19676I2J-2652D01*
G02X-55840Y20153I-151J477D01*
G01Y47017D01*
G02X-55189Y47494I500J0D01*
G03X-54390Y47370I801J2528D01*
G01X-51190D01*
G03Y52674I0J2652D01*
G01X-54390D01*
G03X-55189Y52550I2J-2652D01*
G02X-55840Y53027I-151J477D01*
G01Y75996D01*
G02X-55175Y76468I500J0D01*
G03Y82608I1073J3070D01*
G02X-55840Y83080I-165J472D01*
G01Y115800D01*
G02X-55175Y116272I500J0D01*
G03Y122412I1073J3070D01*
G02X-55840Y122884I-165J472D01*
G01Y135515D01*
G02X-55212Y135999I500J1D01*
G03X-54530Y135910I681J2562D01*
G01X-51330D01*
G03Y141212I0J2651D01*
G01X-54530D01*
G03X-55212Y141123I-1J-2651D01*
G02X-55840Y141607I-128J483D01*
G01Y168389D01*
G02X-55212Y168873I500J1D01*
G03X-54530Y168784I681J2562D01*
G01X-51330D01*
G03Y174086I0J2651D01*
G01X-54530D01*
G03X-55212Y173997I-1J-2651D01*
G02X-55840Y174481I-128J483D01*
G01Y181940D01*
X-52474Y185306D01*
G37*
G36*
G01X-9780Y50360D02*
X-13380Y53960D01*
Y79727D01*
G02X-12476Y80022I500J0D01*
G03Y83858I2626J1918D01*
G02X-13380Y84153I-404J295D01*
G01Y89727D01*
G02X-12476Y90022I500J0D01*
G03Y93858I2626J1918D01*
G02X-13380Y94153I-404J295D01*
G01Y99727D01*
G02X-12476Y100022I500J0D01*
G03X-6987Y103482I2626J1919D01*
G01X-7075Y103645D01*
X-3923Y106798D01*
G02X-3073Y106510I354J-354D01*
G03X580Y110163I3223J430D01*
G02X292Y111013I66J496D01*
G01X7921Y118642D01*
X9591D01*
X10133Y119183D01*
X10261Y119161D01*
G03X9018Y120651I259J1479D01*
G02X8518Y120154I-500J3D01*
G01X7295D01*
X-8145Y104715D01*
X-8308Y104803D01*
G03X-12476Y103858I-1542J-2863D01*
G02X-13380Y104153I-404J295D01*
G01Y109727D01*
G02X-12476Y110022I500J0D01*
G03Y113858I2626J1918D01*
G02X-13380Y114153I-404J295D01*
G01Y115530D01*
X8100Y137010D01*
X22000D01*
X27470Y131540D01*
Y114256D01*
X27279Y114210D01*
G03Y111290I351J-1460D01*
G01X27470Y111244D01*
Y109132D01*
X27440Y109076D01*
G03X27339Y108848I1318J-720D01*
G02X26914Y108765I-236J81D01*
G03X25024Y106482I-1134J-985D01*
G01Y102198D01*
G03X26536I756J-1298D01*
G01Y106482D01*
G03X27085Y107036I-756J1298D01*
G02X27829Y107181I434J-247D01*
G03X29409Y107005I931J1179D01*
G01X29568Y107082D01*
X31780Y104870D01*
X51290D01*
X52810Y103350D01*
Y96850D01*
X42600Y86640D01*
X30990D01*
X30690Y86940D01*
X29054D01*
X29027Y86946D01*
G03X28373I-327J-1466D01*
G01X28346Y86940D01*
X26920D01*
X25383Y85403D01*
X25320Y85385D01*
G03X24285Y84350I410J-1445D01*
G01X24267Y84287D01*
X23880Y83900D01*
Y67560D01*
X23940Y67500D01*
Y66580D01*
X7720Y50360D01*
X-4070D01*
X-4129Y50527D01*
G03X-8851I-2361J-827D01*
G01X-8910Y50360D01*
X-9780D01*
G37*
G36*
G01X-13380Y118877D02*
Y135780D01*
X-12150Y137010D01*
X621D01*
G03X2599I989J1130D01*
G01X4753D01*
G02X5107Y136156I0J-500D01*
G01X-12526Y118523D01*
G02X-13380Y118877I-354J354D01*
G37*
G36*
G01X96690Y-8770D02*
X92744Y-4824D01*
X93502Y-4066D01*
Y-3815D01*
X93582Y-3741D01*
G03X87757Y1035I-2582J2791D01*
G02X86977Y943I-426J261D01*
G01X81935Y5985D01*
G02X82074Y6790I354J353D01*
G03X78740Y10124I-1074J2260D01*
G02X77935Y9985I-452J215D01*
G01X71770Y16150D01*
X40522D01*
Y22919D01*
G03X33820I-3351J0D01*
G01Y16150D01*
X30500D01*
G02X30001Y16684I0J500D01*
G03X20832Y18067I-4641J316D01*
G02X19992Y17828I-487J114D01*
G01X16900Y20920D01*
Y26856D01*
G03X16300Y28770I-3351J1D01*
G01Y32280D01*
X16441Y32348D01*
G03Y34872I-611J1262D01*
G01X16300Y34940D01*
Y37138D01*
X30967D01*
X36688Y31418D01*
G03X39872Y34602I1592J1592D01*
G01X32833Y41642D01*
X21669D01*
G02X21315Y42495I0J500D01*
G01X43870Y65050D01*
X48967D01*
X48984Y65048D01*
G03X49896I456J3472D01*
G01X49913Y65050D01*
X50580D01*
X89701Y25929D01*
X89632Y25773D01*
G03X90953Y24452I918J-403D01*
G01X91109Y24521D01*
X109850Y5780D01*
X135960D01*
X139900Y1840D01*
G02X139838Y1081I-354J-353D01*
G03X143797Y-1108I1462J-2031D01*
G02X144296Y-640I499J-32D01*
G01X148304D01*
G02X148803Y-1108I0J-500D01*
G03X153797I2497J158D01*
G02X154296Y-640I499J-32D01*
G01X158304D01*
G02X158803Y-1108I0J-500D01*
G03X163797I2497J158D01*
G02X164296Y-640I499J-32D01*
G01X168304D01*
G02X168803Y-1108I0J-500D01*
G03X173797I2497J158D01*
G02X174296Y-640I499J-32D01*
G01X177498D01*
Y-894D01*
G03X185102I3802J-56D01*
G01Y-640D01*
X187498D01*
Y-894D01*
G03X195102I3802J-56D01*
G01Y-640D01*
X198963D01*
X198979Y-873D01*
G03X201804Y-7952I12471J874D01*
G02X201418Y-8770I-386J-318D01*
G01X96690D01*
G37*
G36*
G01X220936Y-8146D02*
X221081Y-7971D01*
G03X223935Y648I-9631J7971D01*
G01X223929Y759D01*
X247420Y24250D01*
Y56982D01*
X247603Y57033D01*
G03Y59927I-403J1447D01*
G01X247420Y59978D01*
Y63313D01*
X247633Y63345D01*
G03Y66315I-223J1485D01*
G01X247420Y66347D01*
Y151310D01*
X233104Y165626D01*
X233198Y165791D01*
G03X231151Y167838I-1308J739D01*
G01X230986Y167744D01*
X224410Y174320D01*
Y194380D01*
X224569Y194442D01*
G03X225474Y195463I-549J1398D01*
G01X225522Y195650D01*
X232068D01*
X232116Y195463D01*
G03X235024I1454J377D01*
G01X235072Y195650D01*
X245810D01*
X258284Y183176D01*
G02X259230Y180478I-22134J-9276D01*
G01Y7322D01*
G02X257955Y3875I-23080J6578D01*
G01X246175Y-7905D01*
G02X243851Y-8830I-10025J21805D01*
G01X221620D01*
X220936Y-8146D01*
G37*
%LPC*%
G75*
G36*
G01X-40884Y187412D02*
G02Y183848I2305J-1782D01*
G01Y187412D01*
G37*
G36*
G01X1855Y89715D02*
X6624Y94483D01*
Y114023D01*
X8853Y116253D01*
X8831Y116381D01*
G02X10051Y115161I1479J259D01*
G01X9923Y115183D01*
X8136Y113397D01*
Y93857D01*
X2925Y88645D01*
X3013Y88482D01*
G02X1692Y89803I-2863J-1542D01*
G01X1855Y89715D01*
G37*
G36*
G01X50427Y61880D02*
G02X48439Y61876I-987J-3360D01*
G03X48674Y62683I-143J479D01*
G02X50189Y62686I756J657D01*
G03X50427Y61880I379J-326D01*
G37*
G36*
G01X241300Y182911D02*
G02Y186689I-2214J1889D01*
G01Y182911D01*
G37*
G36*
G01X230237Y4970D02*
G02X235296Y3000I2146J-1970D01*
G02X230266Y998I-2913J0D01*
G01Y4940D01*
X230237Y4970D01*
G37*
G36*
G01X241232Y1045D02*
G02X241240Y4946I-2156J1955D01*
G01X241232Y4938D01*
Y1045D01*
G37*
G36*
G01X235306Y184800D02*
G02X230476Y182607I-2913J0D01*
G01X230475Y182608D01*
X230500Y182633D01*
Y184631D01*
X230499Y184641D01*
G02Y184959I1895J159D01*
G01X230500Y184969D01*
Y187013D01*
G02X235306Y184800I1894J-2213D01*
G37*
G54D39*
X25360Y27630D03*
G54D38*
X-34850Y31026D03*
X-27640Y54840D03*
X-33500Y152440D03*
X20895Y133675D03*
X43390Y47380D03*
X44440Y57690D03*
X85750Y25430D03*
X250750Y70023D03*
X251600Y91140D03*
G54D36*
X-21160Y440D03*
X-41160D03*
X101000Y9050D03*
X91000D03*
X121000Y-950D03*
G54D37*
X-31160Y440D03*
G54D35*
X-24344Y17550D03*
X4880Y56300D03*
X21420Y69563D03*
G54D34*
X-48118Y69538D03*
Y109342D03*
X150Y96940D03*
Y76940D03*
G54D40*
X111000Y-950D03*
X101000D03*
G54D31*
X-40979Y42345D03*
Y24825D03*
G54D33*
X-34811Y116940D03*
G54D32*
Y71940D03*
G54D30*
X-41119Y163758D03*
Y146238D03*
%LPD*%
G75*
G54D10*
G01X295380Y-56530D02*
Y-156530D01*
X-104620D01*
G01D02*
Y-56530D01*
X295380D01*
G01X13549Y22906D02*
X17151Y30458D01*
G01X13549Y22906D02*
X17151D01*
G01X37171Y18969D02*
X40773Y26521D01*
G01X37171Y18969D02*
X40773D01*
G01X33569D02*
X37171D01*
G01D02*
Y26521D01*
G01X106948Y-950D02*
X111000D01*
G01X101000D02*
X105052D01*
G01X96948D02*
X101000D01*
G01D02*
Y3102D01*
G01Y-5002D02*
Y-950D01*
G01X111000D02*
X115052D01*
G01X111000D02*
Y3102D01*
G01Y-5002D02*
Y-950D01*
X-54800Y7810D03*
X-52180Y1750D03*
X-54860Y61410D03*
X-53670Y127630D03*
X-40730Y-7280D03*
X-32620Y-8390D03*
X-24250D03*
X-46490Y-4210D03*
X-45650Y8480D03*
X-35425Y26895D03*
X-31030Y61150D03*
X-27382Y48804D03*
X-35853Y50243D03*
X-46560Y61340D03*
X-25230Y76610D03*
X-47880Y115760D03*
X-26080Y112140D03*
X-36650Y149650D03*
X-31980Y135250D03*
X-42520Y127930D03*
X-31430Y127880D03*
X-43204Y180494D03*
X-33920Y170337D03*
X-22445Y177505D03*
X-33340Y195390D03*
X-40800Y194470D03*
X-15480Y-8390D03*
X-14240Y-2380D03*
X-12930Y6000D03*
X-16840Y30280D03*
X-14660Y33357D03*
Y36724D03*
X320Y71500D03*
X-6640Y55100D03*
X90Y55190D03*
X-7610Y77320D03*
X-10200Y97000D03*
X890Y92030D03*
X-10010Y116910D03*
X2278Y141591D03*
X-11840Y131220D03*
X3690Y158650D03*
X-17140Y154427D03*
Y157794D03*
X1860Y162661D03*
X13800Y73390D03*
X29120Y78673D03*
Y81906D03*
X25780Y100900D03*
X25700Y76150D03*
X25730Y83940D03*
X30490Y95170D03*
X15000Y95400D03*
X14810Y89840D03*
X26010Y123650D03*
X11070Y124860D03*
X10520Y120640D03*
X10310Y116640D03*
X15710Y124640D03*
X15540Y112640D03*
X7310Y116440D03*
X27630Y112750D03*
X11570Y110790D03*
X25780Y107780D03*
X29895Y123185D03*
X5270Y106620D03*
X8910Y135450D03*
X4659Y139210D03*
X16283Y129805D03*
X11899Y163528D03*
X14600Y166155D03*
X11600Y166610D03*
X30820Y167650D03*
X7860Y161995D03*
X22318Y168812D03*
X17630Y168941D03*
X7799Y159270D03*
X29963Y164916D03*
X43330Y19460D03*
X46220Y37570D03*
X51260Y37720D03*
X46160Y33320D03*
X51600Y33500D03*
X34160Y29030D03*
X51710Y81987D03*
X49140Y95750D03*
X43063Y87327D03*
X57460Y82050D03*
X49310Y103040D03*
X48520Y138430D03*
X52960Y131580D03*
X37150Y134990D03*
X36096Y150475D03*
X39140Y137800D03*
X33317Y165484D03*
X66775Y39570D03*
X81810Y25170D03*
X78570Y65866D03*
X78690Y69260D03*
X78840Y62570D03*
X60370Y80949D03*
X57987Y84699D03*
X76471Y95729D03*
X65340Y81200D03*
X78900Y87770D03*
X79850Y85170D03*
X78650Y75820D03*
X59850Y107430D03*
X67286Y106450D03*
X64053D03*
X78280Y149870D03*
X77950Y143470D03*
X83047Y141715D03*
X74210Y151380D03*
X72680Y140850D03*
X61360Y166480D03*
X66655Y167005D03*
X76040Y155230D03*
X106100Y3580D03*
X95810Y61540D03*
X101970Y55850D03*
X93735Y72415D03*
X93740Y69265D03*
X104185Y72870D03*
X86990Y84230D03*
X104470Y86890D03*
X95100Y92120D03*
X109635Y96125D03*
X107237Y93727D03*
X85860Y139050D03*
X85936Y135674D03*
X100020Y150507D03*
X109000Y145200D03*
X91710Y156335D03*
X93080Y165100D03*
X137590Y-7240D03*
X135720Y3750D03*
X114853Y73407D03*
X132130Y66355D03*
X127210Y68110D03*
Y71500D03*
X134370Y87290D03*
X131755Y83775D03*
X117180Y99670D03*
X118360Y81460D03*
X112472Y75788D03*
X126190Y113390D03*
X128840Y112610D03*
X122750Y146210D03*
X119920Y143760D03*
X117670Y135900D03*
X135080Y171560D03*
X118640Y166969D03*
X113940Y196020D03*
X146630Y-7640D03*
X156150D03*
X161206Y48915D03*
X157900Y71680D03*
X156940Y58570D03*
X161554Y57616D03*
X158776Y52055D03*
X155140Y65790D03*
X162230Y85000D03*
X142826Y85746D03*
X145207Y88127D03*
X154460Y113270D03*
X153690Y116490D03*
X156100Y118210D03*
X147236Y108336D03*
X144838Y105938D03*
X146950Y143939D03*
X160860Y161230D03*
X176010Y-7910D03*
X186470Y-7740D03*
X167000Y-7550D03*
X167620Y47770D03*
X175300Y44890D03*
X170710Y44540D03*
X180230Y40520D03*
X182003Y36348D03*
X176642Y33472D03*
X172426Y37864D03*
X169580Y40586D03*
X166765Y43415D03*
X174910Y72400D03*
X187495Y56945D03*
X179065Y72505D03*
X169300Y51460D03*
X164985Y51425D03*
X176880Y65610D03*
X191120Y76600D03*
X173890Y88380D03*
X187030Y79490D03*
X172150Y75220D03*
X170200Y78520D03*
X167080Y80600D03*
X164530Y82710D03*
X184870Y89340D03*
X189084Y91160D03*
X187447Y94644D03*
X175270Y168550D03*
X182290Y164060D03*
X181840Y167120D03*
X176220Y182340D03*
X197320Y-6270D03*
X206180Y19940D03*
X200490Y35270D03*
X215620Y42030D03*
X209780Y41520D03*
X203490Y28320D03*
X197390Y70860D03*
X210113Y70976D03*
X199948Y62462D03*
X199479Y56437D03*
X199330Y66480D03*
X193071Y72681D03*
X210650Y49350D03*
X213530Y48570D03*
X195700Y58180D03*
X195030Y61520D03*
X213270Y90390D03*
X213945Y87735D03*
X207058Y97038D03*
X207500Y92420D03*
X200987Y99833D03*
X208806Y88164D03*
X198210Y122080D03*
X201160Y113820D03*
X206085Y105235D03*
X203320Y106850D03*
X201090Y108720D03*
X206060Y108710D03*
X198000Y150440D03*
X198210Y137910D03*
X200040Y166940D03*
X202775Y171375D03*
X200300Y195260D03*
X197415Y194165D03*
X226110Y-7540D03*
X235920D03*
X244160Y-5910D03*
X243702Y7700D03*
X218780Y44870D03*
X222040Y26430D03*
X240099Y55652D03*
X240240Y72540D03*
X217560Y48540D03*
X234120Y68370D03*
X237420Y83750D03*
X221553Y78640D03*
X218590Y78460D03*
X218000Y111420D03*
Y119530D03*
X226030Y153650D03*
X227780Y165560D03*
X238020Y177530D03*
X224610Y178670D03*
X231540Y174350D03*
X243712Y189508D03*
X241880Y195060D03*
X250900Y-1590D03*
X255740Y3910D03*
X257830Y38190D03*
X258100Y25620D03*
X250150Y53570D03*
X244760Y61190D03*
X247480Y69210D03*
X250890Y59984D03*
X253350Y87100D03*
X249050Y79510D03*
X257900Y97910D03*
X258030Y108120D03*
X258230Y115900D03*
X258520Y123040D03*
X258800Y131490D03*
X258310Y142620D03*
X258430Y153620D03*
X258060Y160740D03*
X245880Y178000D03*
X257580Y177720D03*
X254760Y184980D03*
X249200Y191130D03*
G54D11*
X-52790Y17148D03*
Y50022D03*
X-52930Y138561D03*
Y171435D03*
G54D20*
X44860Y112110D03*
Y127110D03*
Y122110D03*
Y117110D03*
X39860Y127110D03*
Y122110D03*
Y117110D03*
Y112110D03*
X44860Y132110D03*
X39860D03*
X101330Y122140D03*
Y117140D03*
Y132140D03*
G54D21*
X141300Y9050D03*
G54D12*
X-48118Y69538D03*
X-54102Y79538D03*
Y119342D03*
X-48118Y109342D03*
X150Y96940D03*
Y86940D03*
Y76940D03*
X-9850Y81940D03*
Y91940D03*
Y101940D03*
X150Y106940D03*
X-9850Y111940D03*
G54D22*
G01X91000Y-950D02*
Y-3030D01*
X86580Y-7450D01*
X40110D01*
X29860Y2800D01*
X18659D01*
X8014Y13445D01*
X6075D01*
X3600Y15920D01*
G54D13*
X-31160Y440D03*
X49440Y58520D03*
Y68520D03*
X78760Y43710D03*
X62710Y58580D03*
Y68580D03*
X78760Y53710D03*
X62210Y146110D03*
X63350Y161220D03*
X123710Y108410D03*
X148150Y122410D03*
X216080Y127190D03*
X206080D03*
X216080Y137190D03*
Y147190D03*
X206080Y137190D03*
G54D23*
G01X-16840Y30280D02*
X-16410Y29850D01*
X4950D01*
X14490Y39390D01*
X31900D01*
X38280Y33010D01*
G54D14*
X-40979Y24825D03*
Y42345D03*
X-41119Y146238D03*
Y163758D03*
G54D24*
G01X-54102Y79538D02*
X-50600D01*
G01X-54102D02*
Y83040D01*
G01Y76036D02*
Y79538D01*
G01X-31160Y440D02*
X-27408D01*
G01X-34912D02*
X-31160D01*
G01D02*
Y4192D01*
G01Y-3312D02*
Y440D01*
G01X-27705Y63830D02*
X-22803D01*
G01X-27705Y125050D02*
X-22803D01*
G54D15*
Y63830D03*
Y125050D03*
G54D25*
G01X-33850Y-11100D02*
G02X-58850Y13900I0J25000D01*
G01Y173900D01*
G02X-33850Y198900I25000J0D01*
G01X236150D01*
G02X261150Y173900I0J-25000D01*
G01Y13900D01*
G02X236150Y-11100I-25000J0D01*
G01X-33850D01*
G54D16*
G01X-104620Y-136530D02*
X295380D01*
G01X-104620Y-106530D02*
Y-86530D01*
X295380D01*
G01X-54620Y-156530D02*
Y-136530D01*
G01X27630Y112750D02*
X30060D01*
X35010Y107800D01*
X48810D01*
X51830Y110820D01*
X56460D01*
X59850Y107430D01*
G01X70880Y-156530D02*
Y-136530D01*
G01X70380Y-86530D02*
Y-56530D01*
G01X120380Y-156530D02*
Y-136530D01*
X-34811Y71940D03*
Y116940D03*
X-31886Y185630D03*
X-38578D03*
X0Y0D03*
X-4800Y184800D03*
X25360Y-4653D03*
Y17000D03*
X211450Y0D03*
Y184800D03*
X232384Y3000D03*
X239076D03*
X232394Y184800D03*
X239086D03*
G54D26*
G01X1860Y162661D02*
Y157259D01*
X7840Y151279D01*
Y137820D01*
X-17490Y112490D01*
Y43850D01*
X-22300Y39040D01*
Y22320D01*
X-21420Y21440D01*
X-3749D01*
X-2649Y20340D01*
X6440D01*
X14900Y11880D01*
X33421D01*
X41501Y3800D01*
X66250D01*
X71000Y-950D01*
G01X150Y86940D02*
X7380Y94170D01*
Y113710D01*
X10310Y116640D01*
G01X-9850Y101940D02*
X7608Y119398D01*
X9278D01*
X10520Y120640D01*
G01X66655Y167005D02*
X64760Y168900D01*
X60140D01*
X56910Y172130D01*
X8700D01*
X2490Y165920D01*
X-10860D01*
X-22445Y177505D01*
G01X63350Y161220D02*
X53550Y171020D01*
X10197D01*
X9265Y170088D01*
Y170066D01*
X1860Y162661D01*
G01X25700Y76150D02*
Y77906D01*
X25730Y77936D01*
Y83940D01*
G01X76471Y95729D02*
Y97679D01*
X70770Y103380D01*
Y106010D01*
X67225Y109555D01*
X67085D01*
X63740Y112900D01*
X50981D01*
X47536Y109455D01*
X38475D01*
X29895Y118035D01*
Y123185D01*
G01X25780Y107780D02*
Y100900D01*
G01X14600Y166155D02*
X17275D01*
X29324Y154106D01*
Y151675D01*
X34069Y146930D01*
X45029D01*
X56699Y135260D01*
X80314D01*
X84104Y139050D01*
X85860D01*
G01X85936Y135674D02*
X83830Y133568D01*
X56252D01*
X44450Y145370D01*
X31340D01*
X13950Y162760D01*
Y164260D01*
X11600Y166610D01*
G01X48520Y138430D02*
X44655Y142295D01*
X27560D01*
X7860Y161995D01*
G01X7799Y159270D02*
X24490Y142579D01*
Y141517D01*
X27557Y138450D01*
X34089D01*
X35509Y139870D01*
X41590D01*
X49880Y131580D01*
X52960D01*
G01X11899Y163528D02*
X10143D01*
X9631Y164040D01*
X6760D01*
X3690Y160970D01*
Y158650D01*
G01X25450Y179000D02*
X31100Y173350D01*
X59310D01*
X61980Y170680D01*
X66130D01*
X69370Y167440D01*
Y159660D01*
X72045Y156985D01*
X77124D01*
X82010Y152099D01*
Y146500D01*
X87770Y140740D01*
Y110113D01*
X85060Y107403D01*
Y100330D01*
X93270Y92120D01*
X95100D01*
G01X72680Y140850D02*
X58450D01*
X47050Y152250D01*
X37897D01*
X35295Y154852D01*
Y155835D01*
X22318Y168812D01*
G01X83047Y141715D02*
X78432Y137100D01*
X57230D01*
X45820Y148510D01*
X35530D01*
X31060Y152980D01*
Y155511D01*
X17630Y168941D01*
G01X29963Y164916D02*
X32309Y162570D01*
X51819D01*
X62210Y152179D01*
Y146110D01*
G01X51710Y81987D02*
Y72810D01*
X59695Y64825D01*
X65565D01*
X72090Y58300D01*
X81690D01*
X83710Y56280D01*
Y40310D01*
X105140Y18880D01*
X168630D01*
X182003Y32253D01*
Y36348D01*
G01X37150Y134990D02*
Y124820D01*
X39860Y122110D01*
G01X39140Y137800D02*
X37080D01*
X35050Y135770D01*
Y116920D01*
X39860Y112110D01*
G01X77950Y143470D02*
Y141042D01*
X75968Y139060D01*
X57389D01*
X45974Y150475D01*
X36096D01*
G01X78280Y149870D02*
X74839Y153311D01*
X65679D01*
X51340Y167650D01*
X30820D01*
G01X74210Y151380D02*
X65460D01*
X51356Y165484D01*
X33317D01*
G01X35450Y189000D02*
X40540Y183910D01*
X67479D01*
X70900Y180489D01*
Y176700D01*
X79560Y168040D01*
Y160480D01*
X85960Y154080D01*
Y149709D01*
X96380Y139289D01*
Y132751D01*
X94850Y131221D01*
Y104681D01*
X99039Y100492D01*
X110548D01*
X111370Y99670D01*
X117180D01*
G01X135080Y171560D02*
X122850D01*
X116270Y178140D01*
Y190750D01*
X110750Y196270D01*
X62720D01*
X55450Y189000D01*
G01X60370Y80949D02*
Y79193D01*
X73697Y65866D01*
X78570D01*
G01X57987Y84699D02*
X59743D01*
X62890Y81552D01*
Y79637D01*
X72147Y70380D01*
X75751D01*
X76871Y69260D01*
X78690D01*
G01X57460Y82050D02*
Y79480D01*
X76270Y60670D01*
X81550D01*
X85380Y56840D01*
Y42120D01*
X106710Y20790D01*
X167340D01*
X180230Y33680D01*
Y40520D01*
G01X78900Y87770D02*
X77190Y86060D01*
Y80750D01*
X81270Y76670D01*
Y68140D01*
X88435Y60975D01*
Y50395D01*
X90630Y48200D01*
X96040D01*
X100360Y43880D01*
X107580D01*
X122700Y28760D01*
X126600D01*
X129060Y31220D01*
X133979D01*
X137489Y27710D01*
X154099D01*
X157459Y31070D01*
X165632D01*
X172426Y37864D01*
G01X176642Y33472D02*
X172502D01*
X167598Y28568D01*
X166964D01*
X166328Y29204D01*
X165694D01*
X165246Y28756D01*
Y28122D01*
X165882Y27486D01*
Y26852D01*
X165434Y26404D01*
X164800D01*
X164164Y27040D01*
X163530D01*
X163082Y26592D01*
Y25958D01*
X163718Y25322D01*
Y24688D01*
X162010Y22980D01*
X107640D01*
X86880Y43740D01*
Y58700D01*
X83010Y62570D01*
X78840D01*
G01X175300Y44890D02*
X174058Y43648D01*
Y42374D01*
X171041Y39357D01*
Y39260D01*
X166711Y34930D01*
X165337D01*
X164889Y34482D01*
Y33578D01*
X164441Y33130D01*
X163807D01*
X163359Y33578D01*
Y34482D01*
X162911Y34930D01*
X162277D01*
X161829Y34482D01*
Y33578D01*
X161381Y33130D01*
X160747D01*
X160299Y33578D01*
Y34482D01*
X159851Y34930D01*
X159217D01*
X158769Y34482D01*
Y33578D01*
X158321Y33130D01*
X157687D01*
X157239Y33578D01*
Y34482D01*
X156791Y34930D01*
X155781D01*
X150991Y30140D01*
X147587D01*
X147139Y30588D01*
Y31132D01*
X146691Y31580D01*
X146057D01*
X145609Y31132D01*
Y30588D01*
X145161Y30140D01*
X137980D01*
X134770Y33350D01*
X131700D01*
X118220Y46830D01*
X105751D01*
X83990Y68591D01*
Y76380D01*
X79850Y80520D01*
Y85170D01*
G01X65340Y81200D02*
X73270D01*
X78650Y75820D01*
G01X61360Y166480D02*
X63560D01*
X67180Y162860D01*
Y157949D01*
X69899Y155230D01*
X76040D01*
G01X156100Y118210D02*
Y119966D01*
X155280Y120786D01*
Y148890D01*
X135290Y168880D01*
X122920D01*
X114000Y177800D01*
Y190450D01*
X109580Y194870D01*
X71320D01*
X65450Y189000D01*
G01X75450D02*
X79960Y193510D01*
X108650D01*
X111750Y190410D01*
Y176500D01*
X121360Y166890D01*
X130310D01*
X153690Y143510D01*
Y116490D01*
G01X86990Y84230D02*
Y82142D01*
X85770Y80922D01*
Y69070D01*
X101040Y53800D01*
X107520D01*
X107968Y53352D01*
Y49138D01*
X108416Y48690D01*
X109050D01*
X109498Y49138D01*
Y53352D01*
X109946Y53800D01*
X110580D01*
X111028Y53352D01*
Y49138D01*
X111476Y48690D01*
X112110D01*
X112558Y49138D01*
Y53352D01*
X113006Y53800D01*
X114050D01*
X129610Y38240D01*
X132247D01*
X132695Y37792D01*
Y35948D01*
X133143Y35500D01*
X133777D01*
X134225Y35948D01*
Y37792D01*
X134673Y38240D01*
X165969D01*
X165970Y38239D01*
X167233D01*
X169580Y40586D01*
G01X167620Y47770D02*
X166378Y46528D01*
Y45779D01*
X164289Y43690D01*
X162287D01*
X161839Y44138D01*
Y45242D01*
X161391Y45690D01*
X160757D01*
X160309Y45242D01*
Y44138D01*
X159861Y43690D01*
X159227D01*
X158779Y44138D01*
Y45242D01*
X158331Y45690D01*
X157697D01*
X157249Y45242D01*
Y44138D01*
X156801Y43690D01*
X156167D01*
X155719Y44138D01*
Y45242D01*
X155271Y45690D01*
X154637D01*
X154189Y45242D01*
Y44138D01*
X153741Y43690D01*
X153107D01*
X152659Y44138D01*
Y45242D01*
X152211Y45690D01*
X151577D01*
X151129Y45242D01*
Y44138D01*
X150681Y43690D01*
X150047D01*
X149599Y44138D01*
Y45242D01*
X149151Y45690D01*
X148517D01*
X148069Y45242D01*
Y44138D01*
X147621Y43690D01*
X144990D01*
X142496Y46184D01*
X141862D01*
X140731Y45053D01*
X140097D01*
X139649Y45501D01*
Y46135D01*
X140780Y47266D01*
Y47900D01*
X140332Y48348D01*
X139698D01*
X138567Y47217D01*
X137933D01*
X137485Y47665D01*
Y48299D01*
X138616Y49430D01*
Y50064D01*
X138168Y50512D01*
X137534D01*
X136403Y49381D01*
X135769D01*
X135321Y49829D01*
Y50463D01*
X136452Y51594D01*
Y52228D01*
X136004Y52676D01*
X135370D01*
X134239Y51545D01*
X133605D01*
X133157Y51993D01*
Y52627D01*
X134288Y53758D01*
Y54392D01*
X133840Y54840D01*
X133206D01*
X132075Y53709D01*
X131441D01*
X130993Y54157D01*
Y54791D01*
X132124Y55922D01*
Y56556D01*
X131676Y57004D01*
X131042D01*
X129911Y55873D01*
X129277D01*
X128829Y56321D01*
Y56955D01*
X129960Y58086D01*
Y58720D01*
X129512Y59168D01*
X128878D01*
X127747Y58037D01*
X127113D01*
X126665Y58485D01*
Y59119D01*
X127796Y60250D01*
Y60884D01*
X127080Y61600D01*
X105395D01*
X104947Y61152D01*
Y59318D01*
X104499Y58870D01*
X103865D01*
X103417Y59318D01*
Y61152D01*
X102969Y61600D01*
X102335D01*
X101887Y61152D01*
Y59318D01*
X101439Y58870D01*
X100805D01*
X100357Y59318D01*
Y61152D01*
X99909Y61600D01*
X98369D01*
X93740Y66229D01*
Y69265D01*
G01X170710Y44540D02*
X166380Y40210D01*
X138826D01*
X138378Y40658D01*
Y41642D01*
X137930Y42090D01*
X137296D01*
X136848Y41642D01*
Y40658D01*
X136400Y40210D01*
X134730D01*
X133503Y41437D01*
X132869D01*
X131318Y39886D01*
X130684D01*
X130236Y40334D01*
Y40968D01*
X131787Y42519D01*
Y43153D01*
X131339Y43601D01*
X130705D01*
X129154Y42050D01*
X128520D01*
X128072Y42498D01*
Y43132D01*
X129623Y44683D01*
Y45317D01*
X129175Y45765D01*
X128541D01*
X126990Y44214D01*
X126356D01*
X125908Y44662D01*
Y45296D01*
X127459Y46847D01*
Y47481D01*
X127011Y47929D01*
X126377D01*
X124826Y46378D01*
X124192D01*
X123744Y46826D01*
Y47460D01*
X125295Y49011D01*
Y49645D01*
X124847Y50093D01*
X124213D01*
X122662Y48542D01*
X122028D01*
X121580Y48990D01*
Y49624D01*
X123131Y51175D01*
Y51809D01*
X122683Y52257D01*
X122049D01*
X120498Y50706D01*
X119864D01*
X119416Y51154D01*
Y51788D01*
X120967Y53339D01*
Y53973D01*
X119090Y55850D01*
X101970D01*
G01X161206Y48915D02*
X159964Y50157D01*
X158169D01*
X157721Y49709D01*
Y47558D01*
X157273Y47110D01*
X156639D01*
X156191Y47558D01*
Y49709D01*
X155743Y50157D01*
X155109D01*
X154661Y49709D01*
Y47558D01*
X154213Y47110D01*
X153579D01*
X153131Y47558D01*
Y49709D01*
X152683Y50157D01*
X152049D01*
X151601Y49709D01*
Y47558D01*
X151153Y47110D01*
X150519D01*
X150071Y47558D01*
Y49709D01*
X149623Y50157D01*
X146793D01*
X145313Y51637D01*
X144679D01*
X142663Y49621D01*
X142029D01*
X141581Y50069D01*
Y50703D01*
X143597Y52719D01*
Y53353D01*
X143149Y53801D01*
X142515D01*
X140499Y51785D01*
X139865D01*
X139417Y52233D01*
Y52867D01*
X141433Y54883D01*
Y55517D01*
X138922Y58028D01*
X138288D01*
X136232Y55972D01*
X135598D01*
X135150Y56420D01*
Y57054D01*
X137206Y59110D01*
Y59744D01*
X135992Y60958D01*
X135358D01*
X133192Y58792D01*
X132558D01*
X132110Y59240D01*
Y59874D01*
X134276Y62040D01*
Y62674D01*
X133560Y63390D01*
X130455D01*
X130007Y63838D01*
Y64272D01*
X129559Y64720D01*
X128925D01*
X128477Y64272D01*
Y63838D01*
X128029Y63390D01*
X127395D01*
X126947Y63838D01*
Y64272D01*
X126499Y64720D01*
X125865D01*
X125417Y64272D01*
Y63838D01*
X124969Y63390D01*
X119511D01*
X119063Y63838D01*
Y68432D01*
X118615Y68880D01*
X117981D01*
X117533Y68432D01*
Y63578D01*
X117085Y63130D01*
X116451D01*
X116003Y63578D01*
Y68432D01*
X115555Y68880D01*
X114921D01*
X114473Y68432D01*
Y63618D01*
X114025Y63170D01*
X98640D01*
X96240Y65570D01*
Y69910D01*
X93735Y72415D01*
G01X132130Y66355D02*
X125576D01*
X120751Y71180D01*
X105875D01*
X104185Y72870D01*
G01X95810Y61540D02*
X99730Y57620D01*
X106638D01*
X107086Y58068D01*
Y59702D01*
X107534Y60150D01*
X108168D01*
X108616Y59702D01*
Y58068D01*
X109064Y57620D01*
X109698D01*
X110146Y58068D01*
Y59702D01*
X110594Y60150D01*
X111228D01*
X111676Y59702D01*
Y58068D01*
X112124Y57620D01*
X112758D01*
X113206Y58068D01*
Y59702D01*
X113654Y60150D01*
X114288D01*
X114736Y59702D01*
Y58068D01*
X115184Y57620D01*
X115818D01*
X116266Y58068D01*
Y59702D01*
X116714Y60150D01*
X117348D01*
X117796Y59702D01*
Y58068D01*
X118244Y57620D01*
X118878D01*
X119326Y58068D01*
Y59702D01*
X119774Y60150D01*
X120408D01*
X120856Y59702D01*
Y58068D01*
X121304Y57620D01*
X121938D01*
X122386Y58068D01*
Y59702D01*
X122834Y60150D01*
X123468D01*
X123916Y59702D01*
Y58474D01*
X124804Y57586D01*
Y56952D01*
X123193Y55341D01*
Y54707D01*
X123641Y54259D01*
X124275D01*
X125886Y55870D01*
X126520D01*
X126968Y55422D01*
Y54788D01*
X125357Y53177D01*
Y52543D01*
X125805Y52095D01*
X126439D01*
X128050Y53706D01*
X128684D01*
X129132Y53258D01*
Y52624D01*
X127521Y51013D01*
Y50379D01*
X127969Y49931D01*
X128603D01*
X130214Y51542D01*
X130848D01*
X131296Y51094D01*
Y50460D01*
X129685Y48849D01*
Y48215D01*
X130133Y47767D01*
X130767D01*
X132378Y49378D01*
X133012D01*
X133460Y48930D01*
Y48296D01*
X131849Y46685D01*
Y46051D01*
X132297Y45603D01*
X132931D01*
X134542Y47214D01*
X135176D01*
X135624Y46766D01*
Y46132D01*
X134013Y44521D01*
Y43887D01*
X134461Y43439D01*
X135095D01*
X136706Y45050D01*
X137340D01*
X140217Y42173D01*
X165523D01*
X166765Y43415D01*
G01X164985Y51425D02*
X162400Y54010D01*
X151770D01*
X136652Y69128D01*
X136510D01*
X135483Y70155D01*
Y70297D01*
X118890Y86890D01*
X104470D01*
G01X126190Y113390D02*
X120230Y119350D01*
X104120D01*
X101330Y122140D01*
G01X123710Y108410D02*
X119954D01*
X119904Y108460D01*
X100981D01*
X98675Y110830D01*
Y114485D01*
X101330Y117140D01*
G01X109000Y145200D02*
X107050Y147150D01*
X98130D01*
X91710Y153570D01*
Y156335D01*
G01X100020Y150507D02*
X101487Y149040D01*
X111630D01*
X116910Y143760D01*
X119920D01*
G01X93080Y165100D02*
X89920Y161940D01*
Y152580D01*
X101330Y141170D01*
Y132140D01*
G01X85450Y189000D02*
X90580Y183870D01*
Y173219D01*
X104479Y159320D01*
X113460D01*
X124630Y148150D01*
Y118576D01*
X128840Y114366D01*
Y112610D01*
G01X158776Y52055D02*
X149715D01*
X120310Y81460D01*
X118360D01*
G01X134370Y87290D02*
Y85534D01*
X138560Y81344D01*
Y76950D01*
X156940Y58570D01*
G01X169300Y51460D02*
X165040Y55720D01*
X155060D01*
X131755Y79025D01*
Y83775D01*
G01X122750Y146210D02*
Y140980D01*
X117670Y135900D01*
G01X148150Y122410D02*
Y133570D01*
X136310Y145410D01*
Y153230D01*
X130945Y158595D01*
Y158628D01*
X126853Y162720D01*
X122889D01*
X118640Y166969D01*
G01X141200Y189000D02*
X136220Y183968D01*
Y174660D01*
X157000Y153880D01*
Y122410D01*
X158170Y121240D01*
Y116980D01*
X154460Y113270D01*
G01X113940Y196020D02*
X199540D01*
X200300Y195260D01*
G01X131200Y189000D02*
X135691Y193450D01*
X143820D01*
X146180Y191090D01*
Y176780D01*
X154060Y168900D01*
X160800D01*
X169970Y159730D01*
Y122880D01*
X167690Y120600D01*
Y85990D01*
X176950Y76730D01*
Y69775D01*
X178755Y67970D01*
Y65782D01*
X178760Y65777D01*
Y63179D01*
X192589Y49350D01*
X210650D01*
G01X167080Y80600D02*
Y62270D01*
X189270Y40080D01*
Y28569D01*
X174291Y13590D01*
X165840D01*
X161300Y9050D01*
G01X141300D02*
X148940Y16690D01*
X171680D01*
X184940Y29950D01*
Y39491D01*
X162230Y62201D01*
Y85000D01*
G01X151300Y9050D02*
X157330Y15080D01*
X173191D01*
X187170Y29059D01*
Y39859D01*
X164530Y62499D01*
Y82710D01*
G01X154460Y113270D02*
X158927Y108803D01*
Y100432D01*
X156145Y97650D01*
Y67268D01*
X157530Y65883D01*
Y61640D01*
X161554Y57616D01*
G01X155140Y65790D02*
X153570Y67360D01*
Y110210D01*
X151905Y111875D01*
Y138984D01*
X146950Y143939D01*
G01X160860Y161230D02*
Y125619D01*
X164370Y122109D01*
Y100400D01*
X157900Y93930D01*
Y71680D01*
G01X161200Y189000D02*
X156200Y183950D01*
Y177011D01*
X171470Y161741D01*
Y118620D01*
X169370Y116520D01*
Y86459D01*
X179065Y76764D01*
Y72505D01*
G01X199330Y66480D02*
X209160Y76310D01*
Y85851D01*
X210590Y87281D01*
Y94763D01*
X218050Y102223D01*
Y107450D01*
X220140Y109540D01*
Y149870D01*
X218080Y151930D01*
X203930D01*
X198285Y157575D01*
Y176235D01*
X197240Y177280D01*
Y189870D01*
X193660Y193450D01*
X155689D01*
X151200Y189000D01*
G01X181300Y9050D02*
X185450Y4900D01*
X193681D01*
X196490Y7709D01*
Y23830D01*
X209780Y37120D01*
Y41520D01*
G01X213270Y90390D02*
X212008Y89148D01*
Y61251D01*
X222340Y50919D01*
Y44449D01*
X200600Y22709D01*
Y10209D01*
X193496Y3105D01*
X185355D01*
X181300Y-950D01*
G01X170200Y78520D02*
Y62170D01*
X191330Y41040D01*
Y25530D01*
X178037Y12237D01*
X174487D01*
X171300Y9050D01*
G01X191300D02*
Y18960D01*
X193260Y20920D01*
Y41239D01*
X172150Y62349D01*
Y75220D01*
G01X203490Y28320D02*
X211635Y36465D01*
Y42816D01*
X207401Y47050D01*
X192750D01*
X176880Y62920D01*
Y65610D01*
G01X171200Y189000D02*
X166270Y184020D01*
Y176469D01*
X173150Y169589D01*
Y115850D01*
X170980Y113680D01*
Y87180D01*
X183120Y75040D01*
Y61320D01*
X187495Y56945D01*
G01X173890Y88380D02*
X185300Y76970D01*
Y68280D01*
X190310Y63270D01*
Y56390D01*
X195310Y51390D01*
X211550D01*
X213530Y49410D01*
Y48570D01*
G01X200490Y35270D02*
X196530Y39230D01*
Y40970D01*
X174910Y62590D01*
Y72400D01*
G01X215620Y42030D02*
Y49949D01*
X212539Y53030D01*
X196000D01*
X191920Y57110D01*
Y64069D01*
X189084Y66905D01*
Y91160D01*
G01X193071Y72681D02*
Y92329D01*
X185340Y100060D01*
Y163620D01*
X181840Y167120D01*
G01X187030Y79490D02*
X179790Y86730D01*
Y121741D01*
X175070Y126461D01*
Y155059D01*
X178120Y158109D01*
Y165700D01*
X175270Y168550D01*
G01X176220Y182340D02*
Y172330D01*
X179600Y168950D01*
Y148370D01*
X176750Y145520D01*
Y128880D01*
X181450Y124180D01*
Y96830D01*
X184870Y93410D01*
Y89340D01*
G01X187447Y94644D02*
X183532Y98559D01*
Y162818D01*
X182290Y164060D01*
G01X181200Y179000D02*
X181250Y172980D01*
X189210Y165020D01*
Y100930D01*
X195030Y95110D01*
Y61520D01*
G01X171200Y179000D02*
Y183056D01*
X172344Y184200D01*
X183790D01*
X186130Y181860D01*
Y173190D01*
X191995Y167325D01*
Y101045D01*
X198872Y94168D01*
Y72342D01*
X197390Y70860D01*
G01X200987Y99833D02*
Y101589D01*
X196210Y106366D01*
Y181311D01*
X193176Y184345D01*
X185905D01*
X181200Y189000D01*
G01X213945Y87735D02*
X215187Y86493D01*
Y78400D01*
X223110Y70477D01*
Y56710D01*
X224690Y55130D01*
Y41421D01*
X203420Y20151D01*
Y11170D01*
X191300Y-950D01*
G01X226030Y153650D02*
X228040D01*
X232060Y149630D01*
Y110130D01*
X226310Y104380D01*
Y96960D01*
X223460Y94110D01*
Y75780D01*
X226520Y72720D01*
Y40280D01*
X206180Y19940D01*
G01X191120Y76600D02*
Y72060D01*
X193270Y69910D01*
Y57851D01*
X196551Y54570D01*
X213286D01*
X217560Y50296D01*
Y48540D01*
G01X210113Y70976D02*
X208357D01*
X201190Y63809D01*
Y63704D01*
X199948Y62462D01*
G01X191200Y179000D02*
Y174944D01*
X194190Y171954D01*
Y102490D01*
X201230Y95450D01*
Y71960D01*
X196942Y67672D01*
Y59422D01*
X195700Y58180D01*
G01X218780Y44870D02*
X220022Y46112D01*
Y49838D01*
X213421Y56439D01*
X201516D01*
X201515Y56438D01*
X201236D01*
X201235Y56437D01*
X199479D01*
G01X218000Y111420D02*
X212660Y106080D01*
Y99336D01*
X207500Y94176D01*
Y92420D01*
G01X218000Y119530D02*
Y114440D01*
X207060Y103500D01*
Y98796D01*
X207058Y98794D01*
Y97038D01*
G01X198000Y150440D02*
X200230Y148210D01*
Y121320D01*
X197765Y118855D01*
Y108375D01*
X205240Y100900D01*
Y91730D01*
X208806Y88164D01*
G01X206080Y137190D02*
X201745Y132855D01*
Y117505D01*
X199090Y114850D01*
Y110720D01*
X201090Y108720D01*
G01X198210Y122080D02*
Y137910D01*
G01X203320Y106850D02*
Y112250D01*
X209980Y118910D01*
Y141090D01*
X216080Y147190D01*
G01X206085Y105235D02*
X216080Y115230D01*
Y127190D01*
G01Y137190D02*
X211260Y132370D01*
Y113910D01*
X206060Y108710D01*
G01X201160Y113820D02*
X206080Y118740D01*
Y127190D01*
G01X200040Y166940D02*
X204700Y162280D01*
X216850D01*
X222250Y156880D01*
Y100569D01*
X218590Y96909D01*
Y78460D01*
G01X221553Y78640D02*
Y95852D01*
X223950Y98249D01*
Y159070D01*
X218300Y164720D01*
X209430D01*
X202775Y171375D01*
G01X222040Y26430D02*
Y33410D01*
X228400Y39770D01*
Y101840D01*
X233990Y107430D01*
Y152571D01*
X218801Y167760D01*
X209681D01*
X198657Y178784D01*
Y192923D01*
X197415Y194165D01*
G01X240099Y55652D02*
X238857Y56894D01*
Y56896D01*
X234120Y61633D01*
Y68370D01*
G01X240240Y72540D02*
Y65710D01*
X244760Y61190D01*
G01X237420Y83750D02*
Y88290D01*
X236020Y89690D01*
Y154829D01*
X227780Y163069D01*
Y165560D01*
G54D17*
X3600Y15920D03*
X38280Y33010D03*
G54D27*
G01X-97325Y-150985D02*
X-96800Y-150460D01*
X-96350Y-150160D01*
X-95750Y-150010D01*
X-95225Y-150160D01*
X-94850Y-150460D01*
X-94550Y-150910D01*
X-94475Y-151435D01*
X-94550Y-151885D01*
X-94850Y-152335D01*
X-95300Y-152710D01*
X-95825Y-152860D01*
X-96425Y-152710D01*
X-96950Y-152260D01*
X-97250Y-151585D01*
X-97325Y-150835D01*
X-97175Y-149860D01*
X-96950Y-149335D01*
X-96575Y-148810D01*
X-96050Y-148435D01*
X-95525Y-148360D01*
X-95000Y-148510D01*
X-94625Y-148885D01*
G01X-84300Y-152860D02*
X-84900Y-152785D01*
X-85425Y-152485D01*
X-85875Y-152035D01*
X-86175Y-151510D01*
X-86325Y-150910D01*
Y-150310D01*
X-86175Y-149710D01*
X-85875Y-149185D01*
X-85425Y-148735D01*
X-84900Y-148435D01*
X-84300Y-148360D01*
X-83700Y-148435D01*
X-83175Y-148735D01*
X-82725Y-149185D01*
X-82425Y-149710D01*
X-82275Y-150310D01*
Y-150910D01*
X-82425Y-151510D01*
X-82725Y-152035D01*
X-83175Y-152485D01*
X-83700Y-152785D01*
X-84300Y-152860D01*
G01X-79925D02*
Y-148360D01*
X-77075D01*
G01X-78125Y-150535D02*
X-79925D01*
G01X-66900Y-152860D02*
Y-148360D01*
X-67800Y-149260D01*
G01Y-152860D02*
X-66000D01*
G01X-61100Y-148360D02*
X-61700Y-148510D01*
X-62150Y-148885D01*
X-62450Y-149335D01*
X-62675Y-149935D01*
X-62750Y-150610D01*
X-62675Y-151285D01*
X-62450Y-151885D01*
X-62150Y-152335D01*
X-61700Y-152710D01*
X-61100Y-152860D01*
X-60500Y-152710D01*
X-60050Y-152335D01*
X-59750Y-151885D01*
X-59525Y-151285D01*
X-59450Y-150610D01*
X-59525Y-149935D01*
X-59750Y-149335D01*
X-60050Y-148885D01*
X-60500Y-148510D01*
X-61100Y-148360D01*
G01X-101095Y-143997D02*
X-100628Y-144330D01*
X-100103Y-144530D01*
X-99637D01*
X-99170Y-144330D01*
X-98820Y-143997D01*
X-98645Y-143530D01*
X-98762Y-143063D01*
X-99053Y-142663D01*
X-99578Y-142397D01*
X-100278Y-142263D01*
X-100687Y-141997D01*
X-100862Y-141530D01*
X-100745Y-141063D01*
X-100453Y-140730D01*
X-100045Y-140530D01*
X-99637D01*
X-99228Y-140663D01*
X-98878Y-140997D01*
G01X-96295Y-144530D02*
Y-140530D01*
G01X-93845D02*
Y-144530D01*
G01Y-142530D02*
X-96295D01*
G01X-89103Y-144530D02*
X-91437D01*
Y-140530D01*
X-89103D01*
G01X-90037Y-142463D02*
X-91437D01*
G01X-84303Y-144530D02*
X-86637D01*
Y-140530D01*
X-84303D01*
G01X-85237Y-142463D02*
X-86637D01*
G01X-80670Y-140530D02*
Y-144530D01*
G01X-82012Y-140530D02*
X-79328D01*
G01X-92978Y-133530D02*
Y-129530D01*
X-90762D01*
G01X-91578Y-131463D02*
X-92978D01*
G01X-88237Y-133530D02*
Y-129530D01*
X-86778D01*
X-86312Y-129730D01*
X-86020Y-129997D01*
X-85903Y-130530D01*
X-86020Y-131063D01*
X-86370Y-131397D01*
X-86778Y-131597D01*
X-88237D01*
G01X-86778D02*
X-85903Y-133530D01*
G01X-81103D02*
X-83437D01*
Y-129530D01*
X-81103D01*
G01X-82037Y-131463D02*
X-83437D01*
G01X-76303Y-133530D02*
X-78637D01*
Y-129530D01*
X-76303D01*
G01X-77237Y-131463D02*
X-78637D01*
G01X-73895Y-132997D02*
X-73428Y-133330D01*
X-72903Y-133530D01*
X-72437D01*
X-71970Y-133330D01*
X-71620Y-132997D01*
X-71445Y-132530D01*
X-71562Y-132063D01*
X-71853Y-131663D01*
X-72378Y-131397D01*
X-73078Y-131263D01*
X-73487Y-130997D01*
X-73662Y-130530D01*
X-73545Y-130063D01*
X-73253Y-129730D01*
X-72845Y-129530D01*
X-72437D01*
X-72028Y-129663D01*
X-71678Y-129997D01*
G01X-66587Y-129863D02*
X-66937Y-129663D01*
X-67345Y-129530D01*
X-67812D01*
X-68337Y-129730D01*
X-68745Y-130063D01*
X-69037Y-130463D01*
X-69270Y-131130D01*
X-69328Y-131730D01*
X-69212Y-132330D01*
X-69037Y-132730D01*
X-68687Y-133130D01*
X-68278Y-133397D01*
X-67870Y-133530D01*
X-67462D01*
X-67053Y-133397D01*
X-66703Y-133197D01*
X-66412Y-132930D01*
G01X-64528Y-133530D02*
X-63070Y-129530D01*
X-61612Y-133530D01*
G01X-62137Y-132130D02*
X-64003D01*
G01X-59437Y-129530D02*
Y-133530D01*
X-57103D01*
G01X-52303D02*
X-54637D01*
Y-129530D01*
X-52303D01*
G01X-53237Y-131463D02*
X-54637D01*
G01X-48670Y-133663D02*
X-48787Y-133597D01*
Y-133463D01*
X-48670Y-133397D01*
X-48553Y-133463D01*
Y-133597D01*
X-48670Y-133663D01*
G01X-92870Y-125530D02*
X-93337Y-125463D01*
X-93745Y-125197D01*
X-94095Y-124797D01*
X-94328Y-124330D01*
X-94445Y-123797D01*
Y-123263D01*
X-94328Y-122730D01*
X-94095Y-122263D01*
X-93745Y-121863D01*
X-93337Y-121597D01*
X-92870Y-121530D01*
X-92403Y-121597D01*
X-91995Y-121863D01*
X-91645Y-122263D01*
X-91412Y-122730D01*
X-91295Y-123263D01*
Y-123797D01*
X-91412Y-124330D01*
X-91645Y-124797D01*
X-91995Y-125197D01*
X-92403Y-125463D01*
X-92870Y-125530D01*
G01X-89237D02*
Y-121530D01*
X-87778D01*
X-87312Y-121730D01*
X-87020Y-121997D01*
X-86903Y-122530D01*
X-87020Y-123063D01*
X-87370Y-123397D01*
X-87778Y-123597D01*
X-89237D01*
G01X-87778D02*
X-86903Y-125530D01*
G01X-79170Y-121530D02*
X-77770D01*
G01X-78470D02*
Y-125530D01*
G01X-79170D02*
X-77770D01*
G01X-75012D02*
Y-121530D01*
X-72328Y-125530D01*
Y-121530D01*
G01X-65237Y-125530D02*
Y-121530D01*
X-63837D01*
X-63370Y-121730D01*
X-63020Y-122197D01*
X-62903Y-122730D01*
X-63020Y-123263D01*
X-63312Y-123663D01*
X-63837Y-123863D01*
X-65237D01*
G01X-60728Y-125530D02*
X-59270Y-121530D01*
X-57812Y-125530D01*
G01X-58337Y-124130D02*
X-60203D01*
G01X-55637Y-125530D02*
Y-121530D01*
X-54178D01*
X-53712Y-121730D01*
X-53420Y-121997D01*
X-53303Y-122530D01*
X-53420Y-123063D01*
X-53770Y-123397D01*
X-54178Y-123597D01*
X-55637D01*
G01X-54178D02*
X-53303Y-125530D01*
G01X-49670Y-121530D02*
Y-125530D01*
G01X-51012Y-121530D02*
X-48328D01*
G01X-41820D02*
X-41003Y-125530D01*
X-40070Y-121530D01*
X-39137Y-125530D01*
X-38320Y-121530D01*
G01X-35970D02*
X-34570D01*
G01X-35270D02*
Y-125530D01*
G01X-35970D02*
X-34570D01*
G01X-30470Y-121530D02*
Y-125530D01*
G01X-31812Y-121530D02*
X-29128D01*
G01X-26895Y-125530D02*
Y-121530D01*
G01X-24445D02*
Y-125530D01*
G01Y-123530D02*
X-26895D01*
G01X-20870Y-125530D02*
X-21337Y-125463D01*
X-21745Y-125197D01*
X-22095Y-124797D01*
X-22328Y-124330D01*
X-22445Y-123797D01*
Y-123263D01*
X-22328Y-122730D01*
X-22095Y-122263D01*
X-21745Y-121863D01*
X-21337Y-121597D01*
X-20870Y-121530D01*
X-20403Y-121597D01*
X-19995Y-121863D01*
X-19645Y-122263D01*
X-19412Y-122730D01*
X-19295Y-123263D01*
Y-123797D01*
X-19412Y-124330D01*
X-19645Y-124797D01*
X-19995Y-125197D01*
X-20403Y-125463D01*
X-20870Y-125530D01*
G01X-17353Y-121530D02*
Y-124397D01*
X-17120Y-124997D01*
X-16653Y-125397D01*
X-16070Y-125530D01*
X-15487Y-125397D01*
X-15020Y-124997D01*
X-14787Y-124397D01*
Y-121530D01*
G01X-11270D02*
Y-125530D01*
G01X-12612Y-121530D02*
X-9928D01*
G01X-1670D02*
Y-125530D01*
G01X-3012Y-121530D02*
X-328D01*
G01X1905Y-125530D02*
Y-121530D01*
G01X4355D02*
Y-125530D01*
G01Y-123530D02*
X1905D01*
G01X9097Y-125530D02*
X6763D01*
Y-121530D01*
X9097D01*
G01X8163Y-123463D02*
X6763D01*
G01X18813Y-121863D02*
X18463Y-121663D01*
X18055Y-121530D01*
X17588D01*
X17063Y-121730D01*
X16655Y-122063D01*
X16363Y-122463D01*
X16130Y-123130D01*
X16072Y-123730D01*
X16188Y-124330D01*
X16363Y-124730D01*
X16713Y-125130D01*
X17122Y-125397D01*
X17530Y-125530D01*
X17938D01*
X18347Y-125397D01*
X18697Y-125197D01*
X18988Y-124930D01*
G01X22330Y-125530D02*
X21863Y-125463D01*
X21455Y-125197D01*
X21105Y-124797D01*
X20872Y-124330D01*
X20755Y-123797D01*
Y-123263D01*
X20872Y-122730D01*
X21105Y-122263D01*
X21455Y-121863D01*
X21863Y-121597D01*
X22330Y-121530D01*
X22797Y-121597D01*
X23205Y-121863D01*
X23555Y-122263D01*
X23788Y-122730D01*
X23905Y-123263D01*
Y-123797D01*
X23788Y-124330D01*
X23555Y-124797D01*
X23205Y-125197D01*
X22797Y-125463D01*
X22330Y-125530D01*
G01X25788D02*
Y-121530D01*
X28472Y-125530D01*
Y-121530D01*
G01X30705Y-124997D02*
X31172Y-125330D01*
X31697Y-125530D01*
X32163D01*
X32630Y-125330D01*
X32980Y-124997D01*
X33155Y-124530D01*
X33038Y-124063D01*
X32747Y-123663D01*
X32222Y-123397D01*
X31522Y-123263D01*
X31113Y-122997D01*
X30938Y-122530D01*
X31055Y-122063D01*
X31347Y-121730D01*
X31755Y-121530D01*
X32163D01*
X32572Y-121663D01*
X32922Y-121997D01*
G01X37897Y-125530D02*
X35563D01*
Y-121530D01*
X37897D01*
G01X36963Y-123463D02*
X35563D01*
G01X40188Y-125530D02*
Y-121530D01*
X42872Y-125530D01*
Y-121530D01*
G01X46330D02*
Y-125530D01*
G01X44988Y-121530D02*
X47672D01*
G01X55930Y-125530D02*
X55463Y-125463D01*
X55055Y-125197D01*
X54705Y-124797D01*
X54472Y-124330D01*
X54355Y-123797D01*
Y-123263D01*
X54472Y-122730D01*
X54705Y-122263D01*
X55055Y-121863D01*
X55463Y-121597D01*
X55930Y-121530D01*
X56397Y-121597D01*
X56805Y-121863D01*
X57155Y-122263D01*
X57388Y-122730D01*
X57505Y-123263D01*
Y-123797D01*
X57388Y-124330D01*
X57155Y-124797D01*
X56805Y-125197D01*
X56397Y-125463D01*
X55930Y-125530D01*
G01X59622D02*
Y-121530D01*
X61838D01*
G01X61022Y-123463D02*
X59622D01*
G01X-94037Y-117530D02*
Y-113530D01*
X-92637D01*
X-92170Y-113730D01*
X-91820Y-114197D01*
X-91703Y-114730D01*
X-91820Y-115263D01*
X-92112Y-115663D01*
X-92637Y-115863D01*
X-94037D01*
G01X-89237Y-117530D02*
Y-113530D01*
X-87778D01*
X-87312Y-113730D01*
X-87020Y-113997D01*
X-86903Y-114530D01*
X-87020Y-115063D01*
X-87370Y-115397D01*
X-87778Y-115597D01*
X-89237D01*
G01X-87778D02*
X-86903Y-117530D01*
G01X-83270D02*
X-83737Y-117463D01*
X-84145Y-117197D01*
X-84495Y-116797D01*
X-84728Y-116330D01*
X-84845Y-115797D01*
Y-115263D01*
X-84728Y-114730D01*
X-84495Y-114263D01*
X-84145Y-113863D01*
X-83737Y-113597D01*
X-83270Y-113530D01*
X-82803Y-113597D01*
X-82395Y-113863D01*
X-82045Y-114263D01*
X-81812Y-114730D01*
X-81695Y-115263D01*
Y-115797D01*
X-81812Y-116330D01*
X-82045Y-116797D01*
X-82395Y-117197D01*
X-82803Y-117463D01*
X-83270Y-117530D01*
G01X-77187Y-113863D02*
X-77537Y-113663D01*
X-77945Y-113530D01*
X-78412D01*
X-78937Y-113730D01*
X-79345Y-114063D01*
X-79637Y-114463D01*
X-79870Y-115130D01*
X-79928Y-115730D01*
X-79812Y-116330D01*
X-79637Y-116730D01*
X-79287Y-117130D01*
X-78878Y-117397D01*
X-78470Y-117530D01*
X-78062D01*
X-77653Y-117397D01*
X-77303Y-117197D01*
X-77012Y-116930D01*
G01X-74953Y-113530D02*
Y-116397D01*
X-74720Y-116997D01*
X-74253Y-117397D01*
X-73670Y-117530D01*
X-73087Y-117397D01*
X-72620Y-116997D01*
X-72387Y-116397D01*
Y-113530D01*
G01X-70037Y-117530D02*
Y-113530D01*
X-68578D01*
X-68112Y-113730D01*
X-67820Y-113997D01*
X-67703Y-114530D01*
X-67820Y-115063D01*
X-68170Y-115397D01*
X-68578Y-115597D01*
X-70037D01*
G01X-68578D02*
X-67703Y-117530D01*
G01X-62903D02*
X-65237D01*
Y-113530D01*
X-62903D01*
G01X-63837Y-115463D02*
X-65237D01*
G01X-60787Y-117530D02*
Y-113530D01*
X-59270Y-116863D01*
X-57753Y-113530D01*
Y-117530D01*
G01X-53303D02*
X-55637D01*
Y-113530D01*
X-53303D01*
G01X-54237Y-115463D02*
X-55637D01*
G01X-51012Y-117530D02*
Y-113530D01*
X-48328Y-117530D01*
Y-113530D01*
G01X-44870D02*
Y-117530D01*
G01X-46212Y-113530D02*
X-43528D01*
G01X-35270Y-117530D02*
X-35737Y-117463D01*
X-36145Y-117197D01*
X-36495Y-116797D01*
X-36728Y-116330D01*
X-36845Y-115797D01*
Y-115263D01*
X-36728Y-114730D01*
X-36495Y-114263D01*
X-36145Y-113863D01*
X-35737Y-113597D01*
X-35270Y-113530D01*
X-34803Y-113597D01*
X-34395Y-113863D01*
X-34045Y-114263D01*
X-33812Y-114730D01*
X-33695Y-115263D01*
Y-115797D01*
X-33812Y-116330D01*
X-34045Y-116797D01*
X-34395Y-117197D01*
X-34803Y-117463D01*
X-35270Y-117530D01*
G01X-31637D02*
Y-113530D01*
X-30178D01*
X-29712Y-113730D01*
X-29420Y-113997D01*
X-29303Y-114530D01*
X-29420Y-115063D01*
X-29770Y-115397D01*
X-30178Y-115597D01*
X-31637D01*
G01X-30178D02*
X-29303Y-117530D01*
G01X-22387D02*
Y-113530D01*
X-20870Y-116863D01*
X-19353Y-113530D01*
Y-117530D01*
G01X-17528D02*
X-16070Y-113530D01*
X-14612Y-117530D01*
G01X-15137Y-116130D02*
X-17003D01*
G01X-12612Y-117530D02*
Y-113530D01*
X-9928Y-117530D01*
Y-113530D01*
G01X-7753D02*
Y-116397D01*
X-7520Y-116997D01*
X-7053Y-117397D01*
X-6470Y-117530D01*
X-5887Y-117397D01*
X-5420Y-116997D01*
X-5187Y-116397D01*
Y-113530D01*
G01X-2778Y-117530D02*
Y-113530D01*
X-562D01*
G01X-1378Y-115463D02*
X-2778D01*
G01X1672Y-117530D02*
X3130Y-113530D01*
X4588Y-117530D01*
G01X4063Y-116130D02*
X2197D01*
G01X9213Y-113863D02*
X8863Y-113663D01*
X8455Y-113530D01*
X7988D01*
X7463Y-113730D01*
X7055Y-114063D01*
X6763Y-114463D01*
X6530Y-115130D01*
X6472Y-115730D01*
X6588Y-116330D01*
X6763Y-116730D01*
X7113Y-117130D01*
X7522Y-117397D01*
X7930Y-117530D01*
X8338D01*
X8747Y-117397D01*
X9097Y-117197D01*
X9388Y-116930D01*
G01X12730Y-113530D02*
Y-117530D01*
G01X11388Y-113530D02*
X14072D01*
G01X16247D02*
Y-116397D01*
X16480Y-116997D01*
X16947Y-117397D01*
X17530Y-117530D01*
X18113Y-117397D01*
X18580Y-116997D01*
X18813Y-116397D01*
Y-113530D01*
G01X21163Y-117530D02*
Y-113530D01*
X22622D01*
X23088Y-113730D01*
X23380Y-113997D01*
X23497Y-114530D01*
X23380Y-115063D01*
X23030Y-115397D01*
X22622Y-115597D01*
X21163D01*
G01X22622D02*
X23497Y-117530D01*
G01X28297D02*
X25963D01*
Y-113530D01*
X28297D01*
G01X27363Y-115463D02*
X25963D01*
G01X36030Y-113530D02*
X37430D01*
G01X36730D02*
Y-117530D01*
G01X36030D02*
X37430D01*
G01X40188D02*
Y-113530D01*
X42872Y-117530D01*
Y-113530D01*
G01X49380D02*
X50197Y-117530D01*
X51130Y-113530D01*
X52063Y-117530D01*
X52880Y-113530D01*
G01X54705Y-117530D02*
Y-113530D01*
G01X57155D02*
Y-117530D01*
G01Y-115530D02*
X54705D01*
G01X60730Y-117530D02*
X60263Y-117463D01*
X59855Y-117197D01*
X59505Y-116797D01*
X59272Y-116330D01*
X59155Y-115797D01*
Y-115263D01*
X59272Y-114730D01*
X59505Y-114263D01*
X59855Y-113863D01*
X60263Y-113597D01*
X60730Y-113530D01*
X61197Y-113597D01*
X61605Y-113863D01*
X61955Y-114263D01*
X62188Y-114730D01*
X62305Y-115263D01*
Y-115797D01*
X62188Y-116330D01*
X61955Y-116797D01*
X61605Y-117197D01*
X61197Y-117463D01*
X60730Y-117530D01*
G01X64363Y-113530D02*
Y-117530D01*
X66697D01*
G01X71497D02*
X69163D01*
Y-113530D01*
X71497D01*
G01X70563Y-115463D02*
X69163D01*
G01X-94212Y-109530D02*
Y-105530D01*
X-91528Y-109530D01*
Y-105530D01*
G01X-88070Y-109530D02*
X-88537Y-109463D01*
X-88945Y-109197D01*
X-89295Y-108797D01*
X-89528Y-108330D01*
X-89645Y-107797D01*
Y-107263D01*
X-89528Y-106730D01*
X-89295Y-106263D01*
X-88945Y-105863D01*
X-88537Y-105597D01*
X-88070Y-105530D01*
X-87603Y-105597D01*
X-87195Y-105863D01*
X-86845Y-106263D01*
X-86612Y-106730D01*
X-86495Y-107263D01*
Y-107797D01*
X-86612Y-108330D01*
X-86845Y-108797D01*
X-87195Y-109197D01*
X-87603Y-109463D01*
X-88070Y-109530D01*
G01X-83270Y-105530D02*
Y-109530D01*
G01X-84612Y-105530D02*
X-81928D01*
G01X-73203Y-107397D02*
X-72970Y-107197D01*
X-72795Y-106863D01*
X-72678Y-106397D01*
X-72795Y-105997D01*
X-73028Y-105730D01*
X-73437Y-105530D01*
X-75012D01*
Y-109530D01*
X-73087D01*
X-72678Y-109263D01*
X-72445Y-108863D01*
X-72328Y-108397D01*
X-72445Y-107930D01*
X-72795Y-107530D01*
X-73203Y-107397D01*
X-75012D01*
G01X-67703Y-109530D02*
X-70037D01*
Y-105530D01*
X-67703D01*
G01X-68637Y-107463D02*
X-70037D01*
G01X-60553Y-105530D02*
Y-108397D01*
X-60320Y-108997D01*
X-59853Y-109397D01*
X-59270Y-109530D01*
X-58687Y-109397D01*
X-58220Y-108997D01*
X-57987Y-108397D01*
Y-105530D01*
G01X-55695Y-108997D02*
X-55228Y-109330D01*
X-54703Y-109530D01*
X-54237D01*
X-53770Y-109330D01*
X-53420Y-108997D01*
X-53245Y-108530D01*
X-53362Y-108063D01*
X-53653Y-107663D01*
X-54178Y-107397D01*
X-54878Y-107263D01*
X-55287Y-106997D01*
X-55462Y-106530D01*
X-55345Y-106063D01*
X-55053Y-105730D01*
X-54645Y-105530D01*
X-54237D01*
X-53828Y-105663D01*
X-53478Y-105997D01*
G01X-48503Y-109530D02*
X-50837D01*
Y-105530D01*
X-48503D01*
G01X-49437Y-107463D02*
X-50837D01*
G01X-46153Y-109530D02*
Y-105530D01*
X-44987D01*
X-44520Y-105730D01*
X-44170Y-105997D01*
X-43878Y-106397D01*
X-43645Y-106863D01*
X-43587Y-107530D01*
X-43645Y-108197D01*
X-43878Y-108663D01*
X-44170Y-109063D01*
X-44520Y-109330D01*
X-44987Y-109530D01*
X-46153D01*
G01X-36378D02*
Y-105530D01*
X-34162D01*
G01X-34978Y-107463D02*
X-36378D01*
G01X-30470Y-109530D02*
X-30937Y-109463D01*
X-31345Y-109197D01*
X-31695Y-108797D01*
X-31928Y-108330D01*
X-32045Y-107797D01*
Y-107263D01*
X-31928Y-106730D01*
X-31695Y-106263D01*
X-31345Y-105863D01*
X-30937Y-105597D01*
X-30470Y-105530D01*
X-30003Y-105597D01*
X-29595Y-105863D01*
X-29245Y-106263D01*
X-29012Y-106730D01*
X-28895Y-107263D01*
Y-107797D01*
X-29012Y-108330D01*
X-29245Y-108797D01*
X-29595Y-109197D01*
X-30003Y-109463D01*
X-30470Y-109530D01*
G01X-26837D02*
Y-105530D01*
X-25378D01*
X-24912Y-105730D01*
X-24620Y-105997D01*
X-24503Y-106530D01*
X-24620Y-107063D01*
X-24970Y-107397D01*
X-25378Y-107597D01*
X-26837D01*
G01X-25378D02*
X-24503Y-109530D01*
G01X-14903D02*
X-17237D01*
Y-105530D01*
X-14903D01*
G01X-15837Y-107463D02*
X-17237D01*
G01X-12612Y-109530D02*
Y-105530D01*
X-9928Y-109530D01*
Y-105530D01*
G01X-6120Y-107530D02*
X-4953D01*
Y-108730D01*
X-5303Y-109130D01*
X-5712Y-109397D01*
X-6295Y-109530D01*
X-6878Y-109397D01*
X-7287Y-109130D01*
X-7637Y-108730D01*
X-7870Y-108263D01*
X-7987Y-107730D01*
Y-107263D01*
X-7870Y-106863D01*
X-7637Y-106397D01*
X-7287Y-105997D01*
X-6937Y-105730D01*
X-6470Y-105530D01*
X-6062D01*
X-5595Y-105663D01*
X-5245Y-105930D01*
G01X-2370Y-105530D02*
X-970D01*
G01X-1670D02*
Y-109530D01*
G01X-2370D02*
X-970D01*
G01X1788D02*
Y-105530D01*
X4472Y-109530D01*
Y-105530D01*
G01X9097Y-109530D02*
X6763D01*
Y-105530D01*
X9097D01*
G01X8163Y-107463D02*
X6763D01*
G01X13897Y-109530D02*
X11563D01*
Y-105530D01*
X13897D01*
G01X12963Y-107463D02*
X11563D01*
G01X16363Y-109530D02*
Y-105530D01*
X17822D01*
X18288Y-105730D01*
X18580Y-105997D01*
X18697Y-106530D01*
X18580Y-107063D01*
X18230Y-107397D01*
X17822Y-107597D01*
X16363D01*
G01X17822D02*
X18697Y-109530D01*
G01X21630Y-105530D02*
X23030D01*
G01X22330D02*
Y-109530D01*
G01X21630D02*
X23030D01*
G01X25788D02*
Y-105530D01*
X28472Y-109530D01*
Y-105530D01*
G01X32280Y-107530D02*
X33447D01*
Y-108730D01*
X33097Y-109130D01*
X32688Y-109397D01*
X32105Y-109530D01*
X31522Y-109397D01*
X31113Y-109130D01*
X30763Y-108730D01*
X30530Y-108263D01*
X30413Y-107730D01*
Y-107263D01*
X30530Y-106863D01*
X30763Y-106397D01*
X31113Y-105997D01*
X31463Y-105730D01*
X31930Y-105530D01*
X32338D01*
X32805Y-105663D01*
X33155Y-105930D01*
G01X40247Y-109530D02*
Y-105530D01*
X41413D01*
X41880Y-105730D01*
X42230Y-105997D01*
X42522Y-106397D01*
X42755Y-106863D01*
X42813Y-107530D01*
X42755Y-108197D01*
X42522Y-108663D01*
X42230Y-109063D01*
X41880Y-109330D01*
X41413Y-109530D01*
X40247D01*
G01X47497D02*
X45163D01*
Y-105530D01*
X47497D01*
G01X46563Y-107463D02*
X45163D01*
G01X49905Y-108997D02*
X50372Y-109330D01*
X50897Y-109530D01*
X51363D01*
X51830Y-109330D01*
X52180Y-108997D01*
X52355Y-108530D01*
X52238Y-108063D01*
X51947Y-107663D01*
X51422Y-107397D01*
X50722Y-107263D01*
X50313Y-106997D01*
X50138Y-106530D01*
X50255Y-106063D01*
X50547Y-105730D01*
X50955Y-105530D01*
X51363D01*
X51772Y-105663D01*
X52122Y-105997D01*
G01X55230Y-105530D02*
X56630D01*
G01X55930D02*
Y-109530D01*
G01X55230D02*
X56630D01*
G01X61080Y-107530D02*
X62247D01*
Y-108730D01*
X61897Y-109130D01*
X61488Y-109397D01*
X60905Y-109530D01*
X60322Y-109397D01*
X59913Y-109130D01*
X59563Y-108730D01*
X59330Y-108263D01*
X59213Y-107730D01*
Y-107263D01*
X59330Y-106863D01*
X59563Y-106397D01*
X59913Y-105997D01*
X60263Y-105730D01*
X60730Y-105530D01*
X61138D01*
X61605Y-105663D01*
X61955Y-105930D01*
G01X64188Y-109530D02*
Y-105530D01*
X66872Y-109530D01*
Y-105530D01*
G01X-94037Y-101530D02*
Y-97530D01*
X-92637D01*
X-92170Y-97730D01*
X-91820Y-98197D01*
X-91703Y-98730D01*
X-91820Y-99263D01*
X-92112Y-99663D01*
X-92637Y-99863D01*
X-94037D01*
G01X-89237Y-101530D02*
Y-97530D01*
X-87778D01*
X-87312Y-97730D01*
X-87020Y-97997D01*
X-86903Y-98530D01*
X-87020Y-99063D01*
X-87370Y-99397D01*
X-87778Y-99597D01*
X-89237D01*
G01X-87778D02*
X-86903Y-101530D01*
G01X-83270D02*
X-83737Y-101463D01*
X-84145Y-101197D01*
X-84495Y-100797D01*
X-84728Y-100330D01*
X-84845Y-99797D01*
Y-99263D01*
X-84728Y-98730D01*
X-84495Y-98263D01*
X-84145Y-97863D01*
X-83737Y-97597D01*
X-83270Y-97530D01*
X-82803Y-97597D01*
X-82395Y-97863D01*
X-82045Y-98263D01*
X-81812Y-98730D01*
X-81695Y-99263D01*
Y-99797D01*
X-81812Y-100330D01*
X-82045Y-100797D01*
X-82395Y-101197D01*
X-82803Y-101463D01*
X-83270Y-101530D01*
G01X-79637D02*
Y-97530D01*
X-78237D01*
X-77770Y-97730D01*
X-77420Y-98197D01*
X-77303Y-98730D01*
X-77420Y-99263D01*
X-77712Y-99663D01*
X-78237Y-99863D01*
X-79637D01*
G01X-74837Y-101530D02*
Y-97530D01*
X-73378D01*
X-72912Y-97730D01*
X-72620Y-97997D01*
X-72503Y-98530D01*
X-72620Y-99063D01*
X-72970Y-99397D01*
X-73378Y-99597D01*
X-74837D01*
G01X-73378D02*
X-72503Y-101530D01*
G01X-69570Y-97530D02*
X-68170D01*
G01X-68870D02*
Y-101530D01*
G01X-69570D02*
X-68170D01*
G01X-62903D02*
X-65237D01*
Y-97530D01*
X-62903D01*
G01X-63837Y-99463D02*
X-65237D01*
G01X-59270Y-97530D02*
Y-101530D01*
G01X-60612Y-97530D02*
X-57928D01*
G01X-55928Y-101530D02*
X-54470Y-97530D01*
X-53012Y-101530D01*
G01X-53537Y-100130D02*
X-55403D01*
G01X-50837Y-101530D02*
Y-97530D01*
X-49378D01*
X-48912Y-97730D01*
X-48620Y-97997D01*
X-48503Y-98530D01*
X-48620Y-99063D01*
X-48970Y-99397D01*
X-49378Y-99597D01*
X-50837D01*
G01X-49378D02*
X-48503Y-101530D01*
G01X-44870D02*
Y-99730D01*
X-46037Y-97530D01*
G01X-43703D02*
X-44870Y-99730D01*
G01X-35270Y-97530D02*
Y-101530D01*
G01X-36612Y-97530D02*
X-33928D01*
G01X-30470Y-101530D02*
X-30937Y-101463D01*
X-31345Y-101197D01*
X-31695Y-100797D01*
X-31928Y-100330D01*
X-32045Y-99797D01*
Y-99263D01*
X-31928Y-98730D01*
X-31695Y-98263D01*
X-31345Y-97863D01*
X-30937Y-97597D01*
X-30470Y-97530D01*
X-30003Y-97597D01*
X-29595Y-97863D01*
X-29245Y-98263D01*
X-29012Y-98730D01*
X-28895Y-99263D01*
Y-99797D01*
X-29012Y-100330D01*
X-29245Y-100797D01*
X-29595Y-101197D01*
X-30003Y-101463D01*
X-30470Y-101530D01*
G01X-21978D02*
Y-97530D01*
X-19762D01*
G01X-20578Y-99463D02*
X-21978D01*
G01X-17237Y-101530D02*
Y-97530D01*
X-15778D01*
X-15312Y-97730D01*
X-15020Y-97997D01*
X-14903Y-98530D01*
X-15020Y-99063D01*
X-15370Y-99397D01*
X-15778Y-99597D01*
X-17237D01*
G01X-15778D02*
X-14903Y-101530D01*
G01X-10103D02*
X-12437D01*
Y-97530D01*
X-10103D01*
G01X-11037Y-99463D02*
X-12437D01*
G01X-5303Y-101530D02*
X-7637D01*
Y-97530D01*
X-5303D01*
G01X-6237Y-99463D02*
X-7637D01*
G01X-2895Y-100997D02*
X-2428Y-101330D01*
X-1903Y-101530D01*
X-1437D01*
X-970Y-101330D01*
X-620Y-100997D01*
X-445Y-100530D01*
X-562Y-100063D01*
X-853Y-99663D01*
X-1378Y-99397D01*
X-2078Y-99263D01*
X-2487Y-98997D01*
X-2662Y-98530D01*
X-2545Y-98063D01*
X-2253Y-97730D01*
X-1845Y-97530D01*
X-1437D01*
X-1028Y-97663D01*
X-678Y-97997D01*
G01X4413Y-97863D02*
X4063Y-97663D01*
X3655Y-97530D01*
X3188D01*
X2663Y-97730D01*
X2255Y-98063D01*
X1963Y-98463D01*
X1730Y-99130D01*
X1672Y-99730D01*
X1788Y-100330D01*
X1963Y-100730D01*
X2313Y-101130D01*
X2722Y-101397D01*
X3130Y-101530D01*
X3538D01*
X3947Y-101397D01*
X4297Y-101197D01*
X4588Y-100930D01*
G01X6472Y-101530D02*
X7930Y-97530D01*
X9388Y-101530D01*
G01X8863Y-100130D02*
X6997D01*
G01X11563Y-97530D02*
Y-101530D01*
X13897D01*
G01X18697D02*
X16363D01*
Y-97530D01*
X18697D01*
G01X17763Y-99463D02*
X16363D01*
G01X25672Y-101530D02*
X27130Y-97530D01*
X28588Y-101530D01*
G01X28063Y-100130D02*
X26197D01*
G01X30588Y-101530D02*
Y-97530D01*
X33272Y-101530D01*
Y-97530D01*
G01X35447Y-101530D02*
Y-97530D01*
X36613D01*
X37080Y-97730D01*
X37430Y-97997D01*
X37722Y-98397D01*
X37955Y-98863D01*
X38013Y-99530D01*
X37955Y-100197D01*
X37722Y-100663D01*
X37430Y-101063D01*
X37080Y-101330D01*
X36613Y-101530D01*
X35447D01*
G01X45105Y-100997D02*
X45572Y-101330D01*
X46097Y-101530D01*
X46563D01*
X47030Y-101330D01*
X47380Y-100997D01*
X47555Y-100530D01*
X47438Y-100063D01*
X47147Y-99663D01*
X46622Y-99397D01*
X45922Y-99263D01*
X45513Y-98997D01*
X45338Y-98530D01*
X45455Y-98063D01*
X45747Y-97730D01*
X46155Y-97530D01*
X46563D01*
X46972Y-97663D01*
X47322Y-97997D01*
G01X49905Y-101530D02*
Y-97530D01*
G01X52355D02*
Y-101530D01*
G01Y-99530D02*
X49905D01*
G01X54472Y-101530D02*
X55930Y-97530D01*
X57388Y-101530D01*
G01X56863Y-100130D02*
X54997D01*
G01X59563Y-97530D02*
Y-101530D01*
X61897D01*
G01X64363Y-97530D02*
Y-101530D01*
X66697D01*
G01X-93870Y-89530D02*
Y-93530D01*
G01X-95212Y-89530D02*
X-92528D01*
G01X-90295Y-93530D02*
Y-89530D01*
G01X-87845D02*
Y-93530D01*
G01Y-91530D02*
X-90295D01*
G01X-84970Y-89530D02*
X-83570D01*
G01X-84270D02*
Y-93530D01*
G01X-84970D02*
X-83570D01*
G01X-80695Y-92997D02*
X-80228Y-93330D01*
X-79703Y-93530D01*
X-79237D01*
X-78770Y-93330D01*
X-78420Y-92997D01*
X-78245Y-92530D01*
X-78362Y-92063D01*
X-78653Y-91663D01*
X-79178Y-91397D01*
X-79878Y-91263D01*
X-80287Y-90997D01*
X-80462Y-90530D01*
X-80345Y-90063D01*
X-80053Y-89730D01*
X-79645Y-89530D01*
X-79237D01*
X-78828Y-89663D01*
X-78478Y-89997D01*
G01X-71153Y-93530D02*
Y-89530D01*
X-69987D01*
X-69520Y-89730D01*
X-69170Y-89997D01*
X-68878Y-90397D01*
X-68645Y-90863D01*
X-68587Y-91530D01*
X-68645Y-92197D01*
X-68878Y-92663D01*
X-69170Y-93063D01*
X-69520Y-93330D01*
X-69987Y-93530D01*
X-71153D01*
G01X-65070D02*
X-65537Y-93463D01*
X-65945Y-93197D01*
X-66295Y-92797D01*
X-66528Y-92330D01*
X-66645Y-91797D01*
Y-91263D01*
X-66528Y-90730D01*
X-66295Y-90263D01*
X-65945Y-89863D01*
X-65537Y-89597D01*
X-65070Y-89530D01*
X-64603Y-89597D01*
X-64195Y-89863D01*
X-63845Y-90263D01*
X-63612Y-90730D01*
X-63495Y-91263D01*
Y-91797D01*
X-63612Y-92330D01*
X-63845Y-92797D01*
X-64195Y-93197D01*
X-64603Y-93463D01*
X-65070Y-93530D01*
G01X-58987Y-89863D02*
X-59337Y-89663D01*
X-59745Y-89530D01*
X-60212D01*
X-60737Y-89730D01*
X-61145Y-90063D01*
X-61437Y-90463D01*
X-61670Y-91130D01*
X-61728Y-91730D01*
X-61612Y-92330D01*
X-61437Y-92730D01*
X-61087Y-93130D01*
X-60678Y-93397D01*
X-60270Y-93530D01*
X-59862D01*
X-59453Y-93397D01*
X-59103Y-93197D01*
X-58812Y-92930D01*
G01X-56753Y-89530D02*
Y-92397D01*
X-56520Y-92997D01*
X-56053Y-93397D01*
X-55470Y-93530D01*
X-54887Y-93397D01*
X-54420Y-92997D01*
X-54187Y-92397D01*
Y-89530D01*
G01X-52187Y-93530D02*
Y-89530D01*
X-50670Y-92863D01*
X-49153Y-89530D01*
Y-93530D01*
G01X-44703D02*
X-47037D01*
Y-89530D01*
X-44703D01*
G01X-45637Y-91463D02*
X-47037D01*
G01X-42412Y-93530D02*
Y-89530D01*
X-39728Y-93530D01*
Y-89530D01*
G01X-36270D02*
Y-93530D01*
G01X-37612Y-89530D02*
X-34928D01*
G01X-25387Y-89863D02*
X-25737Y-89663D01*
X-26145Y-89530D01*
X-26612D01*
X-27137Y-89730D01*
X-27545Y-90063D01*
X-27837Y-90463D01*
X-28070Y-91130D01*
X-28128Y-91730D01*
X-28012Y-92330D01*
X-27837Y-92730D01*
X-27487Y-93130D01*
X-27078Y-93397D01*
X-26670Y-93530D01*
X-26262D01*
X-25853Y-93397D01*
X-25503Y-93197D01*
X-25212Y-92930D01*
G01X-21870Y-93530D02*
X-22337Y-93463D01*
X-22745Y-93197D01*
X-23095Y-92797D01*
X-23328Y-92330D01*
X-23445Y-91797D01*
Y-91263D01*
X-23328Y-90730D01*
X-23095Y-90263D01*
X-22745Y-89863D01*
X-22337Y-89597D01*
X-21870Y-89530D01*
X-21403Y-89597D01*
X-20995Y-89863D01*
X-20645Y-90263D01*
X-20412Y-90730D01*
X-20295Y-91263D01*
Y-91797D01*
X-20412Y-92330D01*
X-20645Y-92797D01*
X-20995Y-93197D01*
X-21403Y-93463D01*
X-21870Y-93530D01*
G01X-18412D02*
Y-89530D01*
X-15728Y-93530D01*
Y-89530D01*
G01X-12270D02*
Y-93530D01*
G01X-13612Y-89530D02*
X-10928D01*
G01X-8928Y-93530D02*
X-7470Y-89530D01*
X-6012Y-93530D01*
G01X-6537Y-92130D02*
X-8403D01*
G01X-3370Y-89530D02*
X-1970D01*
G01X-2670D02*
Y-93530D01*
G01X-3370D02*
X-1970D01*
G01X788D02*
Y-89530D01*
X3472Y-93530D01*
Y-89530D01*
G01X5705Y-92997D02*
X6172Y-93330D01*
X6697Y-93530D01*
X7163D01*
X7630Y-93330D01*
X7980Y-92997D01*
X8155Y-92530D01*
X8038Y-92063D01*
X7747Y-91663D01*
X7222Y-91397D01*
X6522Y-91263D01*
X6113Y-90997D01*
X5938Y-90530D01*
X6055Y-90063D01*
X6347Y-89730D01*
X6755Y-89530D01*
X7163D01*
X7572Y-89663D01*
X7922Y-89997D01*
G01X15830Y-89530D02*
X17230D01*
G01X16530D02*
Y-93530D01*
G01X15830D02*
X17230D01*
G01X19988D02*
Y-89530D01*
X22672Y-93530D01*
Y-89530D01*
G01X25022Y-93530D02*
Y-89530D01*
X27238D01*
G01X26422Y-91463D02*
X25022D01*
G01X30930Y-93530D02*
X30463Y-93463D01*
X30055Y-93197D01*
X29705Y-92797D01*
X29472Y-92330D01*
X29355Y-91797D01*
Y-91263D01*
X29472Y-90730D01*
X29705Y-90263D01*
X30055Y-89863D01*
X30463Y-89597D01*
X30930Y-89530D01*
X31397Y-89597D01*
X31805Y-89863D01*
X32155Y-90263D01*
X32388Y-90730D01*
X32505Y-91263D01*
Y-91797D01*
X32388Y-92330D01*
X32155Y-92797D01*
X31805Y-93197D01*
X31397Y-93463D01*
X30930Y-93530D01*
G01X34563D02*
Y-89530D01*
X36022D01*
X36488Y-89730D01*
X36780Y-89997D01*
X36897Y-90530D01*
X36780Y-91063D01*
X36430Y-91397D01*
X36022Y-91597D01*
X34563D01*
G01X36022D02*
X36897Y-93530D01*
G01X39013D02*
Y-89530D01*
X40530Y-92863D01*
X42047Y-89530D01*
Y-93530D01*
G01X43872D02*
X45330Y-89530D01*
X46788Y-93530D01*
G01X46263Y-92130D02*
X44397D01*
G01X50130Y-89530D02*
Y-93530D01*
G01X48788Y-89530D02*
X51472D01*
G01X54230D02*
X55630D01*
G01X54930D02*
Y-93530D01*
G01X54230D02*
X55630D01*
G01X59730D02*
X59263Y-93463D01*
X58855Y-93197D01*
X58505Y-92797D01*
X58272Y-92330D01*
X58155Y-91797D01*
Y-91263D01*
X58272Y-90730D01*
X58505Y-90263D01*
X58855Y-89863D01*
X59263Y-89597D01*
X59730Y-89530D01*
X60197Y-89597D01*
X60605Y-89863D01*
X60955Y-90263D01*
X61188Y-90730D01*
X61305Y-91263D01*
Y-91797D01*
X61188Y-92330D01*
X60955Y-92797D01*
X60605Y-93197D01*
X60197Y-93463D01*
X59730Y-93530D01*
G01X63188D02*
Y-89530D01*
X65872Y-93530D01*
Y-89530D01*
G01X-101328Y-83530D02*
X-99870Y-79530D01*
X-98412Y-83530D01*
G01X-98937Y-82130D02*
X-100803D01*
G01X-96353Y-79530D02*
Y-82397D01*
X-96120Y-82997D01*
X-95653Y-83397D01*
X-95070Y-83530D01*
X-94487Y-83397D01*
X-94020Y-82997D01*
X-93787Y-82397D01*
Y-79530D01*
G01X-91495Y-82997D02*
X-91028Y-83330D01*
X-90503Y-83530D01*
X-90037D01*
X-89570Y-83330D01*
X-89220Y-82997D01*
X-89045Y-82530D01*
X-89162Y-82063D01*
X-89453Y-81663D01*
X-89978Y-81397D01*
X-90678Y-81263D01*
X-91087Y-80997D01*
X-91262Y-80530D01*
X-91145Y-80063D01*
X-90853Y-79730D01*
X-90445Y-79530D01*
X-90037D01*
X-89628Y-79663D01*
X-89278Y-79997D01*
G01X-85470Y-79530D02*
Y-83530D01*
G01X-86812Y-79530D02*
X-84128D01*
G01X-81370D02*
X-79970D01*
G01X-80670D02*
Y-83530D01*
G01X-81370D02*
X-79970D01*
G01X-77212D02*
Y-79530D01*
X-74528Y-83530D01*
Y-79530D01*
G01X-71070Y-83663D02*
X-71187Y-83597D01*
Y-83463D01*
X-71070Y-83397D01*
X-70953Y-83463D01*
Y-83597D01*
X-71070Y-83663D01*
G01X-61470Y-79530D02*
Y-83530D01*
G01X-62812Y-79530D02*
X-60128D01*
G01X-55503Y-83530D02*
X-57837D01*
Y-79530D01*
X-55503D01*
G01X-56437Y-81463D02*
X-57837D01*
G01X-53095Y-83530D02*
X-50645Y-79530D01*
G01X-53095D02*
X-50645Y-83530D01*
G01X-48528D02*
X-47070Y-79530D01*
X-45612Y-83530D01*
G01X-46137Y-82130D02*
X-48003D01*
G01X-43495Y-82997D02*
X-43028Y-83330D01*
X-42503Y-83530D01*
X-42037D01*
X-41570Y-83330D01*
X-41220Y-82997D01*
X-41045Y-82530D01*
X-41162Y-82063D01*
X-41453Y-81663D01*
X-41978Y-81397D01*
X-42678Y-81263D01*
X-43087Y-80997D01*
X-43262Y-80530D01*
X-43145Y-80063D01*
X-42853Y-79730D01*
X-42445Y-79530D01*
X-42037D01*
X-41628Y-79663D01*
X-41278Y-79997D01*
G01X-32787Y-83530D02*
X-32670Y-82663D01*
X-32495Y-81930D01*
X-32262Y-81263D01*
X-31970Y-80530D01*
X-31503Y-79530D01*
X-33837D01*
G01X-27870Y-83530D02*
X-27462Y-83463D01*
X-26995Y-83263D01*
X-26703Y-82930D01*
X-26587Y-82463D01*
X-26703Y-81997D01*
X-27053Y-81597D01*
X-27578Y-81397D01*
X-28162D01*
X-28512Y-81263D01*
X-28803Y-80930D01*
X-28920Y-80463D01*
X-28745Y-79997D01*
X-28337Y-79663D01*
X-27870Y-79530D01*
X-27403Y-79663D01*
X-26995Y-79997D01*
X-26820Y-80463D01*
X-26937Y-80930D01*
X-27228Y-81263D01*
X-27578Y-81397D01*
X-28162D01*
X-28687Y-81597D01*
X-29037Y-81997D01*
X-29153Y-82463D01*
X-29037Y-82930D01*
X-28745Y-83263D01*
X-28278Y-83463D01*
X-27870Y-83530D01*
G01X-23187D02*
X-23070Y-82663D01*
X-22895Y-81930D01*
X-22662Y-81263D01*
X-22370Y-80530D01*
X-21903Y-79530D01*
X-24237D01*
G01X-19553Y-82730D02*
X-19203Y-83197D01*
X-18737Y-83463D01*
X-18212Y-83530D01*
X-17745Y-83463D01*
X-17278Y-83130D01*
X-16987Y-82730D01*
X-16928Y-82330D01*
X-17045Y-81863D01*
X-17453Y-81530D01*
X-17862Y-81397D01*
X-18387D01*
G01X-17862D02*
X-17512Y-81197D01*
X-17220Y-80863D01*
X-17103Y-80463D01*
X-17220Y-80063D01*
X-17512Y-79730D01*
X-18037Y-79530D01*
X-18562Y-79597D01*
X-19087Y-79863D01*
G01X-14753Y-82930D02*
X-14403Y-83263D01*
X-13995Y-83463D01*
X-13470Y-83530D01*
X-12945Y-83397D01*
X-12537Y-83130D01*
X-12245Y-82663D01*
X-12187Y-82130D01*
X-12303Y-81597D01*
X-12595Y-81263D01*
X-13003Y-80997D01*
X-13412Y-80930D01*
X-13820Y-80997D01*
X-14345Y-81263D01*
X-14170Y-79530D01*
X-12595D01*
G01X-5153D02*
Y-82397D01*
X-4920Y-82997D01*
X-4453Y-83397D01*
X-3870Y-83530D01*
X-3287Y-83397D01*
X-2820Y-82997D01*
X-2587Y-82397D01*
Y-79530D01*
G01X-295Y-82997D02*
X172Y-83330D01*
X697Y-83530D01*
X1163D01*
X1630Y-83330D01*
X1980Y-82997D01*
X2155Y-82530D01*
X2038Y-82063D01*
X1747Y-81663D01*
X1222Y-81397D01*
X522Y-81263D01*
X113Y-80997D01*
X-62Y-80530D01*
X55Y-80063D01*
X347Y-79730D01*
X755Y-79530D01*
X1163D01*
X1572Y-79663D01*
X1922Y-79997D01*
G01X4272Y-83530D02*
X5730Y-79530D01*
X7188Y-83530D01*
G01X6663Y-82130D02*
X4797D01*
G01X-100978Y-74863D02*
X-100570Y-74397D01*
X-100220Y-74130D01*
X-99753Y-73997D01*
X-99345Y-74130D01*
X-99053Y-74397D01*
X-98820Y-74797D01*
X-98762Y-75263D01*
X-98820Y-75663D01*
X-99053Y-76063D01*
X-99403Y-76397D01*
X-99812Y-76530D01*
X-100278Y-76397D01*
X-100687Y-75997D01*
X-100920Y-75397D01*
X-100978Y-74730D01*
X-100862Y-73863D01*
X-100687Y-73397D01*
X-100395Y-72930D01*
X-99987Y-72597D01*
X-99578Y-72530D01*
X-99170Y-72663D01*
X-98878Y-72997D01*
G01X-96353Y-75930D02*
X-96003Y-76263D01*
X-95595Y-76463D01*
X-95070Y-76530D01*
X-94545Y-76397D01*
X-94137Y-76130D01*
X-93845Y-75663D01*
X-93787Y-75130D01*
X-93903Y-74597D01*
X-94195Y-74263D01*
X-94603Y-73997D01*
X-95012Y-73930D01*
X-95420Y-73997D01*
X-95945Y-74263D01*
X-95770Y-72530D01*
X-94195D01*
G01X-90270D02*
X-90737Y-72663D01*
X-91087Y-72997D01*
X-91320Y-73397D01*
X-91495Y-73930D01*
X-91553Y-74530D01*
X-91495Y-75130D01*
X-91320Y-75663D01*
X-91087Y-76063D01*
X-90737Y-76397D01*
X-90270Y-76530D01*
X-89803Y-76397D01*
X-89453Y-76063D01*
X-89220Y-75663D01*
X-89045Y-75130D01*
X-88987Y-74530D01*
X-89045Y-73930D01*
X-89220Y-73397D01*
X-89453Y-72997D01*
X-89803Y-72663D01*
X-90270Y-72530D01*
G01X-85470Y-76530D02*
Y-72530D01*
X-86170Y-73330D01*
G01Y-76530D02*
X-84770D01*
G01X-77620Y-72530D02*
X-76803Y-76530D01*
X-75870Y-72530D01*
X-74937Y-76530D01*
X-74120Y-72530D01*
G01X-71770D02*
X-70370D01*
G01X-71070D02*
Y-76530D01*
G01X-71770D02*
X-70370D01*
G01X-67437Y-72530D02*
Y-76530D01*
X-65103D01*
G01X-62637Y-72530D02*
Y-76530D01*
X-60303D01*
G01X-57370Y-72530D02*
X-55970D01*
G01X-56670D02*
Y-76530D01*
G01X-57370D02*
X-55970D01*
G01X-53328D02*
X-51870Y-72530D01*
X-50412Y-76530D01*
G01X-50937Y-75130D02*
X-52803D01*
G01X-48587Y-76530D02*
Y-72530D01*
X-47070Y-75863D01*
X-45553Y-72530D01*
Y-76530D01*
G01X-36187Y-72863D02*
X-36537Y-72663D01*
X-36945Y-72530D01*
X-37412D01*
X-37937Y-72730D01*
X-38345Y-73063D01*
X-38637Y-73463D01*
X-38870Y-74130D01*
X-38928Y-74730D01*
X-38812Y-75330D01*
X-38637Y-75730D01*
X-38287Y-76130D01*
X-37878Y-76397D01*
X-37470Y-76530D01*
X-37062D01*
X-36653Y-76397D01*
X-36303Y-76197D01*
X-36012Y-75930D01*
G01X-34128Y-76530D02*
X-32670Y-72530D01*
X-31212Y-76530D01*
G01X-31737Y-75130D02*
X-33603D01*
G01X-29212Y-76530D02*
Y-72530D01*
X-26528Y-76530D01*
Y-72530D01*
G01X-24412Y-76530D02*
Y-72530D01*
X-21728Y-76530D01*
Y-72530D01*
G01X-18270Y-76530D02*
X-18737Y-76463D01*
X-19145Y-76197D01*
X-19495Y-75797D01*
X-19728Y-75330D01*
X-19845Y-74797D01*
Y-74263D01*
X-19728Y-73730D01*
X-19495Y-73263D01*
X-19145Y-72863D01*
X-18737Y-72597D01*
X-18270Y-72530D01*
X-17803Y-72597D01*
X-17395Y-72863D01*
X-17045Y-73263D01*
X-16812Y-73730D01*
X-16695Y-74263D01*
Y-74797D01*
X-16812Y-75330D01*
X-17045Y-75797D01*
X-17395Y-76197D01*
X-17803Y-76463D01*
X-18270Y-76530D01*
G01X-14812D02*
Y-72530D01*
X-12128Y-76530D01*
Y-72530D01*
G01X-5153Y-76530D02*
Y-72530D01*
X-3987D01*
X-3520Y-72730D01*
X-3170Y-72997D01*
X-2878Y-73397D01*
X-2645Y-73863D01*
X-2587Y-74530D01*
X-2645Y-75197D01*
X-2878Y-75663D01*
X-3170Y-76063D01*
X-3520Y-76330D01*
X-3987Y-76530D01*
X-5153D01*
G01X-237D02*
Y-72530D01*
X1222D01*
X1688Y-72730D01*
X1980Y-72997D01*
X2097Y-73530D01*
X1980Y-74063D01*
X1630Y-74397D01*
X1222Y-74597D01*
X-237D01*
G01X1222D02*
X2097Y-76530D01*
G01X5030Y-72530D02*
X6430D01*
G01X5730D02*
Y-76530D01*
G01X5030D02*
X6430D01*
G01X9072Y-72530D02*
X10530Y-76530D01*
X11988Y-72530D01*
G01X16497Y-76530D02*
X14163D01*
Y-72530D01*
X16497D01*
G01X15563Y-74463D02*
X14163D01*
G01X23180Y-72530D02*
X23997Y-76530D01*
X24930Y-72530D01*
X25863Y-76530D01*
X26680Y-72530D01*
G01X30897Y-76530D02*
X28563D01*
Y-72530D01*
X30897D01*
G01X29963Y-74463D02*
X28563D01*
G01X33305Y-75997D02*
X33772Y-76330D01*
X34297Y-76530D01*
X34763D01*
X35230Y-76330D01*
X35580Y-75997D01*
X35755Y-75530D01*
X35638Y-75063D01*
X35347Y-74663D01*
X34822Y-74397D01*
X34122Y-74263D01*
X33713Y-73997D01*
X33538Y-73530D01*
X33655Y-73063D01*
X33947Y-72730D01*
X34355Y-72530D01*
X34763D01*
X35172Y-72663D01*
X35522Y-72997D01*
G01X39330Y-72530D02*
Y-76530D01*
G01X37988Y-72530D02*
X40672D01*
G01X-101593Y-68530D02*
Y-61030D01*
X-98047D01*
G01X-99353Y-64655D02*
X-101593D01*
G01X-94187Y-68530D02*
Y-61030D01*
X-91853D01*
X-91107Y-61405D01*
X-90640Y-61905D01*
X-90453Y-62905D01*
X-90640Y-63905D01*
X-91200Y-64530D01*
X-91853Y-64905D01*
X-94187D01*
G01X-91853D02*
X-90453Y-68530D01*
G01X-82953D02*
X-86687D01*
Y-61030D01*
X-82953D01*
G01X-84447Y-64655D02*
X-86687D01*
G01X-75453Y-68530D02*
X-79187D01*
Y-61030D01*
X-75453D01*
G01X-76947Y-64655D02*
X-79187D01*
G01X-71780Y-67530D02*
X-71033Y-68155D01*
X-70193Y-68530D01*
X-69447D01*
X-68700Y-68155D01*
X-68140Y-67530D01*
X-67860Y-66655D01*
X-68047Y-65780D01*
X-68513Y-65030D01*
X-69353Y-64530D01*
X-70473Y-64280D01*
X-71127Y-63780D01*
X-71407Y-62905D01*
X-71220Y-62030D01*
X-70753Y-61405D01*
X-70100Y-61030D01*
X-69447D01*
X-68793Y-61280D01*
X-68233Y-61905D01*
G01X-60267Y-61655D02*
X-60827Y-61280D01*
X-61480Y-61030D01*
X-62227D01*
X-63067Y-61405D01*
X-63720Y-62030D01*
X-64187Y-62780D01*
X-64560Y-64030D01*
X-64653Y-65155D01*
X-64467Y-66280D01*
X-64187Y-67030D01*
X-63627Y-67780D01*
X-62973Y-68280D01*
X-62320Y-68530D01*
X-61667D01*
X-61013Y-68280D01*
X-60453Y-67905D01*
X-59987Y-67405D01*
G01X-57153Y-68530D02*
X-54820Y-61030D01*
X-52487Y-68530D01*
G01X-53327Y-65905D02*
X-56313D01*
G01X-49187Y-61030D02*
Y-68530D01*
X-45453D01*
G01X-37953D02*
X-41687D01*
Y-61030D01*
X-37953D01*
G01X-39447Y-64655D02*
X-41687D01*
G01X-26780Y-67530D02*
X-26033Y-68155D01*
X-25193Y-68530D01*
X-24447D01*
X-23700Y-68155D01*
X-23140Y-67530D01*
X-22860Y-66655D01*
X-23047Y-65780D01*
X-23513Y-65030D01*
X-24353Y-64530D01*
X-25473Y-64280D01*
X-26127Y-63780D01*
X-26407Y-62905D01*
X-26220Y-62030D01*
X-25753Y-61405D01*
X-25100Y-61030D01*
X-24447D01*
X-23793Y-61280D01*
X-23233Y-61905D01*
G01X-15453Y-68530D02*
X-19187D01*
Y-61030D01*
X-15453D01*
G01X-16947Y-64655D02*
X-19187D01*
G01X-12247Y-68530D02*
Y-61030D01*
X-9820Y-67280D01*
X-7393Y-61030D01*
Y-68530D01*
G01X-3440Y-61030D02*
X-1200D01*
G01X-2320D02*
Y-68530D01*
G01X-3440D02*
X-1200D01*
G01X7233Y-61655D02*
X6673Y-61280D01*
X6020Y-61030D01*
X5273D01*
X4433Y-61405D01*
X3780Y-62030D01*
X3313Y-62780D01*
X2940Y-64030D01*
X2847Y-65155D01*
X3033Y-66280D01*
X3313Y-67030D01*
X3873Y-67780D01*
X4527Y-68280D01*
X5180Y-68530D01*
X5833D01*
X6487Y-68280D01*
X7047Y-67905D01*
X7513Y-67405D01*
G01X12680Y-68530D02*
X11933Y-68405D01*
X11280Y-67905D01*
X10720Y-67155D01*
X10347Y-66280D01*
X10160Y-65280D01*
Y-64280D01*
X10347Y-63280D01*
X10720Y-62405D01*
X11280Y-61655D01*
X11933Y-61155D01*
X12680Y-61030D01*
X13427Y-61155D01*
X14080Y-61655D01*
X14640Y-62405D01*
X15013Y-63280D01*
X15200Y-64280D01*
Y-65280D01*
X15013Y-66280D01*
X14640Y-67155D01*
X14080Y-67905D01*
X13427Y-68405D01*
X12680Y-68530D01*
G01X18033D02*
Y-61030D01*
X22327Y-68530D01*
Y-61030D01*
G01X25627Y-68530D02*
Y-61030D01*
X27493D01*
X28240Y-61405D01*
X28800Y-61905D01*
X29267Y-62655D01*
X29640Y-63530D01*
X29733Y-64780D01*
X29640Y-66030D01*
X29267Y-66905D01*
X28800Y-67655D01*
X28240Y-68155D01*
X27493Y-68530D01*
X25627D01*
G01X33127Y-61030D02*
Y-66405D01*
X33500Y-67530D01*
X34247Y-68280D01*
X35180Y-68530D01*
X36113Y-68280D01*
X36860Y-67530D01*
X37233Y-66405D01*
Y-61030D01*
G01X44733Y-61655D02*
X44173Y-61280D01*
X43520Y-61030D01*
X42773D01*
X41933Y-61405D01*
X41280Y-62030D01*
X40813Y-62780D01*
X40440Y-64030D01*
X40347Y-65155D01*
X40533Y-66280D01*
X40813Y-67030D01*
X41373Y-67780D01*
X42027Y-68280D01*
X42680Y-68530D01*
X43333D01*
X43987Y-68280D01*
X44547Y-67905D01*
X45013Y-67405D01*
G01X50180Y-61030D02*
Y-68530D01*
G01X48033Y-61030D02*
X52327D01*
G01X57680Y-68530D02*
X56933Y-68405D01*
X56280Y-67905D01*
X55720Y-67155D01*
X55347Y-66280D01*
X55160Y-65280D01*
Y-64280D01*
X55347Y-63280D01*
X55720Y-62405D01*
X56280Y-61655D01*
X56933Y-61155D01*
X57680Y-61030D01*
X58427Y-61155D01*
X59080Y-61655D01*
X59640Y-62405D01*
X60013Y-63280D01*
X60200Y-64280D01*
Y-65280D01*
X60013Y-66280D01*
X59640Y-67155D01*
X59080Y-67905D01*
X58427Y-68405D01*
X57680Y-68530D01*
G01X63313D02*
Y-61030D01*
X65647D01*
X66393Y-61405D01*
X66860Y-61905D01*
X67047Y-62905D01*
X66860Y-63905D01*
X66300Y-64530D01*
X65647Y-64905D01*
X63313D01*
G01X65647D02*
X67047Y-68530D01*
G01X-50978Y-144530D02*
Y-140530D01*
X-48762D01*
G01X-49578Y-142463D02*
X-50978D01*
G01X-45770Y-140530D02*
X-44370D01*
G01X-45070D02*
Y-144530D01*
G01X-45770D02*
X-44370D01*
G01X-41437Y-140530D02*
Y-144530D01*
X-39103D01*
G01X-36987D02*
Y-140530D01*
X-35470Y-143863D01*
X-33953Y-140530D01*
Y-144530D01*
G01X-21950Y-148600D02*
X-20150D01*
G01X-21050D02*
Y-153100D01*
G01X-21950D02*
X-20150D01*
G01X-16975D02*
Y-148600D01*
X-13525Y-153100D01*
Y-148600D01*
G01X-9450D02*
Y-153100D01*
G01X-11175Y-148600D02*
X-7725D01*
G01X-2150Y-153100D02*
X-5150D01*
Y-148600D01*
X-2150D01*
G01X-3350Y-150775D02*
X-5150D01*
G01X650Y-153100D02*
Y-148600D01*
X2525D01*
X3125Y-148825D01*
X3500Y-149125D01*
X3650Y-149725D01*
X3500Y-150325D01*
X3050Y-150700D01*
X2525Y-150925D01*
X650D01*
G01X2525D02*
X3650Y-153100D01*
G01X6225D02*
Y-148600D01*
X9675Y-153100D01*
Y-148600D01*
G01X11875Y-153100D02*
X13750Y-148600D01*
X15625Y-153100D01*
G01X14950Y-151525D02*
X12550D01*
G01X18050Y-148600D02*
Y-153100D01*
X21050D01*
G01X31150D02*
Y-148600D01*
X30250Y-149500D01*
G01Y-153100D02*
X32050D01*
G01X77130Y-148530D02*
X76663Y-148663D01*
X76313Y-148997D01*
X76080Y-149397D01*
X75905Y-149930D01*
X75847Y-150530D01*
X75905Y-151130D01*
X76080Y-151663D01*
X76313Y-152063D01*
X76663Y-152397D01*
X77130Y-152530D01*
X77597Y-152397D01*
X77947Y-152063D01*
X78180Y-151663D01*
X78355Y-151130D01*
X78413Y-150530D01*
X78355Y-149930D01*
X78180Y-149397D01*
X77947Y-148997D01*
X77597Y-148663D01*
X77130Y-148530D01*
G01X81813Y-152530D02*
X81930Y-151663D01*
X82105Y-150930D01*
X82338Y-150263D01*
X82630Y-149530D01*
X83097Y-148530D01*
X80763D01*
G01X85972Y-151197D02*
X87488D01*
G01X90247Y-151730D02*
X90597Y-152197D01*
X91063Y-152463D01*
X91588Y-152530D01*
X92055Y-152463D01*
X92522Y-152130D01*
X92813Y-151730D01*
X92872Y-151330D01*
X92755Y-150863D01*
X92347Y-150530D01*
X91938Y-150397D01*
X91413D01*
G01X91938D02*
X92288Y-150197D01*
X92580Y-149863D01*
X92697Y-149463D01*
X92580Y-149063D01*
X92288Y-148730D01*
X91763Y-148530D01*
X91238Y-148597D01*
X90713Y-148863D01*
G01X96330Y-152530D02*
Y-148530D01*
X95630Y-149330D01*
G01Y-152530D02*
X97030D01*
G01X100372Y-151197D02*
X101888D01*
G01X105930Y-152530D02*
Y-148530D01*
X105230Y-149330D01*
G01Y-152530D02*
X106630D01*
G01X111430D02*
Y-148530D01*
X109272Y-151397D01*
X112188D01*
G01X73847Y-144530D02*
Y-140530D01*
X75013D01*
X75480Y-140730D01*
X75830Y-140997D01*
X76122Y-141397D01*
X76355Y-141863D01*
X76413Y-142530D01*
X76355Y-143197D01*
X76122Y-143663D01*
X75830Y-144063D01*
X75480Y-144330D01*
X75013Y-144530D01*
X73847D01*
G01X78472D02*
X79930Y-140530D01*
X81388Y-144530D01*
G01X80863Y-143130D02*
X78997D01*
G01X84730Y-140530D02*
Y-144530D01*
G01X83388Y-140530D02*
X86072D01*
G01X90697Y-144530D02*
X88363D01*
Y-140530D01*
X90697D01*
G01X89763Y-142463D02*
X88363D01*
G01X73788Y-64530D02*
Y-60530D01*
X76472Y-64530D01*
Y-60530D01*
G01X78472Y-64530D02*
X79930Y-60530D01*
X81388Y-64530D01*
G01X80863Y-63130D02*
X78997D01*
G01X83213Y-64530D02*
Y-60530D01*
X84730Y-63863D01*
X86247Y-60530D01*
Y-64530D01*
G01X90697D02*
X88363D01*
Y-60530D01*
X90697D01*
G01X89763Y-62463D02*
X88363D01*
G01X88085Y-113530D02*
X91375Y-107230D01*
G01X88085D02*
X91375Y-113530D01*
G01X83380Y-130363D02*
X86880D01*
G01X88180D02*
X91680D01*
G01X92980D02*
X96480D01*
G01X103222Y-129030D02*
Y-125030D01*
X105438D01*
G01X104622Y-126963D02*
X103222D01*
G01X110413Y-125363D02*
X110063Y-125163D01*
X109655Y-125030D01*
X109188D01*
X108663Y-125230D01*
X108255Y-125563D01*
X107963Y-125963D01*
X107730Y-126630D01*
X107672Y-127230D01*
X107788Y-127830D01*
X107963Y-128230D01*
X108313Y-128630D01*
X108722Y-128897D01*
X109130Y-129030D01*
X109538D01*
X109947Y-128897D01*
X110297Y-128697D01*
X110588Y-128430D01*
G01X112763Y-129030D02*
Y-125030D01*
X114163D01*
X114630Y-125230D01*
X114980Y-125697D01*
X115097Y-126230D01*
X114980Y-126763D01*
X114688Y-127163D01*
X114163Y-127363D01*
X112763D01*
G01X123238Y-130363D02*
X122655Y-129697D01*
X122363Y-129030D01*
Y-126363D01*
X122655Y-125697D01*
X123238Y-125030D01*
G01X127222Y-129030D02*
Y-125030D01*
X129438D01*
G01X128622Y-126963D02*
X127222D01*
G01X131963Y-129030D02*
Y-125030D01*
X133422D01*
X133888Y-125230D01*
X134180Y-125497D01*
X134297Y-126030D01*
X134180Y-126563D01*
X133830Y-126897D01*
X133422Y-127097D01*
X131963D01*
G01X133422D02*
X134297Y-129030D01*
G01X139097D02*
X136763D01*
Y-125030D01*
X139097D01*
G01X138163Y-126963D02*
X136763D01*
G01X143897Y-129030D02*
X141563D01*
Y-125030D01*
X143897D01*
G01X142963Y-126963D02*
X141563D01*
G01X146305Y-128497D02*
X146772Y-128830D01*
X147297Y-129030D01*
X147763D01*
X148230Y-128830D01*
X148580Y-128497D01*
X148755Y-128030D01*
X148638Y-127563D01*
X148347Y-127163D01*
X147822Y-126897D01*
X147122Y-126763D01*
X146713Y-126497D01*
X146538Y-126030D01*
X146655Y-125563D01*
X146947Y-125230D01*
X147355Y-125030D01*
X147763D01*
X148172Y-125163D01*
X148522Y-125497D01*
G01X153613Y-125363D02*
X153263Y-125163D01*
X152855Y-125030D01*
X152388D01*
X151863Y-125230D01*
X151455Y-125563D01*
X151163Y-125963D01*
X150930Y-126630D01*
X150872Y-127230D01*
X150988Y-127830D01*
X151163Y-128230D01*
X151513Y-128630D01*
X151922Y-128897D01*
X152330Y-129030D01*
X152738D01*
X153147Y-128897D01*
X153497Y-128697D01*
X153788Y-128430D01*
G01X155672Y-129030D02*
X157130Y-125030D01*
X158588Y-129030D01*
G01X158063Y-127630D02*
X156197D01*
G01X160763Y-125030D02*
Y-129030D01*
X163097D01*
G01X167897D02*
X165563D01*
Y-125030D01*
X167897D01*
G01X166963Y-126963D02*
X165563D01*
G01X177613Y-125363D02*
X177263Y-125163D01*
X176855Y-125030D01*
X176388D01*
X175863Y-125230D01*
X175455Y-125563D01*
X175163Y-125963D01*
X174930Y-126630D01*
X174872Y-127230D01*
X174988Y-127830D01*
X175163Y-128230D01*
X175513Y-128630D01*
X175922Y-128897D01*
X176330Y-129030D01*
X176738D01*
X177147Y-128897D01*
X177497Y-128697D01*
X177788Y-128430D01*
G01X181130Y-129030D02*
X180663Y-128963D01*
X180255Y-128697D01*
X179905Y-128297D01*
X179672Y-127830D01*
X179555Y-127297D01*
Y-126763D01*
X179672Y-126230D01*
X179905Y-125763D01*
X180255Y-125363D01*
X180663Y-125097D01*
X181130Y-125030D01*
X181597Y-125097D01*
X182005Y-125363D01*
X182355Y-125763D01*
X182588Y-126230D01*
X182705Y-126763D01*
Y-127297D01*
X182588Y-127830D01*
X182355Y-128297D01*
X182005Y-128697D01*
X181597Y-128963D01*
X181130Y-129030D01*
G01X184588D02*
Y-125030D01*
X187272Y-129030D01*
Y-125030D01*
G01X189622Y-129030D02*
Y-125030D01*
X191838D01*
G01X191022Y-126963D02*
X189622D01*
G01X194830Y-125030D02*
X196230D01*
G01X195530D02*
Y-129030D01*
G01X194830D02*
X196230D01*
G01X199047D02*
Y-125030D01*
X200213D01*
X200680Y-125230D01*
X201030Y-125497D01*
X201322Y-125897D01*
X201555Y-126363D01*
X201613Y-127030D01*
X201555Y-127697D01*
X201322Y-128163D01*
X201030Y-128563D01*
X200680Y-128830D01*
X200213Y-129030D01*
X199047D01*
G01X206297D02*
X203963D01*
Y-125030D01*
X206297D01*
G01X205363Y-126963D02*
X203963D01*
G01X208588Y-129030D02*
Y-125030D01*
X211272Y-129030D01*
Y-125030D01*
G01X214730D02*
Y-129030D01*
G01X213388Y-125030D02*
X216072D01*
G01X218830D02*
X220230D01*
G01X219530D02*
Y-129030D01*
G01X218830D02*
X220230D01*
G01X222872D02*
X224330Y-125030D01*
X225788Y-129030D01*
G01X225263Y-127630D02*
X223397D01*
G01X227963Y-125030D02*
Y-129030D01*
X230297D01*
G01X237563D02*
Y-125030D01*
X238963D01*
X239430Y-125230D01*
X239780Y-125697D01*
X239897Y-126230D01*
X239780Y-126763D01*
X239488Y-127163D01*
X238963Y-127363D01*
X237563D01*
G01X242363Y-129030D02*
Y-125030D01*
X243822D01*
X244288Y-125230D01*
X244580Y-125497D01*
X244697Y-126030D01*
X244580Y-126563D01*
X244230Y-126897D01*
X243822Y-127097D01*
X242363D01*
G01X243822D02*
X244697Y-129030D01*
G01X248330D02*
X247863Y-128963D01*
X247455Y-128697D01*
X247105Y-128297D01*
X246872Y-127830D01*
X246755Y-127297D01*
Y-126763D01*
X246872Y-126230D01*
X247105Y-125763D01*
X247455Y-125363D01*
X247863Y-125097D01*
X248330Y-125030D01*
X248797Y-125097D01*
X249205Y-125363D01*
X249555Y-125763D01*
X249788Y-126230D01*
X249905Y-126763D01*
Y-127297D01*
X249788Y-127830D01*
X249555Y-128297D01*
X249205Y-128697D01*
X248797Y-128963D01*
X248330Y-129030D01*
G01X251963D02*
Y-125030D01*
X253363D01*
X253830Y-125230D01*
X254180Y-125697D01*
X254297Y-126230D01*
X254180Y-126763D01*
X253888Y-127163D01*
X253363Y-127363D01*
X251963D01*
G01X256763Y-129030D02*
Y-125030D01*
X258222D01*
X258688Y-125230D01*
X258980Y-125497D01*
X259097Y-126030D01*
X258980Y-126563D01*
X258630Y-126897D01*
X258222Y-127097D01*
X256763D01*
G01X258222D02*
X259097Y-129030D01*
G01X262030Y-125030D02*
X263430D01*
G01X262730D02*
Y-129030D01*
G01X262030D02*
X263430D01*
G01X268697D02*
X266363D01*
Y-125030D01*
X268697D01*
G01X267763Y-126963D02*
X266363D01*
G01X272330Y-125030D02*
Y-129030D01*
G01X270988Y-125030D02*
X273672D01*
G01X275672Y-129030D02*
X277130Y-125030D01*
X278588Y-129030D01*
G01X278063Y-127630D02*
X276197D01*
G01X280763Y-129030D02*
Y-125030D01*
X282222D01*
X282688Y-125230D01*
X282980Y-125497D01*
X283097Y-126030D01*
X282980Y-126563D01*
X282630Y-126897D01*
X282222Y-127097D01*
X280763D01*
G01X282222D02*
X283097Y-129030D01*
G01X286730D02*
Y-127230D01*
X285563Y-125030D01*
G01X287897D02*
X286730Y-127230D01*
G01X291822Y-130363D02*
X292405Y-129697D01*
X292697Y-129030D01*
Y-126363D01*
X292405Y-125697D01*
X291822Y-125030D01*
G01X83380Y-113863D02*
X86880D01*
G01X88180D02*
X91680D01*
G01X92980D02*
X96480D01*
G01X103222Y-112530D02*
Y-108530D01*
X105438D01*
G01X104622Y-110463D02*
X103222D01*
G01X108430Y-108530D02*
X109830D01*
G01X109130D02*
Y-112530D01*
G01X108430D02*
X109830D01*
G01X112647Y-108530D02*
Y-111397D01*
X112880Y-111997D01*
X113347Y-112397D01*
X113930Y-112530D01*
X114513Y-112397D01*
X114980Y-111997D01*
X115213Y-111397D01*
Y-108530D01*
G01X118730Y-112530D02*
X118263Y-112463D01*
X117855Y-112197D01*
X117505Y-111797D01*
X117272Y-111330D01*
X117155Y-110797D01*
Y-110263D01*
X117272Y-109730D01*
X117505Y-109263D01*
X117855Y-108863D01*
X118263Y-108597D01*
X118730Y-108530D01*
X119197Y-108597D01*
X119605Y-108863D01*
X119955Y-109263D01*
X120188Y-109730D01*
X120305Y-110263D01*
Y-110797D01*
X120188Y-111330D01*
X119955Y-111797D01*
X119605Y-112197D01*
X119197Y-112463D01*
X118730Y-112530D01*
G01X128038Y-113863D02*
X127455Y-113197D01*
X127163Y-112530D01*
Y-109863D01*
X127455Y-109197D01*
X128038Y-108530D01*
G01X132022Y-112530D02*
Y-108530D01*
X134238D01*
G01X133422Y-110463D02*
X132022D01*
G01X136763Y-112530D02*
Y-108530D01*
X138222D01*
X138688Y-108730D01*
X138980Y-108997D01*
X139097Y-109530D01*
X138980Y-110063D01*
X138630Y-110397D01*
X138222Y-110597D01*
X136763D01*
G01X138222D02*
X139097Y-112530D01*
G01X143897D02*
X141563D01*
Y-108530D01*
X143897D01*
G01X142963Y-110463D02*
X141563D01*
G01X148697Y-112530D02*
X146363D01*
Y-108530D01*
X148697D01*
G01X147763Y-110463D02*
X146363D01*
G01X151105Y-111997D02*
X151572Y-112330D01*
X152097Y-112530D01*
X152563D01*
X153030Y-112330D01*
X153380Y-111997D01*
X153555Y-111530D01*
X153438Y-111063D01*
X153147Y-110663D01*
X152622Y-110397D01*
X151922Y-110263D01*
X151513Y-109997D01*
X151338Y-109530D01*
X151455Y-109063D01*
X151747Y-108730D01*
X152155Y-108530D01*
X152563D01*
X152972Y-108663D01*
X153322Y-108997D01*
G01X158413Y-108863D02*
X158063Y-108663D01*
X157655Y-108530D01*
X157188D01*
X156663Y-108730D01*
X156255Y-109063D01*
X155963Y-109463D01*
X155730Y-110130D01*
X155672Y-110730D01*
X155788Y-111330D01*
X155963Y-111730D01*
X156313Y-112130D01*
X156722Y-112397D01*
X157130Y-112530D01*
X157538D01*
X157947Y-112397D01*
X158297Y-112197D01*
X158588Y-111930D01*
G01X160472Y-112530D02*
X161930Y-108530D01*
X163388Y-112530D01*
G01X162863Y-111130D02*
X160997D01*
G01X165563Y-108530D02*
Y-112530D01*
X167897D01*
G01X172697D02*
X170363D01*
Y-108530D01*
X172697D01*
G01X171763Y-110463D02*
X170363D01*
G01X180430Y-108530D02*
X181830D01*
G01X181130D02*
Y-112530D01*
G01X180430D02*
X181830D01*
G01X184588D02*
Y-108530D01*
X187272Y-112530D01*
Y-108530D01*
G01X190730D02*
Y-112530D01*
G01X189388Y-108530D02*
X192072D01*
G01X196697Y-112530D02*
X194363D01*
Y-108530D01*
X196697D01*
G01X195763Y-110463D02*
X194363D01*
G01X199163Y-112530D02*
Y-108530D01*
X200622D01*
X201088Y-108730D01*
X201380Y-108997D01*
X201497Y-109530D01*
X201380Y-110063D01*
X201030Y-110397D01*
X200622Y-110597D01*
X199163D01*
G01X200622D02*
X201497Y-112530D01*
G01X203788D02*
Y-108530D01*
X206472Y-112530D01*
Y-108530D01*
G01X208472Y-112530D02*
X209930Y-108530D01*
X211388Y-112530D01*
G01X210863Y-111130D02*
X208997D01*
G01X213563Y-108530D02*
Y-112530D01*
X215897D01*
G01X223047Y-108530D02*
Y-111397D01*
X223280Y-111997D01*
X223747Y-112397D01*
X224330Y-112530D01*
X224913Y-112397D01*
X225380Y-111997D01*
X225613Y-111397D01*
Y-108530D01*
G01X227905Y-111997D02*
X228372Y-112330D01*
X228897Y-112530D01*
X229363D01*
X229830Y-112330D01*
X230180Y-111997D01*
X230355Y-111530D01*
X230238Y-111063D01*
X229947Y-110663D01*
X229422Y-110397D01*
X228722Y-110263D01*
X228313Y-109997D01*
X228138Y-109530D01*
X228255Y-109063D01*
X228547Y-108730D01*
X228955Y-108530D01*
X229363D01*
X229772Y-108663D01*
X230122Y-108997D01*
G01X235097Y-112530D02*
X232763D01*
Y-108530D01*
X235097D01*
G01X234163Y-110463D02*
X232763D01*
G01X243530Y-112530D02*
X243063Y-112463D01*
X242655Y-112197D01*
X242305Y-111797D01*
X242072Y-111330D01*
X241955Y-110797D01*
Y-110263D01*
X242072Y-109730D01*
X242305Y-109263D01*
X242655Y-108863D01*
X243063Y-108597D01*
X243530Y-108530D01*
X243997Y-108597D01*
X244405Y-108863D01*
X244755Y-109263D01*
X244988Y-109730D01*
X245105Y-110263D01*
Y-110797D01*
X244988Y-111330D01*
X244755Y-111797D01*
X244405Y-112197D01*
X243997Y-112463D01*
X243530Y-112530D01*
G01X246988D02*
Y-108530D01*
X249672Y-112530D01*
Y-108530D01*
G01X251963D02*
Y-112530D01*
X254297D01*
G01X257930D02*
Y-110730D01*
X256763Y-108530D01*
G01X259097D02*
X257930Y-110730D01*
G01X263022Y-113863D02*
X263605Y-113197D01*
X263897Y-112530D01*
Y-109863D01*
X263605Y-109197D01*
X263022Y-108530D01*
G01X83380Y-97863D02*
X86880D01*
G01X88180D02*
X91680D01*
G01X92980D02*
X96480D01*
G01X103163Y-96530D02*
Y-92530D01*
X104563D01*
X105030Y-92730D01*
X105380Y-93197D01*
X105497Y-93730D01*
X105380Y-94263D01*
X105088Y-94663D01*
X104563Y-94863D01*
X103163D01*
G01X107847Y-92530D02*
Y-95397D01*
X108080Y-95997D01*
X108547Y-96397D01*
X109130Y-96530D01*
X109713Y-96397D01*
X110180Y-95997D01*
X110413Y-95397D01*
Y-92530D01*
G01X114397Y-94397D02*
X114630Y-94197D01*
X114805Y-93863D01*
X114922Y-93397D01*
X114805Y-92997D01*
X114572Y-92730D01*
X114163Y-92530D01*
X112588D01*
Y-96530D01*
X114513D01*
X114922Y-96263D01*
X115155Y-95863D01*
X115272Y-95397D01*
X115155Y-94930D01*
X114805Y-94530D01*
X114397Y-94397D01*
X112588D01*
G01X118030Y-92530D02*
X119430D01*
G01X118730D02*
Y-96530D01*
G01X118030D02*
X119430D01*
G01X128038Y-97863D02*
X127455Y-97197D01*
X127163Y-96530D01*
Y-93863D01*
X127455Y-93197D01*
X128038Y-92530D01*
G01X131963Y-96530D02*
Y-92530D01*
X133363D01*
X133830Y-92730D01*
X134180Y-93197D01*
X134297Y-93730D01*
X134180Y-94263D01*
X133888Y-94663D01*
X133363Y-94863D01*
X131963D01*
G01X136647Y-92530D02*
Y-95397D01*
X136880Y-95997D01*
X137347Y-96397D01*
X137930Y-96530D01*
X138513Y-96397D01*
X138980Y-95997D01*
X139213Y-95397D01*
Y-92530D01*
G01X143197Y-94397D02*
X143430Y-94197D01*
X143605Y-93863D01*
X143722Y-93397D01*
X143605Y-92997D01*
X143372Y-92730D01*
X142963Y-92530D01*
X141388D01*
Y-96530D01*
X143313D01*
X143722Y-96263D01*
X143955Y-95863D01*
X144072Y-95397D01*
X143955Y-94930D01*
X143605Y-94530D01*
X143197Y-94397D01*
X141388D01*
G01X146363Y-92530D02*
Y-96530D01*
X148697D01*
G01X151630Y-92530D02*
X153030D01*
G01X152330D02*
Y-96530D01*
G01X151630D02*
X153030D01*
G01X158413Y-92863D02*
X158063Y-92663D01*
X157655Y-92530D01*
X157188D01*
X156663Y-92730D01*
X156255Y-93063D01*
X155963Y-93463D01*
X155730Y-94130D01*
X155672Y-94730D01*
X155788Y-95330D01*
X155963Y-95730D01*
X156313Y-96130D01*
X156722Y-96397D01*
X157130Y-96530D01*
X157538D01*
X157947Y-96397D01*
X158297Y-96197D01*
X158588Y-95930D01*
G01X166030Y-92530D02*
X167430D01*
G01X166730D02*
Y-96530D01*
G01X166030D02*
X167430D01*
G01X170188D02*
Y-92530D01*
X172872Y-96530D01*
Y-92530D01*
G01X175222Y-96530D02*
Y-92530D01*
X177438D01*
G01X176622Y-94463D02*
X175222D01*
G01X181130Y-96530D02*
X180663Y-96463D01*
X180255Y-96197D01*
X179905Y-95797D01*
X179672Y-95330D01*
X179555Y-94797D01*
Y-94263D01*
X179672Y-93730D01*
X179905Y-93263D01*
X180255Y-92863D01*
X180663Y-92597D01*
X181130Y-92530D01*
X181597Y-92597D01*
X182005Y-92863D01*
X182355Y-93263D01*
X182588Y-93730D01*
X182705Y-94263D01*
Y-94797D01*
X182588Y-95330D01*
X182355Y-95797D01*
X182005Y-96197D01*
X181597Y-96463D01*
X181130Y-96530D01*
G01X184763D02*
Y-92530D01*
X186222D01*
X186688Y-92730D01*
X186980Y-92997D01*
X187097Y-93530D01*
X186980Y-94063D01*
X186630Y-94397D01*
X186222Y-94597D01*
X184763D01*
G01X186222D02*
X187097Y-96530D01*
G01X189213D02*
Y-92530D01*
X190730Y-95863D01*
X192247Y-92530D01*
Y-96530D01*
G01X194072D02*
X195530Y-92530D01*
X196988Y-96530D01*
G01X196463Y-95130D02*
X194597D01*
G01X200330Y-92530D02*
Y-96530D01*
G01X198988Y-92530D02*
X201672D01*
G01X204430D02*
X205830D01*
G01X205130D02*
Y-96530D01*
G01X204430D02*
X205830D01*
G01X209930D02*
X209463Y-96463D01*
X209055Y-96197D01*
X208705Y-95797D01*
X208472Y-95330D01*
X208355Y-94797D01*
Y-94263D01*
X208472Y-93730D01*
X208705Y-93263D01*
X209055Y-92863D01*
X209463Y-92597D01*
X209930Y-92530D01*
X210397Y-92597D01*
X210805Y-92863D01*
X211155Y-93263D01*
X211388Y-93730D01*
X211505Y-94263D01*
Y-94797D01*
X211388Y-95330D01*
X211155Y-95797D01*
X210805Y-96197D01*
X210397Y-96463D01*
X209930Y-96530D01*
G01X213388D02*
Y-92530D01*
X216072Y-96530D01*
Y-92530D01*
G01X219822Y-97863D02*
X220405Y-97197D01*
X220697Y-96530D01*
Y-93863D01*
X220405Y-93197D01*
X219822Y-92530D01*
G01X123788Y-144530D02*
Y-140530D01*
X126472Y-144530D01*
Y-140530D01*
G01X128647D02*
Y-143397D01*
X128880Y-143997D01*
X129347Y-144397D01*
X129930Y-144530D01*
X130513Y-144397D01*
X130980Y-143997D01*
X131213Y-143397D01*
Y-140530D01*
G01X133213Y-144530D02*
Y-140530D01*
X134730Y-143863D01*
X136247Y-140530D01*
Y-144530D01*
G01X139997Y-142397D02*
X140230Y-142197D01*
X140405Y-141863D01*
X140522Y-141397D01*
X140405Y-140997D01*
X140172Y-140730D01*
X139763Y-140530D01*
X138188D01*
Y-144530D01*
X140113D01*
X140522Y-144263D01*
X140755Y-143863D01*
X140872Y-143397D01*
X140755Y-142930D01*
X140405Y-142530D01*
X139997Y-142397D01*
X138188D01*
G01X145497Y-144530D02*
X143163D01*
Y-140530D01*
X145497D01*
G01X144563Y-142463D02*
X143163D01*
G01X147963Y-144530D02*
Y-140530D01*
X149422D01*
X149888Y-140730D01*
X150180Y-140997D01*
X150297Y-141530D01*
X150180Y-142063D01*
X149830Y-142397D01*
X149422Y-142597D01*
X147963D01*
G01X149422D02*
X150297Y-144530D01*
G01X158730Y-151530D02*
Y-145230D01*
X157790Y-146490D01*
G01Y-151530D02*
X159670D01*
G01X164873D02*
X165030Y-150165D01*
X165265Y-149010D01*
X165578Y-147960D01*
X165970Y-146805D01*
X166597Y-145230D01*
X163463D01*
G01X171330D02*
X170703Y-145440D01*
X170233Y-145965D01*
X169920Y-146595D01*
X169685Y-147435D01*
X169607Y-148380D01*
X169685Y-149325D01*
X169920Y-150165D01*
X170233Y-150795D01*
X170703Y-151320D01*
X171330Y-151530D01*
X171957Y-151320D01*
X172427Y-150795D01*
X172740Y-150165D01*
X172975Y-149325D01*
X173053Y-148380D01*
X172975Y-147435D01*
X172740Y-146595D01*
X172427Y-145965D01*
X171957Y-145440D01*
X171330Y-145230D01*
G01X176612Y-149430D02*
X178648D01*
G01X182442Y-146280D02*
X182912Y-145650D01*
X183460Y-145335D01*
X184087Y-145230D01*
X184870Y-145440D01*
X185418Y-145965D01*
X185575Y-146595D01*
X185497Y-147225D01*
X185183Y-147750D01*
X183617Y-148800D01*
X182912Y-149535D01*
X182442Y-150585D01*
X182285Y-151530D01*
X185575D01*
G01X190230D02*
X190778Y-151425D01*
X191405Y-151110D01*
X191797Y-150585D01*
X191953Y-149850D01*
X191797Y-149115D01*
X191327Y-148485D01*
X190622Y-148170D01*
X189838D01*
X189368Y-147960D01*
X188977Y-147435D01*
X188820Y-146700D01*
X189055Y-145965D01*
X189603Y-145440D01*
X190230Y-145230D01*
X190857Y-145440D01*
X191405Y-145965D01*
X191640Y-146700D01*
X191483Y-147435D01*
X191092Y-147960D01*
X190622Y-148170D01*
X189838D01*
X189133Y-148485D01*
X188663Y-149115D01*
X188507Y-149850D01*
X188663Y-150585D01*
X189055Y-151110D01*
X189682Y-151425D01*
X190230Y-151530D01*
G01X196530D02*
Y-145230D01*
X195590Y-146490D01*
G01Y-151530D02*
X197470D01*
G01X201342Y-148905D02*
X201890Y-148170D01*
X202360Y-147750D01*
X202987Y-147540D01*
X203535Y-147750D01*
X203927Y-148170D01*
X204240Y-148800D01*
X204318Y-149535D01*
X204240Y-150165D01*
X203927Y-150795D01*
X203457Y-151320D01*
X202908Y-151530D01*
X202282Y-151320D01*
X201733Y-150690D01*
X201420Y-149745D01*
X201342Y-148695D01*
X201498Y-147330D01*
X201733Y-146595D01*
X202125Y-145860D01*
X202673Y-145335D01*
X203222Y-145230D01*
X203770Y-145440D01*
X204162Y-145965D01*
G01X207407Y-150270D02*
X207877Y-151005D01*
X208503Y-151425D01*
X209208Y-151530D01*
X209835Y-151425D01*
X210462Y-150900D01*
X210853Y-150270D01*
X210932Y-149640D01*
X210775Y-148905D01*
X210227Y-148380D01*
X209678Y-148170D01*
X208973D01*
G01X209678D02*
X210148Y-147855D01*
X210540Y-147330D01*
X210697Y-146700D01*
X210540Y-146070D01*
X210148Y-145545D01*
X209443Y-145230D01*
X208738Y-145335D01*
X208033Y-145755D01*
G01X220163Y-151530D02*
Y-145230D01*
X222122D01*
X222748Y-145545D01*
X223140Y-145965D01*
X223297Y-146805D01*
X223140Y-147645D01*
X222670Y-148170D01*
X222122Y-148485D01*
X220163D01*
G01X222122D02*
X223297Y-151530D01*
G01X229597D02*
X226463D01*
Y-145230D01*
X229597D01*
G01X228343Y-148275D02*
X226463D01*
G01X232372Y-145230D02*
X234330Y-151530D01*
X236288Y-145230D01*
G01X248497Y-151530D02*
X245363D01*
Y-145230D01*
X248497D01*
G01X247243Y-148275D02*
X245363D01*
G01X156122Y-76840D02*
Y-70540D01*
X159098D01*
G01X158002Y-73585D02*
X156122D01*
G01X162343Y-76840D02*
Y-70540D01*
X164302D01*
X164928Y-70855D01*
X165320Y-71275D01*
X165477Y-72115D01*
X165320Y-72955D01*
X164850Y-73480D01*
X164302Y-73795D01*
X162343D01*
G01X164302D02*
X165477Y-76840D01*
G01X168487D02*
Y-70540D01*
X170053D01*
X170680Y-70855D01*
X171150Y-71275D01*
X171542Y-71905D01*
X171855Y-72640D01*
X171933Y-73690D01*
X171855Y-74740D01*
X171542Y-75475D01*
X171150Y-76105D01*
X170680Y-76525D01*
X170053Y-76840D01*
X168487D01*
G01X174473D02*
Y-70540D01*
X176510Y-75790D01*
X178547Y-70540D01*
Y-76840D01*
G01X181792Y-74740D02*
X183828D01*
G01X187387Y-76840D02*
Y-70540D01*
G01X190363D02*
X187387Y-74425D01*
G01X190833Y-76840D02*
X188718Y-72640D01*
G01X193922Y-74215D02*
X194470Y-73480D01*
X194940Y-73060D01*
X195567Y-72850D01*
X196115Y-73060D01*
X196507Y-73480D01*
X196820Y-74110D01*
X196898Y-74845D01*
X196820Y-75475D01*
X196507Y-76105D01*
X196037Y-76630D01*
X195488Y-76840D01*
X194862Y-76630D01*
X194313Y-76000D01*
X194000Y-75055D01*
X193922Y-74005D01*
X194078Y-72640D01*
X194313Y-71905D01*
X194705Y-71170D01*
X195253Y-70645D01*
X195802Y-70540D01*
X196350Y-70750D01*
X196742Y-71275D01*
G01X202650Y-76840D02*
Y-70540D01*
X199752Y-75055D01*
X203668D01*
G01X206522Y-76840D02*
Y-70540D01*
X209498D01*
G01X208402Y-73585D02*
X206522D01*
G54D18*
X13549Y22906D03*
X37171Y18969D03*
G54D28*
G01X29120Y78673D02*
X30312Y79865D01*
X41303D01*
X62018Y100580D01*
X64300D01*
X66010Y102290D01*
Y105174D01*
X67286Y106450D01*
G01X29120Y81906D02*
X30131Y80895D01*
X40876D01*
X61591Y101610D01*
X63873D01*
X64980Y102717D01*
Y105523D01*
X64053Y106450D01*
G54D19*
X25450Y179000D03*
X55450D03*
X45450D03*
X55450Y189000D03*
X35450D03*
X71000Y-950D03*
X75450Y179000D03*
X85450D03*
Y189000D03*
X75450D03*
X65450D03*
X111000Y-950D03*
X101000D03*
X91000D03*
X131200Y189000D03*
X161300Y9050D03*
X151300D03*
X141200Y189000D03*
X151200D03*
X161200D03*
X181300Y-950D03*
X191300D03*
Y9050D03*
X181300D03*
X171300D03*
X171200Y179000D03*
X181200D03*
X191200D03*
X171200Y189000D03*
X181200D03*
G54D29*
G01X-14660Y36724D02*
X-13626Y35690D01*
X1160D01*
X53140Y87670D01*
X70130D01*
X73370Y90910D01*
X90130D01*
X90950Y90090D01*
X133164D01*
X138985Y95911D01*
Y96575D01*
X138712Y96848D01*
Y97512D01*
X139378Y98178D01*
X140042D01*
X140315Y97905D01*
X140979D01*
X141645Y98571D01*
Y99235D01*
X141372Y99508D01*
Y100172D01*
X142038Y100838D01*
X142702D01*
X142975Y100565D01*
X143639D01*
X147000Y103926D01*
Y105349D01*
X146411Y105938D01*
X144838D01*
G01X-14660Y33357D02*
X-13497Y34520D01*
X1645D01*
X53625Y86500D01*
X70615D01*
X73855Y89740D01*
X89645D01*
X90465Y88920D01*
X133649D01*
X148170Y103441D01*
Y105834D01*
X147236Y106768D01*
Y108336D01*
G01X-17140Y157794D02*
X-16211Y156865D01*
X-4515D01*
X6120Y146230D01*
Y141925D01*
X4659Y140464D01*
Y139210D01*
G01X-17140Y154427D02*
X-15872Y155695D01*
X-5000D01*
X4950Y145745D01*
Y142410D01*
X4131Y141591D01*
X2278D01*
G01X45450Y179000D02*
X49990Y174460D01*
X58730D01*
X59478Y175208D01*
X61472D01*
X64030Y172650D01*
X70435D01*
X77100Y165985D01*
Y158941D01*
X83420Y152621D01*
Y147715D01*
X91550Y139585D01*
Y125374D01*
X91555Y125369D01*
Y123931D01*
X91550Y123926D01*
Y117705D01*
X89580Y115735D01*
Y99255D01*
X92215Y96620D01*
X105912D01*
X107237Y95295D01*
Y93727D01*
G01X55450Y179000D02*
X58005D01*
X60627Y176378D01*
X61957D01*
X64515Y173820D01*
X70920D01*
X78270Y166470D01*
Y159620D01*
X84590Y153300D01*
Y148200D01*
X92720Y140070D01*
Y125859D01*
X92725Y125854D01*
Y123446D01*
X92720Y123441D01*
Y117220D01*
X90750Y115250D01*
Y99740D01*
X92700Y97790D01*
X106397D01*
X108062Y96125D01*
X109635D01*
G01X75450Y179000D02*
X79395D01*
X79865Y178530D01*
Y175450D01*
X87310Y168005D01*
Y150935D01*
X97525Y140720D01*
Y131590D01*
X96170Y130235D01*
Y108035D01*
X102505Y101700D01*
X135475D01*
X144735Y110960D01*
X149009D01*
X150990Y108979D01*
Y99835D01*
X141840Y90685D01*
Y88284D01*
X142826Y87298D01*
Y85746D01*
G01X85450Y179000D02*
X81505D01*
X81035Y178530D01*
Y175935D01*
X88480Y168490D01*
Y151420D01*
X98695Y141205D01*
Y131105D01*
X97340Y129750D01*
Y108520D01*
X102990Y102870D01*
X134990D01*
X144250Y112130D01*
X149494D01*
X152160Y109464D01*
Y99350D01*
X143010Y90200D01*
Y88769D01*
X143652Y88127D01*
X145207D01*
G01X127210Y71500D02*
X126100Y70390D01*
X125360D01*
X118175Y77575D01*
X115813D01*
X115137Y76899D01*
X113583D01*
X112472Y75788D01*
G01X127210Y68110D02*
X126100Y69220D01*
X124875D01*
X117690Y76405D01*
X116299D01*
X115965Y76071D01*
Y74519D01*
X114853Y73407D01*
M02*
