G04 ================== begin FILE IDENTIFICATION RECORD ==================*
G04 Layout Name:  LAY-28163.brd*
G04 Film Name:    ssp.art*
G04 File Format:  Gerber RS274X*
G04 File Origin:  Cadence Allegro 16.6-S027*
G04 Origin Date:  Fri Aug 01 09:34:38 2014*
G04 *
G04 Layer:  PIN/PASTEMASK_BOTTOM*
G04 Layer:  PACKAGE GEOMETRY/PASTEMASK_BOTTOM*
G04 Layer:  DRAWING FORMAT/FILM_TITLE_BLOCK*
G04 Layer:  BOARD GEOMETRY/OUTLINE*
G04 Layer:  BOARD GEOMETRY/PASTEMASK_BOTTOM*
G04 *
G04 Offset:    (0.00 0.00)*
G04 Mirror:    No*
G04 Mode:      Positive*
G04 Rotation:  0*
G04 FullContactRelief:  No*
G04 UndefLineWidth:     8.00*
G04 ================== end FILE IDENTIFICATION RECORD ====================*
%FSLAX55Y55*MOIN*%
%IR0*IPPOS*OFA0.00000B0.00000*MIA0B0*SFA1.00000B1.00000*%
%ADD10C,.01*%
%ADD11C,.02*%
%ADD12C,.008*%
%ADD13C,.006*%
G75*
%LPD*%
G75*
G54D10*
G01X-104620Y-136530D02*
X295380D01*
G01X-104620Y-106530D02*
Y-86530D01*
X295380D01*
G01X-54620Y-156530D02*
Y-136530D01*
G01X70880Y-156530D02*
Y-136530D01*
G01X70380Y-86530D02*
Y-56530D01*
G01X120380Y-156530D02*
Y-136530D01*
G54D11*
G01X295380Y-56530D02*
Y-156530D01*
X-104620D01*
G01D02*
Y-56530D01*
X295380D01*
G54D12*
G01X-33850Y-11100D02*
G02X-58850Y13900I0J25000D01*
G01Y173900D01*
G02X-33850Y198900I25000J0D01*
G01X236150D01*
G02X261150Y173900I0J-25000D01*
G01Y13900D01*
G02X236150Y-11100I-25000J0D01*
G01X-33850D01*
G54D13*
G01X-98970Y-152790D02*
Y-148290D01*
X-99870Y-149190D01*
G01Y-152790D02*
X-98070D01*
G01X-93170Y-148290D02*
X-93770Y-148440D01*
X-94220Y-148815D01*
X-94520Y-149265D01*
X-94745Y-149865D01*
X-94820Y-150540D01*
X-94745Y-151215D01*
X-94520Y-151815D01*
X-94220Y-152265D01*
X-93770Y-152640D01*
X-93170Y-152790D01*
X-92570Y-152640D01*
X-92120Y-152265D01*
X-91820Y-151815D01*
X-91595Y-151215D01*
X-91520Y-150540D01*
X-91595Y-149865D01*
X-91820Y-149265D01*
X-92120Y-148815D01*
X-92570Y-148440D01*
X-93170Y-148290D01*
G01X-81570Y-152790D02*
X-82170Y-152715D01*
X-82695Y-152415D01*
X-83145Y-151965D01*
X-83445Y-151440D01*
X-83595Y-150840D01*
Y-150240D01*
X-83445Y-149640D01*
X-83145Y-149115D01*
X-82695Y-148665D01*
X-82170Y-148365D01*
X-81570Y-148290D01*
X-80970Y-148365D01*
X-80445Y-148665D01*
X-79995Y-149115D01*
X-79695Y-149640D01*
X-79545Y-150240D01*
Y-150840D01*
X-79695Y-151440D01*
X-79995Y-151965D01*
X-80445Y-152415D01*
X-80970Y-152715D01*
X-81570Y-152790D01*
G01X-77195D02*
Y-148290D01*
X-74345D01*
G01X-75395Y-150465D02*
X-77195D01*
G01X-64170Y-152790D02*
Y-148290D01*
X-65070Y-149190D01*
G01Y-152790D02*
X-63270D01*
G01X-58370Y-148290D02*
X-58970Y-148440D01*
X-59420Y-148815D01*
X-59720Y-149265D01*
X-59945Y-149865D01*
X-60020Y-150540D01*
X-59945Y-151215D01*
X-59720Y-151815D01*
X-59420Y-152265D01*
X-58970Y-152640D01*
X-58370Y-152790D01*
X-57770Y-152640D01*
X-57320Y-152265D01*
X-57020Y-151815D01*
X-56795Y-151215D01*
X-56720Y-150540D01*
X-56795Y-149865D01*
X-57020Y-149265D01*
X-57320Y-148815D01*
X-57770Y-148440D01*
X-58370Y-148290D01*
G01X-101095Y-143997D02*
X-100628Y-144330D01*
X-100103Y-144530D01*
X-99637D01*
X-99170Y-144330D01*
X-98820Y-143997D01*
X-98645Y-143530D01*
X-98762Y-143063D01*
X-99053Y-142663D01*
X-99578Y-142397D01*
X-100278Y-142263D01*
X-100687Y-141997D01*
X-100862Y-141530D01*
X-100745Y-141063D01*
X-100453Y-140730D01*
X-100045Y-140530D01*
X-99637D01*
X-99228Y-140663D01*
X-98878Y-140997D01*
G01X-96295Y-144530D02*
Y-140530D01*
G01X-93845D02*
Y-144530D01*
G01Y-142530D02*
X-96295D01*
G01X-89103Y-144530D02*
X-91437D01*
Y-140530D01*
X-89103D01*
G01X-90037Y-142463D02*
X-91437D01*
G01X-84303Y-144530D02*
X-86637D01*
Y-140530D01*
X-84303D01*
G01X-85237Y-142463D02*
X-86637D01*
G01X-80670Y-140530D02*
Y-144530D01*
G01X-82012Y-140530D02*
X-79328D01*
G01X-92978Y-133530D02*
Y-129530D01*
X-90762D01*
G01X-91578Y-131463D02*
X-92978D01*
G01X-88237Y-133530D02*
Y-129530D01*
X-86778D01*
X-86312Y-129730D01*
X-86020Y-129997D01*
X-85903Y-130530D01*
X-86020Y-131063D01*
X-86370Y-131397D01*
X-86778Y-131597D01*
X-88237D01*
G01X-86778D02*
X-85903Y-133530D01*
G01X-81103D02*
X-83437D01*
Y-129530D01*
X-81103D01*
G01X-82037Y-131463D02*
X-83437D01*
G01X-76303Y-133530D02*
X-78637D01*
Y-129530D01*
X-76303D01*
G01X-77237Y-131463D02*
X-78637D01*
G01X-73895Y-132997D02*
X-73428Y-133330D01*
X-72903Y-133530D01*
X-72437D01*
X-71970Y-133330D01*
X-71620Y-132997D01*
X-71445Y-132530D01*
X-71562Y-132063D01*
X-71853Y-131663D01*
X-72378Y-131397D01*
X-73078Y-131263D01*
X-73487Y-130997D01*
X-73662Y-130530D01*
X-73545Y-130063D01*
X-73253Y-129730D01*
X-72845Y-129530D01*
X-72437D01*
X-72028Y-129663D01*
X-71678Y-129997D01*
G01X-66587Y-129863D02*
X-66937Y-129663D01*
X-67345Y-129530D01*
X-67812D01*
X-68337Y-129730D01*
X-68745Y-130063D01*
X-69037Y-130463D01*
X-69270Y-131130D01*
X-69328Y-131730D01*
X-69212Y-132330D01*
X-69037Y-132730D01*
X-68687Y-133130D01*
X-68278Y-133397D01*
X-67870Y-133530D01*
X-67462D01*
X-67053Y-133397D01*
X-66703Y-133197D01*
X-66412Y-132930D01*
G01X-64528Y-133530D02*
X-63070Y-129530D01*
X-61612Y-133530D01*
G01X-62137Y-132130D02*
X-64003D01*
G01X-59437Y-129530D02*
Y-133530D01*
X-57103D01*
G01X-52303D02*
X-54637D01*
Y-129530D01*
X-52303D01*
G01X-53237Y-131463D02*
X-54637D01*
G01X-48670Y-133663D02*
X-48787Y-133597D01*
Y-133463D01*
X-48670Y-133397D01*
X-48553Y-133463D01*
Y-133597D01*
X-48670Y-133663D01*
G01X-92870Y-125530D02*
X-93337Y-125463D01*
X-93745Y-125197D01*
X-94095Y-124797D01*
X-94328Y-124330D01*
X-94445Y-123797D01*
Y-123263D01*
X-94328Y-122730D01*
X-94095Y-122263D01*
X-93745Y-121863D01*
X-93337Y-121597D01*
X-92870Y-121530D01*
X-92403Y-121597D01*
X-91995Y-121863D01*
X-91645Y-122263D01*
X-91412Y-122730D01*
X-91295Y-123263D01*
Y-123797D01*
X-91412Y-124330D01*
X-91645Y-124797D01*
X-91995Y-125197D01*
X-92403Y-125463D01*
X-92870Y-125530D01*
G01X-89237D02*
Y-121530D01*
X-87778D01*
X-87312Y-121730D01*
X-87020Y-121997D01*
X-86903Y-122530D01*
X-87020Y-123063D01*
X-87370Y-123397D01*
X-87778Y-123597D01*
X-89237D01*
G01X-87778D02*
X-86903Y-125530D01*
G01X-79170Y-121530D02*
X-77770D01*
G01X-78470D02*
Y-125530D01*
G01X-79170D02*
X-77770D01*
G01X-75012D02*
Y-121530D01*
X-72328Y-125530D01*
Y-121530D01*
G01X-65237Y-125530D02*
Y-121530D01*
X-63837D01*
X-63370Y-121730D01*
X-63020Y-122197D01*
X-62903Y-122730D01*
X-63020Y-123263D01*
X-63312Y-123663D01*
X-63837Y-123863D01*
X-65237D01*
G01X-60728Y-125530D02*
X-59270Y-121530D01*
X-57812Y-125530D01*
G01X-58337Y-124130D02*
X-60203D01*
G01X-55637Y-125530D02*
Y-121530D01*
X-54178D01*
X-53712Y-121730D01*
X-53420Y-121997D01*
X-53303Y-122530D01*
X-53420Y-123063D01*
X-53770Y-123397D01*
X-54178Y-123597D01*
X-55637D01*
G01X-54178D02*
X-53303Y-125530D01*
G01X-49670Y-121530D02*
Y-125530D01*
G01X-51012Y-121530D02*
X-48328D01*
G01X-41820D02*
X-41003Y-125530D01*
X-40070Y-121530D01*
X-39137Y-125530D01*
X-38320Y-121530D01*
G01X-35970D02*
X-34570D01*
G01X-35270D02*
Y-125530D01*
G01X-35970D02*
X-34570D01*
G01X-30470Y-121530D02*
Y-125530D01*
G01X-31812Y-121530D02*
X-29128D01*
G01X-26895Y-125530D02*
Y-121530D01*
G01X-24445D02*
Y-125530D01*
G01Y-123530D02*
X-26895D01*
G01X-20870Y-125530D02*
X-21337Y-125463D01*
X-21745Y-125197D01*
X-22095Y-124797D01*
X-22328Y-124330D01*
X-22445Y-123797D01*
Y-123263D01*
X-22328Y-122730D01*
X-22095Y-122263D01*
X-21745Y-121863D01*
X-21337Y-121597D01*
X-20870Y-121530D01*
X-20403Y-121597D01*
X-19995Y-121863D01*
X-19645Y-122263D01*
X-19412Y-122730D01*
X-19295Y-123263D01*
Y-123797D01*
X-19412Y-124330D01*
X-19645Y-124797D01*
X-19995Y-125197D01*
X-20403Y-125463D01*
X-20870Y-125530D01*
G01X-17353Y-121530D02*
Y-124397D01*
X-17120Y-124997D01*
X-16653Y-125397D01*
X-16070Y-125530D01*
X-15487Y-125397D01*
X-15020Y-124997D01*
X-14787Y-124397D01*
Y-121530D01*
G01X-11270D02*
Y-125530D01*
G01X-12612Y-121530D02*
X-9928D01*
G01X-1670D02*
Y-125530D01*
G01X-3012Y-121530D02*
X-328D01*
G01X1905Y-125530D02*
Y-121530D01*
G01X4355D02*
Y-125530D01*
G01Y-123530D02*
X1905D01*
G01X9097Y-125530D02*
X6763D01*
Y-121530D01*
X9097D01*
G01X8163Y-123463D02*
X6763D01*
G01X18813Y-121863D02*
X18463Y-121663D01*
X18055Y-121530D01*
X17588D01*
X17063Y-121730D01*
X16655Y-122063D01*
X16363Y-122463D01*
X16130Y-123130D01*
X16072Y-123730D01*
X16188Y-124330D01*
X16363Y-124730D01*
X16713Y-125130D01*
X17122Y-125397D01*
X17530Y-125530D01*
X17938D01*
X18347Y-125397D01*
X18697Y-125197D01*
X18988Y-124930D01*
G01X22330Y-125530D02*
X21863Y-125463D01*
X21455Y-125197D01*
X21105Y-124797D01*
X20872Y-124330D01*
X20755Y-123797D01*
Y-123263D01*
X20872Y-122730D01*
X21105Y-122263D01*
X21455Y-121863D01*
X21863Y-121597D01*
X22330Y-121530D01*
X22797Y-121597D01*
X23205Y-121863D01*
X23555Y-122263D01*
X23788Y-122730D01*
X23905Y-123263D01*
Y-123797D01*
X23788Y-124330D01*
X23555Y-124797D01*
X23205Y-125197D01*
X22797Y-125463D01*
X22330Y-125530D01*
G01X25788D02*
Y-121530D01*
X28472Y-125530D01*
Y-121530D01*
G01X30705Y-124997D02*
X31172Y-125330D01*
X31697Y-125530D01*
X32163D01*
X32630Y-125330D01*
X32980Y-124997D01*
X33155Y-124530D01*
X33038Y-124063D01*
X32747Y-123663D01*
X32222Y-123397D01*
X31522Y-123263D01*
X31113Y-122997D01*
X30938Y-122530D01*
X31055Y-122063D01*
X31347Y-121730D01*
X31755Y-121530D01*
X32163D01*
X32572Y-121663D01*
X32922Y-121997D01*
G01X37897Y-125530D02*
X35563D01*
Y-121530D01*
X37897D01*
G01X36963Y-123463D02*
X35563D01*
G01X40188Y-125530D02*
Y-121530D01*
X42872Y-125530D01*
Y-121530D01*
G01X46330D02*
Y-125530D01*
G01X44988Y-121530D02*
X47672D01*
G01X55930Y-125530D02*
X55463Y-125463D01*
X55055Y-125197D01*
X54705Y-124797D01*
X54472Y-124330D01*
X54355Y-123797D01*
Y-123263D01*
X54472Y-122730D01*
X54705Y-122263D01*
X55055Y-121863D01*
X55463Y-121597D01*
X55930Y-121530D01*
X56397Y-121597D01*
X56805Y-121863D01*
X57155Y-122263D01*
X57388Y-122730D01*
X57505Y-123263D01*
Y-123797D01*
X57388Y-124330D01*
X57155Y-124797D01*
X56805Y-125197D01*
X56397Y-125463D01*
X55930Y-125530D01*
G01X59622D02*
Y-121530D01*
X61838D01*
G01X61022Y-123463D02*
X59622D01*
G01X-94037Y-117530D02*
Y-113530D01*
X-92637D01*
X-92170Y-113730D01*
X-91820Y-114197D01*
X-91703Y-114730D01*
X-91820Y-115263D01*
X-92112Y-115663D01*
X-92637Y-115863D01*
X-94037D01*
G01X-89237Y-117530D02*
Y-113530D01*
X-87778D01*
X-87312Y-113730D01*
X-87020Y-113997D01*
X-86903Y-114530D01*
X-87020Y-115063D01*
X-87370Y-115397D01*
X-87778Y-115597D01*
X-89237D01*
G01X-87778D02*
X-86903Y-117530D01*
G01X-83270D02*
X-83737Y-117463D01*
X-84145Y-117197D01*
X-84495Y-116797D01*
X-84728Y-116330D01*
X-84845Y-115797D01*
Y-115263D01*
X-84728Y-114730D01*
X-84495Y-114263D01*
X-84145Y-113863D01*
X-83737Y-113597D01*
X-83270Y-113530D01*
X-82803Y-113597D01*
X-82395Y-113863D01*
X-82045Y-114263D01*
X-81812Y-114730D01*
X-81695Y-115263D01*
Y-115797D01*
X-81812Y-116330D01*
X-82045Y-116797D01*
X-82395Y-117197D01*
X-82803Y-117463D01*
X-83270Y-117530D01*
G01X-77187Y-113863D02*
X-77537Y-113663D01*
X-77945Y-113530D01*
X-78412D01*
X-78937Y-113730D01*
X-79345Y-114063D01*
X-79637Y-114463D01*
X-79870Y-115130D01*
X-79928Y-115730D01*
X-79812Y-116330D01*
X-79637Y-116730D01*
X-79287Y-117130D01*
X-78878Y-117397D01*
X-78470Y-117530D01*
X-78062D01*
X-77653Y-117397D01*
X-77303Y-117197D01*
X-77012Y-116930D01*
G01X-74953Y-113530D02*
Y-116397D01*
X-74720Y-116997D01*
X-74253Y-117397D01*
X-73670Y-117530D01*
X-73087Y-117397D01*
X-72620Y-116997D01*
X-72387Y-116397D01*
Y-113530D01*
G01X-70037Y-117530D02*
Y-113530D01*
X-68578D01*
X-68112Y-113730D01*
X-67820Y-113997D01*
X-67703Y-114530D01*
X-67820Y-115063D01*
X-68170Y-115397D01*
X-68578Y-115597D01*
X-70037D01*
G01X-68578D02*
X-67703Y-117530D01*
G01X-62903D02*
X-65237D01*
Y-113530D01*
X-62903D01*
G01X-63837Y-115463D02*
X-65237D01*
G01X-60787Y-117530D02*
Y-113530D01*
X-59270Y-116863D01*
X-57753Y-113530D01*
Y-117530D01*
G01X-53303D02*
X-55637D01*
Y-113530D01*
X-53303D01*
G01X-54237Y-115463D02*
X-55637D01*
G01X-51012Y-117530D02*
Y-113530D01*
X-48328Y-117530D01*
Y-113530D01*
G01X-44870D02*
Y-117530D01*
G01X-46212Y-113530D02*
X-43528D01*
G01X-35270Y-117530D02*
X-35737Y-117463D01*
X-36145Y-117197D01*
X-36495Y-116797D01*
X-36728Y-116330D01*
X-36845Y-115797D01*
Y-115263D01*
X-36728Y-114730D01*
X-36495Y-114263D01*
X-36145Y-113863D01*
X-35737Y-113597D01*
X-35270Y-113530D01*
X-34803Y-113597D01*
X-34395Y-113863D01*
X-34045Y-114263D01*
X-33812Y-114730D01*
X-33695Y-115263D01*
Y-115797D01*
X-33812Y-116330D01*
X-34045Y-116797D01*
X-34395Y-117197D01*
X-34803Y-117463D01*
X-35270Y-117530D01*
G01X-31637D02*
Y-113530D01*
X-30178D01*
X-29712Y-113730D01*
X-29420Y-113997D01*
X-29303Y-114530D01*
X-29420Y-115063D01*
X-29770Y-115397D01*
X-30178Y-115597D01*
X-31637D01*
G01X-30178D02*
X-29303Y-117530D01*
G01X-22387D02*
Y-113530D01*
X-20870Y-116863D01*
X-19353Y-113530D01*
Y-117530D01*
G01X-17528D02*
X-16070Y-113530D01*
X-14612Y-117530D01*
G01X-15137Y-116130D02*
X-17003D01*
G01X-12612Y-117530D02*
Y-113530D01*
X-9928Y-117530D01*
Y-113530D01*
G01X-7753D02*
Y-116397D01*
X-7520Y-116997D01*
X-7053Y-117397D01*
X-6470Y-117530D01*
X-5887Y-117397D01*
X-5420Y-116997D01*
X-5187Y-116397D01*
Y-113530D01*
G01X-2778Y-117530D02*
Y-113530D01*
X-562D01*
G01X-1378Y-115463D02*
X-2778D01*
G01X1672Y-117530D02*
X3130Y-113530D01*
X4588Y-117530D01*
G01X4063Y-116130D02*
X2197D01*
G01X9213Y-113863D02*
X8863Y-113663D01*
X8455Y-113530D01*
X7988D01*
X7463Y-113730D01*
X7055Y-114063D01*
X6763Y-114463D01*
X6530Y-115130D01*
X6472Y-115730D01*
X6588Y-116330D01*
X6763Y-116730D01*
X7113Y-117130D01*
X7522Y-117397D01*
X7930Y-117530D01*
X8338D01*
X8747Y-117397D01*
X9097Y-117197D01*
X9388Y-116930D01*
G01X12730Y-113530D02*
Y-117530D01*
G01X11388Y-113530D02*
X14072D01*
G01X16247D02*
Y-116397D01*
X16480Y-116997D01*
X16947Y-117397D01*
X17530Y-117530D01*
X18113Y-117397D01*
X18580Y-116997D01*
X18813Y-116397D01*
Y-113530D01*
G01X21163Y-117530D02*
Y-113530D01*
X22622D01*
X23088Y-113730D01*
X23380Y-113997D01*
X23497Y-114530D01*
X23380Y-115063D01*
X23030Y-115397D01*
X22622Y-115597D01*
X21163D01*
G01X22622D02*
X23497Y-117530D01*
G01X28297D02*
X25963D01*
Y-113530D01*
X28297D01*
G01X27363Y-115463D02*
X25963D01*
G01X36030Y-113530D02*
X37430D01*
G01X36730D02*
Y-117530D01*
G01X36030D02*
X37430D01*
G01X40188D02*
Y-113530D01*
X42872Y-117530D01*
Y-113530D01*
G01X49380D02*
X50197Y-117530D01*
X51130Y-113530D01*
X52063Y-117530D01*
X52880Y-113530D01*
G01X54705Y-117530D02*
Y-113530D01*
G01X57155D02*
Y-117530D01*
G01Y-115530D02*
X54705D01*
G01X60730Y-117530D02*
X60263Y-117463D01*
X59855Y-117197D01*
X59505Y-116797D01*
X59272Y-116330D01*
X59155Y-115797D01*
Y-115263D01*
X59272Y-114730D01*
X59505Y-114263D01*
X59855Y-113863D01*
X60263Y-113597D01*
X60730Y-113530D01*
X61197Y-113597D01*
X61605Y-113863D01*
X61955Y-114263D01*
X62188Y-114730D01*
X62305Y-115263D01*
Y-115797D01*
X62188Y-116330D01*
X61955Y-116797D01*
X61605Y-117197D01*
X61197Y-117463D01*
X60730Y-117530D01*
G01X64363Y-113530D02*
Y-117530D01*
X66697D01*
G01X71497D02*
X69163D01*
Y-113530D01*
X71497D01*
G01X70563Y-115463D02*
X69163D01*
G01X-94212Y-109530D02*
Y-105530D01*
X-91528Y-109530D01*
Y-105530D01*
G01X-88070Y-109530D02*
X-88537Y-109463D01*
X-88945Y-109197D01*
X-89295Y-108797D01*
X-89528Y-108330D01*
X-89645Y-107797D01*
Y-107263D01*
X-89528Y-106730D01*
X-89295Y-106263D01*
X-88945Y-105863D01*
X-88537Y-105597D01*
X-88070Y-105530D01*
X-87603Y-105597D01*
X-87195Y-105863D01*
X-86845Y-106263D01*
X-86612Y-106730D01*
X-86495Y-107263D01*
Y-107797D01*
X-86612Y-108330D01*
X-86845Y-108797D01*
X-87195Y-109197D01*
X-87603Y-109463D01*
X-88070Y-109530D01*
G01X-83270Y-105530D02*
Y-109530D01*
G01X-84612Y-105530D02*
X-81928D01*
G01X-73203Y-107397D02*
X-72970Y-107197D01*
X-72795Y-106863D01*
X-72678Y-106397D01*
X-72795Y-105997D01*
X-73028Y-105730D01*
X-73437Y-105530D01*
X-75012D01*
Y-109530D01*
X-73087D01*
X-72678Y-109263D01*
X-72445Y-108863D01*
X-72328Y-108397D01*
X-72445Y-107930D01*
X-72795Y-107530D01*
X-73203Y-107397D01*
X-75012D01*
G01X-67703Y-109530D02*
X-70037D01*
Y-105530D01*
X-67703D01*
G01X-68637Y-107463D02*
X-70037D01*
G01X-60553Y-105530D02*
Y-108397D01*
X-60320Y-108997D01*
X-59853Y-109397D01*
X-59270Y-109530D01*
X-58687Y-109397D01*
X-58220Y-108997D01*
X-57987Y-108397D01*
Y-105530D01*
G01X-55695Y-108997D02*
X-55228Y-109330D01*
X-54703Y-109530D01*
X-54237D01*
X-53770Y-109330D01*
X-53420Y-108997D01*
X-53245Y-108530D01*
X-53362Y-108063D01*
X-53653Y-107663D01*
X-54178Y-107397D01*
X-54878Y-107263D01*
X-55287Y-106997D01*
X-55462Y-106530D01*
X-55345Y-106063D01*
X-55053Y-105730D01*
X-54645Y-105530D01*
X-54237D01*
X-53828Y-105663D01*
X-53478Y-105997D01*
G01X-48503Y-109530D02*
X-50837D01*
Y-105530D01*
X-48503D01*
G01X-49437Y-107463D02*
X-50837D01*
G01X-46153Y-109530D02*
Y-105530D01*
X-44987D01*
X-44520Y-105730D01*
X-44170Y-105997D01*
X-43878Y-106397D01*
X-43645Y-106863D01*
X-43587Y-107530D01*
X-43645Y-108197D01*
X-43878Y-108663D01*
X-44170Y-109063D01*
X-44520Y-109330D01*
X-44987Y-109530D01*
X-46153D01*
G01X-36378D02*
Y-105530D01*
X-34162D01*
G01X-34978Y-107463D02*
X-36378D01*
G01X-30470Y-109530D02*
X-30937Y-109463D01*
X-31345Y-109197D01*
X-31695Y-108797D01*
X-31928Y-108330D01*
X-32045Y-107797D01*
Y-107263D01*
X-31928Y-106730D01*
X-31695Y-106263D01*
X-31345Y-105863D01*
X-30937Y-105597D01*
X-30470Y-105530D01*
X-30003Y-105597D01*
X-29595Y-105863D01*
X-29245Y-106263D01*
X-29012Y-106730D01*
X-28895Y-107263D01*
Y-107797D01*
X-29012Y-108330D01*
X-29245Y-108797D01*
X-29595Y-109197D01*
X-30003Y-109463D01*
X-30470Y-109530D01*
G01X-26837D02*
Y-105530D01*
X-25378D01*
X-24912Y-105730D01*
X-24620Y-105997D01*
X-24503Y-106530D01*
X-24620Y-107063D01*
X-24970Y-107397D01*
X-25378Y-107597D01*
X-26837D01*
G01X-25378D02*
X-24503Y-109530D01*
G01X-14903D02*
X-17237D01*
Y-105530D01*
X-14903D01*
G01X-15837Y-107463D02*
X-17237D01*
G01X-12612Y-109530D02*
Y-105530D01*
X-9928Y-109530D01*
Y-105530D01*
G01X-6120Y-107530D02*
X-4953D01*
Y-108730D01*
X-5303Y-109130D01*
X-5712Y-109397D01*
X-6295Y-109530D01*
X-6878Y-109397D01*
X-7287Y-109130D01*
X-7637Y-108730D01*
X-7870Y-108263D01*
X-7987Y-107730D01*
Y-107263D01*
X-7870Y-106863D01*
X-7637Y-106397D01*
X-7287Y-105997D01*
X-6937Y-105730D01*
X-6470Y-105530D01*
X-6062D01*
X-5595Y-105663D01*
X-5245Y-105930D01*
G01X-2370Y-105530D02*
X-970D01*
G01X-1670D02*
Y-109530D01*
G01X-2370D02*
X-970D01*
G01X1788D02*
Y-105530D01*
X4472Y-109530D01*
Y-105530D01*
G01X9097Y-109530D02*
X6763D01*
Y-105530D01*
X9097D01*
G01X8163Y-107463D02*
X6763D01*
G01X13897Y-109530D02*
X11563D01*
Y-105530D01*
X13897D01*
G01X12963Y-107463D02*
X11563D01*
G01X16363Y-109530D02*
Y-105530D01*
X17822D01*
X18288Y-105730D01*
X18580Y-105997D01*
X18697Y-106530D01*
X18580Y-107063D01*
X18230Y-107397D01*
X17822Y-107597D01*
X16363D01*
G01X17822D02*
X18697Y-109530D01*
G01X21630Y-105530D02*
X23030D01*
G01X22330D02*
Y-109530D01*
G01X21630D02*
X23030D01*
G01X25788D02*
Y-105530D01*
X28472Y-109530D01*
Y-105530D01*
G01X32280Y-107530D02*
X33447D01*
Y-108730D01*
X33097Y-109130D01*
X32688Y-109397D01*
X32105Y-109530D01*
X31522Y-109397D01*
X31113Y-109130D01*
X30763Y-108730D01*
X30530Y-108263D01*
X30413Y-107730D01*
Y-107263D01*
X30530Y-106863D01*
X30763Y-106397D01*
X31113Y-105997D01*
X31463Y-105730D01*
X31930Y-105530D01*
X32338D01*
X32805Y-105663D01*
X33155Y-105930D01*
G01X40247Y-109530D02*
Y-105530D01*
X41413D01*
X41880Y-105730D01*
X42230Y-105997D01*
X42522Y-106397D01*
X42755Y-106863D01*
X42813Y-107530D01*
X42755Y-108197D01*
X42522Y-108663D01*
X42230Y-109063D01*
X41880Y-109330D01*
X41413Y-109530D01*
X40247D01*
G01X47497D02*
X45163D01*
Y-105530D01*
X47497D01*
G01X46563Y-107463D02*
X45163D01*
G01X49905Y-108997D02*
X50372Y-109330D01*
X50897Y-109530D01*
X51363D01*
X51830Y-109330D01*
X52180Y-108997D01*
X52355Y-108530D01*
X52238Y-108063D01*
X51947Y-107663D01*
X51422Y-107397D01*
X50722Y-107263D01*
X50313Y-106997D01*
X50138Y-106530D01*
X50255Y-106063D01*
X50547Y-105730D01*
X50955Y-105530D01*
X51363D01*
X51772Y-105663D01*
X52122Y-105997D01*
G01X55230Y-105530D02*
X56630D01*
G01X55930D02*
Y-109530D01*
G01X55230D02*
X56630D01*
G01X61080Y-107530D02*
X62247D01*
Y-108730D01*
X61897Y-109130D01*
X61488Y-109397D01*
X60905Y-109530D01*
X60322Y-109397D01*
X59913Y-109130D01*
X59563Y-108730D01*
X59330Y-108263D01*
X59213Y-107730D01*
Y-107263D01*
X59330Y-106863D01*
X59563Y-106397D01*
X59913Y-105997D01*
X60263Y-105730D01*
X60730Y-105530D01*
X61138D01*
X61605Y-105663D01*
X61955Y-105930D01*
G01X64188Y-109530D02*
Y-105530D01*
X66872Y-109530D01*
Y-105530D01*
G01X-94037Y-101530D02*
Y-97530D01*
X-92637D01*
X-92170Y-97730D01*
X-91820Y-98197D01*
X-91703Y-98730D01*
X-91820Y-99263D01*
X-92112Y-99663D01*
X-92637Y-99863D01*
X-94037D01*
G01X-89237Y-101530D02*
Y-97530D01*
X-87778D01*
X-87312Y-97730D01*
X-87020Y-97997D01*
X-86903Y-98530D01*
X-87020Y-99063D01*
X-87370Y-99397D01*
X-87778Y-99597D01*
X-89237D01*
G01X-87778D02*
X-86903Y-101530D01*
G01X-83270D02*
X-83737Y-101463D01*
X-84145Y-101197D01*
X-84495Y-100797D01*
X-84728Y-100330D01*
X-84845Y-99797D01*
Y-99263D01*
X-84728Y-98730D01*
X-84495Y-98263D01*
X-84145Y-97863D01*
X-83737Y-97597D01*
X-83270Y-97530D01*
X-82803Y-97597D01*
X-82395Y-97863D01*
X-82045Y-98263D01*
X-81812Y-98730D01*
X-81695Y-99263D01*
Y-99797D01*
X-81812Y-100330D01*
X-82045Y-100797D01*
X-82395Y-101197D01*
X-82803Y-101463D01*
X-83270Y-101530D01*
G01X-79637D02*
Y-97530D01*
X-78237D01*
X-77770Y-97730D01*
X-77420Y-98197D01*
X-77303Y-98730D01*
X-77420Y-99263D01*
X-77712Y-99663D01*
X-78237Y-99863D01*
X-79637D01*
G01X-74837Y-101530D02*
Y-97530D01*
X-73378D01*
X-72912Y-97730D01*
X-72620Y-97997D01*
X-72503Y-98530D01*
X-72620Y-99063D01*
X-72970Y-99397D01*
X-73378Y-99597D01*
X-74837D01*
G01X-73378D02*
X-72503Y-101530D01*
G01X-69570Y-97530D02*
X-68170D01*
G01X-68870D02*
Y-101530D01*
G01X-69570D02*
X-68170D01*
G01X-62903D02*
X-65237D01*
Y-97530D01*
X-62903D01*
G01X-63837Y-99463D02*
X-65237D01*
G01X-59270Y-97530D02*
Y-101530D01*
G01X-60612Y-97530D02*
X-57928D01*
G01X-55928Y-101530D02*
X-54470Y-97530D01*
X-53012Y-101530D01*
G01X-53537Y-100130D02*
X-55403D01*
G01X-50837Y-101530D02*
Y-97530D01*
X-49378D01*
X-48912Y-97730D01*
X-48620Y-97997D01*
X-48503Y-98530D01*
X-48620Y-99063D01*
X-48970Y-99397D01*
X-49378Y-99597D01*
X-50837D01*
G01X-49378D02*
X-48503Y-101530D01*
G01X-44870D02*
Y-99730D01*
X-46037Y-97530D01*
G01X-43703D02*
X-44870Y-99730D01*
G01X-35270Y-97530D02*
Y-101530D01*
G01X-36612Y-97530D02*
X-33928D01*
G01X-30470Y-101530D02*
X-30937Y-101463D01*
X-31345Y-101197D01*
X-31695Y-100797D01*
X-31928Y-100330D01*
X-32045Y-99797D01*
Y-99263D01*
X-31928Y-98730D01*
X-31695Y-98263D01*
X-31345Y-97863D01*
X-30937Y-97597D01*
X-30470Y-97530D01*
X-30003Y-97597D01*
X-29595Y-97863D01*
X-29245Y-98263D01*
X-29012Y-98730D01*
X-28895Y-99263D01*
Y-99797D01*
X-29012Y-100330D01*
X-29245Y-100797D01*
X-29595Y-101197D01*
X-30003Y-101463D01*
X-30470Y-101530D01*
G01X-21978D02*
Y-97530D01*
X-19762D01*
G01X-20578Y-99463D02*
X-21978D01*
G01X-17237Y-101530D02*
Y-97530D01*
X-15778D01*
X-15312Y-97730D01*
X-15020Y-97997D01*
X-14903Y-98530D01*
X-15020Y-99063D01*
X-15370Y-99397D01*
X-15778Y-99597D01*
X-17237D01*
G01X-15778D02*
X-14903Y-101530D01*
G01X-10103D02*
X-12437D01*
Y-97530D01*
X-10103D01*
G01X-11037Y-99463D02*
X-12437D01*
G01X-5303Y-101530D02*
X-7637D01*
Y-97530D01*
X-5303D01*
G01X-6237Y-99463D02*
X-7637D01*
G01X-2895Y-100997D02*
X-2428Y-101330D01*
X-1903Y-101530D01*
X-1437D01*
X-970Y-101330D01*
X-620Y-100997D01*
X-445Y-100530D01*
X-562Y-100063D01*
X-853Y-99663D01*
X-1378Y-99397D01*
X-2078Y-99263D01*
X-2487Y-98997D01*
X-2662Y-98530D01*
X-2545Y-98063D01*
X-2253Y-97730D01*
X-1845Y-97530D01*
X-1437D01*
X-1028Y-97663D01*
X-678Y-97997D01*
G01X4413Y-97863D02*
X4063Y-97663D01*
X3655Y-97530D01*
X3188D01*
X2663Y-97730D01*
X2255Y-98063D01*
X1963Y-98463D01*
X1730Y-99130D01*
X1672Y-99730D01*
X1788Y-100330D01*
X1963Y-100730D01*
X2313Y-101130D01*
X2722Y-101397D01*
X3130Y-101530D01*
X3538D01*
X3947Y-101397D01*
X4297Y-101197D01*
X4588Y-100930D01*
G01X6472Y-101530D02*
X7930Y-97530D01*
X9388Y-101530D01*
G01X8863Y-100130D02*
X6997D01*
G01X11563Y-97530D02*
Y-101530D01*
X13897D01*
G01X18697D02*
X16363D01*
Y-97530D01*
X18697D01*
G01X17763Y-99463D02*
X16363D01*
G01X25672Y-101530D02*
X27130Y-97530D01*
X28588Y-101530D01*
G01X28063Y-100130D02*
X26197D01*
G01X30588Y-101530D02*
Y-97530D01*
X33272Y-101530D01*
Y-97530D01*
G01X35447Y-101530D02*
Y-97530D01*
X36613D01*
X37080Y-97730D01*
X37430Y-97997D01*
X37722Y-98397D01*
X37955Y-98863D01*
X38013Y-99530D01*
X37955Y-100197D01*
X37722Y-100663D01*
X37430Y-101063D01*
X37080Y-101330D01*
X36613Y-101530D01*
X35447D01*
G01X45105Y-100997D02*
X45572Y-101330D01*
X46097Y-101530D01*
X46563D01*
X47030Y-101330D01*
X47380Y-100997D01*
X47555Y-100530D01*
X47438Y-100063D01*
X47147Y-99663D01*
X46622Y-99397D01*
X45922Y-99263D01*
X45513Y-98997D01*
X45338Y-98530D01*
X45455Y-98063D01*
X45747Y-97730D01*
X46155Y-97530D01*
X46563D01*
X46972Y-97663D01*
X47322Y-97997D01*
G01X49905Y-101530D02*
Y-97530D01*
G01X52355D02*
Y-101530D01*
G01Y-99530D02*
X49905D01*
G01X54472Y-101530D02*
X55930Y-97530D01*
X57388Y-101530D01*
G01X56863Y-100130D02*
X54997D01*
G01X59563Y-97530D02*
Y-101530D01*
X61897D01*
G01X64363Y-97530D02*
Y-101530D01*
X66697D01*
G01X-93870Y-89530D02*
Y-93530D01*
G01X-95212Y-89530D02*
X-92528D01*
G01X-90295Y-93530D02*
Y-89530D01*
G01X-87845D02*
Y-93530D01*
G01Y-91530D02*
X-90295D01*
G01X-84970Y-89530D02*
X-83570D01*
G01X-84270D02*
Y-93530D01*
G01X-84970D02*
X-83570D01*
G01X-80695Y-92997D02*
X-80228Y-93330D01*
X-79703Y-93530D01*
X-79237D01*
X-78770Y-93330D01*
X-78420Y-92997D01*
X-78245Y-92530D01*
X-78362Y-92063D01*
X-78653Y-91663D01*
X-79178Y-91397D01*
X-79878Y-91263D01*
X-80287Y-90997D01*
X-80462Y-90530D01*
X-80345Y-90063D01*
X-80053Y-89730D01*
X-79645Y-89530D01*
X-79237D01*
X-78828Y-89663D01*
X-78478Y-89997D01*
G01X-71153Y-93530D02*
Y-89530D01*
X-69987D01*
X-69520Y-89730D01*
X-69170Y-89997D01*
X-68878Y-90397D01*
X-68645Y-90863D01*
X-68587Y-91530D01*
X-68645Y-92197D01*
X-68878Y-92663D01*
X-69170Y-93063D01*
X-69520Y-93330D01*
X-69987Y-93530D01*
X-71153D01*
G01X-65070D02*
X-65537Y-93463D01*
X-65945Y-93197D01*
X-66295Y-92797D01*
X-66528Y-92330D01*
X-66645Y-91797D01*
Y-91263D01*
X-66528Y-90730D01*
X-66295Y-90263D01*
X-65945Y-89863D01*
X-65537Y-89597D01*
X-65070Y-89530D01*
X-64603Y-89597D01*
X-64195Y-89863D01*
X-63845Y-90263D01*
X-63612Y-90730D01*
X-63495Y-91263D01*
Y-91797D01*
X-63612Y-92330D01*
X-63845Y-92797D01*
X-64195Y-93197D01*
X-64603Y-93463D01*
X-65070Y-93530D01*
G01X-58987Y-89863D02*
X-59337Y-89663D01*
X-59745Y-89530D01*
X-60212D01*
X-60737Y-89730D01*
X-61145Y-90063D01*
X-61437Y-90463D01*
X-61670Y-91130D01*
X-61728Y-91730D01*
X-61612Y-92330D01*
X-61437Y-92730D01*
X-61087Y-93130D01*
X-60678Y-93397D01*
X-60270Y-93530D01*
X-59862D01*
X-59453Y-93397D01*
X-59103Y-93197D01*
X-58812Y-92930D01*
G01X-56753Y-89530D02*
Y-92397D01*
X-56520Y-92997D01*
X-56053Y-93397D01*
X-55470Y-93530D01*
X-54887Y-93397D01*
X-54420Y-92997D01*
X-54187Y-92397D01*
Y-89530D01*
G01X-52187Y-93530D02*
Y-89530D01*
X-50670Y-92863D01*
X-49153Y-89530D01*
Y-93530D01*
G01X-44703D02*
X-47037D01*
Y-89530D01*
X-44703D01*
G01X-45637Y-91463D02*
X-47037D01*
G01X-42412Y-93530D02*
Y-89530D01*
X-39728Y-93530D01*
Y-89530D01*
G01X-36270D02*
Y-93530D01*
G01X-37612Y-89530D02*
X-34928D01*
G01X-25387Y-89863D02*
X-25737Y-89663D01*
X-26145Y-89530D01*
X-26612D01*
X-27137Y-89730D01*
X-27545Y-90063D01*
X-27837Y-90463D01*
X-28070Y-91130D01*
X-28128Y-91730D01*
X-28012Y-92330D01*
X-27837Y-92730D01*
X-27487Y-93130D01*
X-27078Y-93397D01*
X-26670Y-93530D01*
X-26262D01*
X-25853Y-93397D01*
X-25503Y-93197D01*
X-25212Y-92930D01*
G01X-21870Y-93530D02*
X-22337Y-93463D01*
X-22745Y-93197D01*
X-23095Y-92797D01*
X-23328Y-92330D01*
X-23445Y-91797D01*
Y-91263D01*
X-23328Y-90730D01*
X-23095Y-90263D01*
X-22745Y-89863D01*
X-22337Y-89597D01*
X-21870Y-89530D01*
X-21403Y-89597D01*
X-20995Y-89863D01*
X-20645Y-90263D01*
X-20412Y-90730D01*
X-20295Y-91263D01*
Y-91797D01*
X-20412Y-92330D01*
X-20645Y-92797D01*
X-20995Y-93197D01*
X-21403Y-93463D01*
X-21870Y-93530D01*
G01X-18412D02*
Y-89530D01*
X-15728Y-93530D01*
Y-89530D01*
G01X-12270D02*
Y-93530D01*
G01X-13612Y-89530D02*
X-10928D01*
G01X-8928Y-93530D02*
X-7470Y-89530D01*
X-6012Y-93530D01*
G01X-6537Y-92130D02*
X-8403D01*
G01X-3370Y-89530D02*
X-1970D01*
G01X-2670D02*
Y-93530D01*
G01X-3370D02*
X-1970D01*
G01X788D02*
Y-89530D01*
X3472Y-93530D01*
Y-89530D01*
G01X5705Y-92997D02*
X6172Y-93330D01*
X6697Y-93530D01*
X7163D01*
X7630Y-93330D01*
X7980Y-92997D01*
X8155Y-92530D01*
X8038Y-92063D01*
X7747Y-91663D01*
X7222Y-91397D01*
X6522Y-91263D01*
X6113Y-90997D01*
X5938Y-90530D01*
X6055Y-90063D01*
X6347Y-89730D01*
X6755Y-89530D01*
X7163D01*
X7572Y-89663D01*
X7922Y-89997D01*
G01X15830Y-89530D02*
X17230D01*
G01X16530D02*
Y-93530D01*
G01X15830D02*
X17230D01*
G01X19988D02*
Y-89530D01*
X22672Y-93530D01*
Y-89530D01*
G01X25022Y-93530D02*
Y-89530D01*
X27238D01*
G01X26422Y-91463D02*
X25022D01*
G01X30930Y-93530D02*
X30463Y-93463D01*
X30055Y-93197D01*
X29705Y-92797D01*
X29472Y-92330D01*
X29355Y-91797D01*
Y-91263D01*
X29472Y-90730D01*
X29705Y-90263D01*
X30055Y-89863D01*
X30463Y-89597D01*
X30930Y-89530D01*
X31397Y-89597D01*
X31805Y-89863D01*
X32155Y-90263D01*
X32388Y-90730D01*
X32505Y-91263D01*
Y-91797D01*
X32388Y-92330D01*
X32155Y-92797D01*
X31805Y-93197D01*
X31397Y-93463D01*
X30930Y-93530D01*
G01X34563D02*
Y-89530D01*
X36022D01*
X36488Y-89730D01*
X36780Y-89997D01*
X36897Y-90530D01*
X36780Y-91063D01*
X36430Y-91397D01*
X36022Y-91597D01*
X34563D01*
G01X36022D02*
X36897Y-93530D01*
G01X39013D02*
Y-89530D01*
X40530Y-92863D01*
X42047Y-89530D01*
Y-93530D01*
G01X43872D02*
X45330Y-89530D01*
X46788Y-93530D01*
G01X46263Y-92130D02*
X44397D01*
G01X50130Y-89530D02*
Y-93530D01*
G01X48788Y-89530D02*
X51472D01*
G01X54230D02*
X55630D01*
G01X54930D02*
Y-93530D01*
G01X54230D02*
X55630D01*
G01X59730D02*
X59263Y-93463D01*
X58855Y-93197D01*
X58505Y-92797D01*
X58272Y-92330D01*
X58155Y-91797D01*
Y-91263D01*
X58272Y-90730D01*
X58505Y-90263D01*
X58855Y-89863D01*
X59263Y-89597D01*
X59730Y-89530D01*
X60197Y-89597D01*
X60605Y-89863D01*
X60955Y-90263D01*
X61188Y-90730D01*
X61305Y-91263D01*
Y-91797D01*
X61188Y-92330D01*
X60955Y-92797D01*
X60605Y-93197D01*
X60197Y-93463D01*
X59730Y-93530D01*
G01X63188D02*
Y-89530D01*
X65872Y-93530D01*
Y-89530D01*
G01X-101328Y-83530D02*
X-99870Y-79530D01*
X-98412Y-83530D01*
G01X-98937Y-82130D02*
X-100803D01*
G01X-96353Y-79530D02*
Y-82397D01*
X-96120Y-82997D01*
X-95653Y-83397D01*
X-95070Y-83530D01*
X-94487Y-83397D01*
X-94020Y-82997D01*
X-93787Y-82397D01*
Y-79530D01*
G01X-91495Y-82997D02*
X-91028Y-83330D01*
X-90503Y-83530D01*
X-90037D01*
X-89570Y-83330D01*
X-89220Y-82997D01*
X-89045Y-82530D01*
X-89162Y-82063D01*
X-89453Y-81663D01*
X-89978Y-81397D01*
X-90678Y-81263D01*
X-91087Y-80997D01*
X-91262Y-80530D01*
X-91145Y-80063D01*
X-90853Y-79730D01*
X-90445Y-79530D01*
X-90037D01*
X-89628Y-79663D01*
X-89278Y-79997D01*
G01X-85470Y-79530D02*
Y-83530D01*
G01X-86812Y-79530D02*
X-84128D01*
G01X-81370D02*
X-79970D01*
G01X-80670D02*
Y-83530D01*
G01X-81370D02*
X-79970D01*
G01X-77212D02*
Y-79530D01*
X-74528Y-83530D01*
Y-79530D01*
G01X-71070Y-83663D02*
X-71187Y-83597D01*
Y-83463D01*
X-71070Y-83397D01*
X-70953Y-83463D01*
Y-83597D01*
X-71070Y-83663D01*
G01X-61470Y-79530D02*
Y-83530D01*
G01X-62812Y-79530D02*
X-60128D01*
G01X-55503Y-83530D02*
X-57837D01*
Y-79530D01*
X-55503D01*
G01X-56437Y-81463D02*
X-57837D01*
G01X-53095Y-83530D02*
X-50645Y-79530D01*
G01X-53095D02*
X-50645Y-83530D01*
G01X-48528D02*
X-47070Y-79530D01*
X-45612Y-83530D01*
G01X-46137Y-82130D02*
X-48003D01*
G01X-43495Y-82997D02*
X-43028Y-83330D01*
X-42503Y-83530D01*
X-42037D01*
X-41570Y-83330D01*
X-41220Y-82997D01*
X-41045Y-82530D01*
X-41162Y-82063D01*
X-41453Y-81663D01*
X-41978Y-81397D01*
X-42678Y-81263D01*
X-43087Y-80997D01*
X-43262Y-80530D01*
X-43145Y-80063D01*
X-42853Y-79730D01*
X-42445Y-79530D01*
X-42037D01*
X-41628Y-79663D01*
X-41278Y-79997D01*
G01X-32787Y-83530D02*
X-32670Y-82663D01*
X-32495Y-81930D01*
X-32262Y-81263D01*
X-31970Y-80530D01*
X-31503Y-79530D01*
X-33837D01*
G01X-27870Y-83530D02*
X-27462Y-83463D01*
X-26995Y-83263D01*
X-26703Y-82930D01*
X-26587Y-82463D01*
X-26703Y-81997D01*
X-27053Y-81597D01*
X-27578Y-81397D01*
X-28162D01*
X-28512Y-81263D01*
X-28803Y-80930D01*
X-28920Y-80463D01*
X-28745Y-79997D01*
X-28337Y-79663D01*
X-27870Y-79530D01*
X-27403Y-79663D01*
X-26995Y-79997D01*
X-26820Y-80463D01*
X-26937Y-80930D01*
X-27228Y-81263D01*
X-27578Y-81397D01*
X-28162D01*
X-28687Y-81597D01*
X-29037Y-81997D01*
X-29153Y-82463D01*
X-29037Y-82930D01*
X-28745Y-83263D01*
X-28278Y-83463D01*
X-27870Y-83530D01*
G01X-23187D02*
X-23070Y-82663D01*
X-22895Y-81930D01*
X-22662Y-81263D01*
X-22370Y-80530D01*
X-21903Y-79530D01*
X-24237D01*
G01X-19553Y-82730D02*
X-19203Y-83197D01*
X-18737Y-83463D01*
X-18212Y-83530D01*
X-17745Y-83463D01*
X-17278Y-83130D01*
X-16987Y-82730D01*
X-16928Y-82330D01*
X-17045Y-81863D01*
X-17453Y-81530D01*
X-17862Y-81397D01*
X-18387D01*
G01X-17862D02*
X-17512Y-81197D01*
X-17220Y-80863D01*
X-17103Y-80463D01*
X-17220Y-80063D01*
X-17512Y-79730D01*
X-18037Y-79530D01*
X-18562Y-79597D01*
X-19087Y-79863D01*
G01X-14753Y-82930D02*
X-14403Y-83263D01*
X-13995Y-83463D01*
X-13470Y-83530D01*
X-12945Y-83397D01*
X-12537Y-83130D01*
X-12245Y-82663D01*
X-12187Y-82130D01*
X-12303Y-81597D01*
X-12595Y-81263D01*
X-13003Y-80997D01*
X-13412Y-80930D01*
X-13820Y-80997D01*
X-14345Y-81263D01*
X-14170Y-79530D01*
X-12595D01*
G01X-5153D02*
Y-82397D01*
X-4920Y-82997D01*
X-4453Y-83397D01*
X-3870Y-83530D01*
X-3287Y-83397D01*
X-2820Y-82997D01*
X-2587Y-82397D01*
Y-79530D01*
G01X-295Y-82997D02*
X172Y-83330D01*
X697Y-83530D01*
X1163D01*
X1630Y-83330D01*
X1980Y-82997D01*
X2155Y-82530D01*
X2038Y-82063D01*
X1747Y-81663D01*
X1222Y-81397D01*
X522Y-81263D01*
X113Y-80997D01*
X-62Y-80530D01*
X55Y-80063D01*
X347Y-79730D01*
X755Y-79530D01*
X1163D01*
X1572Y-79663D01*
X1922Y-79997D01*
G01X4272Y-83530D02*
X5730Y-79530D01*
X7188Y-83530D01*
G01X6663Y-82130D02*
X4797D01*
G01X-100978Y-74863D02*
X-100570Y-74397D01*
X-100220Y-74130D01*
X-99753Y-73997D01*
X-99345Y-74130D01*
X-99053Y-74397D01*
X-98820Y-74797D01*
X-98762Y-75263D01*
X-98820Y-75663D01*
X-99053Y-76063D01*
X-99403Y-76397D01*
X-99812Y-76530D01*
X-100278Y-76397D01*
X-100687Y-75997D01*
X-100920Y-75397D01*
X-100978Y-74730D01*
X-100862Y-73863D01*
X-100687Y-73397D01*
X-100395Y-72930D01*
X-99987Y-72597D01*
X-99578Y-72530D01*
X-99170Y-72663D01*
X-98878Y-72997D01*
G01X-96353Y-75930D02*
X-96003Y-76263D01*
X-95595Y-76463D01*
X-95070Y-76530D01*
X-94545Y-76397D01*
X-94137Y-76130D01*
X-93845Y-75663D01*
X-93787Y-75130D01*
X-93903Y-74597D01*
X-94195Y-74263D01*
X-94603Y-73997D01*
X-95012Y-73930D01*
X-95420Y-73997D01*
X-95945Y-74263D01*
X-95770Y-72530D01*
X-94195D01*
G01X-90270D02*
X-90737Y-72663D01*
X-91087Y-72997D01*
X-91320Y-73397D01*
X-91495Y-73930D01*
X-91553Y-74530D01*
X-91495Y-75130D01*
X-91320Y-75663D01*
X-91087Y-76063D01*
X-90737Y-76397D01*
X-90270Y-76530D01*
X-89803Y-76397D01*
X-89453Y-76063D01*
X-89220Y-75663D01*
X-89045Y-75130D01*
X-88987Y-74530D01*
X-89045Y-73930D01*
X-89220Y-73397D01*
X-89453Y-72997D01*
X-89803Y-72663D01*
X-90270Y-72530D01*
G01X-85470Y-76530D02*
Y-72530D01*
X-86170Y-73330D01*
G01Y-76530D02*
X-84770D01*
G01X-77620Y-72530D02*
X-76803Y-76530D01*
X-75870Y-72530D01*
X-74937Y-76530D01*
X-74120Y-72530D01*
G01X-71770D02*
X-70370D01*
G01X-71070D02*
Y-76530D01*
G01X-71770D02*
X-70370D01*
G01X-67437Y-72530D02*
Y-76530D01*
X-65103D01*
G01X-62637Y-72530D02*
Y-76530D01*
X-60303D01*
G01X-57370Y-72530D02*
X-55970D01*
G01X-56670D02*
Y-76530D01*
G01X-57370D02*
X-55970D01*
G01X-53328D02*
X-51870Y-72530D01*
X-50412Y-76530D01*
G01X-50937Y-75130D02*
X-52803D01*
G01X-48587Y-76530D02*
Y-72530D01*
X-47070Y-75863D01*
X-45553Y-72530D01*
Y-76530D01*
G01X-36187Y-72863D02*
X-36537Y-72663D01*
X-36945Y-72530D01*
X-37412D01*
X-37937Y-72730D01*
X-38345Y-73063D01*
X-38637Y-73463D01*
X-38870Y-74130D01*
X-38928Y-74730D01*
X-38812Y-75330D01*
X-38637Y-75730D01*
X-38287Y-76130D01*
X-37878Y-76397D01*
X-37470Y-76530D01*
X-37062D01*
X-36653Y-76397D01*
X-36303Y-76197D01*
X-36012Y-75930D01*
G01X-34128Y-76530D02*
X-32670Y-72530D01*
X-31212Y-76530D01*
G01X-31737Y-75130D02*
X-33603D01*
G01X-29212Y-76530D02*
Y-72530D01*
X-26528Y-76530D01*
Y-72530D01*
G01X-24412Y-76530D02*
Y-72530D01*
X-21728Y-76530D01*
Y-72530D01*
G01X-18270Y-76530D02*
X-18737Y-76463D01*
X-19145Y-76197D01*
X-19495Y-75797D01*
X-19728Y-75330D01*
X-19845Y-74797D01*
Y-74263D01*
X-19728Y-73730D01*
X-19495Y-73263D01*
X-19145Y-72863D01*
X-18737Y-72597D01*
X-18270Y-72530D01*
X-17803Y-72597D01*
X-17395Y-72863D01*
X-17045Y-73263D01*
X-16812Y-73730D01*
X-16695Y-74263D01*
Y-74797D01*
X-16812Y-75330D01*
X-17045Y-75797D01*
X-17395Y-76197D01*
X-17803Y-76463D01*
X-18270Y-76530D01*
G01X-14812D02*
Y-72530D01*
X-12128Y-76530D01*
Y-72530D01*
G01X-5153Y-76530D02*
Y-72530D01*
X-3987D01*
X-3520Y-72730D01*
X-3170Y-72997D01*
X-2878Y-73397D01*
X-2645Y-73863D01*
X-2587Y-74530D01*
X-2645Y-75197D01*
X-2878Y-75663D01*
X-3170Y-76063D01*
X-3520Y-76330D01*
X-3987Y-76530D01*
X-5153D01*
G01X-237D02*
Y-72530D01*
X1222D01*
X1688Y-72730D01*
X1980Y-72997D01*
X2097Y-73530D01*
X1980Y-74063D01*
X1630Y-74397D01*
X1222Y-74597D01*
X-237D01*
G01X1222D02*
X2097Y-76530D01*
G01X5030Y-72530D02*
X6430D01*
G01X5730D02*
Y-76530D01*
G01X5030D02*
X6430D01*
G01X9072Y-72530D02*
X10530Y-76530D01*
X11988Y-72530D01*
G01X16497Y-76530D02*
X14163D01*
Y-72530D01*
X16497D01*
G01X15563Y-74463D02*
X14163D01*
G01X23180Y-72530D02*
X23997Y-76530D01*
X24930Y-72530D01*
X25863Y-76530D01*
X26680Y-72530D01*
G01X30897Y-76530D02*
X28563D01*
Y-72530D01*
X30897D01*
G01X29963Y-74463D02*
X28563D01*
G01X33305Y-75997D02*
X33772Y-76330D01*
X34297Y-76530D01*
X34763D01*
X35230Y-76330D01*
X35580Y-75997D01*
X35755Y-75530D01*
X35638Y-75063D01*
X35347Y-74663D01*
X34822Y-74397D01*
X34122Y-74263D01*
X33713Y-73997D01*
X33538Y-73530D01*
X33655Y-73063D01*
X33947Y-72730D01*
X34355Y-72530D01*
X34763D01*
X35172Y-72663D01*
X35522Y-72997D01*
G01X39330Y-72530D02*
Y-76530D01*
G01X37988Y-72530D02*
X40672D01*
G01X-101593Y-68530D02*
Y-61030D01*
X-98047D01*
G01X-99353Y-64655D02*
X-101593D01*
G01X-94187Y-68530D02*
Y-61030D01*
X-91853D01*
X-91107Y-61405D01*
X-90640Y-61905D01*
X-90453Y-62905D01*
X-90640Y-63905D01*
X-91200Y-64530D01*
X-91853Y-64905D01*
X-94187D01*
G01X-91853D02*
X-90453Y-68530D01*
G01X-82953D02*
X-86687D01*
Y-61030D01*
X-82953D01*
G01X-84447Y-64655D02*
X-86687D01*
G01X-75453Y-68530D02*
X-79187D01*
Y-61030D01*
X-75453D01*
G01X-76947Y-64655D02*
X-79187D01*
G01X-71780Y-67530D02*
X-71033Y-68155D01*
X-70193Y-68530D01*
X-69447D01*
X-68700Y-68155D01*
X-68140Y-67530D01*
X-67860Y-66655D01*
X-68047Y-65780D01*
X-68513Y-65030D01*
X-69353Y-64530D01*
X-70473Y-64280D01*
X-71127Y-63780D01*
X-71407Y-62905D01*
X-71220Y-62030D01*
X-70753Y-61405D01*
X-70100Y-61030D01*
X-69447D01*
X-68793Y-61280D01*
X-68233Y-61905D01*
G01X-60267Y-61655D02*
X-60827Y-61280D01*
X-61480Y-61030D01*
X-62227D01*
X-63067Y-61405D01*
X-63720Y-62030D01*
X-64187Y-62780D01*
X-64560Y-64030D01*
X-64653Y-65155D01*
X-64467Y-66280D01*
X-64187Y-67030D01*
X-63627Y-67780D01*
X-62973Y-68280D01*
X-62320Y-68530D01*
X-61667D01*
X-61013Y-68280D01*
X-60453Y-67905D01*
X-59987Y-67405D01*
G01X-57153Y-68530D02*
X-54820Y-61030D01*
X-52487Y-68530D01*
G01X-53327Y-65905D02*
X-56313D01*
G01X-49187Y-61030D02*
Y-68530D01*
X-45453D01*
G01X-37953D02*
X-41687D01*
Y-61030D01*
X-37953D01*
G01X-39447Y-64655D02*
X-41687D01*
G01X-26780Y-67530D02*
X-26033Y-68155D01*
X-25193Y-68530D01*
X-24447D01*
X-23700Y-68155D01*
X-23140Y-67530D01*
X-22860Y-66655D01*
X-23047Y-65780D01*
X-23513Y-65030D01*
X-24353Y-64530D01*
X-25473Y-64280D01*
X-26127Y-63780D01*
X-26407Y-62905D01*
X-26220Y-62030D01*
X-25753Y-61405D01*
X-25100Y-61030D01*
X-24447D01*
X-23793Y-61280D01*
X-23233Y-61905D01*
G01X-15453Y-68530D02*
X-19187D01*
Y-61030D01*
X-15453D01*
G01X-16947Y-64655D02*
X-19187D01*
G01X-12247Y-68530D02*
Y-61030D01*
X-9820Y-67280D01*
X-7393Y-61030D01*
Y-68530D01*
G01X-3440Y-61030D02*
X-1200D01*
G01X-2320D02*
Y-68530D01*
G01X-3440D02*
X-1200D01*
G01X7233Y-61655D02*
X6673Y-61280D01*
X6020Y-61030D01*
X5273D01*
X4433Y-61405D01*
X3780Y-62030D01*
X3313Y-62780D01*
X2940Y-64030D01*
X2847Y-65155D01*
X3033Y-66280D01*
X3313Y-67030D01*
X3873Y-67780D01*
X4527Y-68280D01*
X5180Y-68530D01*
X5833D01*
X6487Y-68280D01*
X7047Y-67905D01*
X7513Y-67405D01*
G01X12680Y-68530D02*
X11933Y-68405D01*
X11280Y-67905D01*
X10720Y-67155D01*
X10347Y-66280D01*
X10160Y-65280D01*
Y-64280D01*
X10347Y-63280D01*
X10720Y-62405D01*
X11280Y-61655D01*
X11933Y-61155D01*
X12680Y-61030D01*
X13427Y-61155D01*
X14080Y-61655D01*
X14640Y-62405D01*
X15013Y-63280D01*
X15200Y-64280D01*
Y-65280D01*
X15013Y-66280D01*
X14640Y-67155D01*
X14080Y-67905D01*
X13427Y-68405D01*
X12680Y-68530D01*
G01X18033D02*
Y-61030D01*
X22327Y-68530D01*
Y-61030D01*
G01X25627Y-68530D02*
Y-61030D01*
X27493D01*
X28240Y-61405D01*
X28800Y-61905D01*
X29267Y-62655D01*
X29640Y-63530D01*
X29733Y-64780D01*
X29640Y-66030D01*
X29267Y-66905D01*
X28800Y-67655D01*
X28240Y-68155D01*
X27493Y-68530D01*
X25627D01*
G01X33127Y-61030D02*
Y-66405D01*
X33500Y-67530D01*
X34247Y-68280D01*
X35180Y-68530D01*
X36113Y-68280D01*
X36860Y-67530D01*
X37233Y-66405D01*
Y-61030D01*
G01X44733Y-61655D02*
X44173Y-61280D01*
X43520Y-61030D01*
X42773D01*
X41933Y-61405D01*
X41280Y-62030D01*
X40813Y-62780D01*
X40440Y-64030D01*
X40347Y-65155D01*
X40533Y-66280D01*
X40813Y-67030D01*
X41373Y-67780D01*
X42027Y-68280D01*
X42680Y-68530D01*
X43333D01*
X43987Y-68280D01*
X44547Y-67905D01*
X45013Y-67405D01*
G01X50180Y-61030D02*
Y-68530D01*
G01X48033Y-61030D02*
X52327D01*
G01X57680Y-68530D02*
X56933Y-68405D01*
X56280Y-67905D01*
X55720Y-67155D01*
X55347Y-66280D01*
X55160Y-65280D01*
Y-64280D01*
X55347Y-63280D01*
X55720Y-62405D01*
X56280Y-61655D01*
X56933Y-61155D01*
X57680Y-61030D01*
X58427Y-61155D01*
X59080Y-61655D01*
X59640Y-62405D01*
X60013Y-63280D01*
X60200Y-64280D01*
Y-65280D01*
X60013Y-66280D01*
X59640Y-67155D01*
X59080Y-67905D01*
X58427Y-68405D01*
X57680Y-68530D01*
G01X63313D02*
Y-61030D01*
X65647D01*
X66393Y-61405D01*
X66860Y-61905D01*
X67047Y-62905D01*
X66860Y-63905D01*
X66300Y-64530D01*
X65647Y-64905D01*
X63313D01*
G01X65647D02*
X67047Y-68530D01*
G01X-50978Y-144530D02*
Y-140530D01*
X-48762D01*
G01X-49578Y-142463D02*
X-50978D01*
G01X-45770Y-140530D02*
X-44370D01*
G01X-45070D02*
Y-144530D01*
G01X-45770D02*
X-44370D01*
G01X-41437Y-140530D02*
Y-144530D01*
X-39103D01*
G01X-36987D02*
Y-140530D01*
X-35470Y-143863D01*
X-33953Y-140530D01*
Y-144530D01*
G01X-48945Y-152430D02*
X-48345Y-152805D01*
X-47670Y-153030D01*
X-47070D01*
X-46470Y-152805D01*
X-46020Y-152430D01*
X-45795Y-151905D01*
X-45945Y-151380D01*
X-46320Y-150930D01*
X-46995Y-150630D01*
X-47895Y-150480D01*
X-48420Y-150180D01*
X-48645Y-149655D01*
X-48495Y-149130D01*
X-48120Y-148755D01*
X-47595Y-148530D01*
X-47070D01*
X-46545Y-148680D01*
X-46095Y-149055D01*
G01X-40070Y-153030D02*
X-43070D01*
Y-148530D01*
X-40070D01*
G01X-41270Y-150705D02*
X-43070D01*
G01X-34120Y-148905D02*
X-34570Y-148680D01*
X-35095Y-148530D01*
X-35695D01*
X-36370Y-148755D01*
X-36895Y-149130D01*
X-37270Y-149580D01*
X-37570Y-150330D01*
X-37645Y-151005D01*
X-37495Y-151680D01*
X-37270Y-152130D01*
X-36820Y-152580D01*
X-36295Y-152880D01*
X-35770Y-153030D01*
X-35245D01*
X-34720Y-152880D01*
X-34270Y-152655D01*
X-33895Y-152355D01*
G01X-29970Y-153030D02*
X-30570Y-152955D01*
X-31095Y-152655D01*
X-31545Y-152205D01*
X-31845Y-151680D01*
X-31995Y-151080D01*
Y-150480D01*
X-31845Y-149880D01*
X-31545Y-149355D01*
X-31095Y-148905D01*
X-30570Y-148605D01*
X-29970Y-148530D01*
X-29370Y-148605D01*
X-28845Y-148905D01*
X-28395Y-149355D01*
X-28095Y-149880D01*
X-27945Y-150480D01*
Y-151080D01*
X-28095Y-151680D01*
X-28395Y-152205D01*
X-28845Y-152655D01*
X-29370Y-152955D01*
X-29970Y-153030D01*
G01X-25895D02*
Y-148530D01*
X-22445Y-153030D01*
Y-148530D01*
G01X-20020Y-153030D02*
Y-148530D01*
X-18520D01*
X-17920Y-148755D01*
X-17470Y-149055D01*
X-17095Y-149505D01*
X-16795Y-150030D01*
X-16720Y-150780D01*
X-16795Y-151530D01*
X-17095Y-152055D01*
X-17470Y-152505D01*
X-17920Y-152805D01*
X-18520Y-153030D01*
X-20020D01*
G01X-14445D02*
X-12570Y-148530D01*
X-10695Y-153030D01*
G01X-11370Y-151455D02*
X-13770D01*
G01X-8270Y-153030D02*
Y-148530D01*
X-6395D01*
X-5795Y-148755D01*
X-5420Y-149055D01*
X-5270Y-149655D01*
X-5420Y-150255D01*
X-5870Y-150630D01*
X-6395Y-150855D01*
X-8270D01*
G01X-6395D02*
X-5270Y-153030D01*
G01X-970D02*
Y-151005D01*
X-2470Y-148530D01*
G01X530D02*
X-970Y-151005D01*
G01X9130Y-153030D02*
Y-148530D01*
X10930D01*
X11530Y-148755D01*
X11980Y-149280D01*
X12130Y-149880D01*
X11980Y-150480D01*
X11605Y-150930D01*
X10930Y-151155D01*
X9130D01*
G01X14555Y-153030D02*
X16430Y-148530D01*
X18305Y-153030D01*
G01X17630Y-151455D02*
X15230D01*
G01X20655Y-152430D02*
X21255Y-152805D01*
X21930Y-153030D01*
X22530D01*
X23130Y-152805D01*
X23580Y-152430D01*
X23805Y-151905D01*
X23655Y-151380D01*
X23280Y-150930D01*
X22605Y-150630D01*
X21705Y-150480D01*
X21180Y-150180D01*
X20955Y-149655D01*
X21105Y-149130D01*
X21480Y-148755D01*
X22005Y-148530D01*
X22530D01*
X23055Y-148680D01*
X23505Y-149055D01*
G01X28030Y-148530D02*
Y-153030D01*
G01X26305Y-148530D02*
X29755D01*
G01X35330Y-153030D02*
X32330D01*
Y-148530D01*
X35330D01*
G01X34130Y-150705D02*
X32330D01*
G01X37680Y-153030D02*
Y-148530D01*
X39630Y-152280D01*
X41580Y-148530D01*
Y-153030D01*
G01X43555D02*
X45430Y-148530D01*
X47305Y-153030D01*
G01X46630Y-151455D02*
X44230D01*
G01X49655Y-152430D02*
X50255Y-152805D01*
X50930Y-153030D01*
X51530D01*
X52130Y-152805D01*
X52580Y-152430D01*
X52805Y-151905D01*
X52655Y-151380D01*
X52280Y-150930D01*
X51605Y-150630D01*
X50705Y-150480D01*
X50180Y-150180D01*
X49955Y-149655D01*
X50105Y-149130D01*
X50480Y-148755D01*
X51005Y-148530D01*
X51530D01*
X52055Y-148680D01*
X52505Y-149055D01*
G01X55380Y-153030D02*
Y-148530D01*
G01X58230D02*
X55380Y-151305D01*
G01X58680Y-153030D02*
X56655Y-150030D01*
G01X77130Y-148530D02*
X76663Y-148663D01*
X76313Y-148997D01*
X76080Y-149397D01*
X75905Y-149930D01*
X75847Y-150530D01*
X75905Y-151130D01*
X76080Y-151663D01*
X76313Y-152063D01*
X76663Y-152397D01*
X77130Y-152530D01*
X77597Y-152397D01*
X77947Y-152063D01*
X78180Y-151663D01*
X78355Y-151130D01*
X78413Y-150530D01*
X78355Y-149930D01*
X78180Y-149397D01*
X77947Y-148997D01*
X77597Y-148663D01*
X77130Y-148530D01*
G01X81813Y-152530D02*
X81930Y-151663D01*
X82105Y-150930D01*
X82338Y-150263D01*
X82630Y-149530D01*
X83097Y-148530D01*
X80763D01*
G01X85972Y-151197D02*
X87488D01*
G01X90247Y-151730D02*
X90597Y-152197D01*
X91063Y-152463D01*
X91588Y-152530D01*
X92055Y-152463D01*
X92522Y-152130D01*
X92813Y-151730D01*
X92872Y-151330D01*
X92755Y-150863D01*
X92347Y-150530D01*
X91938Y-150397D01*
X91413D01*
G01X91938D02*
X92288Y-150197D01*
X92580Y-149863D01*
X92697Y-149463D01*
X92580Y-149063D01*
X92288Y-148730D01*
X91763Y-148530D01*
X91238Y-148597D01*
X90713Y-148863D01*
G01X96330Y-152530D02*
Y-148530D01*
X95630Y-149330D01*
G01Y-152530D02*
X97030D01*
G01X100372Y-151197D02*
X101888D01*
G01X105930Y-152530D02*
Y-148530D01*
X105230Y-149330D01*
G01Y-152530D02*
X106630D01*
G01X111430D02*
Y-148530D01*
X109272Y-151397D01*
X112188D01*
G01X73847Y-144530D02*
Y-140530D01*
X75013D01*
X75480Y-140730D01*
X75830Y-140997D01*
X76122Y-141397D01*
X76355Y-141863D01*
X76413Y-142530D01*
X76355Y-143197D01*
X76122Y-143663D01*
X75830Y-144063D01*
X75480Y-144330D01*
X75013Y-144530D01*
X73847D01*
G01X78472D02*
X79930Y-140530D01*
X81388Y-144530D01*
G01X80863Y-143130D02*
X78997D01*
G01X84730Y-140530D02*
Y-144530D01*
G01X83388Y-140530D02*
X86072D01*
G01X90697Y-144530D02*
X88363D01*
Y-140530D01*
X90697D01*
G01X89763Y-142463D02*
X88363D01*
G01X73788Y-64530D02*
Y-60530D01*
X76472Y-64530D01*
Y-60530D01*
G01X78472Y-64530D02*
X79930Y-60530D01*
X81388Y-64530D01*
G01X80863Y-63130D02*
X78997D01*
G01X83213Y-64530D02*
Y-60530D01*
X84730Y-63863D01*
X86247Y-60530D01*
Y-64530D01*
G01X90697D02*
X88363D01*
Y-60530D01*
X90697D01*
G01X89763Y-62463D02*
X88363D01*
G01X88085Y-113530D02*
X91375Y-107230D01*
G01X88085D02*
X91375Y-113530D01*
G01X83380Y-130363D02*
X86880D01*
G01X88180D02*
X91680D01*
G01X92980D02*
X96480D01*
G01X103222Y-129030D02*
Y-125030D01*
X105438D01*
G01X104622Y-126963D02*
X103222D01*
G01X110413Y-125363D02*
X110063Y-125163D01*
X109655Y-125030D01*
X109188D01*
X108663Y-125230D01*
X108255Y-125563D01*
X107963Y-125963D01*
X107730Y-126630D01*
X107672Y-127230D01*
X107788Y-127830D01*
X107963Y-128230D01*
X108313Y-128630D01*
X108722Y-128897D01*
X109130Y-129030D01*
X109538D01*
X109947Y-128897D01*
X110297Y-128697D01*
X110588Y-128430D01*
G01X112763Y-129030D02*
Y-125030D01*
X114163D01*
X114630Y-125230D01*
X114980Y-125697D01*
X115097Y-126230D01*
X114980Y-126763D01*
X114688Y-127163D01*
X114163Y-127363D01*
X112763D01*
G01X123238Y-130363D02*
X122655Y-129697D01*
X122363Y-129030D01*
Y-126363D01*
X122655Y-125697D01*
X123238Y-125030D01*
G01X127222Y-129030D02*
Y-125030D01*
X129438D01*
G01X128622Y-126963D02*
X127222D01*
G01X131963Y-129030D02*
Y-125030D01*
X133422D01*
X133888Y-125230D01*
X134180Y-125497D01*
X134297Y-126030D01*
X134180Y-126563D01*
X133830Y-126897D01*
X133422Y-127097D01*
X131963D01*
G01X133422D02*
X134297Y-129030D01*
G01X139097D02*
X136763D01*
Y-125030D01*
X139097D01*
G01X138163Y-126963D02*
X136763D01*
G01X143897Y-129030D02*
X141563D01*
Y-125030D01*
X143897D01*
G01X142963Y-126963D02*
X141563D01*
G01X146305Y-128497D02*
X146772Y-128830D01*
X147297Y-129030D01*
X147763D01*
X148230Y-128830D01*
X148580Y-128497D01*
X148755Y-128030D01*
X148638Y-127563D01*
X148347Y-127163D01*
X147822Y-126897D01*
X147122Y-126763D01*
X146713Y-126497D01*
X146538Y-126030D01*
X146655Y-125563D01*
X146947Y-125230D01*
X147355Y-125030D01*
X147763D01*
X148172Y-125163D01*
X148522Y-125497D01*
G01X153613Y-125363D02*
X153263Y-125163D01*
X152855Y-125030D01*
X152388D01*
X151863Y-125230D01*
X151455Y-125563D01*
X151163Y-125963D01*
X150930Y-126630D01*
X150872Y-127230D01*
X150988Y-127830D01*
X151163Y-128230D01*
X151513Y-128630D01*
X151922Y-128897D01*
X152330Y-129030D01*
X152738D01*
X153147Y-128897D01*
X153497Y-128697D01*
X153788Y-128430D01*
G01X155672Y-129030D02*
X157130Y-125030D01*
X158588Y-129030D01*
G01X158063Y-127630D02*
X156197D01*
G01X160763Y-125030D02*
Y-129030D01*
X163097D01*
G01X167897D02*
X165563D01*
Y-125030D01*
X167897D01*
G01X166963Y-126963D02*
X165563D01*
G01X177613Y-125363D02*
X177263Y-125163D01*
X176855Y-125030D01*
X176388D01*
X175863Y-125230D01*
X175455Y-125563D01*
X175163Y-125963D01*
X174930Y-126630D01*
X174872Y-127230D01*
X174988Y-127830D01*
X175163Y-128230D01*
X175513Y-128630D01*
X175922Y-128897D01*
X176330Y-129030D01*
X176738D01*
X177147Y-128897D01*
X177497Y-128697D01*
X177788Y-128430D01*
G01X181130Y-129030D02*
X180663Y-128963D01*
X180255Y-128697D01*
X179905Y-128297D01*
X179672Y-127830D01*
X179555Y-127297D01*
Y-126763D01*
X179672Y-126230D01*
X179905Y-125763D01*
X180255Y-125363D01*
X180663Y-125097D01*
X181130Y-125030D01*
X181597Y-125097D01*
X182005Y-125363D01*
X182355Y-125763D01*
X182588Y-126230D01*
X182705Y-126763D01*
Y-127297D01*
X182588Y-127830D01*
X182355Y-128297D01*
X182005Y-128697D01*
X181597Y-128963D01*
X181130Y-129030D01*
G01X184588D02*
Y-125030D01*
X187272Y-129030D01*
Y-125030D01*
G01X189622Y-129030D02*
Y-125030D01*
X191838D01*
G01X191022Y-126963D02*
X189622D01*
G01X194830Y-125030D02*
X196230D01*
G01X195530D02*
Y-129030D01*
G01X194830D02*
X196230D01*
G01X199047D02*
Y-125030D01*
X200213D01*
X200680Y-125230D01*
X201030Y-125497D01*
X201322Y-125897D01*
X201555Y-126363D01*
X201613Y-127030D01*
X201555Y-127697D01*
X201322Y-128163D01*
X201030Y-128563D01*
X200680Y-128830D01*
X200213Y-129030D01*
X199047D01*
G01X206297D02*
X203963D01*
Y-125030D01*
X206297D01*
G01X205363Y-126963D02*
X203963D01*
G01X208588Y-129030D02*
Y-125030D01*
X211272Y-129030D01*
Y-125030D01*
G01X214730D02*
Y-129030D01*
G01X213388Y-125030D02*
X216072D01*
G01X218830D02*
X220230D01*
G01X219530D02*
Y-129030D01*
G01X218830D02*
X220230D01*
G01X222872D02*
X224330Y-125030D01*
X225788Y-129030D01*
G01X225263Y-127630D02*
X223397D01*
G01X227963Y-125030D02*
Y-129030D01*
X230297D01*
G01X237563D02*
Y-125030D01*
X238963D01*
X239430Y-125230D01*
X239780Y-125697D01*
X239897Y-126230D01*
X239780Y-126763D01*
X239488Y-127163D01*
X238963Y-127363D01*
X237563D01*
G01X242363Y-129030D02*
Y-125030D01*
X243822D01*
X244288Y-125230D01*
X244580Y-125497D01*
X244697Y-126030D01*
X244580Y-126563D01*
X244230Y-126897D01*
X243822Y-127097D01*
X242363D01*
G01X243822D02*
X244697Y-129030D01*
G01X248330D02*
X247863Y-128963D01*
X247455Y-128697D01*
X247105Y-128297D01*
X246872Y-127830D01*
X246755Y-127297D01*
Y-126763D01*
X246872Y-126230D01*
X247105Y-125763D01*
X247455Y-125363D01*
X247863Y-125097D01*
X248330Y-125030D01*
X248797Y-125097D01*
X249205Y-125363D01*
X249555Y-125763D01*
X249788Y-126230D01*
X249905Y-126763D01*
Y-127297D01*
X249788Y-127830D01*
X249555Y-128297D01*
X249205Y-128697D01*
X248797Y-128963D01*
X248330Y-129030D01*
G01X251963D02*
Y-125030D01*
X253363D01*
X253830Y-125230D01*
X254180Y-125697D01*
X254297Y-126230D01*
X254180Y-126763D01*
X253888Y-127163D01*
X253363Y-127363D01*
X251963D01*
G01X256763Y-129030D02*
Y-125030D01*
X258222D01*
X258688Y-125230D01*
X258980Y-125497D01*
X259097Y-126030D01*
X258980Y-126563D01*
X258630Y-126897D01*
X258222Y-127097D01*
X256763D01*
G01X258222D02*
X259097Y-129030D01*
G01X262030Y-125030D02*
X263430D01*
G01X262730D02*
Y-129030D01*
G01X262030D02*
X263430D01*
G01X268697D02*
X266363D01*
Y-125030D01*
X268697D01*
G01X267763Y-126963D02*
X266363D01*
G01X272330Y-125030D02*
Y-129030D01*
G01X270988Y-125030D02*
X273672D01*
G01X275672Y-129030D02*
X277130Y-125030D01*
X278588Y-129030D01*
G01X278063Y-127630D02*
X276197D01*
G01X280763Y-129030D02*
Y-125030D01*
X282222D01*
X282688Y-125230D01*
X282980Y-125497D01*
X283097Y-126030D01*
X282980Y-126563D01*
X282630Y-126897D01*
X282222Y-127097D01*
X280763D01*
G01X282222D02*
X283097Y-129030D01*
G01X286730D02*
Y-127230D01*
X285563Y-125030D01*
G01X287897D02*
X286730Y-127230D01*
G01X291822Y-130363D02*
X292405Y-129697D01*
X292697Y-129030D01*
Y-126363D01*
X292405Y-125697D01*
X291822Y-125030D01*
G01X83380Y-113863D02*
X86880D01*
G01X88180D02*
X91680D01*
G01X92980D02*
X96480D01*
G01X103222Y-112530D02*
Y-108530D01*
X105438D01*
G01X104622Y-110463D02*
X103222D01*
G01X108430Y-108530D02*
X109830D01*
G01X109130D02*
Y-112530D01*
G01X108430D02*
X109830D01*
G01X112647Y-108530D02*
Y-111397D01*
X112880Y-111997D01*
X113347Y-112397D01*
X113930Y-112530D01*
X114513Y-112397D01*
X114980Y-111997D01*
X115213Y-111397D01*
Y-108530D01*
G01X118730Y-112530D02*
X118263Y-112463D01*
X117855Y-112197D01*
X117505Y-111797D01*
X117272Y-111330D01*
X117155Y-110797D01*
Y-110263D01*
X117272Y-109730D01*
X117505Y-109263D01*
X117855Y-108863D01*
X118263Y-108597D01*
X118730Y-108530D01*
X119197Y-108597D01*
X119605Y-108863D01*
X119955Y-109263D01*
X120188Y-109730D01*
X120305Y-110263D01*
Y-110797D01*
X120188Y-111330D01*
X119955Y-111797D01*
X119605Y-112197D01*
X119197Y-112463D01*
X118730Y-112530D01*
G01X128038Y-113863D02*
X127455Y-113197D01*
X127163Y-112530D01*
Y-109863D01*
X127455Y-109197D01*
X128038Y-108530D01*
G01X132022Y-112530D02*
Y-108530D01*
X134238D01*
G01X133422Y-110463D02*
X132022D01*
G01X136763Y-112530D02*
Y-108530D01*
X138222D01*
X138688Y-108730D01*
X138980Y-108997D01*
X139097Y-109530D01*
X138980Y-110063D01*
X138630Y-110397D01*
X138222Y-110597D01*
X136763D01*
G01X138222D02*
X139097Y-112530D01*
G01X143897D02*
X141563D01*
Y-108530D01*
X143897D01*
G01X142963Y-110463D02*
X141563D01*
G01X148697Y-112530D02*
X146363D01*
Y-108530D01*
X148697D01*
G01X147763Y-110463D02*
X146363D01*
G01X151105Y-111997D02*
X151572Y-112330D01*
X152097Y-112530D01*
X152563D01*
X153030Y-112330D01*
X153380Y-111997D01*
X153555Y-111530D01*
X153438Y-111063D01*
X153147Y-110663D01*
X152622Y-110397D01*
X151922Y-110263D01*
X151513Y-109997D01*
X151338Y-109530D01*
X151455Y-109063D01*
X151747Y-108730D01*
X152155Y-108530D01*
X152563D01*
X152972Y-108663D01*
X153322Y-108997D01*
G01X158413Y-108863D02*
X158063Y-108663D01*
X157655Y-108530D01*
X157188D01*
X156663Y-108730D01*
X156255Y-109063D01*
X155963Y-109463D01*
X155730Y-110130D01*
X155672Y-110730D01*
X155788Y-111330D01*
X155963Y-111730D01*
X156313Y-112130D01*
X156722Y-112397D01*
X157130Y-112530D01*
X157538D01*
X157947Y-112397D01*
X158297Y-112197D01*
X158588Y-111930D01*
G01X160472Y-112530D02*
X161930Y-108530D01*
X163388Y-112530D01*
G01X162863Y-111130D02*
X160997D01*
G01X165563Y-108530D02*
Y-112530D01*
X167897D01*
G01X172697D02*
X170363D01*
Y-108530D01*
X172697D01*
G01X171763Y-110463D02*
X170363D01*
G01X180430Y-108530D02*
X181830D01*
G01X181130D02*
Y-112530D01*
G01X180430D02*
X181830D01*
G01X184588D02*
Y-108530D01*
X187272Y-112530D01*
Y-108530D01*
G01X190730D02*
Y-112530D01*
G01X189388Y-108530D02*
X192072D01*
G01X196697Y-112530D02*
X194363D01*
Y-108530D01*
X196697D01*
G01X195763Y-110463D02*
X194363D01*
G01X199163Y-112530D02*
Y-108530D01*
X200622D01*
X201088Y-108730D01*
X201380Y-108997D01*
X201497Y-109530D01*
X201380Y-110063D01*
X201030Y-110397D01*
X200622Y-110597D01*
X199163D01*
G01X200622D02*
X201497Y-112530D01*
G01X203788D02*
Y-108530D01*
X206472Y-112530D01*
Y-108530D01*
G01X208472Y-112530D02*
X209930Y-108530D01*
X211388Y-112530D01*
G01X210863Y-111130D02*
X208997D01*
G01X213563Y-108530D02*
Y-112530D01*
X215897D01*
G01X223047Y-108530D02*
Y-111397D01*
X223280Y-111997D01*
X223747Y-112397D01*
X224330Y-112530D01*
X224913Y-112397D01*
X225380Y-111997D01*
X225613Y-111397D01*
Y-108530D01*
G01X227905Y-111997D02*
X228372Y-112330D01*
X228897Y-112530D01*
X229363D01*
X229830Y-112330D01*
X230180Y-111997D01*
X230355Y-111530D01*
X230238Y-111063D01*
X229947Y-110663D01*
X229422Y-110397D01*
X228722Y-110263D01*
X228313Y-109997D01*
X228138Y-109530D01*
X228255Y-109063D01*
X228547Y-108730D01*
X228955Y-108530D01*
X229363D01*
X229772Y-108663D01*
X230122Y-108997D01*
G01X235097Y-112530D02*
X232763D01*
Y-108530D01*
X235097D01*
G01X234163Y-110463D02*
X232763D01*
G01X243530Y-112530D02*
X243063Y-112463D01*
X242655Y-112197D01*
X242305Y-111797D01*
X242072Y-111330D01*
X241955Y-110797D01*
Y-110263D01*
X242072Y-109730D01*
X242305Y-109263D01*
X242655Y-108863D01*
X243063Y-108597D01*
X243530Y-108530D01*
X243997Y-108597D01*
X244405Y-108863D01*
X244755Y-109263D01*
X244988Y-109730D01*
X245105Y-110263D01*
Y-110797D01*
X244988Y-111330D01*
X244755Y-111797D01*
X244405Y-112197D01*
X243997Y-112463D01*
X243530Y-112530D01*
G01X246988D02*
Y-108530D01*
X249672Y-112530D01*
Y-108530D01*
G01X251963D02*
Y-112530D01*
X254297D01*
G01X257930D02*
Y-110730D01*
X256763Y-108530D01*
G01X259097D02*
X257930Y-110730D01*
G01X263022Y-113863D02*
X263605Y-113197D01*
X263897Y-112530D01*
Y-109863D01*
X263605Y-109197D01*
X263022Y-108530D01*
G01X83380Y-97863D02*
X86880D01*
G01X88180D02*
X91680D01*
G01X92980D02*
X96480D01*
G01X103163Y-96530D02*
Y-92530D01*
X104563D01*
X105030Y-92730D01*
X105380Y-93197D01*
X105497Y-93730D01*
X105380Y-94263D01*
X105088Y-94663D01*
X104563Y-94863D01*
X103163D01*
G01X107847Y-92530D02*
Y-95397D01*
X108080Y-95997D01*
X108547Y-96397D01*
X109130Y-96530D01*
X109713Y-96397D01*
X110180Y-95997D01*
X110413Y-95397D01*
Y-92530D01*
G01X114397Y-94397D02*
X114630Y-94197D01*
X114805Y-93863D01*
X114922Y-93397D01*
X114805Y-92997D01*
X114572Y-92730D01*
X114163Y-92530D01*
X112588D01*
Y-96530D01*
X114513D01*
X114922Y-96263D01*
X115155Y-95863D01*
X115272Y-95397D01*
X115155Y-94930D01*
X114805Y-94530D01*
X114397Y-94397D01*
X112588D01*
G01X118030Y-92530D02*
X119430D01*
G01X118730D02*
Y-96530D01*
G01X118030D02*
X119430D01*
G01X128038Y-97863D02*
X127455Y-97197D01*
X127163Y-96530D01*
Y-93863D01*
X127455Y-93197D01*
X128038Y-92530D01*
G01X131963Y-96530D02*
Y-92530D01*
X133363D01*
X133830Y-92730D01*
X134180Y-93197D01*
X134297Y-93730D01*
X134180Y-94263D01*
X133888Y-94663D01*
X133363Y-94863D01*
X131963D01*
G01X136647Y-92530D02*
Y-95397D01*
X136880Y-95997D01*
X137347Y-96397D01*
X137930Y-96530D01*
X138513Y-96397D01*
X138980Y-95997D01*
X139213Y-95397D01*
Y-92530D01*
G01X143197Y-94397D02*
X143430Y-94197D01*
X143605Y-93863D01*
X143722Y-93397D01*
X143605Y-92997D01*
X143372Y-92730D01*
X142963Y-92530D01*
X141388D01*
Y-96530D01*
X143313D01*
X143722Y-96263D01*
X143955Y-95863D01*
X144072Y-95397D01*
X143955Y-94930D01*
X143605Y-94530D01*
X143197Y-94397D01*
X141388D01*
G01X146363Y-92530D02*
Y-96530D01*
X148697D01*
G01X151630Y-92530D02*
X153030D01*
G01X152330D02*
Y-96530D01*
G01X151630D02*
X153030D01*
G01X158413Y-92863D02*
X158063Y-92663D01*
X157655Y-92530D01*
X157188D01*
X156663Y-92730D01*
X156255Y-93063D01*
X155963Y-93463D01*
X155730Y-94130D01*
X155672Y-94730D01*
X155788Y-95330D01*
X155963Y-95730D01*
X156313Y-96130D01*
X156722Y-96397D01*
X157130Y-96530D01*
X157538D01*
X157947Y-96397D01*
X158297Y-96197D01*
X158588Y-95930D01*
G01X166030Y-92530D02*
X167430D01*
G01X166730D02*
Y-96530D01*
G01X166030D02*
X167430D01*
G01X170188D02*
Y-92530D01*
X172872Y-96530D01*
Y-92530D01*
G01X175222Y-96530D02*
Y-92530D01*
X177438D01*
G01X176622Y-94463D02*
X175222D01*
G01X181130Y-96530D02*
X180663Y-96463D01*
X180255Y-96197D01*
X179905Y-95797D01*
X179672Y-95330D01*
X179555Y-94797D01*
Y-94263D01*
X179672Y-93730D01*
X179905Y-93263D01*
X180255Y-92863D01*
X180663Y-92597D01*
X181130Y-92530D01*
X181597Y-92597D01*
X182005Y-92863D01*
X182355Y-93263D01*
X182588Y-93730D01*
X182705Y-94263D01*
Y-94797D01*
X182588Y-95330D01*
X182355Y-95797D01*
X182005Y-96197D01*
X181597Y-96463D01*
X181130Y-96530D01*
G01X184763D02*
Y-92530D01*
X186222D01*
X186688Y-92730D01*
X186980Y-92997D01*
X187097Y-93530D01*
X186980Y-94063D01*
X186630Y-94397D01*
X186222Y-94597D01*
X184763D01*
G01X186222D02*
X187097Y-96530D01*
G01X189213D02*
Y-92530D01*
X190730Y-95863D01*
X192247Y-92530D01*
Y-96530D01*
G01X194072D02*
X195530Y-92530D01*
X196988Y-96530D01*
G01X196463Y-95130D02*
X194597D01*
G01X200330Y-92530D02*
Y-96530D01*
G01X198988Y-92530D02*
X201672D01*
G01X204430D02*
X205830D01*
G01X205130D02*
Y-96530D01*
G01X204430D02*
X205830D01*
G01X209930D02*
X209463Y-96463D01*
X209055Y-96197D01*
X208705Y-95797D01*
X208472Y-95330D01*
X208355Y-94797D01*
Y-94263D01*
X208472Y-93730D01*
X208705Y-93263D01*
X209055Y-92863D01*
X209463Y-92597D01*
X209930Y-92530D01*
X210397Y-92597D01*
X210805Y-92863D01*
X211155Y-93263D01*
X211388Y-93730D01*
X211505Y-94263D01*
Y-94797D01*
X211388Y-95330D01*
X211155Y-95797D01*
X210805Y-96197D01*
X210397Y-96463D01*
X209930Y-96530D01*
G01X213388D02*
Y-92530D01*
X216072Y-96530D01*
Y-92530D01*
G01X219822Y-97863D02*
X220405Y-97197D01*
X220697Y-96530D01*
Y-93863D01*
X220405Y-93197D01*
X219822Y-92530D01*
G01X123788Y-144530D02*
Y-140530D01*
X126472Y-144530D01*
Y-140530D01*
G01X128647D02*
Y-143397D01*
X128880Y-143997D01*
X129347Y-144397D01*
X129930Y-144530D01*
X130513Y-144397D01*
X130980Y-143997D01*
X131213Y-143397D01*
Y-140530D01*
G01X133213Y-144530D02*
Y-140530D01*
X134730Y-143863D01*
X136247Y-140530D01*
Y-144530D01*
G01X139997Y-142397D02*
X140230Y-142197D01*
X140405Y-141863D01*
X140522Y-141397D01*
X140405Y-140997D01*
X140172Y-140730D01*
X139763Y-140530D01*
X138188D01*
Y-144530D01*
X140113D01*
X140522Y-144263D01*
X140755Y-143863D01*
X140872Y-143397D01*
X140755Y-142930D01*
X140405Y-142530D01*
X139997Y-142397D01*
X138188D01*
G01X145497Y-144530D02*
X143163D01*
Y-140530D01*
X145497D01*
G01X144563Y-142463D02*
X143163D01*
G01X147963Y-144530D02*
Y-140530D01*
X149422D01*
X149888Y-140730D01*
X150180Y-140997D01*
X150297Y-141530D01*
X150180Y-142063D01*
X149830Y-142397D01*
X149422Y-142597D01*
X147963D01*
G01X149422D02*
X150297Y-144530D01*
G01X158730Y-151530D02*
Y-145230D01*
X157790Y-146490D01*
G01Y-151530D02*
X159670D01*
G01X164873D02*
X165030Y-150165D01*
X165265Y-149010D01*
X165578Y-147960D01*
X165970Y-146805D01*
X166597Y-145230D01*
X163463D01*
G01X171330D02*
X170703Y-145440D01*
X170233Y-145965D01*
X169920Y-146595D01*
X169685Y-147435D01*
X169607Y-148380D01*
X169685Y-149325D01*
X169920Y-150165D01*
X170233Y-150795D01*
X170703Y-151320D01*
X171330Y-151530D01*
X171957Y-151320D01*
X172427Y-150795D01*
X172740Y-150165D01*
X172975Y-149325D01*
X173053Y-148380D01*
X172975Y-147435D01*
X172740Y-146595D01*
X172427Y-145965D01*
X171957Y-145440D01*
X171330Y-145230D01*
G01X176612Y-149430D02*
X178648D01*
G01X182442Y-146280D02*
X182912Y-145650D01*
X183460Y-145335D01*
X184087Y-145230D01*
X184870Y-145440D01*
X185418Y-145965D01*
X185575Y-146595D01*
X185497Y-147225D01*
X185183Y-147750D01*
X183617Y-148800D01*
X182912Y-149535D01*
X182442Y-150585D01*
X182285Y-151530D01*
X185575D01*
G01X190230D02*
X190778Y-151425D01*
X191405Y-151110D01*
X191797Y-150585D01*
X191953Y-149850D01*
X191797Y-149115D01*
X191327Y-148485D01*
X190622Y-148170D01*
X189838D01*
X189368Y-147960D01*
X188977Y-147435D01*
X188820Y-146700D01*
X189055Y-145965D01*
X189603Y-145440D01*
X190230Y-145230D01*
X190857Y-145440D01*
X191405Y-145965D01*
X191640Y-146700D01*
X191483Y-147435D01*
X191092Y-147960D01*
X190622Y-148170D01*
X189838D01*
X189133Y-148485D01*
X188663Y-149115D01*
X188507Y-149850D01*
X188663Y-150585D01*
X189055Y-151110D01*
X189682Y-151425D01*
X190230Y-151530D01*
G01X196530D02*
Y-145230D01*
X195590Y-146490D01*
G01Y-151530D02*
X197470D01*
G01X201342Y-148905D02*
X201890Y-148170D01*
X202360Y-147750D01*
X202987Y-147540D01*
X203535Y-147750D01*
X203927Y-148170D01*
X204240Y-148800D01*
X204318Y-149535D01*
X204240Y-150165D01*
X203927Y-150795D01*
X203457Y-151320D01*
X202908Y-151530D01*
X202282Y-151320D01*
X201733Y-150690D01*
X201420Y-149745D01*
X201342Y-148695D01*
X201498Y-147330D01*
X201733Y-146595D01*
X202125Y-145860D01*
X202673Y-145335D01*
X203222Y-145230D01*
X203770Y-145440D01*
X204162Y-145965D01*
G01X207407Y-150270D02*
X207877Y-151005D01*
X208503Y-151425D01*
X209208Y-151530D01*
X209835Y-151425D01*
X210462Y-150900D01*
X210853Y-150270D01*
X210932Y-149640D01*
X210775Y-148905D01*
X210227Y-148380D01*
X209678Y-148170D01*
X208973D01*
G01X209678D02*
X210148Y-147855D01*
X210540Y-147330D01*
X210697Y-146700D01*
X210540Y-146070D01*
X210148Y-145545D01*
X209443Y-145230D01*
X208738Y-145335D01*
X208033Y-145755D01*
G01X220163Y-151530D02*
Y-145230D01*
X222122D01*
X222748Y-145545D01*
X223140Y-145965D01*
X223297Y-146805D01*
X223140Y-147645D01*
X222670Y-148170D01*
X222122Y-148485D01*
X220163D01*
G01X222122D02*
X223297Y-151530D01*
G01X229597D02*
X226463D01*
Y-145230D01*
X229597D01*
G01X228343Y-148275D02*
X226463D01*
G01X232372Y-145230D02*
X234330Y-151530D01*
X236288Y-145230D01*
G01X248497Y-151530D02*
X245363D01*
Y-145230D01*
X248497D01*
G01X247243Y-148275D02*
X245363D01*
G01X156122Y-76840D02*
Y-70540D01*
X159098D01*
G01X158002Y-73585D02*
X156122D01*
G01X162343Y-76840D02*
Y-70540D01*
X164302D01*
X164928Y-70855D01*
X165320Y-71275D01*
X165477Y-72115D01*
X165320Y-72955D01*
X164850Y-73480D01*
X164302Y-73795D01*
X162343D01*
G01X164302D02*
X165477Y-76840D01*
G01X168487D02*
Y-70540D01*
X170053D01*
X170680Y-70855D01*
X171150Y-71275D01*
X171542Y-71905D01*
X171855Y-72640D01*
X171933Y-73690D01*
X171855Y-74740D01*
X171542Y-75475D01*
X171150Y-76105D01*
X170680Y-76525D01*
X170053Y-76840D01*
X168487D01*
G01X174473D02*
Y-70540D01*
X176510Y-75790D01*
X178547Y-70540D01*
Y-76840D01*
G01X181792Y-74740D02*
X183828D01*
G01X187387Y-76840D02*
Y-70540D01*
G01X190363D02*
X187387Y-74425D01*
G01X190833Y-76840D02*
X188718Y-72640D01*
G01X193922Y-74215D02*
X194470Y-73480D01*
X194940Y-73060D01*
X195567Y-72850D01*
X196115Y-73060D01*
X196507Y-73480D01*
X196820Y-74110D01*
X196898Y-74845D01*
X196820Y-75475D01*
X196507Y-76105D01*
X196037Y-76630D01*
X195488Y-76840D01*
X194862Y-76630D01*
X194313Y-76000D01*
X194000Y-75055D01*
X193922Y-74005D01*
X194078Y-72640D01*
X194313Y-71905D01*
X194705Y-71170D01*
X195253Y-70645D01*
X195802Y-70540D01*
X196350Y-70750D01*
X196742Y-71275D01*
G01X202650Y-76840D02*
Y-70540D01*
X199752Y-75055D01*
X203668D01*
G01X206522Y-76840D02*
Y-70540D01*
X209498D01*
G01X208402Y-73585D02*
X206522D01*
M02*
