M48
;Layer_Color=9474304
;FILE_FORMAT=2:5
INCH,LZ
;TYPE=PLATED
T1F00S00C0.03937
%
T01
X0469597Y01663
X0479597
X0497597Y01713
Y01813
Y01913
Y02013
Y02113
Y02213
Y02313
Y02413
Y02513
Y02613
X0507597Y02513
Y02413
Y02313
Y02213
Y02113
Y02013
Y01913
Y01813
Y01713
X0479597Y02683
X0469597
X0459597
X0429597
X0419597
X0409597
X0443597Y02513
Y02313
Y02213
X0439597Y01663
X0449597
X0459597
X0429597
X0419597
X0409597
X0399597
X0389597
X0379597
X0369597
X0359597
X0349597
X0339597
X0329597
M30
